M48
; DRILL file {KiCad 8.0.0} date 2024-03-05T22:41:55-0500
; FORMAT={-:-/ absolute / metric / decimal}
; #@! TF.CreationDate,2024-03-05T22:41:55-05:00
; #@! TF.GenerationSoftware,Kicad,Pcbnew,8.0.0
; #@! TF.FileFunction,Plated,1,2,PTH
FMAT,2
METRIC
; #@! TA.AperFunction,Plated,PTH,ComponentDrill
T1C0.711
; #@! TA.AperFunction,Plated,PTH,ComponentDrill
T2C0.813
; #@! TA.AperFunction,Plated,PTH,ComponentDrill
T3C0.991
; #@! TA.AperFunction,Plated,PTH,ComponentDrill
T4C1.295
%
G90
G05
T1
X58.061Y-96.066
X58.061Y-97.336
X58.061Y-98.606
X58.25Y-116.23
X58.25Y-117.5
X58.25Y-118.77
X58.25Y-136.23
X58.25Y-137.5
X58.25Y-138.77
X58.25Y-156.25
X58.25Y-157.52
X58.25Y-158.79
X78.115Y-96.115
X78.115Y-97.385
X78.115Y-98.655
X78.23Y-116.23
X78.23Y-117.5
X78.23Y-118.77
X78.397Y-136.147
X78.397Y-137.417
X78.397Y-138.687
X78.5Y-156.23
X78.5Y-157.5
X78.5Y-158.77
X98.0Y-95.98
X98.0Y-97.25
X98.0Y-98.52
X98.0Y-115.98
X98.0Y-117.25
X98.0Y-118.52
X98.0Y-135.98
X98.0Y-137.25
X98.0Y-138.52
X98.0Y-155.98
X98.0Y-157.25
X98.0Y-158.52
X118.0Y-95.98
X118.0Y-97.25
X118.0Y-98.52
X118.0Y-115.98
X118.0Y-117.25
X118.0Y-118.52
X118.0Y-135.98
X118.0Y-137.25
X118.0Y-138.52
X118.0Y-155.98
X118.0Y-157.25
X118.0Y-158.52
T2
X66.256Y-135.894
X66.4Y-95.5
X66.589Y-155.414
X66.717Y-115.77
X68.856Y-135.894
X69.0Y-95.5
X69.189Y-155.414
X69.317Y-115.77
X71.456Y-135.894
X71.6Y-95.5
X71.789Y-155.414
X71.917Y-115.77
X86.569Y-115.664
X86.736Y-135.914
X86.794Y-95.712
X87.179Y-155.827
X89.169Y-115.664
X89.336Y-135.914
X89.394Y-95.712
X89.779Y-155.827
X91.769Y-115.664
X91.936Y-135.914
X91.994Y-95.712
X92.379Y-155.827
X106.339Y-95.747
X106.339Y-115.684
X106.339Y-135.747
X106.339Y-155.747
X108.939Y-95.747
X108.939Y-115.684
X108.939Y-135.747
X108.939Y-155.747
X111.539Y-95.747
X111.539Y-115.684
X111.539Y-135.747
X111.539Y-155.747
X126.339Y-95.914
X126.339Y-155.184
X126.679Y-115.077
X126.679Y-135.307
X128.939Y-95.914
X128.939Y-155.184
X129.279Y-115.077
X129.279Y-135.307
X131.539Y-95.914
X131.539Y-155.184
X131.879Y-115.077
X131.879Y-135.307
T3
X65.99Y-72.69
X65.99Y-80.31
X68.53Y-72.69
X68.53Y-80.31
X71.07Y-72.69
X71.07Y-80.31
X73.61Y-72.69
X73.61Y-80.31
X76.15Y-72.69
X76.15Y-80.31
X78.69Y-72.69
X78.69Y-80.31
X81.23Y-72.69
X81.23Y-80.31
X83.77Y-72.69
X83.77Y-80.31
X86.31Y-72.69
X86.31Y-80.31
X88.85Y-72.69
X88.85Y-80.31
X91.39Y-72.69
X91.39Y-80.31
X93.93Y-72.69
X93.93Y-80.31
X96.47Y-72.69
X96.47Y-80.31
X99.01Y-72.69
X99.01Y-80.31
T4
X69.75Y-52.75
X74.75Y-52.75
X89.5Y-52.75
X94.5Y-52.75
M30
