G04 #@! TF.GenerationSoftware,KiCad,Pcbnew,8.0.0*
G04 #@! TF.CreationDate,2024-03-05T22:41:52-05:00*
G04 #@! TF.ProjectId,CANLight,43414e4c-6967-4687-942e-6b696361645f,rev?*
G04 #@! TF.SameCoordinates,Original*
G04 #@! TF.FileFunction,Soldermask,Bot*
G04 #@! TF.FilePolarity,Negative*
%FSLAX46Y46*%
G04 Gerber Fmt 4.6, Leading zero omitted, Abs format (unit mm)*
G04 Created by KiCad (PCBNEW 8.0.0) date 2024-03-05 22:41:52*
%MOMM*%
%LPD*%
G01*
G04 APERTURE LIST*
%ADD10C,1.320800*%
%ADD11R,1.320800X1.320800*%
%ADD12R,0.965200X0.965200*%
%ADD13C,0.965200*%
%ADD14R,1.498600X1.498600*%
%ADD15C,1.498600*%
%ADD16C,1.803400*%
G04 APERTURE END LIST*
D10*
X66716750Y-115770000D03*
X69316750Y-115770000D03*
D11*
X71916750Y-115770000D03*
D12*
X118000000Y-155980000D03*
D13*
X118000000Y-157250000D03*
X118000000Y-158520000D03*
D12*
X78396750Y-136146750D03*
D13*
X78396750Y-137416750D03*
X78396750Y-138686750D03*
D12*
X58250000Y-116230000D03*
D13*
X58250000Y-117500000D03*
X58250000Y-118770000D03*
D10*
X86793900Y-95712100D03*
X89393900Y-95712100D03*
D11*
X91993900Y-95712100D03*
X71456200Y-135893550D03*
D10*
X68856200Y-135893550D03*
X66256200Y-135893550D03*
X66400000Y-95500000D03*
X69000000Y-95500000D03*
D11*
X71600000Y-95500000D03*
D14*
X99010000Y-72690000D03*
D15*
X96470000Y-72690000D03*
X93930000Y-72690000D03*
X91390000Y-72690000D03*
X88850000Y-72690000D03*
X86310000Y-72690000D03*
X83770000Y-72690000D03*
X81230000Y-72690000D03*
X78690000Y-72690000D03*
X76150000Y-72690000D03*
X73610000Y-72690000D03*
X71070000Y-72690000D03*
X68530000Y-72690000D03*
X65990000Y-72690000D03*
X65990000Y-80310000D03*
X68530000Y-80310000D03*
X71070000Y-80310000D03*
X73610000Y-80310000D03*
X76150000Y-80310000D03*
X78690000Y-80310000D03*
X81230000Y-80310000D03*
X83770000Y-80310000D03*
X86310000Y-80310000D03*
X88850000Y-80310000D03*
X91390000Y-80310000D03*
X93930000Y-80310000D03*
X96470000Y-80310000D03*
X99010000Y-80310000D03*
D12*
X78115000Y-96115000D03*
D13*
X78115000Y-97385000D03*
X78115000Y-98655000D03*
D12*
X98000000Y-155980000D03*
D13*
X98000000Y-157250000D03*
X98000000Y-158520000D03*
D12*
X118000000Y-115980000D03*
D13*
X118000000Y-117250000D03*
X118000000Y-118520000D03*
D10*
X106339450Y-95746800D03*
X108939450Y-95746800D03*
D11*
X111539450Y-95746800D03*
D12*
X78230000Y-116230000D03*
D13*
X78230000Y-117500000D03*
X78230000Y-118770000D03*
D12*
X78500000Y-156230000D03*
D13*
X78500000Y-157500000D03*
X78500000Y-158770000D03*
D12*
X98000000Y-135980000D03*
D13*
X98000000Y-137250000D03*
X98000000Y-138520000D03*
D10*
X66589450Y-155413550D03*
X69189450Y-155413550D03*
D11*
X71789450Y-155413550D03*
D10*
X86569450Y-115663550D03*
X89169450Y-115663550D03*
D11*
X91769450Y-115663550D03*
D12*
X118000000Y-95980000D03*
D13*
X118000000Y-97250000D03*
X118000000Y-98520000D03*
D10*
X126678900Y-135307100D03*
X129278900Y-135307100D03*
D11*
X131878900Y-135307100D03*
D12*
X118000000Y-135980000D03*
D13*
X118000000Y-137250000D03*
X118000000Y-138520000D03*
X98000000Y-118520000D03*
X98000000Y-117250000D03*
D12*
X98000000Y-115980000D03*
X58250000Y-156250000D03*
D13*
X58250000Y-157520000D03*
X58250000Y-158790000D03*
D10*
X106339450Y-155746800D03*
X108939450Y-155746800D03*
D11*
X111539450Y-155746800D03*
D10*
X106339450Y-135746800D03*
X108939450Y-135746800D03*
D11*
X111539450Y-135746800D03*
D10*
X126678900Y-115077100D03*
X129278900Y-115077100D03*
D11*
X131878900Y-115077100D03*
D13*
X58250000Y-138770000D03*
X58250000Y-137500000D03*
D12*
X58250000Y-136230000D03*
X58060550Y-96066450D03*
D13*
X58060550Y-97336450D03*
X58060550Y-98606450D03*
D10*
X126339450Y-95913550D03*
X128939450Y-95913550D03*
D11*
X131539450Y-95913550D03*
D10*
X86736200Y-135913550D03*
X89336200Y-135913550D03*
D11*
X91936200Y-135913550D03*
D12*
X98000000Y-95980000D03*
D13*
X98000000Y-97250000D03*
X98000000Y-98520000D03*
D10*
X87178900Y-155827100D03*
X89778900Y-155827100D03*
D11*
X92378900Y-155827100D03*
X111539450Y-115683550D03*
D10*
X108939450Y-115683550D03*
X106339450Y-115683550D03*
X126339450Y-155183550D03*
X128939450Y-155183550D03*
D11*
X131539450Y-155183550D03*
D16*
X89500000Y-52750000D03*
X94500000Y-52750000D03*
X69750000Y-52750000D03*
X74750000Y-52750000D03*
M02*
