G04 #@! TF.GenerationSoftware,KiCad,Pcbnew,8.0.0*
G04 #@! TF.CreationDate,2024-03-05T22:41:52-05:00*
G04 #@! TF.ProjectId,CANLight,43414e4c-6967-4687-942e-6b696361645f,rev?*
G04 #@! TF.SameCoordinates,Original*
G04 #@! TF.FileFunction,Copper,L1,Top*
G04 #@! TF.FilePolarity,Positive*
%FSLAX46Y46*%
G04 Gerber Fmt 4.6, Leading zero omitted, Abs format (unit mm)*
G04 Created by KiCad (PCBNEW 8.0.0) date 2024-03-05 22:41:52*
%MOMM*%
%LPD*%
G01*
G04 APERTURE LIST*
G04 Aperture macros list*
%AMRoundRect*
0 Rectangle with rounded corners*
0 $1 Rounding radius*
0 $2 $3 $4 $5 $6 $7 $8 $9 X,Y pos of 4 corners*
0 Add a 4 corners polygon primitive as box body*
4,1,4,$2,$3,$4,$5,$6,$7,$8,$9,$2,$3,0*
0 Add four circle primitives for the rounded corners*
1,1,$1+$1,$2,$3*
1,1,$1+$1,$4,$5*
1,1,$1+$1,$6,$7*
1,1,$1+$1,$8,$9*
0 Add four rect primitives between the rounded corners*
20,1,$1+$1,$2,$3,$4,$5,0*
20,1,$1+$1,$4,$5,$6,$7,0*
20,1,$1+$1,$6,$7,$8,$9,0*
20,1,$1+$1,$8,$9,$2,$3,0*%
G04 Aperture macros list end*
G04 #@! TA.AperFunction,SMDPad,CuDef*
%ADD10RoundRect,0.250000X0.262500X0.450000X-0.262500X0.450000X-0.262500X-0.450000X0.262500X-0.450000X0*%
G04 #@! TD*
G04 #@! TA.AperFunction,ComponentPad*
%ADD11C,1.320800*%
G04 #@! TD*
G04 #@! TA.AperFunction,ComponentPad*
%ADD12R,1.320800X1.320800*%
G04 #@! TD*
G04 #@! TA.AperFunction,ComponentPad*
%ADD13R,0.965200X0.965200*%
G04 #@! TD*
G04 #@! TA.AperFunction,ComponentPad*
%ADD14C,0.965200*%
G04 #@! TD*
G04 #@! TA.AperFunction,SMDPad,CuDef*
%ADD15RoundRect,0.250000X0.250000X0.475000X-0.250000X0.475000X-0.250000X-0.475000X0.250000X-0.475000X0*%
G04 #@! TD*
G04 #@! TA.AperFunction,SMDPad,CuDef*
%ADD16R,1.500000X0.900000*%
G04 #@! TD*
G04 #@! TA.AperFunction,SMDPad,CuDef*
%ADD17R,1.500000X3.200000*%
G04 #@! TD*
G04 #@! TA.AperFunction,ComponentPad*
%ADD18R,1.498600X1.498600*%
G04 #@! TD*
G04 #@! TA.AperFunction,ComponentPad*
%ADD19C,1.498600*%
G04 #@! TD*
G04 #@! TA.AperFunction,SMDPad,CuDef*
%ADD20RoundRect,0.250000X-0.450000X0.262500X-0.450000X-0.262500X0.450000X-0.262500X0.450000X0.262500X0*%
G04 #@! TD*
G04 #@! TA.AperFunction,SMDPad,CuDef*
%ADD21RoundRect,0.250000X-0.475000X0.250000X-0.475000X-0.250000X0.475000X-0.250000X0.475000X0.250000X0*%
G04 #@! TD*
G04 #@! TA.AperFunction,ComponentPad*
%ADD22C,1.803400*%
G04 #@! TD*
G04 #@! TA.AperFunction,Conductor*
%ADD23C,0.200000*%
G04 #@! TD*
G04 APERTURE END LIST*
D10*
X84642500Y-118000000D03*
X82817500Y-118000000D03*
D11*
X66716750Y-115770000D03*
X69316750Y-115770000D03*
D12*
X71916750Y-115770000D03*
D10*
X64662500Y-157750000D03*
X62837500Y-157750000D03*
X127912500Y-139980000D03*
X126087500Y-139980000D03*
X127912500Y-160020000D03*
X126087500Y-160020000D03*
D13*
X118000000Y-155980000D03*
D14*
X118000000Y-157250000D03*
X118000000Y-158520000D03*
D13*
X78396750Y-136146750D03*
D14*
X78396750Y-137416750D03*
X78396750Y-138686750D03*
D15*
X66700000Y-65750000D03*
X64800000Y-65750000D03*
D10*
X62504250Y-134730000D03*
X64329250Y-134730000D03*
X104412500Y-158083250D03*
X102587500Y-158083250D03*
X124412500Y-137480000D03*
X122587500Y-137480000D03*
X84642500Y-114500000D03*
X82817500Y-114500000D03*
D13*
X58250000Y-116230000D03*
D14*
X58250000Y-117500000D03*
X58250000Y-118770000D03*
D16*
X69000000Y-60950000D03*
X69000000Y-63250000D03*
X69000000Y-65550000D03*
D17*
X75500000Y-63250000D03*
D10*
X124500000Y-113750000D03*
X122675000Y-113750000D03*
X88142500Y-120500000D03*
X86317500Y-120500000D03*
D11*
X86793900Y-95712100D03*
X89393900Y-95712100D03*
D12*
X91993900Y-95712100D03*
D10*
X88309250Y-140750000D03*
X86484250Y-140750000D03*
D12*
X71456200Y-135893550D03*
D11*
X68856200Y-135893550D03*
X66256200Y-135893550D03*
D10*
X84912500Y-154500000D03*
X83087500Y-154500000D03*
D11*
X66400000Y-95500000D03*
X69000000Y-95500000D03*
D12*
X71600000Y-95500000D03*
D18*
X99010000Y-72690000D03*
D19*
X96470000Y-72690000D03*
X93930000Y-72690000D03*
X91390000Y-72690000D03*
X88850000Y-72690000D03*
X86310000Y-72690000D03*
X83770000Y-72690000D03*
X81230000Y-72690000D03*
X78690000Y-72690000D03*
X76150000Y-72690000D03*
X73610000Y-72690000D03*
X71070000Y-72690000D03*
X68530000Y-72690000D03*
X65990000Y-72690000D03*
X65990000Y-80310000D03*
X68530000Y-80310000D03*
X71070000Y-80310000D03*
X73610000Y-80310000D03*
X76150000Y-80310000D03*
X78690000Y-80310000D03*
X81230000Y-80310000D03*
X83770000Y-80310000D03*
X86310000Y-80310000D03*
X88850000Y-80310000D03*
X91390000Y-80310000D03*
X93930000Y-80310000D03*
X96470000Y-80310000D03*
X99010000Y-80310000D03*
D13*
X78115000Y-96115000D03*
D14*
X78115000Y-97385000D03*
X78115000Y-98655000D03*
D13*
X98000000Y-155980000D03*
D14*
X98000000Y-157250000D03*
X98000000Y-158520000D03*
D10*
X84809250Y-134750000D03*
X82984250Y-134750000D03*
D13*
X118000000Y-115980000D03*
D14*
X118000000Y-117250000D03*
X118000000Y-118520000D03*
D11*
X106339450Y-95746800D03*
X108939450Y-95746800D03*
D12*
X111539450Y-95746800D03*
D13*
X78230000Y-116230000D03*
D14*
X78230000Y-117500000D03*
X78230000Y-118770000D03*
D13*
X78500000Y-156230000D03*
D14*
X78500000Y-157500000D03*
X78500000Y-158770000D03*
D10*
X124412500Y-133980000D03*
X122587500Y-133980000D03*
D13*
X98000000Y-135980000D03*
D14*
X98000000Y-137250000D03*
X98000000Y-138520000D03*
D11*
X66589450Y-155413550D03*
X69189450Y-155413550D03*
D12*
X71789450Y-155413550D03*
D11*
X86569450Y-115663550D03*
X89169450Y-115663550D03*
D12*
X91769450Y-115663550D03*
D10*
X64662500Y-154250000D03*
X62837500Y-154250000D03*
X84912500Y-158000000D03*
X83087500Y-158000000D03*
D13*
X118000000Y-95980000D03*
D14*
X118000000Y-97250000D03*
X118000000Y-98520000D03*
D10*
X127412500Y-100750000D03*
X125587500Y-100750000D03*
D11*
X126678900Y-135307100D03*
X129278900Y-135307100D03*
D12*
X131878900Y-135307100D03*
D10*
X124412500Y-157520000D03*
X122587500Y-157520000D03*
D13*
X118000000Y-135980000D03*
D14*
X118000000Y-137250000D03*
X118000000Y-138520000D03*
D10*
X67473050Y-100336450D03*
X65648050Y-100336450D03*
D20*
X62750000Y-85087500D03*
X62750000Y-86912500D03*
D10*
X104412500Y-98083250D03*
X102587500Y-98083250D03*
X67629250Y-120606450D03*
X65804250Y-120606450D03*
X67912500Y-85250000D03*
X66087500Y-85250000D03*
X64473050Y-97836450D03*
X62648050Y-97836450D03*
X124412500Y-117250000D03*
X122587500Y-117250000D03*
X102587500Y-114520000D03*
X104412500Y-114520000D03*
X124412500Y-98250000D03*
X122587500Y-98250000D03*
X124412500Y-94750000D03*
X122587500Y-94750000D03*
X104412500Y-94583250D03*
X102587500Y-94583250D03*
D14*
X98000000Y-118520000D03*
X98000000Y-117250000D03*
D13*
X98000000Y-115980000D03*
D10*
X84527500Y-94885000D03*
X82702500Y-94885000D03*
X65504250Y-140730000D03*
X67329250Y-140730000D03*
X107912500Y-100583250D03*
X106087500Y-100583250D03*
D13*
X58250000Y-156250000D03*
D14*
X58250000Y-157520000D03*
X58250000Y-158790000D03*
D10*
X64629250Y-114606450D03*
X62804250Y-114606450D03*
X104412500Y-138083250D03*
X102587500Y-138083250D03*
X84527500Y-98385000D03*
X82702500Y-98385000D03*
D11*
X106339450Y-155746800D03*
X108939450Y-155746800D03*
D12*
X111539450Y-155746800D03*
D11*
X106339450Y-135746800D03*
X108939450Y-135746800D03*
D12*
X111539450Y-135746800D03*
D10*
X62504250Y-138230000D03*
X64329250Y-138230000D03*
X88412500Y-160500000D03*
X86587500Y-160500000D03*
D21*
X66250000Y-60800000D03*
X66250000Y-62700000D03*
D11*
X126678900Y-115077100D03*
X129278900Y-115077100D03*
D12*
X131878900Y-115077100D03*
D10*
X68162500Y-160250000D03*
X66337500Y-160250000D03*
D14*
X58250000Y-138770000D03*
X58250000Y-137500000D03*
D13*
X58250000Y-136230000D03*
D10*
X106087500Y-120520000D03*
X107912500Y-120520000D03*
X64473050Y-94336450D03*
X62648050Y-94336450D03*
X107912500Y-160583250D03*
X106087500Y-160583250D03*
X127912500Y-119750000D03*
X126087500Y-119750000D03*
D13*
X58060550Y-96066450D03*
D14*
X58060550Y-97336450D03*
X58060550Y-98606450D03*
D10*
X64629250Y-118106450D03*
X62804250Y-118106450D03*
X104412500Y-134583250D03*
X102587500Y-134583250D03*
D11*
X126339450Y-95913550D03*
X128939450Y-95913550D03*
D12*
X131539450Y-95913550D03*
D11*
X86736200Y-135913550D03*
X89336200Y-135913550D03*
D12*
X91936200Y-135913550D03*
D10*
X104412500Y-154583250D03*
X102587500Y-154583250D03*
X84809250Y-138250000D03*
X82984250Y-138250000D03*
X88527500Y-100385000D03*
X86702500Y-100385000D03*
X124412500Y-154020000D03*
X122587500Y-154020000D03*
D13*
X98000000Y-95980000D03*
D14*
X98000000Y-97250000D03*
X98000000Y-98520000D03*
D10*
X107412500Y-140583250D03*
X105587500Y-140583250D03*
D11*
X87178900Y-155827100D03*
X89778900Y-155827100D03*
D12*
X92378900Y-155827100D03*
X111539450Y-115683550D03*
D11*
X108939450Y-115683550D03*
X106339450Y-115683550D03*
X126339450Y-155183550D03*
X128939450Y-155183550D03*
D12*
X131539450Y-155183550D03*
D22*
X89500000Y-52750000D03*
X94500000Y-52750000D03*
X69750000Y-52750000D03*
X74750000Y-52750000D03*
D10*
X102587500Y-118020000D03*
X104412500Y-118020000D03*
D23*
X75500000Y-63250000D02*
X69000000Y-63250000D01*
X75500000Y-53500000D02*
X74750000Y-52750000D01*
X75500000Y-63250000D02*
X75500000Y-53500000D01*
X72560700Y-73739300D02*
X73610000Y-72690000D01*
X68095365Y-73739300D02*
X72560700Y-73739300D01*
X67480700Y-73124635D02*
X68095365Y-73739300D01*
X67480700Y-67069300D02*
X67480700Y-73124635D01*
X69000000Y-65550000D02*
X67480700Y-67069300D01*
X69010000Y-72690000D02*
X68530000Y-72690000D01*
X76550000Y-65150000D02*
X69010000Y-72690000D01*
X88951700Y-51548300D02*
X76550000Y-63950000D01*
X93298300Y-51548300D02*
X88951700Y-51548300D01*
X76550000Y-63950000D02*
X76550000Y-65150000D01*
X94500000Y-52750000D02*
X93298300Y-51548300D01*
X89500000Y-54260000D02*
X71070000Y-72690000D01*
X89500000Y-52750000D02*
X89500000Y-54260000D01*
X62912500Y-85250000D02*
X62750000Y-85087500D01*
X66087500Y-85250000D02*
X62912500Y-85250000D01*
X67912500Y-80927500D02*
X68530000Y-80310000D01*
X67912500Y-85250000D02*
X67912500Y-80927500D01*
X62750000Y-83550000D02*
X65990000Y-80310000D01*
X62750000Y-85087500D02*
X62750000Y-83550000D01*
X59724100Y-99000000D02*
X58060550Y-97336450D01*
X62981744Y-99000000D02*
X59724100Y-99000000D01*
X63500000Y-98481744D02*
X62981744Y-99000000D01*
X63500000Y-96685644D02*
X63500000Y-98481744D01*
X61835550Y-87826950D02*
X61835550Y-95021194D01*
X61835550Y-95021194D02*
X63500000Y-96685644D01*
X62750000Y-86912500D02*
X61835550Y-87826950D01*
X62648050Y-94336450D02*
X64473050Y-96161450D01*
X64473050Y-96161450D02*
X64473050Y-97836450D01*
X136750000Y-139857500D02*
X122587500Y-154020000D01*
X136750000Y-98071928D02*
X136750000Y-139857500D01*
X107278073Y-68600001D02*
X136750000Y-98071928D01*
X80239999Y-68600001D02*
X107278073Y-68600001D01*
X76150000Y-72690000D02*
X80239999Y-68600001D01*
X102587500Y-81347500D02*
X102587500Y-94583250D01*
X93930000Y-72690000D02*
X102587500Y-81347500D01*
X107185256Y-110250000D02*
X102915256Y-114520000D01*
X115000000Y-110250000D02*
X107185256Y-110250000D01*
X99890700Y-71640700D02*
X115000000Y-86750000D01*
X115000000Y-86750000D02*
X115000000Y-110250000D01*
X92439300Y-71640700D02*
X99890700Y-71640700D01*
X115800000Y-141370750D02*
X102587500Y-154583250D01*
X100222072Y-70840700D02*
X115800000Y-86418630D01*
X88159300Y-70840700D02*
X100222072Y-70840700D01*
X86310000Y-72690000D02*
X88159300Y-70840700D01*
X102915256Y-114520000D02*
X102587500Y-114520000D01*
X115400000Y-121770750D02*
X102587500Y-134583250D01*
X115400000Y-86584315D02*
X115400000Y-121770750D01*
X100056386Y-71240700D02*
X115400000Y-86584315D01*
X90299300Y-71240700D02*
X100056386Y-71240700D01*
X88850000Y-72690000D02*
X90299300Y-71240700D01*
X122587500Y-86956128D02*
X122587500Y-94750000D01*
X86659999Y-69800001D02*
X105431373Y-69800001D01*
X83770000Y-72690000D02*
X86659999Y-69800001D01*
X91390000Y-72690000D02*
X92439300Y-71640700D01*
X115800000Y-86418630D02*
X115800000Y-141370750D01*
X136150000Y-120417500D02*
X122587500Y-133980000D01*
X136150000Y-98037614D02*
X136150000Y-120417500D01*
X107112387Y-69000001D02*
X136150000Y-98037614D01*
X78690000Y-72690000D02*
X82379999Y-69000001D01*
X82379999Y-69000001D02*
X107112387Y-69000001D01*
X129899850Y-92353150D02*
X129899850Y-106525150D01*
X106946701Y-69400001D02*
X129899850Y-92353150D01*
X84519999Y-69400001D02*
X106946701Y-69400001D01*
X81230000Y-72690000D02*
X84519999Y-69400001D01*
X129899850Y-106525150D02*
X122675000Y-113750000D01*
X105431373Y-69800001D02*
X122587500Y-86956128D01*
X83087500Y-147468994D02*
X83087500Y-154500000D01*
X96470000Y-134086494D02*
X83087500Y-147468994D01*
X96470000Y-80310000D02*
X96470000Y-134086494D01*
X93930000Y-123804250D02*
X82984250Y-134750000D01*
X93930000Y-80310000D02*
X93930000Y-123804250D01*
X92954300Y-104363200D02*
X82817500Y-114500000D01*
X91390000Y-80310000D02*
X92954300Y-81874300D01*
X92954300Y-81874300D02*
X92954300Y-104363200D01*
X88850000Y-88737500D02*
X82702500Y-94885000D01*
X88850000Y-80310000D02*
X88850000Y-88737500D01*
X56250000Y-147662500D02*
X62837500Y-154250000D01*
X56250000Y-87250000D02*
X56250000Y-147662500D01*
X84460700Y-78460700D02*
X65039300Y-78460700D01*
X65039300Y-78460700D02*
X56250000Y-87250000D01*
X86310000Y-80310000D02*
X84460700Y-78460700D01*
X56750000Y-128975750D02*
X62504250Y-134730000D01*
X56750000Y-87500379D02*
X56750000Y-128975750D01*
X65389679Y-78860700D02*
X56750000Y-87500379D01*
X82320700Y-78860700D02*
X65389679Y-78860700D01*
X83770000Y-80310000D02*
X82320700Y-78860700D01*
X57250000Y-109052200D02*
X62804250Y-114606450D01*
X65555365Y-79260700D02*
X57250000Y-87566065D01*
X57250000Y-87566065D02*
X57250000Y-109052200D01*
X80180700Y-79260700D02*
X65555365Y-79260700D01*
X81230000Y-80310000D02*
X80180700Y-79260700D01*
X66367756Y-90616744D02*
X62648050Y-94336450D01*
X68383256Y-90616744D02*
X66367756Y-90616744D01*
X78690000Y-80310000D02*
X68383256Y-90616744D01*
X69750000Y-53250000D02*
X69000000Y-54000000D01*
X68850000Y-60800000D02*
X69000000Y-60950000D01*
X69750000Y-52750000D02*
X69750000Y-53250000D01*
X69000000Y-54000000D02*
X69000000Y-60950000D01*
X66250000Y-60800000D02*
X68850000Y-60800000D01*
X67300000Y-63250000D02*
X69000000Y-63250000D01*
X64800000Y-65750000D02*
X67300000Y-63250000D01*
X68450000Y-62700000D02*
X69000000Y-63250000D01*
X66250000Y-62700000D02*
X68450000Y-62700000D01*
X68800000Y-65750000D02*
X69000000Y-65550000D01*
X66700000Y-65750000D02*
X68800000Y-65750000D01*
X65648050Y-100336450D02*
X59790550Y-100336450D01*
X59790550Y-100336450D02*
X58060550Y-98606450D01*
X58060550Y-96066450D02*
X60878050Y-96066450D01*
X60878050Y-96066450D02*
X62648050Y-97836450D01*
X58250000Y-116230000D02*
X60927800Y-116230000D01*
X60927800Y-116230000D02*
X62804250Y-118106450D01*
X60086450Y-120606450D02*
X58250000Y-118770000D01*
X65804250Y-120606450D02*
X60086450Y-120606450D01*
X58250000Y-138770000D02*
X60210000Y-140730000D01*
X60210000Y-140730000D02*
X65504250Y-140730000D01*
X60250000Y-138230000D02*
X58250000Y-136230000D01*
X62504250Y-138230000D02*
X60250000Y-138230000D01*
X64877500Y-158790000D02*
X66337500Y-160250000D01*
X58250000Y-158790000D02*
X64877500Y-158790000D01*
X59750000Y-157750000D02*
X58250000Y-156250000D01*
X62837500Y-157750000D02*
X59750000Y-157750000D01*
X80385000Y-98385000D02*
X78115000Y-96115000D01*
X82702500Y-98385000D02*
X80385000Y-98385000D01*
X79845000Y-100385000D02*
X78115000Y-98655000D01*
X86702500Y-100385000D02*
X79845000Y-100385000D01*
X82817500Y-118000000D02*
X80000000Y-118000000D01*
X80000000Y-118000000D02*
X78230000Y-116230000D01*
X78230000Y-118770000D02*
X79960000Y-120500000D01*
X79960000Y-120500000D02*
X86317500Y-120500000D01*
X78396750Y-138686750D02*
X80460000Y-140750000D01*
X80460000Y-140750000D02*
X86484250Y-140750000D01*
X80500000Y-138250000D02*
X78396750Y-136146750D01*
X82984250Y-138250000D02*
X80500000Y-138250000D01*
X78500000Y-156230000D02*
X81317500Y-156230000D01*
X81317500Y-156230000D02*
X83087500Y-158000000D01*
X78500000Y-158770000D02*
X80230000Y-160500000D01*
X80230000Y-160500000D02*
X86587500Y-160500000D01*
X100103250Y-98083250D02*
X98000000Y-95980000D01*
X102587500Y-98083250D02*
X100103250Y-98083250D01*
X98000000Y-98520000D02*
X100063250Y-100583250D01*
X100063250Y-100583250D02*
X106087500Y-100583250D01*
X100547500Y-115980000D02*
X102587500Y-118020000D01*
X98000000Y-115980000D02*
X100547500Y-115980000D01*
X98000000Y-118520000D02*
X100000000Y-120520000D01*
X100000000Y-120520000D02*
X106087500Y-120520000D01*
X98000000Y-135980000D02*
X100484250Y-135980000D01*
X100484250Y-135980000D02*
X102587500Y-138083250D01*
X100063250Y-140583250D02*
X105587500Y-140583250D01*
X98000000Y-138520000D02*
X100063250Y-140583250D01*
X98000000Y-155980000D02*
X100484250Y-155980000D01*
X100484250Y-155980000D02*
X102587500Y-158083250D01*
X98000000Y-158520000D02*
X100063250Y-160583250D01*
X100063250Y-160583250D02*
X106087500Y-160583250D01*
X120270000Y-98250000D02*
X118000000Y-95980000D01*
X122587500Y-98250000D02*
X120270000Y-98250000D01*
X118000000Y-98520000D02*
X120230000Y-100750000D01*
X120230000Y-100750000D02*
X125587500Y-100750000D01*
X118000000Y-115980000D02*
X121317500Y-115980000D01*
X121317500Y-115980000D02*
X122587500Y-117250000D01*
X118000000Y-118520000D02*
X124857500Y-118520000D01*
X124857500Y-118520000D02*
X126087500Y-119750000D01*
X118000000Y-138520000D02*
X124627500Y-138520000D01*
X124627500Y-138520000D02*
X126087500Y-139980000D01*
X122587500Y-137480000D02*
X119500000Y-137480000D01*
X119500000Y-137480000D02*
X118000000Y-135980000D01*
X121047500Y-155980000D02*
X122587500Y-157520000D01*
X118000000Y-155980000D02*
X121047500Y-155980000D01*
X118000000Y-158520000D02*
X124587500Y-158520000D01*
X124587500Y-158520000D02*
X126087500Y-160020000D01*
X66400000Y-95500000D02*
X67473050Y-96573050D01*
X67473050Y-96573050D02*
X67473050Y-100336450D01*
X67836450Y-94336450D02*
X69000000Y-95500000D01*
X64473050Y-94336450D02*
X67836450Y-94336450D01*
X64629250Y-114606450D02*
X68153200Y-114606450D01*
X68153200Y-114606450D02*
X69316750Y-115770000D01*
X67629250Y-116682500D02*
X66716750Y-115770000D01*
X67629250Y-120606450D02*
X67629250Y-116682500D01*
X67329250Y-136966600D02*
X67329250Y-140730000D01*
X66256200Y-135893550D02*
X67329250Y-136966600D01*
X64329250Y-134730000D02*
X67692650Y-134730000D01*
X67692650Y-134730000D02*
X68856200Y-135893550D01*
X68162500Y-156986600D02*
X66589450Y-155413550D01*
X68162500Y-160250000D02*
X68162500Y-156986600D01*
X68025900Y-154250000D02*
X69189450Y-155413550D01*
X64662500Y-154250000D02*
X68025900Y-154250000D01*
X86793900Y-98651400D02*
X88527500Y-100385000D01*
X86793900Y-95712100D02*
X86793900Y-98651400D01*
X84527500Y-94885000D02*
X84660800Y-94751700D01*
X84660800Y-94751700D02*
X88433500Y-94751700D01*
X88433500Y-94751700D02*
X89393900Y-95712100D01*
X88142500Y-120500000D02*
X88142500Y-117236600D01*
X88142500Y-117236600D02*
X86569450Y-115663550D01*
X84642500Y-114500000D02*
X88005900Y-114500000D01*
X88005900Y-114500000D02*
X89169450Y-115663550D01*
X88309250Y-140750000D02*
X88309250Y-137486600D01*
X88309250Y-137486600D02*
X86736200Y-135913550D01*
X89336200Y-135913550D02*
X88172650Y-134750000D01*
X88172650Y-134750000D02*
X84809250Y-134750000D01*
X88412500Y-160500000D02*
X88412500Y-157060700D01*
X88412500Y-157060700D02*
X87178900Y-155827100D01*
X84912500Y-154500000D02*
X88451800Y-154500000D01*
X88451800Y-154500000D02*
X89778900Y-155827100D01*
X104412500Y-94583250D02*
X107775900Y-94583250D01*
X107775900Y-94583250D02*
X108939450Y-95746800D01*
X106339450Y-99010200D02*
X107912500Y-100583250D01*
X106339450Y-95746800D02*
X106339450Y-99010200D01*
X106339450Y-118946950D02*
X107912500Y-120520000D01*
X106339450Y-115683550D02*
X106339450Y-118946950D01*
X107775900Y-114520000D02*
X108939450Y-115683550D01*
X104412500Y-114520000D02*
X107775900Y-114520000D01*
X107412500Y-140583250D02*
X107412500Y-136819850D01*
X107412500Y-136819850D02*
X106339450Y-135746800D01*
X104412500Y-134583250D02*
X107775900Y-134583250D01*
X107775900Y-134583250D02*
X108939450Y-135746800D01*
X107775900Y-154583250D02*
X108939450Y-155746800D01*
X104412500Y-154583250D02*
X107775900Y-154583250D01*
X107912500Y-157319850D02*
X106339450Y-155746800D01*
X107912500Y-160583250D02*
X107912500Y-157319850D01*
X126339450Y-99676950D02*
X127412500Y-100750000D01*
X126339450Y-95913550D02*
X126339450Y-99676950D01*
X127775900Y-94750000D02*
X128939450Y-95913550D01*
X124412500Y-94750000D02*
X127775900Y-94750000D01*
X126678900Y-115077100D02*
X127912500Y-116310700D01*
X127912500Y-116310700D02*
X127912500Y-119750000D01*
X124500000Y-113750000D02*
X127951800Y-113750000D01*
X127951800Y-113750000D02*
X129278900Y-115077100D01*
X124412500Y-133980000D02*
X127951800Y-133980000D01*
X127951800Y-133980000D02*
X129278900Y-135307100D01*
X126678900Y-135307100D02*
X126678900Y-138746400D01*
X126678900Y-138746400D02*
X127912500Y-139980000D01*
X127775900Y-154020000D02*
X128939450Y-155183550D01*
X124412500Y-154020000D02*
X127775900Y-154020000D01*
X126339450Y-155183550D02*
X126339450Y-158446950D01*
X126339450Y-158446950D02*
X127912500Y-160020000D01*
X62804250Y-116281450D02*
X64629250Y-118106450D01*
X62804250Y-114606450D02*
X62804250Y-116281450D01*
X64329250Y-138230000D02*
X64329250Y-136555000D01*
X64329250Y-136555000D02*
X62504250Y-134730000D01*
X62837500Y-154250000D02*
X62837500Y-155925000D01*
X62837500Y-155925000D02*
X64662500Y-157750000D01*
X84527500Y-98385000D02*
X84527500Y-96710000D01*
X84527500Y-96710000D02*
X82702500Y-94885000D01*
X82817500Y-114500000D02*
X82817500Y-116175000D01*
X82817500Y-116175000D02*
X84642500Y-118000000D01*
X82984250Y-136425000D02*
X84809250Y-138250000D01*
X82984250Y-134750000D02*
X82984250Y-136425000D01*
X83087500Y-156175000D02*
X84912500Y-158000000D01*
X83087500Y-154500000D02*
X83087500Y-156175000D01*
X102587500Y-94583250D02*
X102587500Y-96258250D01*
X102587500Y-96258250D02*
X104412500Y-98083250D01*
X102587500Y-114520000D02*
X102587500Y-116195000D01*
X102587500Y-116195000D02*
X104412500Y-118020000D01*
X104412500Y-136408250D02*
X102587500Y-134583250D01*
X104412500Y-138083250D02*
X104412500Y-136408250D01*
X102587500Y-156258250D02*
X104412500Y-158083250D01*
X102587500Y-154583250D02*
X102587500Y-156258250D01*
X122587500Y-94750000D02*
X122587500Y-96425000D01*
X122587500Y-96425000D02*
X124412500Y-98250000D01*
X124412500Y-115487500D02*
X122675000Y-113750000D01*
X124412500Y-117250000D02*
X124412500Y-115487500D01*
X124412500Y-137480000D02*
X124412500Y-135805000D01*
X124412500Y-135805000D02*
X122587500Y-133980000D01*
X124412500Y-157520000D02*
X124412500Y-155845000D01*
X124412500Y-155845000D02*
X122587500Y-154020000D01*
M02*
