G04 #@! TF.GenerationSoftware,KiCad,Pcbnew,8.0.0*
G04 #@! TF.CreationDate,2024-03-05T22:41:52-05:00*
G04 #@! TF.ProjectId,CANLight,43414e4c-6967-4687-942e-6b696361645f,rev?*
G04 #@! TF.SameCoordinates,Original*
G04 #@! TF.FileFunction,Copper,L2,Bot*
G04 #@! TF.FilePolarity,Positive*
%FSLAX46Y46*%
G04 Gerber Fmt 4.6, Leading zero omitted, Abs format (unit mm)*
G04 Created by KiCad (PCBNEW 8.0.0) date 2024-03-05 22:41:52*
%MOMM*%
%LPD*%
G01*
G04 APERTURE LIST*
G04 #@! TA.AperFunction,ComponentPad*
%ADD10C,1.320800*%
G04 #@! TD*
G04 #@! TA.AperFunction,ComponentPad*
%ADD11R,1.320800X1.320800*%
G04 #@! TD*
G04 #@! TA.AperFunction,ComponentPad*
%ADD12R,0.965200X0.965200*%
G04 #@! TD*
G04 #@! TA.AperFunction,ComponentPad*
%ADD13C,0.965200*%
G04 #@! TD*
G04 #@! TA.AperFunction,ComponentPad*
%ADD14R,1.498600X1.498600*%
G04 #@! TD*
G04 #@! TA.AperFunction,ComponentPad*
%ADD15C,1.498600*%
G04 #@! TD*
G04 #@! TA.AperFunction,ComponentPad*
%ADD16C,1.803400*%
G04 #@! TD*
G04 #@! TA.AperFunction,Conductor*
%ADD17C,0.200000*%
G04 #@! TD*
G04 APERTURE END LIST*
D10*
X66716750Y-115770000D03*
X69316750Y-115770000D03*
D11*
X71916750Y-115770000D03*
D12*
X118000000Y-155980000D03*
D13*
X118000000Y-157250000D03*
X118000000Y-158520000D03*
D12*
X78396750Y-136146750D03*
D13*
X78396750Y-137416750D03*
X78396750Y-138686750D03*
D12*
X58250000Y-116230000D03*
D13*
X58250000Y-117500000D03*
X58250000Y-118770000D03*
D10*
X86793900Y-95712100D03*
X89393900Y-95712100D03*
D11*
X91993900Y-95712100D03*
X71456200Y-135893550D03*
D10*
X68856200Y-135893550D03*
X66256200Y-135893550D03*
X66400000Y-95500000D03*
X69000000Y-95500000D03*
D11*
X71600000Y-95500000D03*
D14*
X99010000Y-72690000D03*
D15*
X96470000Y-72690000D03*
X93930000Y-72690000D03*
X91390000Y-72690000D03*
X88850000Y-72690000D03*
X86310000Y-72690000D03*
X83770000Y-72690000D03*
X81230000Y-72690000D03*
X78690000Y-72690000D03*
X76150000Y-72690000D03*
X73610000Y-72690000D03*
X71070000Y-72690000D03*
X68530000Y-72690000D03*
X65990000Y-72690000D03*
X65990000Y-80310000D03*
X68530000Y-80310000D03*
X71070000Y-80310000D03*
X73610000Y-80310000D03*
X76150000Y-80310000D03*
X78690000Y-80310000D03*
X81230000Y-80310000D03*
X83770000Y-80310000D03*
X86310000Y-80310000D03*
X88850000Y-80310000D03*
X91390000Y-80310000D03*
X93930000Y-80310000D03*
X96470000Y-80310000D03*
X99010000Y-80310000D03*
D12*
X78115000Y-96115000D03*
D13*
X78115000Y-97385000D03*
X78115000Y-98655000D03*
D12*
X98000000Y-155980000D03*
D13*
X98000000Y-157250000D03*
X98000000Y-158520000D03*
D12*
X118000000Y-115980000D03*
D13*
X118000000Y-117250000D03*
X118000000Y-118520000D03*
D10*
X106339450Y-95746800D03*
X108939450Y-95746800D03*
D11*
X111539450Y-95746800D03*
D12*
X78230000Y-116230000D03*
D13*
X78230000Y-117500000D03*
X78230000Y-118770000D03*
D12*
X78500000Y-156230000D03*
D13*
X78500000Y-157500000D03*
X78500000Y-158770000D03*
D12*
X98000000Y-135980000D03*
D13*
X98000000Y-137250000D03*
X98000000Y-138520000D03*
D10*
X66589450Y-155413550D03*
X69189450Y-155413550D03*
D11*
X71789450Y-155413550D03*
D10*
X86569450Y-115663550D03*
X89169450Y-115663550D03*
D11*
X91769450Y-115663550D03*
D12*
X118000000Y-95980000D03*
D13*
X118000000Y-97250000D03*
X118000000Y-98520000D03*
D10*
X126678900Y-135307100D03*
X129278900Y-135307100D03*
D11*
X131878900Y-135307100D03*
D12*
X118000000Y-135980000D03*
D13*
X118000000Y-137250000D03*
X118000000Y-138520000D03*
X98000000Y-118520000D03*
X98000000Y-117250000D03*
D12*
X98000000Y-115980000D03*
X58250000Y-156250000D03*
D13*
X58250000Y-157520000D03*
X58250000Y-158790000D03*
D10*
X106339450Y-155746800D03*
X108939450Y-155746800D03*
D11*
X111539450Y-155746800D03*
D10*
X106339450Y-135746800D03*
X108939450Y-135746800D03*
D11*
X111539450Y-135746800D03*
D10*
X126678900Y-115077100D03*
X129278900Y-115077100D03*
D11*
X131878900Y-115077100D03*
D13*
X58250000Y-138770000D03*
X58250000Y-137500000D03*
D12*
X58250000Y-136230000D03*
X58060550Y-96066450D03*
D13*
X58060550Y-97336450D03*
X58060550Y-98606450D03*
D10*
X126339450Y-95913550D03*
X128939450Y-95913550D03*
D11*
X131539450Y-95913550D03*
D10*
X86736200Y-135913550D03*
X89336200Y-135913550D03*
D11*
X91936200Y-135913550D03*
D12*
X98000000Y-95980000D03*
D13*
X98000000Y-97250000D03*
X98000000Y-98520000D03*
D10*
X87178900Y-155827100D03*
X89778900Y-155827100D03*
D11*
X92378900Y-155827100D03*
X111539450Y-115683550D03*
D10*
X108939450Y-115683550D03*
X106339450Y-115683550D03*
X126339450Y-155183550D03*
X128939450Y-155183550D03*
D11*
X131539450Y-155183550D03*
D16*
X89500000Y-52750000D03*
X94500000Y-52750000D03*
X69750000Y-52750000D03*
X74750000Y-52750000D03*
D17*
X73610000Y-72690000D02*
X73610000Y-75230000D01*
X73610000Y-75230000D02*
X68530000Y-80310000D01*
X71600000Y-83380000D02*
X68530000Y-80310000D01*
X71600000Y-95500000D02*
X71600000Y-83380000D01*
X83336450Y-155413550D02*
X71789450Y-155413550D01*
X86250000Y-152500000D02*
X83336450Y-155413550D01*
X89051800Y-152500000D02*
X86250000Y-152500000D01*
X92378900Y-155827100D02*
X89051800Y-152500000D01*
X93456000Y-154750000D02*
X92378900Y-155827100D01*
X106750000Y-154750000D02*
X93456000Y-154750000D01*
X107746800Y-155746800D02*
X106750000Y-154750000D01*
X107746800Y-155912361D02*
X107746800Y-155746800D01*
X108541639Y-156707200D02*
X107746800Y-155912361D01*
X110579050Y-156707200D02*
X108541639Y-156707200D01*
X111539450Y-155746800D02*
X110579050Y-156707200D01*
X113063100Y-154223150D02*
X111539450Y-155746800D01*
X130579050Y-154223150D02*
X113063100Y-154223150D01*
X131539450Y-155183550D02*
X130579050Y-154223150D01*
X71916750Y-95816750D02*
X71600000Y-95500000D01*
X71916750Y-115770000D02*
X71916750Y-95816750D01*
X91993900Y-115439100D02*
X91769450Y-115663550D01*
X91993900Y-95712100D02*
X91993900Y-115439100D01*
X131539450Y-114737650D02*
X131878900Y-115077100D01*
X131539450Y-95913550D02*
X131539450Y-114737650D01*
X111539450Y-115683550D02*
X111539450Y-95746800D01*
X111539450Y-115683550D02*
X111539450Y-135746800D01*
X131878900Y-115077100D02*
X131878900Y-135307100D01*
X131539450Y-135646550D02*
X131878900Y-135307100D01*
X131539450Y-155183550D02*
X131539450Y-135646550D01*
X111539450Y-155746800D02*
X111539450Y-135746800D01*
X91936200Y-155384400D02*
X92378900Y-155827100D01*
X91936200Y-135913550D02*
X91936200Y-155384400D01*
X91769450Y-135746800D02*
X91936200Y-135913550D01*
X91769450Y-115663550D02*
X91769450Y-135746800D01*
X71456200Y-116230550D02*
X71916750Y-115770000D01*
X71456200Y-135893550D02*
X71456200Y-116230550D01*
X71456200Y-155080300D02*
X71789450Y-155413550D01*
X71456200Y-135893550D02*
X71456200Y-155080300D01*
G04 #@! TA.AperFunction,Conductor*
G36*
X137459191Y-47518907D02*
G01*
X137495155Y-47568407D01*
X137500000Y-47599000D01*
X137500000Y-167401000D01*
X137481093Y-167459191D01*
X137431593Y-167495155D01*
X137401000Y-167500000D01*
X52599000Y-167500000D01*
X52540809Y-167481093D01*
X52504845Y-167431593D01*
X52500000Y-167401000D01*
X52500000Y-158790000D01*
X57362036Y-158790000D01*
X57379338Y-158954623D01*
X57381441Y-158974623D01*
X57381441Y-158974626D01*
X57438803Y-159151162D01*
X57438809Y-159151176D01*
X57512547Y-159278893D01*
X57531622Y-159311932D01*
X57655836Y-159449886D01*
X57806018Y-159558999D01*
X57806022Y-159559000D01*
X57806024Y-159559002D01*
X57862146Y-159583989D01*
X57975604Y-159634504D01*
X58157182Y-159673100D01*
X58157185Y-159673100D01*
X58342815Y-159673100D01*
X58342818Y-159673100D01*
X58524396Y-159634504D01*
X58693982Y-159558999D01*
X58844164Y-159449886D01*
X58968378Y-159311932D01*
X59061195Y-159151167D01*
X59096689Y-159041929D01*
X59118558Y-158974626D01*
X59118558Y-158974623D01*
X59118560Y-158974618D01*
X59137964Y-158790000D01*
X59118560Y-158605382D01*
X59118558Y-158605375D01*
X59118558Y-158605373D01*
X59061196Y-158428837D01*
X59061195Y-158428833D01*
X59061192Y-158428828D01*
X59061190Y-158428823D01*
X59007236Y-158335373D01*
X58968378Y-158268068D01*
X58844164Y-158130114D01*
X58693982Y-158021001D01*
X58693979Y-158021000D01*
X58693975Y-158020997D01*
X58524398Y-157945497D01*
X58524396Y-157945496D01*
X58524393Y-157945495D01*
X58524392Y-157945495D01*
X58489857Y-157938154D01*
X58342818Y-157906900D01*
X58324355Y-157906900D01*
X58266164Y-157887993D01*
X58254352Y-157877905D01*
X58252047Y-157875600D01*
X58296816Y-157875600D01*
X58387256Y-157851366D01*
X58468343Y-157804550D01*
X58534550Y-157738343D01*
X58581366Y-157657256D01*
X58605600Y-157566816D01*
X58605600Y-157522047D01*
X58761186Y-157677633D01*
X58768891Y-157659034D01*
X58787196Y-157520000D01*
X58787196Y-157519999D01*
X58768891Y-157380964D01*
X58720307Y-157263672D01*
X58715506Y-157202675D01*
X58747476Y-157150506D01*
X58796286Y-157128005D01*
X58857899Y-157118247D01*
X58857899Y-157118246D01*
X58857904Y-157118246D01*
X58970942Y-157060650D01*
X59060650Y-156970942D01*
X59118246Y-156857904D01*
X59133100Y-156764119D01*
X59133099Y-155735882D01*
X59133099Y-155735881D01*
X59133099Y-155735878D01*
X59133098Y-155735876D01*
X59118247Y-155642100D01*
X59118246Y-155642098D01*
X59118246Y-155642096D01*
X59060650Y-155529058D01*
X58970942Y-155439350D01*
X58920313Y-155413553D01*
X65523417Y-155413553D01*
X65543899Y-155621518D01*
X65543900Y-155621523D01*
X65604564Y-155821503D01*
X65604566Y-155821508D01*
X65703068Y-156005794D01*
X65703074Y-156005803D01*
X65703076Y-156005806D01*
X65727091Y-156035068D01*
X65835646Y-156167344D01*
X65835655Y-156167353D01*
X65874521Y-156199249D01*
X65997194Y-156299924D01*
X65997198Y-156299926D01*
X65997205Y-156299931D01*
X66181491Y-156398433D01*
X66181497Y-156398436D01*
X66320813Y-156440696D01*
X66381476Y-156459099D01*
X66381481Y-156459100D01*
X66589447Y-156479583D01*
X66589450Y-156479583D01*
X66589453Y-156479583D01*
X66797418Y-156459100D01*
X66797423Y-156459099D01*
X66997403Y-156398436D01*
X67063479Y-156363117D01*
X67181694Y-156299931D01*
X67181697Y-156299928D01*
X67181706Y-156299924D01*
X67343249Y-156167349D01*
X67475824Y-156005806D01*
X67475828Y-156005797D01*
X67475831Y-156005794D01*
X67545488Y-155875473D01*
X67574336Y-155821503D01*
X67634999Y-155621523D01*
X67635000Y-155621518D01*
X67655483Y-155413553D01*
X68123417Y-155413553D01*
X68143899Y-155621518D01*
X68143900Y-155621523D01*
X68204564Y-155821503D01*
X68204566Y-155821508D01*
X68303068Y-156005794D01*
X68303074Y-156005803D01*
X68303076Y-156005806D01*
X68327091Y-156035068D01*
X68435646Y-156167344D01*
X68435655Y-156167353D01*
X68474521Y-156199249D01*
X68597194Y-156299924D01*
X68597198Y-156299926D01*
X68597205Y-156299931D01*
X68781491Y-156398433D01*
X68781497Y-156398436D01*
X68920813Y-156440696D01*
X68981476Y-156459099D01*
X68981481Y-156459100D01*
X69189447Y-156479583D01*
X69189450Y-156479583D01*
X69189453Y-156479583D01*
X69397418Y-156459100D01*
X69397423Y-156459099D01*
X69597403Y-156398436D01*
X69663479Y-156363117D01*
X69781694Y-156299931D01*
X69781697Y-156299928D01*
X69781706Y-156299924D01*
X69943249Y-156167349D01*
X70075824Y-156005806D01*
X70075828Y-156005797D01*
X70075831Y-156005794D01*
X70145488Y-155875473D01*
X70174336Y-155821503D01*
X70234999Y-155621523D01*
X70235000Y-155621518D01*
X70255483Y-155413553D01*
X70255483Y-155413546D01*
X70235000Y-155205581D01*
X70234999Y-155205576D01*
X70206538Y-155111754D01*
X70174336Y-155005597D01*
X70174333Y-155005591D01*
X70075831Y-154821305D01*
X70075826Y-154821298D01*
X70075824Y-154821294D01*
X69995690Y-154723650D01*
X69943253Y-154659755D01*
X69943244Y-154659746D01*
X69795487Y-154538486D01*
X69781706Y-154527176D01*
X69781703Y-154527174D01*
X69781694Y-154527168D01*
X69597408Y-154428666D01*
X69597403Y-154428664D01*
X69397423Y-154368000D01*
X69397418Y-154367999D01*
X69189453Y-154347517D01*
X69189447Y-154347517D01*
X68981481Y-154367999D01*
X68981476Y-154368000D01*
X68781496Y-154428664D01*
X68781491Y-154428666D01*
X68597205Y-154527168D01*
X68597195Y-154527175D01*
X68435655Y-154659746D01*
X68435646Y-154659755D01*
X68303075Y-154821295D01*
X68303068Y-154821305D01*
X68204566Y-155005591D01*
X68204564Y-155005596D01*
X68143900Y-155205576D01*
X68143899Y-155205581D01*
X68123417Y-155413546D01*
X68123417Y-155413553D01*
X67655483Y-155413553D01*
X67655483Y-155413546D01*
X67635000Y-155205581D01*
X67634999Y-155205576D01*
X67606538Y-155111754D01*
X67574336Y-155005597D01*
X67574333Y-155005591D01*
X67475831Y-154821305D01*
X67475826Y-154821298D01*
X67475824Y-154821294D01*
X67395690Y-154723650D01*
X67343253Y-154659755D01*
X67343244Y-154659746D01*
X67195487Y-154538486D01*
X67181706Y-154527176D01*
X67181703Y-154527174D01*
X67181694Y-154527168D01*
X66997408Y-154428666D01*
X66997403Y-154428664D01*
X66797423Y-154368000D01*
X66797418Y-154367999D01*
X66589453Y-154347517D01*
X66589447Y-154347517D01*
X66381481Y-154367999D01*
X66381476Y-154368000D01*
X66181496Y-154428664D01*
X66181491Y-154428666D01*
X65997205Y-154527168D01*
X65997195Y-154527175D01*
X65835655Y-154659746D01*
X65835646Y-154659755D01*
X65703075Y-154821295D01*
X65703068Y-154821305D01*
X65604566Y-155005591D01*
X65604564Y-155005596D01*
X65543900Y-155205576D01*
X65543899Y-155205581D01*
X65523417Y-155413546D01*
X65523417Y-155413553D01*
X58920313Y-155413553D01*
X58857904Y-155381754D01*
X58857905Y-155381754D01*
X58764121Y-155366900D01*
X57735878Y-155366900D01*
X57735876Y-155366901D01*
X57642100Y-155381752D01*
X57642095Y-155381754D01*
X57529059Y-155439349D01*
X57439349Y-155529059D01*
X57381754Y-155642095D01*
X57366900Y-155735878D01*
X57366900Y-156764121D01*
X57366901Y-156764123D01*
X57381752Y-156857899D01*
X57381754Y-156857904D01*
X57439350Y-156970942D01*
X57529058Y-157060650D01*
X57642096Y-157118246D01*
X57703714Y-157128005D01*
X57758231Y-157155782D01*
X57786009Y-157210298D01*
X57779692Y-157263671D01*
X57731109Y-157380962D01*
X57731108Y-157380962D01*
X57712804Y-157519999D01*
X57712804Y-157520000D01*
X57731108Y-157659036D01*
X57731109Y-157659037D01*
X57738811Y-157677633D01*
X57894400Y-157522044D01*
X57894400Y-157566816D01*
X57918634Y-157657256D01*
X57965450Y-157738343D01*
X58031657Y-157804550D01*
X58112744Y-157851366D01*
X58203184Y-157875600D01*
X58247953Y-157875600D01*
X58245648Y-157877905D01*
X58191131Y-157905681D01*
X58175645Y-157906900D01*
X58157182Y-157906900D01*
X58041397Y-157931511D01*
X57975607Y-157945495D01*
X57975601Y-157945497D01*
X57806024Y-158020997D01*
X57806016Y-158021002D01*
X57655836Y-158130113D01*
X57531620Y-158268070D01*
X57531620Y-158268071D01*
X57438809Y-158428823D01*
X57438803Y-158428837D01*
X57381441Y-158605373D01*
X57381441Y-158605376D01*
X57381440Y-158605380D01*
X57381440Y-158605382D01*
X57362036Y-158790000D01*
X52500000Y-158790000D01*
X52500000Y-138770000D01*
X57362036Y-138770000D01*
X57381441Y-138954623D01*
X57381441Y-138954626D01*
X57438803Y-139131162D01*
X57438809Y-139131176D01*
X57512547Y-139258893D01*
X57531622Y-139291932D01*
X57655836Y-139429886D01*
X57806018Y-139538999D01*
X57806022Y-139539000D01*
X57806024Y-139539002D01*
X57862146Y-139563989D01*
X57975604Y-139614504D01*
X58157182Y-139653100D01*
X58157185Y-139653100D01*
X58342815Y-139653100D01*
X58342818Y-139653100D01*
X58524396Y-139614504D01*
X58693982Y-139538999D01*
X58844164Y-139429886D01*
X58968378Y-139291932D01*
X59061195Y-139131167D01*
X59090468Y-139041074D01*
X59118558Y-138954626D01*
X59118558Y-138954623D01*
X59118560Y-138954618D01*
X59137964Y-138770000D01*
X59118560Y-138585382D01*
X59118558Y-138585375D01*
X59118558Y-138585373D01*
X59061196Y-138408837D01*
X59061195Y-138408833D01*
X59061192Y-138408828D01*
X59061190Y-138408823D01*
X59013125Y-138325573D01*
X58968378Y-138248068D01*
X58844164Y-138110114D01*
X58693982Y-138001001D01*
X58693979Y-138001000D01*
X58693975Y-138000997D01*
X58524398Y-137925497D01*
X58524396Y-137925496D01*
X58524393Y-137925495D01*
X58524392Y-137925495D01*
X58487940Y-137917747D01*
X58342818Y-137886900D01*
X58324355Y-137886900D01*
X58266164Y-137867993D01*
X58254352Y-137857905D01*
X58252047Y-137855600D01*
X58296816Y-137855600D01*
X58387256Y-137831366D01*
X58468343Y-137784550D01*
X58534550Y-137718343D01*
X58581366Y-137637256D01*
X58605600Y-137546816D01*
X58605600Y-137502047D01*
X58761186Y-137657633D01*
X58768891Y-137639034D01*
X58787196Y-137500000D01*
X58787196Y-137499999D01*
X58768891Y-137360964D01*
X58720307Y-137243672D01*
X58715506Y-137182675D01*
X58747476Y-137130506D01*
X58796286Y-137108005D01*
X58857899Y-137098247D01*
X58857899Y-137098246D01*
X58857904Y-137098246D01*
X58970942Y-137040650D01*
X59060650Y-136950942D01*
X59118246Y-136837904D01*
X59133100Y-136744119D01*
X59133099Y-135893553D01*
X65190167Y-135893553D01*
X65210649Y-136101518D01*
X65210650Y-136101523D01*
X65271314Y-136301503D01*
X65271316Y-136301508D01*
X65369818Y-136485794D01*
X65369824Y-136485803D01*
X65369826Y-136485806D01*
X65381970Y-136500603D01*
X65502396Y-136647344D01*
X65502405Y-136647353D01*
X65541271Y-136679249D01*
X65663944Y-136779924D01*
X65663948Y-136779926D01*
X65663955Y-136779931D01*
X65828146Y-136867692D01*
X65848247Y-136878436D01*
X65980763Y-136918634D01*
X66048226Y-136939099D01*
X66048231Y-136939100D01*
X66256197Y-136959583D01*
X66256200Y-136959583D01*
X66256203Y-136959583D01*
X66464168Y-136939100D01*
X66464173Y-136939099D01*
X66485350Y-136932675D01*
X66664153Y-136878436D01*
X66786888Y-136812833D01*
X66848444Y-136779931D01*
X66848447Y-136779928D01*
X66848456Y-136779924D01*
X67009999Y-136647349D01*
X67142574Y-136485806D01*
X67142578Y-136485797D01*
X67142581Y-136485794D01*
X67219856Y-136341222D01*
X67241086Y-136301503D01*
X67301749Y-136101523D01*
X67301750Y-136101518D01*
X67322233Y-135893553D01*
X67790167Y-135893553D01*
X67810649Y-136101518D01*
X67810650Y-136101523D01*
X67871314Y-136301503D01*
X67871316Y-136301508D01*
X67969818Y-136485794D01*
X67969824Y-136485803D01*
X67969826Y-136485806D01*
X67981970Y-136500603D01*
X68102396Y-136647344D01*
X68102405Y-136647353D01*
X68141271Y-136679249D01*
X68263944Y-136779924D01*
X68263948Y-136779926D01*
X68263955Y-136779931D01*
X68428146Y-136867692D01*
X68448247Y-136878436D01*
X68580763Y-136918634D01*
X68648226Y-136939099D01*
X68648231Y-136939100D01*
X68856197Y-136959583D01*
X68856200Y-136959583D01*
X68856203Y-136959583D01*
X69064168Y-136939100D01*
X69064173Y-136939099D01*
X69085350Y-136932675D01*
X69264153Y-136878436D01*
X69386888Y-136812833D01*
X69448444Y-136779931D01*
X69448447Y-136779928D01*
X69448456Y-136779924D01*
X69609999Y-136647349D01*
X69742574Y-136485806D01*
X69742578Y-136485797D01*
X69742581Y-136485794D01*
X69819856Y-136341222D01*
X69841086Y-136301503D01*
X69901749Y-136101523D01*
X69901750Y-136101518D01*
X69922233Y-135893553D01*
X69922233Y-135893546D01*
X69901750Y-135685581D01*
X69901749Y-135685576D01*
X69857240Y-135538850D01*
X69841086Y-135485597D01*
X69809129Y-135425809D01*
X69742581Y-135301305D01*
X69742576Y-135301298D01*
X69742574Y-135301294D01*
X69671832Y-135215094D01*
X69610003Y-135139755D01*
X69609994Y-135139746D01*
X69506581Y-135054878D01*
X69448456Y-135007176D01*
X69448453Y-135007174D01*
X69448444Y-135007168D01*
X69264158Y-134908666D01*
X69264153Y-134908664D01*
X69064173Y-134848000D01*
X69064168Y-134847999D01*
X68856203Y-134827517D01*
X68856197Y-134827517D01*
X68648231Y-134847999D01*
X68648226Y-134848000D01*
X68448246Y-134908664D01*
X68448241Y-134908666D01*
X68263955Y-135007168D01*
X68263945Y-135007175D01*
X68102405Y-135139746D01*
X68102396Y-135139755D01*
X67969825Y-135301295D01*
X67969818Y-135301305D01*
X67871316Y-135485591D01*
X67871314Y-135485596D01*
X67810650Y-135685576D01*
X67810649Y-135685581D01*
X67790167Y-135893546D01*
X67790167Y-135893553D01*
X67322233Y-135893553D01*
X67322233Y-135893546D01*
X67301750Y-135685581D01*
X67301749Y-135685576D01*
X67257240Y-135538850D01*
X67241086Y-135485597D01*
X67209129Y-135425809D01*
X67142581Y-135301305D01*
X67142576Y-135301298D01*
X67142574Y-135301294D01*
X67071832Y-135215094D01*
X67010003Y-135139755D01*
X67009994Y-135139746D01*
X66906581Y-135054878D01*
X66848456Y-135007176D01*
X66848453Y-135007174D01*
X66848444Y-135007168D01*
X66664158Y-134908666D01*
X66664153Y-134908664D01*
X66464173Y-134848000D01*
X66464168Y-134847999D01*
X66256203Y-134827517D01*
X66256197Y-134827517D01*
X66048231Y-134847999D01*
X66048226Y-134848000D01*
X65848246Y-134908664D01*
X65848241Y-134908666D01*
X65663955Y-135007168D01*
X65663945Y-135007175D01*
X65502405Y-135139746D01*
X65502396Y-135139755D01*
X65369825Y-135301295D01*
X65369818Y-135301305D01*
X65271316Y-135485591D01*
X65271314Y-135485596D01*
X65210650Y-135685576D01*
X65210649Y-135685581D01*
X65190167Y-135893546D01*
X65190167Y-135893553D01*
X59133099Y-135893553D01*
X59133099Y-135715882D01*
X59133099Y-135715881D01*
X59133099Y-135715878D01*
X59133098Y-135715876D01*
X59132968Y-135715058D01*
X59119915Y-135632632D01*
X59118247Y-135622100D01*
X59118246Y-135622098D01*
X59118246Y-135622096D01*
X59060650Y-135509058D01*
X58970942Y-135419350D01*
X58857904Y-135361754D01*
X58857905Y-135361754D01*
X58764121Y-135346900D01*
X57735878Y-135346900D01*
X57735876Y-135346901D01*
X57642100Y-135361752D01*
X57642095Y-135361754D01*
X57529059Y-135419349D01*
X57439349Y-135509059D01*
X57381754Y-135622095D01*
X57366900Y-135715878D01*
X57366900Y-136744121D01*
X57366901Y-136744123D01*
X57381752Y-136837899D01*
X57381754Y-136837904D01*
X57439350Y-136950942D01*
X57529058Y-137040650D01*
X57642096Y-137098246D01*
X57703714Y-137108005D01*
X57758231Y-137135782D01*
X57786009Y-137190298D01*
X57779692Y-137243671D01*
X57731109Y-137360962D01*
X57731108Y-137360962D01*
X57712804Y-137499999D01*
X57712804Y-137500000D01*
X57731108Y-137639036D01*
X57731109Y-137639037D01*
X57738811Y-137657633D01*
X57894400Y-137502044D01*
X57894400Y-137546816D01*
X57918634Y-137637256D01*
X57965450Y-137718343D01*
X58031657Y-137784550D01*
X58112744Y-137831366D01*
X58203184Y-137855600D01*
X58247953Y-137855600D01*
X58245648Y-137857905D01*
X58191131Y-137885681D01*
X58175645Y-137886900D01*
X58157182Y-137886900D01*
X58041397Y-137911511D01*
X57975607Y-137925495D01*
X57975601Y-137925497D01*
X57806024Y-138000997D01*
X57806016Y-138001002D01*
X57655836Y-138110113D01*
X57531620Y-138248070D01*
X57531620Y-138248071D01*
X57438809Y-138408823D01*
X57438803Y-138408837D01*
X57381441Y-138585373D01*
X57381441Y-138585376D01*
X57362036Y-138770000D01*
X52500000Y-138770000D01*
X52500000Y-118770000D01*
X57362036Y-118770000D01*
X57381441Y-118954623D01*
X57381441Y-118954626D01*
X57438803Y-119131162D01*
X57438809Y-119131176D01*
X57512547Y-119258893D01*
X57531622Y-119291932D01*
X57655836Y-119429886D01*
X57806018Y-119538999D01*
X57806022Y-119539000D01*
X57806024Y-119539002D01*
X57862146Y-119563989D01*
X57975604Y-119614504D01*
X58157182Y-119653100D01*
X58157185Y-119653100D01*
X58342815Y-119653100D01*
X58342818Y-119653100D01*
X58524396Y-119614504D01*
X58693982Y-119538999D01*
X58844164Y-119429886D01*
X58968378Y-119291932D01*
X59061195Y-119131167D01*
X59090468Y-119041074D01*
X59118558Y-118954626D01*
X59118558Y-118954623D01*
X59118560Y-118954618D01*
X59137964Y-118770000D01*
X59118560Y-118585382D01*
X59118558Y-118585375D01*
X59118558Y-118585373D01*
X59061196Y-118408837D01*
X59061195Y-118408833D01*
X59061192Y-118408828D01*
X59061190Y-118408823D01*
X59013507Y-118326235D01*
X58968378Y-118248068D01*
X58844164Y-118110114D01*
X58693982Y-118001001D01*
X58693979Y-118001000D01*
X58693975Y-118000997D01*
X58524398Y-117925497D01*
X58524396Y-117925496D01*
X58524393Y-117925495D01*
X58524392Y-117925495D01*
X58489857Y-117918154D01*
X58342818Y-117886900D01*
X58324355Y-117886900D01*
X58266164Y-117867993D01*
X58254352Y-117857905D01*
X58252047Y-117855600D01*
X58296816Y-117855600D01*
X58387256Y-117831366D01*
X58468343Y-117784550D01*
X58534550Y-117718343D01*
X58581366Y-117637256D01*
X58605600Y-117546816D01*
X58605600Y-117502047D01*
X58761186Y-117657633D01*
X58768891Y-117639034D01*
X58787196Y-117500000D01*
X58787196Y-117499999D01*
X58768891Y-117360964D01*
X58720307Y-117243672D01*
X58715506Y-117182675D01*
X58747476Y-117130506D01*
X58796286Y-117108005D01*
X58857899Y-117098247D01*
X58857899Y-117098246D01*
X58857904Y-117098246D01*
X58970942Y-117040650D01*
X59060650Y-116950942D01*
X59118246Y-116837904D01*
X59133100Y-116744119D01*
X59133099Y-115770003D01*
X65650717Y-115770003D01*
X65671199Y-115977968D01*
X65671200Y-115977973D01*
X65731864Y-116177953D01*
X65731866Y-116177958D01*
X65830368Y-116362244D01*
X65830374Y-116362253D01*
X65830376Y-116362256D01*
X65841223Y-116375473D01*
X65962946Y-116523794D01*
X65962955Y-116523803D01*
X66019154Y-116569924D01*
X66124494Y-116656374D01*
X66124498Y-116656376D01*
X66124505Y-116656381D01*
X66308791Y-116754883D01*
X66308797Y-116754886D01*
X66408921Y-116785258D01*
X66508776Y-116815549D01*
X66508781Y-116815550D01*
X66716747Y-116836033D01*
X66716750Y-116836033D01*
X66716753Y-116836033D01*
X66924718Y-116815550D01*
X66924723Y-116815549D01*
X66933604Y-116812855D01*
X67124703Y-116754886D01*
X67210363Y-116709100D01*
X67308994Y-116656381D01*
X67308997Y-116656378D01*
X67309006Y-116656374D01*
X67470549Y-116523799D01*
X67603124Y-116362256D01*
X67603128Y-116362247D01*
X67603131Y-116362244D01*
X67701633Y-116177958D01*
X67701636Y-116177953D01*
X67762299Y-115977973D01*
X67762300Y-115977968D01*
X67782783Y-115770003D01*
X68250717Y-115770003D01*
X68271199Y-115977968D01*
X68271200Y-115977973D01*
X68331864Y-116177953D01*
X68331866Y-116177958D01*
X68430368Y-116362244D01*
X68430374Y-116362253D01*
X68430376Y-116362256D01*
X68441223Y-116375473D01*
X68562946Y-116523794D01*
X68562955Y-116523803D01*
X68619154Y-116569924D01*
X68724494Y-116656374D01*
X68724498Y-116656376D01*
X68724505Y-116656381D01*
X68908791Y-116754883D01*
X68908797Y-116754886D01*
X69008921Y-116785258D01*
X69108776Y-116815549D01*
X69108781Y-116815550D01*
X69316747Y-116836033D01*
X69316750Y-116836033D01*
X69316753Y-116836033D01*
X69524718Y-116815550D01*
X69524723Y-116815549D01*
X69533604Y-116812855D01*
X69724703Y-116754886D01*
X69810363Y-116709100D01*
X69908994Y-116656381D01*
X69908997Y-116656378D01*
X69909006Y-116656374D01*
X70070549Y-116523799D01*
X70203124Y-116362256D01*
X70203128Y-116362247D01*
X70203131Y-116362244D01*
X70301633Y-116177958D01*
X70301636Y-116177953D01*
X70362299Y-115977973D01*
X70362300Y-115977968D01*
X70382783Y-115770003D01*
X70382783Y-115769996D01*
X70362300Y-115562031D01*
X70362299Y-115562026D01*
X70333134Y-115465882D01*
X70301636Y-115362047D01*
X70301633Y-115362041D01*
X70203131Y-115177755D01*
X70203126Y-115177748D01*
X70203124Y-115177744D01*
X70132176Y-115091294D01*
X70070553Y-115016205D01*
X70070544Y-115016196D01*
X69940833Y-114909746D01*
X69909006Y-114883626D01*
X69909003Y-114883624D01*
X69908994Y-114883618D01*
X69724708Y-114785116D01*
X69724703Y-114785114D01*
X69524723Y-114724450D01*
X69524718Y-114724449D01*
X69316753Y-114703967D01*
X69316747Y-114703967D01*
X69108781Y-114724449D01*
X69108776Y-114724450D01*
X68908796Y-114785114D01*
X68908791Y-114785116D01*
X68724505Y-114883618D01*
X68724495Y-114883625D01*
X68562955Y-115016196D01*
X68562946Y-115016205D01*
X68430375Y-115177745D01*
X68430368Y-115177755D01*
X68331866Y-115362041D01*
X68331864Y-115362046D01*
X68271200Y-115562026D01*
X68271199Y-115562031D01*
X68250717Y-115769996D01*
X68250717Y-115770003D01*
X67782783Y-115770003D01*
X67782783Y-115769996D01*
X67762300Y-115562031D01*
X67762299Y-115562026D01*
X67733134Y-115465882D01*
X67701636Y-115362047D01*
X67701633Y-115362041D01*
X67603131Y-115177755D01*
X67603126Y-115177748D01*
X67603124Y-115177744D01*
X67532176Y-115091294D01*
X67470553Y-115016205D01*
X67470544Y-115016196D01*
X67340833Y-114909746D01*
X67309006Y-114883626D01*
X67309003Y-114883624D01*
X67308994Y-114883618D01*
X67124708Y-114785116D01*
X67124703Y-114785114D01*
X66924723Y-114724450D01*
X66924718Y-114724449D01*
X66716753Y-114703967D01*
X66716747Y-114703967D01*
X66508781Y-114724449D01*
X66508776Y-114724450D01*
X66308796Y-114785114D01*
X66308791Y-114785116D01*
X66124505Y-114883618D01*
X66124495Y-114883625D01*
X65962955Y-115016196D01*
X65962946Y-115016205D01*
X65830375Y-115177745D01*
X65830368Y-115177755D01*
X65731866Y-115362041D01*
X65731864Y-115362046D01*
X65671200Y-115562026D01*
X65671199Y-115562031D01*
X65650717Y-115769996D01*
X65650717Y-115770003D01*
X59133099Y-115770003D01*
X59133099Y-115715882D01*
X59133099Y-115715881D01*
X59133099Y-115715878D01*
X59133098Y-115715876D01*
X59118247Y-115622100D01*
X59118246Y-115622098D01*
X59118246Y-115622096D01*
X59060650Y-115509058D01*
X58970942Y-115419350D01*
X58857904Y-115361754D01*
X58857905Y-115361754D01*
X58764121Y-115346900D01*
X57735878Y-115346900D01*
X57735876Y-115346901D01*
X57642100Y-115361752D01*
X57642095Y-115361754D01*
X57529059Y-115419349D01*
X57439349Y-115509059D01*
X57381754Y-115622095D01*
X57366900Y-115715878D01*
X57366900Y-116744121D01*
X57366901Y-116744123D01*
X57381752Y-116837899D01*
X57381754Y-116837904D01*
X57439350Y-116950942D01*
X57529058Y-117040650D01*
X57642096Y-117098246D01*
X57703714Y-117108005D01*
X57758231Y-117135782D01*
X57786009Y-117190298D01*
X57779692Y-117243671D01*
X57731109Y-117360962D01*
X57731108Y-117360962D01*
X57712804Y-117499999D01*
X57712804Y-117500000D01*
X57731108Y-117639036D01*
X57731109Y-117639037D01*
X57738811Y-117657633D01*
X57894400Y-117502044D01*
X57894400Y-117546816D01*
X57918634Y-117637256D01*
X57965450Y-117718343D01*
X58031657Y-117784550D01*
X58112744Y-117831366D01*
X58203184Y-117855600D01*
X58247953Y-117855600D01*
X58245648Y-117857905D01*
X58191131Y-117885681D01*
X58175645Y-117886900D01*
X58157182Y-117886900D01*
X58041397Y-117911511D01*
X57975607Y-117925495D01*
X57975601Y-117925497D01*
X57806024Y-118000997D01*
X57806016Y-118001002D01*
X57655836Y-118110113D01*
X57531620Y-118248070D01*
X57531620Y-118248071D01*
X57438809Y-118408823D01*
X57438803Y-118408837D01*
X57381441Y-118585373D01*
X57381441Y-118585376D01*
X57362036Y-118770000D01*
X52500000Y-118770000D01*
X52500000Y-98606450D01*
X57172586Y-98606450D01*
X57182904Y-98704623D01*
X57191991Y-98791073D01*
X57191991Y-98791076D01*
X57249353Y-98967612D01*
X57249359Y-98967626D01*
X57292260Y-99041932D01*
X57342172Y-99128382D01*
X57466386Y-99266336D01*
X57616568Y-99375449D01*
X57616572Y-99375450D01*
X57616574Y-99375452D01*
X57672696Y-99400439D01*
X57786154Y-99450954D01*
X57967732Y-99489550D01*
X57967735Y-99489550D01*
X58153365Y-99489550D01*
X58153368Y-99489550D01*
X58334946Y-99450954D01*
X58504532Y-99375449D01*
X58654714Y-99266336D01*
X58778928Y-99128382D01*
X58871745Y-98967617D01*
X58901018Y-98877524D01*
X58929108Y-98791076D01*
X58929108Y-98791073D01*
X58929110Y-98791068D01*
X58948514Y-98606450D01*
X58929110Y-98421832D01*
X58929108Y-98421825D01*
X58929108Y-98421823D01*
X58871746Y-98245287D01*
X58871745Y-98245283D01*
X58871742Y-98245278D01*
X58871740Y-98245273D01*
X58806958Y-98133068D01*
X58778928Y-98084518D01*
X58654714Y-97946564D01*
X58504532Y-97837451D01*
X58504529Y-97837450D01*
X58504525Y-97837447D01*
X58334948Y-97761947D01*
X58334946Y-97761946D01*
X58334943Y-97761945D01*
X58334942Y-97761945D01*
X58283454Y-97751001D01*
X58153368Y-97723350D01*
X58134905Y-97723350D01*
X58076714Y-97704443D01*
X58064902Y-97694355D01*
X58062597Y-97692050D01*
X58107366Y-97692050D01*
X58197806Y-97667816D01*
X58278893Y-97621000D01*
X58345100Y-97554793D01*
X58391916Y-97473706D01*
X58416150Y-97383266D01*
X58416150Y-97338497D01*
X58571736Y-97494083D01*
X58579441Y-97475484D01*
X58597746Y-97336450D01*
X58597746Y-97336449D01*
X58579441Y-97197414D01*
X58530857Y-97080122D01*
X58526056Y-97019125D01*
X58558026Y-96966956D01*
X58606836Y-96944455D01*
X58668449Y-96934697D01*
X58668449Y-96934696D01*
X58668454Y-96934696D01*
X58781492Y-96877100D01*
X58871200Y-96787392D01*
X58928796Y-96674354D01*
X58943650Y-96580569D01*
X58943649Y-95552332D01*
X58943649Y-95552331D01*
X58943649Y-95552328D01*
X58943648Y-95552326D01*
X58935362Y-95500003D01*
X65333967Y-95500003D01*
X65354449Y-95707968D01*
X65354450Y-95707973D01*
X65415114Y-95907953D01*
X65415116Y-95907958D01*
X65513618Y-96092244D01*
X65513624Y-96092253D01*
X65513626Y-96092256D01*
X65536443Y-96120058D01*
X65646196Y-96253794D01*
X65646205Y-96253803D01*
X65685071Y-96285699D01*
X65807744Y-96386374D01*
X65807748Y-96386376D01*
X65807755Y-96386381D01*
X65956532Y-96465903D01*
X65992047Y-96484886D01*
X66131363Y-96527146D01*
X66192026Y-96545549D01*
X66192031Y-96545550D01*
X66399997Y-96566033D01*
X66400000Y-96566033D01*
X66400003Y-96566033D01*
X66607968Y-96545550D01*
X66607973Y-96545549D01*
X66807953Y-96484886D01*
X66894322Y-96438721D01*
X66992244Y-96386381D01*
X66992247Y-96386378D01*
X66992256Y-96386374D01*
X67153799Y-96253799D01*
X67286374Y-96092256D01*
X67286378Y-96092247D01*
X67286381Y-96092244D01*
X67359863Y-95954768D01*
X67384886Y-95907953D01*
X67445549Y-95707973D01*
X67445550Y-95707968D01*
X67466033Y-95500003D01*
X67933967Y-95500003D01*
X67954449Y-95707968D01*
X67954450Y-95707973D01*
X68015114Y-95907953D01*
X68015116Y-95907958D01*
X68113618Y-96092244D01*
X68113624Y-96092253D01*
X68113626Y-96092256D01*
X68136443Y-96120058D01*
X68246196Y-96253794D01*
X68246205Y-96253803D01*
X68285071Y-96285699D01*
X68407744Y-96386374D01*
X68407748Y-96386376D01*
X68407755Y-96386381D01*
X68556532Y-96465903D01*
X68592047Y-96484886D01*
X68731363Y-96527146D01*
X68792026Y-96545549D01*
X68792031Y-96545550D01*
X68999997Y-96566033D01*
X69000000Y-96566033D01*
X69000003Y-96566033D01*
X69207968Y-96545550D01*
X69207973Y-96545549D01*
X69407953Y-96484886D01*
X69494322Y-96438721D01*
X69592244Y-96386381D01*
X69592247Y-96386378D01*
X69592256Y-96386374D01*
X69753799Y-96253799D01*
X69886374Y-96092256D01*
X69886378Y-96092247D01*
X69886381Y-96092244D01*
X69959863Y-95954768D01*
X69984886Y-95907953D01*
X70045549Y-95707973D01*
X70045550Y-95707968D01*
X70066033Y-95500003D01*
X70066033Y-95499996D01*
X70045550Y-95292031D01*
X70045549Y-95292026D01*
X70017088Y-95198204D01*
X69984886Y-95092047D01*
X69965021Y-95054882D01*
X69886381Y-94907755D01*
X69886376Y-94907748D01*
X69886374Y-94907744D01*
X69808913Y-94813358D01*
X69753803Y-94746205D01*
X69753794Y-94746196D01*
X69631785Y-94646067D01*
X69592256Y-94613626D01*
X69592253Y-94613624D01*
X69592244Y-94613618D01*
X69407958Y-94515116D01*
X69407953Y-94515114D01*
X69207973Y-94454450D01*
X69207968Y-94454449D01*
X69000003Y-94433967D01*
X68999997Y-94433967D01*
X68792031Y-94454449D01*
X68792026Y-94454450D01*
X68592046Y-94515114D01*
X68592041Y-94515116D01*
X68407755Y-94613618D01*
X68407745Y-94613625D01*
X68246205Y-94746196D01*
X68246196Y-94746205D01*
X68113625Y-94907745D01*
X68113618Y-94907755D01*
X68015116Y-95092041D01*
X68015114Y-95092046D01*
X67954450Y-95292026D01*
X67954449Y-95292031D01*
X67933967Y-95499996D01*
X67933967Y-95500003D01*
X67466033Y-95500003D01*
X67466033Y-95499996D01*
X67445550Y-95292031D01*
X67445549Y-95292026D01*
X67417088Y-95198204D01*
X67384886Y-95092047D01*
X67365021Y-95054882D01*
X67286381Y-94907755D01*
X67286376Y-94907748D01*
X67286374Y-94907744D01*
X67208913Y-94813358D01*
X67153803Y-94746205D01*
X67153794Y-94746196D01*
X67031785Y-94646067D01*
X66992256Y-94613626D01*
X66992253Y-94613624D01*
X66992244Y-94613618D01*
X66807958Y-94515116D01*
X66807953Y-94515114D01*
X66607973Y-94454450D01*
X66607968Y-94454449D01*
X66400003Y-94433967D01*
X66399997Y-94433967D01*
X66192031Y-94454449D01*
X66192026Y-94454450D01*
X65992046Y-94515114D01*
X65992041Y-94515116D01*
X65807755Y-94613618D01*
X65807745Y-94613625D01*
X65646205Y-94746196D01*
X65646196Y-94746205D01*
X65513625Y-94907745D01*
X65513618Y-94907755D01*
X65415116Y-95092041D01*
X65415114Y-95092046D01*
X65354450Y-95292026D01*
X65354449Y-95292031D01*
X65333967Y-95499996D01*
X65333967Y-95500003D01*
X58935362Y-95500003D01*
X58928797Y-95458550D01*
X58928796Y-95458548D01*
X58928796Y-95458546D01*
X58871200Y-95345508D01*
X58781492Y-95255800D01*
X58668454Y-95198204D01*
X58668455Y-95198204D01*
X58574671Y-95183350D01*
X57546428Y-95183350D01*
X57546426Y-95183351D01*
X57452650Y-95198202D01*
X57452645Y-95198204D01*
X57339609Y-95255799D01*
X57249899Y-95345509D01*
X57192304Y-95458545D01*
X57177450Y-95552328D01*
X57177450Y-96580571D01*
X57177451Y-96580573D01*
X57192302Y-96674349D01*
X57192304Y-96674354D01*
X57249900Y-96787392D01*
X57339608Y-96877100D01*
X57452646Y-96934696D01*
X57514264Y-96944455D01*
X57568781Y-96972232D01*
X57596559Y-97026748D01*
X57590242Y-97080121D01*
X57541659Y-97197412D01*
X57541658Y-97197412D01*
X57523354Y-97336449D01*
X57523354Y-97336450D01*
X57541658Y-97475486D01*
X57541659Y-97475487D01*
X57549361Y-97494083D01*
X57704950Y-97338494D01*
X57704950Y-97383266D01*
X57729184Y-97473706D01*
X57776000Y-97554793D01*
X57842207Y-97621000D01*
X57923294Y-97667816D01*
X58013734Y-97692050D01*
X58058503Y-97692050D01*
X58056198Y-97694355D01*
X58001681Y-97722131D01*
X57986195Y-97723350D01*
X57967732Y-97723350D01*
X57851947Y-97747961D01*
X57786157Y-97761945D01*
X57786151Y-97761947D01*
X57616574Y-97837447D01*
X57616566Y-97837452D01*
X57466386Y-97946563D01*
X57342170Y-98084520D01*
X57342170Y-98084521D01*
X57249359Y-98245273D01*
X57249353Y-98245287D01*
X57191991Y-98421823D01*
X57191991Y-98421826D01*
X57191990Y-98421830D01*
X57191990Y-98421832D01*
X57172586Y-98606450D01*
X52500000Y-98606450D01*
X52500000Y-80310000D01*
X64835274Y-80310000D01*
X64854935Y-80522180D01*
X64913250Y-80727135D01*
X65008232Y-80917885D01*
X65136647Y-81087934D01*
X65294122Y-81231491D01*
X65475294Y-81343668D01*
X65673994Y-81420645D01*
X65883455Y-81459800D01*
X66096545Y-81459800D01*
X66306006Y-81420645D01*
X66504706Y-81343668D01*
X66685878Y-81231491D01*
X66843353Y-81087934D01*
X66971768Y-80917885D01*
X67066750Y-80727135D01*
X67125065Y-80522180D01*
X67144726Y-80310000D01*
X67375274Y-80310000D01*
X67394935Y-80522180D01*
X67453250Y-80727135D01*
X67548232Y-80917885D01*
X67676647Y-81087934D01*
X67834122Y-81231491D01*
X68015294Y-81343668D01*
X68213994Y-81420645D01*
X68423455Y-81459800D01*
X68636545Y-81459800D01*
X68846006Y-81420645D01*
X68848430Y-81419706D01*
X68849521Y-81419645D01*
X68850412Y-81419392D01*
X68850469Y-81419592D01*
X68909521Y-81416313D01*
X68954201Y-81442015D01*
X71070504Y-83558318D01*
X71098281Y-83612835D01*
X71099500Y-83628322D01*
X71099500Y-94340100D01*
X71080593Y-94398291D01*
X71031093Y-94434255D01*
X71000501Y-94439100D01*
X70908079Y-94439100D01*
X70908076Y-94439101D01*
X70814300Y-94453952D01*
X70814295Y-94453954D01*
X70701259Y-94511549D01*
X70611549Y-94601259D01*
X70553954Y-94714295D01*
X70539100Y-94808078D01*
X70539100Y-96191921D01*
X70539101Y-96191923D01*
X70553952Y-96285699D01*
X70553954Y-96285704D01*
X70611550Y-96398742D01*
X70701258Y-96488450D01*
X70814296Y-96546046D01*
X70908081Y-96560900D01*
X71317250Y-96560899D01*
X71375441Y-96579806D01*
X71411405Y-96629306D01*
X71416250Y-96659899D01*
X71416250Y-114610100D01*
X71397343Y-114668291D01*
X71347843Y-114704255D01*
X71317251Y-114709100D01*
X71224829Y-114709100D01*
X71224826Y-114709101D01*
X71131050Y-114723952D01*
X71131045Y-114723954D01*
X71018009Y-114781549D01*
X70928299Y-114871259D01*
X70870704Y-114984295D01*
X70855850Y-115078078D01*
X70855850Y-116461921D01*
X70855851Y-116461923D01*
X70870702Y-116555699D01*
X70870704Y-116555704D01*
X70928300Y-116668742D01*
X70928302Y-116668744D01*
X70932881Y-116675047D01*
X70931311Y-116676187D01*
X70954481Y-116721662D01*
X70955700Y-116737149D01*
X70955700Y-134733650D01*
X70936793Y-134791841D01*
X70887293Y-134827805D01*
X70856701Y-134832650D01*
X70764279Y-134832650D01*
X70764276Y-134832651D01*
X70670500Y-134847502D01*
X70670495Y-134847504D01*
X70557459Y-134905099D01*
X70467749Y-134994809D01*
X70410154Y-135107845D01*
X70395300Y-135201628D01*
X70395300Y-136585471D01*
X70395301Y-136585473D01*
X70410152Y-136679249D01*
X70410154Y-136679254D01*
X70467750Y-136792292D01*
X70557458Y-136882000D01*
X70670496Y-136939596D01*
X70764281Y-136954450D01*
X70856700Y-136954449D01*
X70914890Y-136973356D01*
X70950854Y-137022855D01*
X70955700Y-137053449D01*
X70955700Y-154331317D01*
X70936793Y-154389508D01*
X70901648Y-154419525D01*
X70890710Y-154425098D01*
X70800999Y-154514809D01*
X70743404Y-154627845D01*
X70728550Y-154721628D01*
X70728550Y-156105471D01*
X70728551Y-156105473D01*
X70743402Y-156199249D01*
X70743404Y-156199254D01*
X70801000Y-156312292D01*
X70890708Y-156402000D01*
X71003746Y-156459596D01*
X71097531Y-156474450D01*
X72481368Y-156474449D01*
X72481371Y-156474449D01*
X72481372Y-156474448D01*
X72528261Y-156467022D01*
X72575149Y-156459597D01*
X72575149Y-156459596D01*
X72575154Y-156459596D01*
X72688192Y-156402000D01*
X72777900Y-156312292D01*
X72835496Y-156199254D01*
X72848513Y-156117069D01*
X72850350Y-156105471D01*
X72850350Y-156013050D01*
X72869257Y-155954859D01*
X72918757Y-155918895D01*
X72949350Y-155914050D01*
X77517900Y-155914050D01*
X77576091Y-155932957D01*
X77612055Y-155982457D01*
X77616900Y-156013050D01*
X77616900Y-156744121D01*
X77616901Y-156744123D01*
X77631752Y-156837899D01*
X77631754Y-156837904D01*
X77689350Y-156950942D01*
X77779058Y-157040650D01*
X77892096Y-157098246D01*
X77953714Y-157108005D01*
X78008231Y-157135782D01*
X78036009Y-157190298D01*
X78029692Y-157243671D01*
X77981109Y-157360962D01*
X77981108Y-157360962D01*
X77962804Y-157499999D01*
X77962804Y-157500000D01*
X77981108Y-157639036D01*
X77981109Y-157639037D01*
X77988811Y-157657633D01*
X78144400Y-157502044D01*
X78144400Y-157546816D01*
X78168634Y-157637256D01*
X78215450Y-157718343D01*
X78281657Y-157784550D01*
X78362744Y-157831366D01*
X78453184Y-157855600D01*
X78497953Y-157855600D01*
X78495648Y-157857905D01*
X78441131Y-157885681D01*
X78425645Y-157886900D01*
X78407182Y-157886900D01*
X78291397Y-157911511D01*
X78225607Y-157925495D01*
X78225601Y-157925497D01*
X78056024Y-158000997D01*
X78056016Y-158001002D01*
X77905836Y-158110113D01*
X77781620Y-158248070D01*
X77781620Y-158248071D01*
X77688809Y-158408823D01*
X77688803Y-158408837D01*
X77631441Y-158585373D01*
X77631441Y-158585376D01*
X77612036Y-158770000D01*
X77631441Y-158954623D01*
X77631441Y-158954626D01*
X77688803Y-159131162D01*
X77688809Y-159131176D01*
X77762547Y-159258893D01*
X77781622Y-159291932D01*
X77905836Y-159429886D01*
X78056018Y-159538999D01*
X78056022Y-159539000D01*
X78056024Y-159539002D01*
X78100934Y-159558997D01*
X78225604Y-159614504D01*
X78407182Y-159653100D01*
X78407185Y-159653100D01*
X78592815Y-159653100D01*
X78592818Y-159653100D01*
X78774396Y-159614504D01*
X78943982Y-159538999D01*
X79094164Y-159429886D01*
X79218378Y-159291932D01*
X79311195Y-159131167D01*
X79362062Y-158974618D01*
X79368558Y-158954626D01*
X79368558Y-158954623D01*
X79368560Y-158954618D01*
X79387964Y-158770000D01*
X79368560Y-158585382D01*
X79368558Y-158585375D01*
X79368558Y-158585373D01*
X79311196Y-158408837D01*
X79311195Y-158408833D01*
X79311192Y-158408828D01*
X79311190Y-158408823D01*
X79263507Y-158326235D01*
X79218378Y-158248068D01*
X79094164Y-158110114D01*
X78943982Y-158001001D01*
X78943979Y-158001000D01*
X78943975Y-158000997D01*
X78774398Y-157925497D01*
X78774396Y-157925496D01*
X78774393Y-157925495D01*
X78774392Y-157925495D01*
X78739857Y-157918154D01*
X78592818Y-157886900D01*
X78574355Y-157886900D01*
X78516164Y-157867993D01*
X78504352Y-157857905D01*
X78502047Y-157855600D01*
X78546816Y-157855600D01*
X78637256Y-157831366D01*
X78718343Y-157784550D01*
X78784550Y-157718343D01*
X78831366Y-157637256D01*
X78855600Y-157546816D01*
X78855600Y-157502047D01*
X79011186Y-157657633D01*
X79018891Y-157639034D01*
X79037196Y-157500000D01*
X79037196Y-157499999D01*
X79018891Y-157360964D01*
X78970307Y-157243672D01*
X78965506Y-157182675D01*
X78997476Y-157130506D01*
X79046286Y-157108005D01*
X79107899Y-157098247D01*
X79107899Y-157098246D01*
X79107904Y-157098246D01*
X79220942Y-157040650D01*
X79310650Y-156950942D01*
X79368246Y-156837904D01*
X79383100Y-156744119D01*
X79383099Y-156013049D01*
X79402006Y-155954859D01*
X79451506Y-155918895D01*
X79482099Y-155914050D01*
X83402340Y-155914050D01*
X83402342Y-155914050D01*
X83529636Y-155879942D01*
X83529638Y-155879940D01*
X83529640Y-155879940D01*
X83621156Y-155827103D01*
X86112867Y-155827103D01*
X86133349Y-156035068D01*
X86133350Y-156035073D01*
X86194014Y-156235053D01*
X86194016Y-156235058D01*
X86292518Y-156419344D01*
X86292524Y-156419353D01*
X86292526Y-156419356D01*
X86325550Y-156459596D01*
X86425096Y-156580894D01*
X86425105Y-156580903D01*
X86463971Y-156612799D01*
X86586644Y-156713474D01*
X86586648Y-156713476D01*
X86586655Y-156713481D01*
X86765207Y-156808918D01*
X86770947Y-156811986D01*
X86890481Y-156848246D01*
X86970926Y-156872649D01*
X86970931Y-156872650D01*
X87178897Y-156893133D01*
X87178900Y-156893133D01*
X87178903Y-156893133D01*
X87386868Y-156872650D01*
X87386873Y-156872649D01*
X87586853Y-156811986D01*
X87652929Y-156776667D01*
X87771144Y-156713481D01*
X87771147Y-156713478D01*
X87771156Y-156713474D01*
X87932699Y-156580899D01*
X88065274Y-156419356D01*
X88065278Y-156419347D01*
X88065281Y-156419344D01*
X88151486Y-156258065D01*
X88163786Y-156235053D01*
X88224449Y-156035073D01*
X88224450Y-156035068D01*
X88244933Y-155827103D01*
X88712867Y-155827103D01*
X88733349Y-156035068D01*
X88733350Y-156035073D01*
X88794014Y-156235053D01*
X88794016Y-156235058D01*
X88892518Y-156419344D01*
X88892524Y-156419353D01*
X88892526Y-156419356D01*
X88925550Y-156459596D01*
X89025096Y-156580894D01*
X89025105Y-156580903D01*
X89063971Y-156612799D01*
X89186644Y-156713474D01*
X89186648Y-156713476D01*
X89186655Y-156713481D01*
X89365207Y-156808918D01*
X89370947Y-156811986D01*
X89490481Y-156848246D01*
X89570926Y-156872649D01*
X89570931Y-156872650D01*
X89778897Y-156893133D01*
X89778900Y-156893133D01*
X89778903Y-156893133D01*
X89986868Y-156872650D01*
X89986873Y-156872649D01*
X90186853Y-156811986D01*
X90252929Y-156776667D01*
X90371144Y-156713481D01*
X90371147Y-156713478D01*
X90371156Y-156713474D01*
X90532699Y-156580899D01*
X90665274Y-156419356D01*
X90665278Y-156419347D01*
X90665281Y-156419344D01*
X90751486Y-156258065D01*
X90763786Y-156235053D01*
X90824449Y-156035073D01*
X90824450Y-156035068D01*
X90844933Y-155827103D01*
X90844933Y-155827096D01*
X90824450Y-155619131D01*
X90824449Y-155619126D01*
X90806046Y-155558463D01*
X90763786Y-155419147D01*
X90760796Y-155413553D01*
X90665281Y-155234855D01*
X90665276Y-155234848D01*
X90665274Y-155234844D01*
X90564255Y-155111752D01*
X90532703Y-155073305D01*
X90532694Y-155073296D01*
X90413621Y-154975576D01*
X90371156Y-154940726D01*
X90371153Y-154940724D01*
X90371144Y-154940718D01*
X90186858Y-154842216D01*
X90186853Y-154842214D01*
X89986873Y-154781550D01*
X89986868Y-154781549D01*
X89778903Y-154761067D01*
X89778897Y-154761067D01*
X89570931Y-154781549D01*
X89570926Y-154781550D01*
X89370946Y-154842214D01*
X89370941Y-154842216D01*
X89186655Y-154940718D01*
X89186645Y-154940725D01*
X89025105Y-155073296D01*
X89025096Y-155073305D01*
X88892525Y-155234845D01*
X88892518Y-155234855D01*
X88794016Y-155419141D01*
X88794014Y-155419146D01*
X88733350Y-155619126D01*
X88733349Y-155619131D01*
X88712867Y-155827096D01*
X88712867Y-155827103D01*
X88244933Y-155827103D01*
X88244933Y-155827096D01*
X88224450Y-155619131D01*
X88224449Y-155619126D01*
X88206046Y-155558463D01*
X88163786Y-155419147D01*
X88160796Y-155413553D01*
X88065281Y-155234855D01*
X88065276Y-155234848D01*
X88065274Y-155234844D01*
X87964255Y-155111752D01*
X87932703Y-155073305D01*
X87932694Y-155073296D01*
X87813621Y-154975576D01*
X87771156Y-154940726D01*
X87771153Y-154940724D01*
X87771144Y-154940718D01*
X87586858Y-154842216D01*
X87586853Y-154842214D01*
X87386873Y-154781550D01*
X87386868Y-154781549D01*
X87178903Y-154761067D01*
X87178897Y-154761067D01*
X86970931Y-154781549D01*
X86970926Y-154781550D01*
X86770946Y-154842214D01*
X86770941Y-154842216D01*
X86586655Y-154940718D01*
X86586645Y-154940725D01*
X86425105Y-155073296D01*
X86425096Y-155073305D01*
X86292525Y-155234845D01*
X86292518Y-155234855D01*
X86194016Y-155419141D01*
X86194014Y-155419146D01*
X86133350Y-155619126D01*
X86133349Y-155619131D01*
X86112867Y-155827096D01*
X86112867Y-155827103D01*
X83621156Y-155827103D01*
X83643759Y-155814053D01*
X83643759Y-155814052D01*
X83643764Y-155814050D01*
X86428318Y-153029496D01*
X86482835Y-153001719D01*
X86498322Y-153000500D01*
X88803478Y-153000500D01*
X88861669Y-153019407D01*
X88873482Y-153029496D01*
X91289004Y-155445018D01*
X91316781Y-155499535D01*
X91318000Y-155515022D01*
X91318000Y-156519021D01*
X91318001Y-156519023D01*
X91332852Y-156612799D01*
X91332854Y-156612804D01*
X91390450Y-156725842D01*
X91480158Y-156815550D01*
X91593196Y-156873146D01*
X91686981Y-156888000D01*
X93070818Y-156887999D01*
X93070821Y-156887999D01*
X93070822Y-156887998D01*
X93118131Y-156880506D01*
X93164599Y-156873147D01*
X93164599Y-156873146D01*
X93164604Y-156873146D01*
X93277642Y-156815550D01*
X93367350Y-156725842D01*
X93424946Y-156612804D01*
X93439800Y-156519019D01*
X93439799Y-155515020D01*
X93458706Y-155456830D01*
X93468796Y-155445017D01*
X93634318Y-155279496D01*
X93688834Y-155251719D01*
X93704321Y-155250500D01*
X97035099Y-155250500D01*
X97093290Y-155269407D01*
X97129254Y-155318907D01*
X97132880Y-155364987D01*
X97116900Y-155465878D01*
X97116900Y-156494121D01*
X97116901Y-156494123D01*
X97131752Y-156587899D01*
X97131754Y-156587904D01*
X97189350Y-156700942D01*
X97279058Y-156790650D01*
X97392096Y-156848246D01*
X97453714Y-156858005D01*
X97508231Y-156885782D01*
X97536009Y-156940298D01*
X97529692Y-156993671D01*
X97481109Y-157110962D01*
X97481108Y-157110962D01*
X97462804Y-157249999D01*
X97462804Y-157250000D01*
X97481108Y-157389036D01*
X97481109Y-157389037D01*
X97488811Y-157407633D01*
X97644400Y-157252044D01*
X97644400Y-157296816D01*
X97668634Y-157387256D01*
X97715450Y-157468343D01*
X97781657Y-157534550D01*
X97862744Y-157581366D01*
X97953184Y-157605600D01*
X97997953Y-157605600D01*
X97995648Y-157607905D01*
X97941131Y-157635681D01*
X97925645Y-157636900D01*
X97907182Y-157636900D01*
X97803037Y-157659037D01*
X97725607Y-157675495D01*
X97725601Y-157675497D01*
X97556024Y-157750997D01*
X97556016Y-157751002D01*
X97405836Y-157860113D01*
X97281620Y-157998070D01*
X97281620Y-157998071D01*
X97188809Y-158158823D01*
X97188803Y-158158837D01*
X97131441Y-158335373D01*
X97131441Y-158335376D01*
X97131440Y-158335380D01*
X97131440Y-158335382D01*
X97112036Y-158520000D01*
X97121009Y-158605376D01*
X97131441Y-158704623D01*
X97131441Y-158704626D01*
X97188803Y-158881162D01*
X97188809Y-158881176D01*
X97242761Y-158974623D01*
X97281622Y-159041932D01*
X97405836Y-159179886D01*
X97556018Y-159288999D01*
X97556022Y-159289000D01*
X97556024Y-159289002D01*
X97607517Y-159311928D01*
X97725604Y-159364504D01*
X97907182Y-159403100D01*
X97907185Y-159403100D01*
X98092815Y-159403100D01*
X98092818Y-159403100D01*
X98274396Y-159364504D01*
X98443982Y-159288999D01*
X98594164Y-159179886D01*
X98718378Y-159041932D01*
X98811195Y-158881167D01*
X98847316Y-158770000D01*
X98868558Y-158704626D01*
X98868558Y-158704623D01*
X98868560Y-158704618D01*
X98887964Y-158520000D01*
X117112036Y-158520000D01*
X117121009Y-158605376D01*
X117131441Y-158704623D01*
X117131441Y-158704626D01*
X117188803Y-158881162D01*
X117188809Y-158881176D01*
X117242761Y-158974623D01*
X117281622Y-159041932D01*
X117405836Y-159179886D01*
X117556018Y-159288999D01*
X117556022Y-159289000D01*
X117556024Y-159289002D01*
X117607517Y-159311928D01*
X117725604Y-159364504D01*
X117907182Y-159403100D01*
X117907185Y-159403100D01*
X118092815Y-159403100D01*
X118092818Y-159403100D01*
X118274396Y-159364504D01*
X118443982Y-159288999D01*
X118594164Y-159179886D01*
X118718378Y-159041932D01*
X118811195Y-158881167D01*
X118847316Y-158770000D01*
X118868558Y-158704626D01*
X118868558Y-158704623D01*
X118868560Y-158704618D01*
X118887964Y-158520000D01*
X118868560Y-158335382D01*
X118868558Y-158335375D01*
X118868558Y-158335373D01*
X118811196Y-158158837D01*
X118811195Y-158158833D01*
X118811192Y-158158828D01*
X118811190Y-158158823D01*
X118763507Y-158076235D01*
X118718378Y-157998068D01*
X118594164Y-157860114D01*
X118582123Y-157851366D01*
X118443983Y-157751002D01*
X118443982Y-157751001D01*
X118443979Y-157751000D01*
X118443975Y-157750997D01*
X118274398Y-157675497D01*
X118274396Y-157675496D01*
X118274393Y-157675495D01*
X118274392Y-157675495D01*
X118239857Y-157668154D01*
X118092818Y-157636900D01*
X118074355Y-157636900D01*
X118016164Y-157617993D01*
X118004352Y-157607905D01*
X118002047Y-157605600D01*
X118046816Y-157605600D01*
X118137256Y-157581366D01*
X118218343Y-157534550D01*
X118284550Y-157468343D01*
X118331366Y-157387256D01*
X118355600Y-157296816D01*
X118355600Y-157252047D01*
X118511186Y-157407633D01*
X118518891Y-157389034D01*
X118537196Y-157250000D01*
X118537196Y-157249999D01*
X118518891Y-157110964D01*
X118470307Y-156993672D01*
X118465506Y-156932675D01*
X118497476Y-156880506D01*
X118546286Y-156858005D01*
X118607899Y-156848247D01*
X118607899Y-156848246D01*
X118607904Y-156848246D01*
X118720942Y-156790650D01*
X118810650Y-156700942D01*
X118868246Y-156587904D01*
X118883100Y-156494119D01*
X118883099Y-155465882D01*
X118883099Y-155465881D01*
X118883099Y-155465878D01*
X118883098Y-155465876D01*
X118868247Y-155372100D01*
X118868246Y-155372098D01*
X118868246Y-155372096D01*
X118810650Y-155259058D01*
X118720942Y-155169350D01*
X118607904Y-155111754D01*
X118607905Y-155111754D01*
X118514121Y-155096900D01*
X117485878Y-155096900D01*
X117485876Y-155096901D01*
X117392100Y-155111752D01*
X117392095Y-155111754D01*
X117279059Y-155169349D01*
X117189349Y-155259059D01*
X117131754Y-155372095D01*
X117116900Y-155465878D01*
X117116900Y-156494121D01*
X117116901Y-156494123D01*
X117131752Y-156587899D01*
X117131754Y-156587904D01*
X117189350Y-156700942D01*
X117279058Y-156790650D01*
X117392096Y-156848246D01*
X117453714Y-156858005D01*
X117508231Y-156885782D01*
X117536009Y-156940298D01*
X117529692Y-156993671D01*
X117481109Y-157110962D01*
X117481108Y-157110962D01*
X117462804Y-157249999D01*
X117462804Y-157250000D01*
X117481108Y-157389036D01*
X117481109Y-157389037D01*
X117488811Y-157407633D01*
X117644400Y-157252044D01*
X117644400Y-157296816D01*
X117668634Y-157387256D01*
X117715450Y-157468343D01*
X117781657Y-157534550D01*
X117862744Y-157581366D01*
X117953184Y-157605600D01*
X117997953Y-157605600D01*
X117995648Y-157607905D01*
X117941131Y-157635681D01*
X117925645Y-157636900D01*
X117907182Y-157636900D01*
X117803037Y-157659037D01*
X117725607Y-157675495D01*
X117725601Y-157675497D01*
X117556024Y-157750997D01*
X117556016Y-157751002D01*
X117405836Y-157860113D01*
X117281620Y-157998070D01*
X117281620Y-157998071D01*
X117188809Y-158158823D01*
X117188803Y-158158837D01*
X117131441Y-158335373D01*
X117131441Y-158335376D01*
X117131440Y-158335380D01*
X117131440Y-158335382D01*
X117112036Y-158520000D01*
X98887964Y-158520000D01*
X98868560Y-158335382D01*
X98868558Y-158335375D01*
X98868558Y-158335373D01*
X98811196Y-158158837D01*
X98811195Y-158158833D01*
X98811192Y-158158828D01*
X98811190Y-158158823D01*
X98763507Y-158076235D01*
X98718378Y-157998068D01*
X98594164Y-157860114D01*
X98582123Y-157851366D01*
X98443983Y-157751002D01*
X98443982Y-157751001D01*
X98443979Y-157751000D01*
X98443975Y-157750997D01*
X98274398Y-157675497D01*
X98274396Y-157675496D01*
X98274393Y-157675495D01*
X98274392Y-157675495D01*
X98239857Y-157668154D01*
X98092818Y-157636900D01*
X98074355Y-157636900D01*
X98016164Y-157617993D01*
X98004352Y-157607905D01*
X98002047Y-157605600D01*
X98046816Y-157605600D01*
X98137256Y-157581366D01*
X98218343Y-157534550D01*
X98284550Y-157468343D01*
X98331366Y-157387256D01*
X98355600Y-157296816D01*
X98355600Y-157252047D01*
X98511186Y-157407633D01*
X98518891Y-157389034D01*
X98537196Y-157250000D01*
X98537196Y-157249999D01*
X98518891Y-157110964D01*
X98470307Y-156993672D01*
X98465506Y-156932675D01*
X98497476Y-156880506D01*
X98546286Y-156858005D01*
X98607899Y-156848247D01*
X98607899Y-156848246D01*
X98607904Y-156848246D01*
X98720942Y-156790650D01*
X98810650Y-156700942D01*
X98868246Y-156587904D01*
X98883100Y-156494119D01*
X98883099Y-155465882D01*
X98883099Y-155465881D01*
X98883099Y-155465878D01*
X98883098Y-155465876D01*
X98867121Y-155364985D01*
X98876693Y-155304553D01*
X98919958Y-155261290D01*
X98964902Y-155250500D01*
X105247878Y-155250500D01*
X105306069Y-155269407D01*
X105342033Y-155318907D01*
X105342615Y-155378238D01*
X105293900Y-155538826D01*
X105293899Y-155538831D01*
X105273417Y-155746796D01*
X105273417Y-155746803D01*
X105293899Y-155954768D01*
X105293900Y-155954773D01*
X105354564Y-156154753D01*
X105354566Y-156154758D01*
X105453068Y-156339044D01*
X105453074Y-156339053D01*
X105453076Y-156339056D01*
X105501807Y-156398435D01*
X105585646Y-156500594D01*
X105585655Y-156500603D01*
X105624527Y-156532504D01*
X105747194Y-156633174D01*
X105747198Y-156633176D01*
X105747205Y-156633181D01*
X105931491Y-156731683D01*
X105931497Y-156731686D01*
X106038428Y-156764123D01*
X106131476Y-156792349D01*
X106131481Y-156792350D01*
X106339447Y-156812833D01*
X106339450Y-156812833D01*
X106339453Y-156812833D01*
X106547418Y-156792350D01*
X106547423Y-156792349D01*
X106553024Y-156790650D01*
X106747403Y-156731686D01*
X106813479Y-156696367D01*
X106931694Y-156633181D01*
X106931697Y-156633178D01*
X106931706Y-156633174D01*
X107093249Y-156500599D01*
X107225824Y-156339056D01*
X107246448Y-156300469D01*
X107290550Y-156258065D01*
X107351158Y-156249680D01*
X107403758Y-156277133D01*
X108234325Y-157107700D01*
X108234327Y-157107701D01*
X108234329Y-157107703D01*
X108348449Y-157173590D01*
X108348447Y-157173590D01*
X108348451Y-157173591D01*
X108348453Y-157173592D01*
X108475746Y-157207700D01*
X108475747Y-157207700D01*
X108475748Y-157207700D01*
X110644940Y-157207700D01*
X110644942Y-157207700D01*
X110772236Y-157173592D01*
X110772238Y-157173590D01*
X110772240Y-157173590D01*
X110886359Y-157107703D01*
X110886359Y-157107702D01*
X110886364Y-157107700D01*
X111157367Y-156836695D01*
X111211884Y-156808918D01*
X111227371Y-156807699D01*
X112231371Y-156807699D01*
X112231372Y-156807698D01*
X112278261Y-156800272D01*
X112325149Y-156792847D01*
X112325149Y-156792846D01*
X112325154Y-156792846D01*
X112438192Y-156735250D01*
X112527900Y-156645542D01*
X112585496Y-156532504D01*
X112600350Y-156438719D01*
X112600349Y-155434721D01*
X112619256Y-155376531D01*
X112629345Y-155364718D01*
X113241418Y-154752646D01*
X113295935Y-154724869D01*
X113311422Y-154723650D01*
X125236836Y-154723650D01*
X125295027Y-154742557D01*
X125330991Y-154792057D01*
X125331573Y-154851388D01*
X125293900Y-154975576D01*
X125293899Y-154975581D01*
X125273417Y-155183546D01*
X125273417Y-155183553D01*
X125293899Y-155391518D01*
X125293900Y-155391523D01*
X125354564Y-155591503D01*
X125354566Y-155591508D01*
X125453068Y-155775794D01*
X125453074Y-155775803D01*
X125453076Y-155775806D01*
X125508359Y-155843169D01*
X125585646Y-155937344D01*
X125585655Y-155937353D01*
X125624521Y-155969249D01*
X125747194Y-156069924D01*
X125747198Y-156069926D01*
X125747205Y-156069931D01*
X125931491Y-156168433D01*
X125931497Y-156168436D01*
X126033091Y-156199254D01*
X126131476Y-156229099D01*
X126131481Y-156229100D01*
X126339447Y-156249583D01*
X126339450Y-156249583D01*
X126339453Y-156249583D01*
X126547418Y-156229100D01*
X126547423Y-156229099D01*
X126747403Y-156168436D01*
X126843504Y-156117069D01*
X126931694Y-156069931D01*
X126931697Y-156069928D01*
X126931706Y-156069924D01*
X127093249Y-155937349D01*
X127225824Y-155775806D01*
X127225828Y-155775797D01*
X127225831Y-155775794D01*
X127308290Y-155621523D01*
X127324336Y-155591503D01*
X127384999Y-155391523D01*
X127385000Y-155391518D01*
X127405483Y-155183553D01*
X127405483Y-155183546D01*
X127385000Y-154975581D01*
X127384999Y-154975576D01*
X127347327Y-154851388D01*
X127348528Y-154790215D01*
X127385457Y-154741430D01*
X127442064Y-154723650D01*
X127836836Y-154723650D01*
X127895027Y-154742557D01*
X127930991Y-154792057D01*
X127931573Y-154851388D01*
X127893900Y-154975576D01*
X127893899Y-154975581D01*
X127873417Y-155183546D01*
X127873417Y-155183553D01*
X127893899Y-155391518D01*
X127893900Y-155391523D01*
X127954564Y-155591503D01*
X127954566Y-155591508D01*
X128053068Y-155775794D01*
X128053074Y-155775803D01*
X128053076Y-155775806D01*
X128108359Y-155843169D01*
X128185646Y-155937344D01*
X128185655Y-155937353D01*
X128224521Y-155969249D01*
X128347194Y-156069924D01*
X128347198Y-156069926D01*
X128347205Y-156069931D01*
X128531491Y-156168433D01*
X128531497Y-156168436D01*
X128633091Y-156199254D01*
X128731476Y-156229099D01*
X128731481Y-156229100D01*
X128939447Y-156249583D01*
X128939450Y-156249583D01*
X128939453Y-156249583D01*
X129147418Y-156229100D01*
X129147423Y-156229099D01*
X129347403Y-156168436D01*
X129443504Y-156117069D01*
X129531694Y-156069931D01*
X129531697Y-156069928D01*
X129531706Y-156069924D01*
X129693249Y-155937349D01*
X129825824Y-155775806D01*
X129825828Y-155775797D01*
X129825831Y-155775794D01*
X129908290Y-155621523D01*
X129924336Y-155591503D01*
X129984999Y-155391523D01*
X129985000Y-155391518D01*
X130005483Y-155183553D01*
X130005483Y-155183546D01*
X129985000Y-154975581D01*
X129984999Y-154975576D01*
X129947327Y-154851388D01*
X129948528Y-154790215D01*
X129985457Y-154741430D01*
X130042064Y-154723650D01*
X130330728Y-154723650D01*
X130388919Y-154742557D01*
X130400732Y-154752646D01*
X130449554Y-154801468D01*
X130477331Y-154855985D01*
X130478550Y-154871472D01*
X130478550Y-155875471D01*
X130478551Y-155875473D01*
X130493402Y-155969249D01*
X130493404Y-155969254D01*
X130551000Y-156082292D01*
X130640708Y-156172000D01*
X130753746Y-156229596D01*
X130847531Y-156244450D01*
X132231368Y-156244449D01*
X132231371Y-156244449D01*
X132231372Y-156244448D01*
X132278261Y-156237022D01*
X132325149Y-156229597D01*
X132325149Y-156229596D01*
X132325154Y-156229596D01*
X132438192Y-156172000D01*
X132527900Y-156082292D01*
X132585496Y-155969254D01*
X132600350Y-155875469D01*
X132600349Y-154491632D01*
X132600349Y-154491628D01*
X132600348Y-154491626D01*
X132585497Y-154397850D01*
X132585496Y-154397848D01*
X132585496Y-154397846D01*
X132527900Y-154284808D01*
X132438192Y-154195100D01*
X132325154Y-154137504D01*
X132325155Y-154137504D01*
X132231372Y-154122650D01*
X132231369Y-154122650D01*
X132138950Y-154122650D01*
X132080759Y-154103743D01*
X132044795Y-154054243D01*
X132039950Y-154023650D01*
X132039950Y-136466999D01*
X132058857Y-136408808D01*
X132108357Y-136372844D01*
X132138950Y-136367999D01*
X132570821Y-136367999D01*
X132570822Y-136367998D01*
X132617711Y-136360572D01*
X132664599Y-136353147D01*
X132664599Y-136353146D01*
X132664604Y-136353146D01*
X132777642Y-136295550D01*
X132867350Y-136205842D01*
X132924946Y-136092804D01*
X132939800Y-135999019D01*
X132939799Y-134615182D01*
X132939799Y-134615181D01*
X132939799Y-134615178D01*
X132939798Y-134615176D01*
X132924947Y-134521400D01*
X132924946Y-134521398D01*
X132924946Y-134521396D01*
X132867350Y-134408358D01*
X132777642Y-134318650D01*
X132664604Y-134261054D01*
X132664605Y-134261054D01*
X132570822Y-134246200D01*
X132570819Y-134246200D01*
X132478400Y-134246200D01*
X132420209Y-134227293D01*
X132384245Y-134177793D01*
X132379400Y-134147200D01*
X132379400Y-116236999D01*
X132398307Y-116178808D01*
X132447807Y-116142844D01*
X132478400Y-116137999D01*
X132570821Y-116137999D01*
X132570822Y-116137998D01*
X132617711Y-116130572D01*
X132664599Y-116123147D01*
X132664599Y-116123146D01*
X132664604Y-116123146D01*
X132777642Y-116065550D01*
X132867350Y-115975842D01*
X132924946Y-115862804D01*
X132939800Y-115769019D01*
X132939799Y-114385182D01*
X132939799Y-114385181D01*
X132939799Y-114385178D01*
X132939798Y-114385176D01*
X132924947Y-114291400D01*
X132924946Y-114291398D01*
X132924946Y-114291396D01*
X132867350Y-114178358D01*
X132777642Y-114088650D01*
X132664604Y-114031054D01*
X132664605Y-114031054D01*
X132570822Y-114016200D01*
X132570819Y-114016200D01*
X132138950Y-114016200D01*
X132080759Y-113997293D01*
X132044795Y-113947793D01*
X132039950Y-113917200D01*
X132039950Y-97073449D01*
X132058857Y-97015258D01*
X132108357Y-96979294D01*
X132138950Y-96974449D01*
X132231371Y-96974449D01*
X132231372Y-96974448D01*
X132288190Y-96965450D01*
X132325149Y-96959597D01*
X132325149Y-96959596D01*
X132325154Y-96959596D01*
X132438192Y-96902000D01*
X132527900Y-96812292D01*
X132585496Y-96699254D01*
X132600350Y-96605469D01*
X132600349Y-95221632D01*
X132600349Y-95221631D01*
X132600349Y-95221628D01*
X132600348Y-95221626D01*
X132585497Y-95127850D01*
X132585496Y-95127848D01*
X132585496Y-95127846D01*
X132527900Y-95014808D01*
X132438192Y-94925100D01*
X132325154Y-94867504D01*
X132325155Y-94867504D01*
X132231371Y-94852650D01*
X130847528Y-94852650D01*
X130847526Y-94852651D01*
X130753750Y-94867502D01*
X130753745Y-94867504D01*
X130640709Y-94925099D01*
X130550999Y-95014809D01*
X130493404Y-95127845D01*
X130478550Y-95221628D01*
X130478550Y-96605471D01*
X130478551Y-96605473D01*
X130493402Y-96699249D01*
X130493404Y-96699254D01*
X130551000Y-96812292D01*
X130640708Y-96902000D01*
X130753746Y-96959596D01*
X130847531Y-96974450D01*
X130939950Y-96974449D01*
X130998140Y-96993356D01*
X131034104Y-97042855D01*
X131038950Y-97073449D01*
X131038950Y-113998026D01*
X131020043Y-114056217D01*
X130984900Y-114086233D01*
X130980161Y-114088647D01*
X130890449Y-114178359D01*
X130832854Y-114291395D01*
X130818000Y-114385178D01*
X130818000Y-115769021D01*
X130818001Y-115769023D01*
X130832852Y-115862799D01*
X130832854Y-115862804D01*
X130890450Y-115975842D01*
X130980158Y-116065550D01*
X131093196Y-116123146D01*
X131186981Y-116138000D01*
X131279400Y-116137999D01*
X131337590Y-116156906D01*
X131373554Y-116206405D01*
X131378400Y-116236999D01*
X131378400Y-134147200D01*
X131359493Y-134205391D01*
X131309993Y-134241355D01*
X131279401Y-134246200D01*
X131186979Y-134246200D01*
X131186976Y-134246201D01*
X131093200Y-134261052D01*
X131093195Y-134261054D01*
X130980159Y-134318649D01*
X130890449Y-134408359D01*
X130832854Y-134521395D01*
X130818000Y-134615178D01*
X130818000Y-135999021D01*
X130818001Y-135999023D01*
X130832852Y-136092799D01*
X130832854Y-136092804D01*
X130890450Y-136205842D01*
X130980158Y-136295550D01*
X130984894Y-136297963D01*
X131028157Y-136341222D01*
X131038950Y-136386172D01*
X131038950Y-153739272D01*
X131020043Y-153797463D01*
X130970543Y-153833427D01*
X130909357Y-153833427D01*
X130890450Y-153825009D01*
X130772237Y-153756758D01*
X130729804Y-153745388D01*
X130644942Y-153722650D01*
X113128992Y-153722650D01*
X112997207Y-153722650D01*
X112935173Y-153739272D01*
X112869909Y-153756759D01*
X112755790Y-153822646D01*
X112755784Y-153822650D01*
X112755785Y-153822651D01*
X112208954Y-154369482D01*
X112154437Y-154397259D01*
X112094005Y-154387688D01*
X112050740Y-154344423D01*
X112039950Y-154299478D01*
X112039950Y-138520000D01*
X117112036Y-138520000D01*
X117131441Y-138704623D01*
X117131441Y-138704626D01*
X117188803Y-138881162D01*
X117188809Y-138881176D01*
X117231216Y-138954626D01*
X117281622Y-139041932D01*
X117405836Y-139179886D01*
X117556018Y-139288999D01*
X117556022Y-139289000D01*
X117556024Y-139289002D01*
X117612146Y-139313989D01*
X117725604Y-139364504D01*
X117907182Y-139403100D01*
X117907185Y-139403100D01*
X118092815Y-139403100D01*
X118092818Y-139403100D01*
X118274396Y-139364504D01*
X118443982Y-139288999D01*
X118594164Y-139179886D01*
X118718378Y-139041932D01*
X118811195Y-138881167D01*
X118847316Y-138770000D01*
X118868558Y-138704626D01*
X118868558Y-138704623D01*
X118868560Y-138704618D01*
X118887964Y-138520000D01*
X118868560Y-138335382D01*
X118868558Y-138335375D01*
X118868558Y-138335373D01*
X118825240Y-138202061D01*
X118811195Y-138158833D01*
X118811192Y-138158828D01*
X118811190Y-138158823D01*
X118735003Y-138026864D01*
X118718378Y-137998068D01*
X118594164Y-137860114D01*
X118569569Y-137842245D01*
X118476539Y-137774655D01*
X118443982Y-137751001D01*
X118443979Y-137751000D01*
X118443975Y-137750997D01*
X118274398Y-137675497D01*
X118274396Y-137675496D01*
X118274393Y-137675495D01*
X118274392Y-137675495D01*
X118239857Y-137668154D01*
X118092818Y-137636900D01*
X118074355Y-137636900D01*
X118016164Y-137617993D01*
X118004352Y-137607905D01*
X118002047Y-137605600D01*
X118046816Y-137605600D01*
X118137256Y-137581366D01*
X118218343Y-137534550D01*
X118284550Y-137468343D01*
X118331366Y-137387256D01*
X118355600Y-137296816D01*
X118355600Y-137252047D01*
X118511186Y-137407633D01*
X118518891Y-137389034D01*
X118537196Y-137250000D01*
X118537196Y-137249999D01*
X118518891Y-137110964D01*
X118470307Y-136993672D01*
X118465506Y-136932675D01*
X118497476Y-136880506D01*
X118546286Y-136858005D01*
X118607899Y-136848247D01*
X118607899Y-136848246D01*
X118607904Y-136848246D01*
X118720942Y-136790650D01*
X118810650Y-136700942D01*
X118868246Y-136587904D01*
X118883100Y-136494119D01*
X118883099Y-135465882D01*
X118883099Y-135465881D01*
X118883099Y-135465878D01*
X118883098Y-135465876D01*
X118868247Y-135372100D01*
X118868246Y-135372098D01*
X118868246Y-135372096D01*
X118835130Y-135307103D01*
X125612867Y-135307103D01*
X125633349Y-135515068D01*
X125633350Y-135515073D01*
X125694014Y-135715053D01*
X125694016Y-135715058D01*
X125792518Y-135899344D01*
X125792524Y-135899353D01*
X125792526Y-135899356D01*
X125838006Y-135954773D01*
X125925096Y-136060894D01*
X125925105Y-136060903D01*
X126000444Y-136122732D01*
X126086644Y-136193474D01*
X126086648Y-136193476D01*
X126086655Y-136193481D01*
X126270941Y-136291983D01*
X126270947Y-136291986D01*
X126410263Y-136334246D01*
X126470926Y-136352649D01*
X126470931Y-136352650D01*
X126678897Y-136373133D01*
X126678900Y-136373133D01*
X126678903Y-136373133D01*
X126886868Y-136352650D01*
X126886873Y-136352649D01*
X127086853Y-136291986D01*
X127152929Y-136256667D01*
X127271144Y-136193481D01*
X127271147Y-136193478D01*
X127271156Y-136193474D01*
X127432699Y-136060899D01*
X127565274Y-135899356D01*
X127565278Y-135899347D01*
X127565281Y-135899344D01*
X127663783Y-135715058D01*
X127663786Y-135715053D01*
X127724449Y-135515073D01*
X127724450Y-135515068D01*
X127744933Y-135307103D01*
X128212867Y-135307103D01*
X128233349Y-135515068D01*
X128233350Y-135515073D01*
X128294014Y-135715053D01*
X128294016Y-135715058D01*
X128392518Y-135899344D01*
X128392524Y-135899353D01*
X128392526Y-135899356D01*
X128438006Y-135954773D01*
X128525096Y-136060894D01*
X128525105Y-136060903D01*
X128600444Y-136122732D01*
X128686644Y-136193474D01*
X128686648Y-136193476D01*
X128686655Y-136193481D01*
X128870941Y-136291983D01*
X128870947Y-136291986D01*
X129010263Y-136334246D01*
X129070926Y-136352649D01*
X129070931Y-136352650D01*
X129278897Y-136373133D01*
X129278900Y-136373133D01*
X129278903Y-136373133D01*
X129486868Y-136352650D01*
X129486873Y-136352649D01*
X129686853Y-136291986D01*
X129752929Y-136256667D01*
X129871144Y-136193481D01*
X129871147Y-136193478D01*
X129871156Y-136193474D01*
X130032699Y-136060899D01*
X130165274Y-135899356D01*
X130165278Y-135899347D01*
X130165281Y-135899344D01*
X130263783Y-135715058D01*
X130263786Y-135715053D01*
X130324449Y-135515073D01*
X130324450Y-135515068D01*
X130344933Y-135307103D01*
X130344933Y-135307096D01*
X130324450Y-135099131D01*
X130324449Y-135099126D01*
X130302621Y-135027168D01*
X130263786Y-134899147D01*
X130247137Y-134867999D01*
X130165281Y-134714855D01*
X130165276Y-134714848D01*
X130165274Y-134714844D01*
X130085380Y-134617493D01*
X130032703Y-134553305D01*
X130032694Y-134553296D01*
X129938519Y-134476009D01*
X129871156Y-134420726D01*
X129871153Y-134420724D01*
X129871144Y-134420718D01*
X129686858Y-134322216D01*
X129686853Y-134322214D01*
X129486873Y-134261550D01*
X129486868Y-134261549D01*
X129278903Y-134241067D01*
X129278897Y-134241067D01*
X129070931Y-134261549D01*
X129070926Y-134261550D01*
X128870946Y-134322214D01*
X128870941Y-134322216D01*
X128686655Y-134420718D01*
X128686645Y-134420725D01*
X128525105Y-134553296D01*
X128525096Y-134553305D01*
X128392525Y-134714845D01*
X128392518Y-134714855D01*
X128294016Y-134899141D01*
X128294014Y-134899146D01*
X128233350Y-135099126D01*
X128233349Y-135099131D01*
X128212867Y-135307096D01*
X128212867Y-135307103D01*
X127744933Y-135307103D01*
X127744933Y-135307096D01*
X127724450Y-135099131D01*
X127724449Y-135099126D01*
X127702621Y-135027168D01*
X127663786Y-134899147D01*
X127647137Y-134867999D01*
X127565281Y-134714855D01*
X127565276Y-134714848D01*
X127565274Y-134714844D01*
X127485380Y-134617493D01*
X127432703Y-134553305D01*
X127432694Y-134553296D01*
X127338519Y-134476009D01*
X127271156Y-134420726D01*
X127271153Y-134420724D01*
X127271144Y-134420718D01*
X127086858Y-134322216D01*
X127086853Y-134322214D01*
X126886873Y-134261550D01*
X126886868Y-134261549D01*
X126678903Y-134241067D01*
X126678897Y-134241067D01*
X126470931Y-134261549D01*
X126470926Y-134261550D01*
X126270946Y-134322214D01*
X126270941Y-134322216D01*
X126086655Y-134420718D01*
X126086645Y-134420725D01*
X125925105Y-134553296D01*
X125925096Y-134553305D01*
X125792525Y-134714845D01*
X125792518Y-134714855D01*
X125694016Y-134899141D01*
X125694014Y-134899146D01*
X125633350Y-135099126D01*
X125633349Y-135099131D01*
X125612867Y-135307096D01*
X125612867Y-135307103D01*
X118835130Y-135307103D01*
X118810650Y-135259058D01*
X118720942Y-135169350D01*
X118607904Y-135111754D01*
X118607905Y-135111754D01*
X118514121Y-135096900D01*
X117485878Y-135096900D01*
X117485876Y-135096901D01*
X117392100Y-135111752D01*
X117392095Y-135111754D01*
X117279059Y-135169349D01*
X117189349Y-135259059D01*
X117131754Y-135372095D01*
X117116900Y-135465878D01*
X117116900Y-136494121D01*
X117116901Y-136494123D01*
X117131752Y-136587899D01*
X117131754Y-136587904D01*
X117189350Y-136700942D01*
X117279058Y-136790650D01*
X117392096Y-136848246D01*
X117453714Y-136858005D01*
X117508231Y-136885782D01*
X117536009Y-136940298D01*
X117529692Y-136993671D01*
X117481109Y-137110962D01*
X117481108Y-137110962D01*
X117462804Y-137249999D01*
X117462804Y-137250000D01*
X117481108Y-137389036D01*
X117481109Y-137389037D01*
X117488811Y-137407633D01*
X117644400Y-137252044D01*
X117644400Y-137296816D01*
X117668634Y-137387256D01*
X117715450Y-137468343D01*
X117781657Y-137534550D01*
X117862744Y-137581366D01*
X117953184Y-137605600D01*
X117997953Y-137605600D01*
X117995648Y-137607905D01*
X117941131Y-137635681D01*
X117925645Y-137636900D01*
X117907182Y-137636900D01*
X117809642Y-137657633D01*
X117725607Y-137675495D01*
X117725601Y-137675497D01*
X117556024Y-137750997D01*
X117556016Y-137751002D01*
X117405836Y-137860113D01*
X117281620Y-137998070D01*
X117281620Y-137998071D01*
X117188809Y-138158823D01*
X117188803Y-138158837D01*
X117131441Y-138335373D01*
X117131441Y-138335376D01*
X117112036Y-138520000D01*
X112039950Y-138520000D01*
X112039950Y-136906699D01*
X112058857Y-136848508D01*
X112108357Y-136812544D01*
X112138950Y-136807699D01*
X112231371Y-136807699D01*
X112231372Y-136807698D01*
X112280462Y-136799924D01*
X112325149Y-136792847D01*
X112325149Y-136792846D01*
X112325154Y-136792846D01*
X112438192Y-136735250D01*
X112527900Y-136645542D01*
X112585496Y-136532504D01*
X112600350Y-136438719D01*
X112600349Y-135054882D01*
X112600349Y-135054881D01*
X112600349Y-135054878D01*
X112600348Y-135054876D01*
X112585497Y-134961100D01*
X112585496Y-134961098D01*
X112585496Y-134961096D01*
X112527900Y-134848058D01*
X112438192Y-134758350D01*
X112325154Y-134700754D01*
X112325155Y-134700754D01*
X112231372Y-134685900D01*
X112231369Y-134685900D01*
X112138950Y-134685900D01*
X112080759Y-134666993D01*
X112044795Y-134617493D01*
X112039950Y-134586900D01*
X112039950Y-118520000D01*
X117112036Y-118520000D01*
X117131441Y-118704623D01*
X117131441Y-118704626D01*
X117188803Y-118881162D01*
X117188809Y-118881176D01*
X117231216Y-118954626D01*
X117281622Y-119041932D01*
X117405836Y-119179886D01*
X117556018Y-119288999D01*
X117556022Y-119289000D01*
X117556024Y-119289002D01*
X117612146Y-119313989D01*
X117725604Y-119364504D01*
X117907182Y-119403100D01*
X117907185Y-119403100D01*
X118092815Y-119403100D01*
X118092818Y-119403100D01*
X118274396Y-119364504D01*
X118443982Y-119288999D01*
X118594164Y-119179886D01*
X118718378Y-119041932D01*
X118811195Y-118881167D01*
X118847316Y-118770000D01*
X118868558Y-118704626D01*
X118868558Y-118704623D01*
X118868560Y-118704618D01*
X118887964Y-118520000D01*
X118868560Y-118335382D01*
X118868558Y-118335375D01*
X118868558Y-118335373D01*
X118811196Y-118158837D01*
X118811195Y-118158833D01*
X118811192Y-118158828D01*
X118811190Y-118158823D01*
X118763507Y-118076235D01*
X118718378Y-117998068D01*
X118594164Y-117860114D01*
X118443982Y-117751001D01*
X118443979Y-117751000D01*
X118443975Y-117750997D01*
X118274398Y-117675497D01*
X118274396Y-117675496D01*
X118274393Y-117675495D01*
X118274392Y-117675495D01*
X118239857Y-117668154D01*
X118092818Y-117636900D01*
X118074355Y-117636900D01*
X118016164Y-117617993D01*
X118004352Y-117607905D01*
X118002047Y-117605600D01*
X118046816Y-117605600D01*
X118137256Y-117581366D01*
X118218343Y-117534550D01*
X118284550Y-117468343D01*
X118331366Y-117387256D01*
X118355600Y-117296816D01*
X118355600Y-117252047D01*
X118511186Y-117407633D01*
X118518891Y-117389034D01*
X118537196Y-117250000D01*
X118537196Y-117249999D01*
X118518891Y-117110964D01*
X118470307Y-116993672D01*
X118465506Y-116932675D01*
X118497476Y-116880506D01*
X118546286Y-116858005D01*
X118607899Y-116848247D01*
X118607899Y-116848246D01*
X118607904Y-116848246D01*
X118720942Y-116790650D01*
X118810650Y-116700942D01*
X118868246Y-116587904D01*
X118883100Y-116494119D01*
X118883099Y-115465882D01*
X118883099Y-115465881D01*
X118883099Y-115465878D01*
X118883098Y-115465876D01*
X118868247Y-115372100D01*
X118868246Y-115372098D01*
X118868246Y-115372096D01*
X118810650Y-115259058D01*
X118720942Y-115169350D01*
X118607904Y-115111754D01*
X118607905Y-115111754D01*
X118514121Y-115096900D01*
X117485878Y-115096900D01*
X117485876Y-115096901D01*
X117392100Y-115111752D01*
X117392095Y-115111754D01*
X117279059Y-115169349D01*
X117189349Y-115259059D01*
X117131754Y-115372095D01*
X117116900Y-115465878D01*
X117116900Y-116494121D01*
X117116901Y-116494123D01*
X117131752Y-116587899D01*
X117131754Y-116587904D01*
X117189350Y-116700942D01*
X117279058Y-116790650D01*
X117392096Y-116848246D01*
X117453714Y-116858005D01*
X117508231Y-116885782D01*
X117536009Y-116940298D01*
X117529692Y-116993671D01*
X117481109Y-117110962D01*
X117481108Y-117110962D01*
X117462804Y-117249999D01*
X117462804Y-117250000D01*
X117481108Y-117389036D01*
X117481109Y-117389037D01*
X117488811Y-117407633D01*
X117644400Y-117252044D01*
X117644400Y-117296816D01*
X117668634Y-117387256D01*
X117715450Y-117468343D01*
X117781657Y-117534550D01*
X117862744Y-117581366D01*
X117953184Y-117605600D01*
X117997953Y-117605600D01*
X117995648Y-117607905D01*
X117941131Y-117635681D01*
X117925645Y-117636900D01*
X117907182Y-117636900D01*
X117809642Y-117657633D01*
X117725607Y-117675495D01*
X117725601Y-117675497D01*
X117556024Y-117750997D01*
X117556016Y-117751002D01*
X117405836Y-117860113D01*
X117281620Y-117998070D01*
X117281620Y-117998071D01*
X117188809Y-118158823D01*
X117188803Y-118158837D01*
X117131441Y-118335373D01*
X117131441Y-118335376D01*
X117112036Y-118520000D01*
X112039950Y-118520000D01*
X112039950Y-116843449D01*
X112058857Y-116785258D01*
X112108357Y-116749294D01*
X112138950Y-116744449D01*
X112231371Y-116744449D01*
X112231372Y-116744448D01*
X112278261Y-116737022D01*
X112325149Y-116729597D01*
X112325149Y-116729596D01*
X112325154Y-116729596D01*
X112438192Y-116672000D01*
X112527900Y-116582292D01*
X112585496Y-116469254D01*
X112600350Y-116375469D01*
X112600349Y-115077103D01*
X125612867Y-115077103D01*
X125633349Y-115285068D01*
X125633350Y-115285073D01*
X125694014Y-115485053D01*
X125694016Y-115485058D01*
X125792518Y-115669344D01*
X125792524Y-115669353D01*
X125792526Y-115669356D01*
X125830704Y-115715876D01*
X125925096Y-115830894D01*
X125925105Y-115830903D01*
X126000444Y-115892732D01*
X126086644Y-115963474D01*
X126086648Y-115963476D01*
X126086655Y-115963481D01*
X126270941Y-116061983D01*
X126270947Y-116061986D01*
X126410263Y-116104246D01*
X126470926Y-116122649D01*
X126470931Y-116122650D01*
X126678897Y-116143133D01*
X126678900Y-116143133D01*
X126678903Y-116143133D01*
X126886868Y-116122650D01*
X126886873Y-116122649D01*
X127086853Y-116061986D01*
X127152929Y-116026667D01*
X127271144Y-115963481D01*
X127271147Y-115963478D01*
X127271156Y-115963474D01*
X127432699Y-115830899D01*
X127565274Y-115669356D01*
X127565278Y-115669347D01*
X127565281Y-115669344D01*
X127628467Y-115551129D01*
X127663786Y-115485053D01*
X127724449Y-115285073D01*
X127724450Y-115285068D01*
X127744933Y-115077103D01*
X128212867Y-115077103D01*
X128233349Y-115285068D01*
X128233350Y-115285073D01*
X128294014Y-115485053D01*
X128294016Y-115485058D01*
X128392518Y-115669344D01*
X128392524Y-115669353D01*
X128392526Y-115669356D01*
X128430704Y-115715876D01*
X128525096Y-115830894D01*
X128525105Y-115830903D01*
X128600444Y-115892732D01*
X128686644Y-115963474D01*
X128686648Y-115963476D01*
X128686655Y-115963481D01*
X128870941Y-116061983D01*
X128870947Y-116061986D01*
X129010263Y-116104246D01*
X129070926Y-116122649D01*
X129070931Y-116122650D01*
X129278897Y-116143133D01*
X129278900Y-116143133D01*
X129278903Y-116143133D01*
X129486868Y-116122650D01*
X129486873Y-116122649D01*
X129686853Y-116061986D01*
X129752929Y-116026667D01*
X129871144Y-115963481D01*
X129871147Y-115963478D01*
X129871156Y-115963474D01*
X130032699Y-115830899D01*
X130165274Y-115669356D01*
X130165278Y-115669347D01*
X130165281Y-115669344D01*
X130228467Y-115551129D01*
X130263786Y-115485053D01*
X130324449Y-115285073D01*
X130324450Y-115285068D01*
X130344933Y-115077103D01*
X130344933Y-115077096D01*
X130324450Y-114869131D01*
X130324449Y-114869126D01*
X130298964Y-114785114D01*
X130263786Y-114669147D01*
X130263783Y-114669141D01*
X130165281Y-114484855D01*
X130165276Y-114484848D01*
X130165274Y-114484844D01*
X130094532Y-114398644D01*
X130032703Y-114323305D01*
X130032694Y-114323296D01*
X129938519Y-114246009D01*
X129871156Y-114190726D01*
X129871153Y-114190724D01*
X129871144Y-114190718D01*
X129686858Y-114092216D01*
X129686853Y-114092214D01*
X129486873Y-114031550D01*
X129486868Y-114031549D01*
X129278903Y-114011067D01*
X129278897Y-114011067D01*
X129070931Y-114031549D01*
X129070926Y-114031550D01*
X128870946Y-114092214D01*
X128870941Y-114092216D01*
X128686655Y-114190718D01*
X128686645Y-114190725D01*
X128525105Y-114323296D01*
X128525096Y-114323305D01*
X128392525Y-114484845D01*
X128392518Y-114484855D01*
X128294016Y-114669141D01*
X128294014Y-114669146D01*
X128233350Y-114869126D01*
X128233349Y-114869131D01*
X128212867Y-115077096D01*
X128212867Y-115077103D01*
X127744933Y-115077103D01*
X127744933Y-115077096D01*
X127724450Y-114869131D01*
X127724449Y-114869126D01*
X127698964Y-114785114D01*
X127663786Y-114669147D01*
X127663783Y-114669141D01*
X127565281Y-114484855D01*
X127565276Y-114484848D01*
X127565274Y-114484844D01*
X127494532Y-114398644D01*
X127432703Y-114323305D01*
X127432694Y-114323296D01*
X127338519Y-114246009D01*
X127271156Y-114190726D01*
X127271153Y-114190724D01*
X127271144Y-114190718D01*
X127086858Y-114092216D01*
X127086853Y-114092214D01*
X126886873Y-114031550D01*
X126886868Y-114031549D01*
X126678903Y-114011067D01*
X126678897Y-114011067D01*
X126470931Y-114031549D01*
X126470926Y-114031550D01*
X126270946Y-114092214D01*
X126270941Y-114092216D01*
X126086655Y-114190718D01*
X126086645Y-114190725D01*
X125925105Y-114323296D01*
X125925096Y-114323305D01*
X125792525Y-114484845D01*
X125792518Y-114484855D01*
X125694016Y-114669141D01*
X125694014Y-114669146D01*
X125633350Y-114869126D01*
X125633349Y-114869131D01*
X125612867Y-115077096D01*
X125612867Y-115077103D01*
X112600349Y-115077103D01*
X112600349Y-114991632D01*
X112600349Y-114991631D01*
X112600349Y-114991628D01*
X112600348Y-114991626D01*
X112585497Y-114897850D01*
X112585496Y-114897848D01*
X112585496Y-114897846D01*
X112527900Y-114784808D01*
X112438192Y-114695100D01*
X112325154Y-114637504D01*
X112325155Y-114637504D01*
X112231372Y-114622650D01*
X112231369Y-114622650D01*
X112138950Y-114622650D01*
X112080759Y-114603743D01*
X112044795Y-114554243D01*
X112039950Y-114523650D01*
X112039950Y-98520000D01*
X117112036Y-98520000D01*
X117131441Y-98704623D01*
X117131441Y-98704626D01*
X117188803Y-98881162D01*
X117188809Y-98881176D01*
X117262547Y-99008893D01*
X117281622Y-99041932D01*
X117405836Y-99179886D01*
X117556018Y-99288999D01*
X117556022Y-99289000D01*
X117556024Y-99289002D01*
X117612146Y-99313989D01*
X117725604Y-99364504D01*
X117907182Y-99403100D01*
X117907185Y-99403100D01*
X118092815Y-99403100D01*
X118092818Y-99403100D01*
X118274396Y-99364504D01*
X118443982Y-99288999D01*
X118594164Y-99179886D01*
X118718378Y-99041932D01*
X118811195Y-98881167D01*
X118840470Y-98791068D01*
X118868558Y-98704626D01*
X118868558Y-98704623D01*
X118868560Y-98704618D01*
X118887964Y-98520000D01*
X118868560Y-98335382D01*
X118868558Y-98335375D01*
X118868558Y-98335373D01*
X118811196Y-98158837D01*
X118811195Y-98158833D01*
X118811192Y-98158828D01*
X118811190Y-98158823D01*
X118763507Y-98076235D01*
X118718378Y-97998068D01*
X118594164Y-97860114D01*
X118562965Y-97837447D01*
X118459048Y-97761947D01*
X118443982Y-97751001D01*
X118443979Y-97751000D01*
X118443975Y-97750997D01*
X118274398Y-97675497D01*
X118274396Y-97675496D01*
X118274393Y-97675495D01*
X118274392Y-97675495D01*
X118238265Y-97667816D01*
X118092818Y-97636900D01*
X118074355Y-97636900D01*
X118016164Y-97617993D01*
X118004352Y-97607905D01*
X118002047Y-97605600D01*
X118046816Y-97605600D01*
X118137256Y-97581366D01*
X118218343Y-97534550D01*
X118284550Y-97468343D01*
X118331366Y-97387256D01*
X118355600Y-97296816D01*
X118355600Y-97252047D01*
X118511186Y-97407633D01*
X118518891Y-97389034D01*
X118537196Y-97250000D01*
X118537196Y-97249999D01*
X118518891Y-97110964D01*
X118470307Y-96993672D01*
X118465506Y-96932675D01*
X118497476Y-96880506D01*
X118546286Y-96858005D01*
X118607899Y-96848247D01*
X118607899Y-96848246D01*
X118607904Y-96848246D01*
X118720942Y-96790650D01*
X118810650Y-96700942D01*
X118868246Y-96587904D01*
X118883100Y-96494119D01*
X118883099Y-95913553D01*
X125273417Y-95913553D01*
X125293899Y-96121518D01*
X125293900Y-96121523D01*
X125354564Y-96321503D01*
X125354566Y-96321508D01*
X125453068Y-96505794D01*
X125453074Y-96505803D01*
X125453076Y-96505806D01*
X125486100Y-96546046D01*
X125585646Y-96667344D01*
X125585655Y-96667353D01*
X125626584Y-96700942D01*
X125747194Y-96799924D01*
X125747198Y-96799926D01*
X125747205Y-96799931D01*
X125923946Y-96894400D01*
X125931497Y-96898436D01*
X126051031Y-96934696D01*
X126131476Y-96959099D01*
X126131481Y-96959100D01*
X126339447Y-96979583D01*
X126339450Y-96979583D01*
X126339453Y-96979583D01*
X126547418Y-96959100D01*
X126547423Y-96959099D01*
X126747403Y-96898436D01*
X126854101Y-96841405D01*
X126931694Y-96799931D01*
X126931697Y-96799928D01*
X126931706Y-96799924D01*
X127093249Y-96667349D01*
X127225824Y-96505806D01*
X127225828Y-96505797D01*
X127225831Y-96505794D01*
X127289662Y-96386374D01*
X127324336Y-96321503D01*
X127384999Y-96121523D01*
X127385000Y-96121518D01*
X127405483Y-95913553D01*
X127873417Y-95913553D01*
X127893899Y-96121518D01*
X127893900Y-96121523D01*
X127954564Y-96321503D01*
X127954566Y-96321508D01*
X128053068Y-96505794D01*
X128053074Y-96505803D01*
X128053076Y-96505806D01*
X128086100Y-96546046D01*
X128185646Y-96667344D01*
X128185655Y-96667353D01*
X128226584Y-96700942D01*
X128347194Y-96799924D01*
X128347198Y-96799926D01*
X128347205Y-96799931D01*
X128523946Y-96894400D01*
X128531497Y-96898436D01*
X128651031Y-96934696D01*
X128731476Y-96959099D01*
X128731481Y-96959100D01*
X128939447Y-96979583D01*
X128939450Y-96979583D01*
X128939453Y-96979583D01*
X129147418Y-96959100D01*
X129147423Y-96959099D01*
X129347403Y-96898436D01*
X129454101Y-96841405D01*
X129531694Y-96799931D01*
X129531697Y-96799928D01*
X129531706Y-96799924D01*
X129693249Y-96667349D01*
X129825824Y-96505806D01*
X129825828Y-96505797D01*
X129825831Y-96505794D01*
X129889662Y-96386374D01*
X129924336Y-96321503D01*
X129984999Y-96121523D01*
X129985000Y-96121518D01*
X130005483Y-95913553D01*
X130005483Y-95913546D01*
X129985000Y-95705581D01*
X129984999Y-95705576D01*
X129953238Y-95600876D01*
X129924336Y-95505597D01*
X129924333Y-95505591D01*
X129825831Y-95321305D01*
X129825826Y-95321298D01*
X129825824Y-95321294D01*
X129752460Y-95231900D01*
X129693253Y-95159755D01*
X129693244Y-95159746D01*
X129599069Y-95082459D01*
X129531706Y-95027176D01*
X129531703Y-95027174D01*
X129531694Y-95027168D01*
X129347408Y-94928666D01*
X129347403Y-94928664D01*
X129147423Y-94868000D01*
X129147418Y-94867999D01*
X128939453Y-94847517D01*
X128939447Y-94847517D01*
X128731481Y-94867999D01*
X128731476Y-94868000D01*
X128531496Y-94928664D01*
X128531491Y-94928666D01*
X128347205Y-95027168D01*
X128347195Y-95027175D01*
X128185655Y-95159746D01*
X128185646Y-95159755D01*
X128053075Y-95321295D01*
X128053068Y-95321305D01*
X127954566Y-95505591D01*
X127954564Y-95505596D01*
X127893900Y-95705576D01*
X127893899Y-95705581D01*
X127873417Y-95913546D01*
X127873417Y-95913553D01*
X127405483Y-95913553D01*
X127405483Y-95913546D01*
X127385000Y-95705581D01*
X127384999Y-95705576D01*
X127353238Y-95600876D01*
X127324336Y-95505597D01*
X127324333Y-95505591D01*
X127225831Y-95321305D01*
X127225826Y-95321298D01*
X127225824Y-95321294D01*
X127152460Y-95231900D01*
X127093253Y-95159755D01*
X127093244Y-95159746D01*
X126999069Y-95082459D01*
X126931706Y-95027176D01*
X126931703Y-95027174D01*
X126931694Y-95027168D01*
X126747408Y-94928666D01*
X126747403Y-94928664D01*
X126547423Y-94868000D01*
X126547418Y-94867999D01*
X126339453Y-94847517D01*
X126339447Y-94847517D01*
X126131481Y-94867999D01*
X126131476Y-94868000D01*
X125931496Y-94928664D01*
X125931491Y-94928666D01*
X125747205Y-95027168D01*
X125747195Y-95027175D01*
X125585655Y-95159746D01*
X125585646Y-95159755D01*
X125453075Y-95321295D01*
X125453068Y-95321305D01*
X125354566Y-95505591D01*
X125354564Y-95505596D01*
X125293900Y-95705576D01*
X125293899Y-95705581D01*
X125273417Y-95913546D01*
X125273417Y-95913553D01*
X118883099Y-95913553D01*
X118883099Y-95465882D01*
X118883099Y-95465881D01*
X118883099Y-95465878D01*
X118883098Y-95465876D01*
X118868247Y-95372100D01*
X118868246Y-95372098D01*
X118868246Y-95372096D01*
X118810650Y-95259058D01*
X118720942Y-95169350D01*
X118607904Y-95111754D01*
X118607905Y-95111754D01*
X118514121Y-95096900D01*
X117485878Y-95096900D01*
X117485876Y-95096901D01*
X117392100Y-95111752D01*
X117392095Y-95111754D01*
X117279059Y-95169349D01*
X117189349Y-95259059D01*
X117131754Y-95372095D01*
X117116900Y-95465878D01*
X117116900Y-96494121D01*
X117116901Y-96494123D01*
X117131752Y-96587899D01*
X117131754Y-96587904D01*
X117189350Y-96700942D01*
X117279058Y-96790650D01*
X117392096Y-96848246D01*
X117453714Y-96858005D01*
X117508231Y-96885782D01*
X117536009Y-96940298D01*
X117529692Y-96993671D01*
X117481109Y-97110962D01*
X117481108Y-97110962D01*
X117462804Y-97249999D01*
X117462804Y-97250000D01*
X117481108Y-97389036D01*
X117481109Y-97389037D01*
X117488811Y-97407633D01*
X117644400Y-97252044D01*
X117644400Y-97296816D01*
X117668634Y-97387256D01*
X117715450Y-97468343D01*
X117781657Y-97534550D01*
X117862744Y-97581366D01*
X117953184Y-97605600D01*
X117997953Y-97605600D01*
X117995648Y-97607905D01*
X117941131Y-97635681D01*
X117925645Y-97636900D01*
X117907182Y-97636900D01*
X117791397Y-97661511D01*
X117725607Y-97675495D01*
X117725601Y-97675497D01*
X117556024Y-97750997D01*
X117556016Y-97751002D01*
X117405836Y-97860113D01*
X117281620Y-97998070D01*
X117281620Y-97998071D01*
X117188809Y-98158823D01*
X117188803Y-98158837D01*
X117131441Y-98335373D01*
X117131441Y-98335376D01*
X117131440Y-98335380D01*
X117131440Y-98335382D01*
X117122354Y-98421832D01*
X117112036Y-98520000D01*
X112039950Y-98520000D01*
X112039950Y-96906699D01*
X112058857Y-96848508D01*
X112108357Y-96812544D01*
X112138950Y-96807699D01*
X112231371Y-96807699D01*
X112231372Y-96807698D01*
X112280462Y-96799924D01*
X112325149Y-96792847D01*
X112325149Y-96792846D01*
X112325154Y-96792846D01*
X112438192Y-96735250D01*
X112527900Y-96645542D01*
X112585496Y-96532504D01*
X112600350Y-96438719D01*
X112600349Y-95054882D01*
X112600349Y-95054881D01*
X112600349Y-95054878D01*
X112600348Y-95054876D01*
X112585497Y-94961100D01*
X112585496Y-94961098D01*
X112585496Y-94961096D01*
X112527900Y-94848058D01*
X112438192Y-94758350D01*
X112325154Y-94700754D01*
X112325155Y-94700754D01*
X112231371Y-94685900D01*
X110847528Y-94685900D01*
X110847526Y-94685901D01*
X110753750Y-94700752D01*
X110753745Y-94700754D01*
X110640709Y-94758349D01*
X110550999Y-94848059D01*
X110493404Y-94961095D01*
X110478550Y-95054878D01*
X110478550Y-96438721D01*
X110478551Y-96438723D01*
X110493402Y-96532499D01*
X110493404Y-96532504D01*
X110551000Y-96645542D01*
X110640708Y-96735250D01*
X110753746Y-96792846D01*
X110847531Y-96807700D01*
X110939950Y-96807699D01*
X110998140Y-96826606D01*
X111034104Y-96876105D01*
X111038950Y-96906699D01*
X111038950Y-114523650D01*
X111020043Y-114581841D01*
X110970543Y-114617805D01*
X110939951Y-114622650D01*
X110847529Y-114622650D01*
X110847526Y-114622651D01*
X110753750Y-114637502D01*
X110753745Y-114637504D01*
X110640709Y-114695099D01*
X110550999Y-114784809D01*
X110493404Y-114897845D01*
X110478550Y-114991628D01*
X110478550Y-116375471D01*
X110478551Y-116375473D01*
X110493402Y-116469249D01*
X110493404Y-116469254D01*
X110551000Y-116582292D01*
X110640708Y-116672000D01*
X110753746Y-116729596D01*
X110847531Y-116744450D01*
X110939950Y-116744449D01*
X110998140Y-116763356D01*
X111034104Y-116812855D01*
X111038950Y-116843449D01*
X111038950Y-134586900D01*
X111020043Y-134645091D01*
X110970543Y-134681055D01*
X110939951Y-134685900D01*
X110847529Y-134685900D01*
X110847526Y-134685901D01*
X110753750Y-134700752D01*
X110753745Y-134700754D01*
X110640709Y-134758349D01*
X110550999Y-134848059D01*
X110493404Y-134961095D01*
X110478550Y-135054878D01*
X110478550Y-136438721D01*
X110478551Y-136438723D01*
X110493402Y-136532499D01*
X110493404Y-136532504D01*
X110551000Y-136645542D01*
X110640708Y-136735250D01*
X110753746Y-136792846D01*
X110847531Y-136807700D01*
X110939950Y-136807699D01*
X110998140Y-136826606D01*
X111034104Y-136876105D01*
X111038950Y-136906699D01*
X111038950Y-154586900D01*
X111020043Y-154645091D01*
X110970543Y-154681055D01*
X110939951Y-154685900D01*
X110847529Y-154685900D01*
X110847526Y-154685901D01*
X110753750Y-154700752D01*
X110753745Y-154700754D01*
X110640709Y-154758349D01*
X110550999Y-154848059D01*
X110493404Y-154961095D01*
X110478550Y-155054878D01*
X110478550Y-156058878D01*
X110459643Y-156117069D01*
X110449554Y-156128881D01*
X110400733Y-156177703D01*
X110346217Y-156205481D01*
X110330729Y-156206700D01*
X110042064Y-156206700D01*
X109983873Y-156187793D01*
X109947909Y-156138293D01*
X109947327Y-156078962D01*
X109984999Y-155954773D01*
X109985000Y-155954768D01*
X110005483Y-155746803D01*
X110005483Y-155746796D01*
X109985000Y-155538831D01*
X109984999Y-155538826D01*
X109962870Y-155465876D01*
X109924336Y-155338847D01*
X109913678Y-155318907D01*
X109825831Y-155154555D01*
X109825826Y-155154548D01*
X109825824Y-155154544D01*
X109744030Y-155054878D01*
X109693253Y-154993005D01*
X109693244Y-154992996D01*
X109572790Y-154894143D01*
X109531706Y-154860426D01*
X109531703Y-154860424D01*
X109531694Y-154860418D01*
X109347408Y-154761916D01*
X109347403Y-154761914D01*
X109147423Y-154701250D01*
X109147418Y-154701249D01*
X108939453Y-154680767D01*
X108939447Y-154680767D01*
X108731481Y-154701249D01*
X108731476Y-154701250D01*
X108531496Y-154761914D01*
X108531491Y-154761916D01*
X108347205Y-154860418D01*
X108347195Y-154860425D01*
X108185655Y-154992996D01*
X108185646Y-154993005D01*
X108053079Y-155154539D01*
X108053071Y-155154551D01*
X108049563Y-155161114D01*
X108005453Y-155203516D01*
X107944843Y-155211892D01*
X107892254Y-155184440D01*
X107483411Y-154775597D01*
X107057314Y-154349500D01*
X107057311Y-154349498D01*
X107057310Y-154349497D01*
X107057309Y-154349496D01*
X106943189Y-154283609D01*
X106943191Y-154283609D01*
X106893799Y-154270375D01*
X106815892Y-154249500D01*
X93521892Y-154249500D01*
X93390107Y-154249500D01*
X93312200Y-154270374D01*
X93262809Y-154283609D01*
X93148690Y-154349496D01*
X93148684Y-154349500D01*
X93148685Y-154349501D01*
X92760980Y-154737204D01*
X92706465Y-154764981D01*
X92690978Y-154766200D01*
X92535700Y-154766200D01*
X92477509Y-154747293D01*
X92441545Y-154697793D01*
X92436700Y-154667200D01*
X92436700Y-138520000D01*
X97112036Y-138520000D01*
X97131441Y-138704623D01*
X97131441Y-138704626D01*
X97188803Y-138881162D01*
X97188809Y-138881176D01*
X97231216Y-138954626D01*
X97281622Y-139041932D01*
X97405836Y-139179886D01*
X97556018Y-139288999D01*
X97556022Y-139289000D01*
X97556024Y-139289002D01*
X97612146Y-139313989D01*
X97725604Y-139364504D01*
X97907182Y-139403100D01*
X97907185Y-139403100D01*
X98092815Y-139403100D01*
X98092818Y-139403100D01*
X98274396Y-139364504D01*
X98443982Y-139288999D01*
X98594164Y-139179886D01*
X98718378Y-139041932D01*
X98811195Y-138881167D01*
X98847316Y-138770000D01*
X98868558Y-138704626D01*
X98868558Y-138704623D01*
X98868560Y-138704618D01*
X98887964Y-138520000D01*
X98868560Y-138335382D01*
X98868558Y-138335375D01*
X98868558Y-138335373D01*
X98825240Y-138202061D01*
X98811195Y-138158833D01*
X98811192Y-138158828D01*
X98811190Y-138158823D01*
X98735003Y-138026864D01*
X98718378Y-137998068D01*
X98594164Y-137860114D01*
X98569569Y-137842245D01*
X98476539Y-137774655D01*
X98443982Y-137751001D01*
X98443979Y-137751000D01*
X98443975Y-137750997D01*
X98274398Y-137675497D01*
X98274396Y-137675496D01*
X98274393Y-137675495D01*
X98274392Y-137675495D01*
X98239857Y-137668154D01*
X98092818Y-137636900D01*
X98074355Y-137636900D01*
X98016164Y-137617993D01*
X98004352Y-137607905D01*
X98002047Y-137605600D01*
X98046816Y-137605600D01*
X98137256Y-137581366D01*
X98218343Y-137534550D01*
X98284550Y-137468343D01*
X98331366Y-137387256D01*
X98355600Y-137296816D01*
X98355600Y-137252047D01*
X98511186Y-137407633D01*
X98518891Y-137389034D01*
X98537196Y-137250000D01*
X98537196Y-137249999D01*
X98518891Y-137110964D01*
X98470307Y-136993672D01*
X98465506Y-136932675D01*
X98497476Y-136880506D01*
X98546286Y-136858005D01*
X98607899Y-136848247D01*
X98607899Y-136848246D01*
X98607904Y-136848246D01*
X98720942Y-136790650D01*
X98810650Y-136700942D01*
X98868246Y-136587904D01*
X98883100Y-136494119D01*
X98883099Y-135746803D01*
X105273417Y-135746803D01*
X105293899Y-135954768D01*
X105293900Y-135954773D01*
X105354564Y-136154753D01*
X105354566Y-136154758D01*
X105453068Y-136339044D01*
X105453074Y-136339053D01*
X105453076Y-136339056D01*
X105491743Y-136386172D01*
X105585646Y-136500594D01*
X105585655Y-136500603D01*
X105624521Y-136532499D01*
X105747194Y-136633174D01*
X105747198Y-136633176D01*
X105747205Y-136633181D01*
X105931491Y-136731683D01*
X105931497Y-136731686D01*
X106070813Y-136773946D01*
X106131476Y-136792349D01*
X106131481Y-136792350D01*
X106339447Y-136812833D01*
X106339450Y-136812833D01*
X106339453Y-136812833D01*
X106547418Y-136792350D01*
X106547423Y-136792349D01*
X106553024Y-136790650D01*
X106747403Y-136731686D01*
X106813479Y-136696367D01*
X106931694Y-136633181D01*
X106931697Y-136633178D01*
X106931706Y-136633174D01*
X107093249Y-136500599D01*
X107225824Y-136339056D01*
X107225828Y-136339047D01*
X107225831Y-136339044D01*
X107324333Y-136154758D01*
X107324336Y-136154753D01*
X107384999Y-135954773D01*
X107385000Y-135954768D01*
X107405483Y-135746803D01*
X107873417Y-135746803D01*
X107893899Y-135954768D01*
X107893900Y-135954773D01*
X107954564Y-136154753D01*
X107954566Y-136154758D01*
X108053068Y-136339044D01*
X108053074Y-136339053D01*
X108053076Y-136339056D01*
X108091743Y-136386172D01*
X108185646Y-136500594D01*
X108185655Y-136500603D01*
X108224521Y-136532499D01*
X108347194Y-136633174D01*
X108347198Y-136633176D01*
X108347205Y-136633181D01*
X108531491Y-136731683D01*
X108531497Y-136731686D01*
X108670813Y-136773946D01*
X108731476Y-136792349D01*
X108731481Y-136792350D01*
X108939447Y-136812833D01*
X108939450Y-136812833D01*
X108939453Y-136812833D01*
X109147418Y-136792350D01*
X109147423Y-136792349D01*
X109153024Y-136790650D01*
X109347403Y-136731686D01*
X109413479Y-136696367D01*
X109531694Y-136633181D01*
X109531697Y-136633178D01*
X109531706Y-136633174D01*
X109693249Y-136500599D01*
X109825824Y-136339056D01*
X109825828Y-136339047D01*
X109825831Y-136339044D01*
X109924333Y-136154758D01*
X109924336Y-136154753D01*
X109984999Y-135954773D01*
X109985000Y-135954768D01*
X110005483Y-135746803D01*
X110005483Y-135746796D01*
X109985000Y-135538831D01*
X109984999Y-135538826D01*
X109962870Y-135465876D01*
X109924336Y-135338847D01*
X109914960Y-135321305D01*
X109825831Y-135154555D01*
X109825826Y-135154548D01*
X109825824Y-135154544D01*
X109755082Y-135068344D01*
X109693253Y-134993005D01*
X109693244Y-134992996D01*
X109599069Y-134915709D01*
X109531706Y-134860426D01*
X109531703Y-134860424D01*
X109531694Y-134860418D01*
X109347408Y-134761916D01*
X109347403Y-134761914D01*
X109147423Y-134701250D01*
X109147418Y-134701249D01*
X108939453Y-134680767D01*
X108939447Y-134680767D01*
X108731481Y-134701249D01*
X108731476Y-134701250D01*
X108531496Y-134761914D01*
X108531491Y-134761916D01*
X108347205Y-134860418D01*
X108347195Y-134860425D01*
X108185655Y-134992996D01*
X108185646Y-134993005D01*
X108053075Y-135154545D01*
X108053068Y-135154555D01*
X107954566Y-135338841D01*
X107954564Y-135338846D01*
X107893900Y-135538826D01*
X107893899Y-135538831D01*
X107873417Y-135746796D01*
X107873417Y-135746803D01*
X107405483Y-135746803D01*
X107405483Y-135746796D01*
X107385000Y-135538831D01*
X107384999Y-135538826D01*
X107362870Y-135465876D01*
X107324336Y-135338847D01*
X107314960Y-135321305D01*
X107225831Y-135154555D01*
X107225826Y-135154548D01*
X107225824Y-135154544D01*
X107155082Y-135068344D01*
X107093253Y-134993005D01*
X107093244Y-134992996D01*
X106999069Y-134915709D01*
X106931706Y-134860426D01*
X106931703Y-134860424D01*
X106931694Y-134860418D01*
X106747408Y-134761916D01*
X106747403Y-134761914D01*
X106547423Y-134701250D01*
X106547418Y-134701249D01*
X106339453Y-134680767D01*
X106339447Y-134680767D01*
X106131481Y-134701249D01*
X106131476Y-134701250D01*
X105931496Y-134761914D01*
X105931491Y-134761916D01*
X105747205Y-134860418D01*
X105747195Y-134860425D01*
X105585655Y-134992996D01*
X105585646Y-134993005D01*
X105453075Y-135154545D01*
X105453068Y-135154555D01*
X105354566Y-135338841D01*
X105354564Y-135338846D01*
X105293900Y-135538826D01*
X105293899Y-135538831D01*
X105273417Y-135746796D01*
X105273417Y-135746803D01*
X98883099Y-135746803D01*
X98883099Y-135465882D01*
X98883099Y-135465881D01*
X98883099Y-135465878D01*
X98883098Y-135465876D01*
X98868247Y-135372100D01*
X98868246Y-135372098D01*
X98868246Y-135372096D01*
X98810650Y-135259058D01*
X98720942Y-135169350D01*
X98607904Y-135111754D01*
X98607905Y-135111754D01*
X98514121Y-135096900D01*
X97485878Y-135096900D01*
X97485876Y-135096901D01*
X97392100Y-135111752D01*
X97392095Y-135111754D01*
X97279059Y-135169349D01*
X97189349Y-135259059D01*
X97131754Y-135372095D01*
X97116900Y-135465878D01*
X97116900Y-136494121D01*
X97116901Y-136494123D01*
X97131752Y-136587899D01*
X97131754Y-136587904D01*
X97189350Y-136700942D01*
X97279058Y-136790650D01*
X97392096Y-136848246D01*
X97453714Y-136858005D01*
X97508231Y-136885782D01*
X97536009Y-136940298D01*
X97529692Y-136993671D01*
X97481109Y-137110962D01*
X97481108Y-137110962D01*
X97462804Y-137249999D01*
X97462804Y-137250000D01*
X97481108Y-137389036D01*
X97481109Y-137389037D01*
X97488811Y-137407633D01*
X97644400Y-137252044D01*
X97644400Y-137296816D01*
X97668634Y-137387256D01*
X97715450Y-137468343D01*
X97781657Y-137534550D01*
X97862744Y-137581366D01*
X97953184Y-137605600D01*
X97997953Y-137605600D01*
X97995648Y-137607905D01*
X97941131Y-137635681D01*
X97925645Y-137636900D01*
X97907182Y-137636900D01*
X97809642Y-137657633D01*
X97725607Y-137675495D01*
X97725601Y-137675497D01*
X97556024Y-137750997D01*
X97556016Y-137751002D01*
X97405836Y-137860113D01*
X97281620Y-137998070D01*
X97281620Y-137998071D01*
X97188809Y-138158823D01*
X97188803Y-138158837D01*
X97131441Y-138335373D01*
X97131441Y-138335376D01*
X97112036Y-138520000D01*
X92436700Y-138520000D01*
X92436700Y-137073449D01*
X92455607Y-137015258D01*
X92505107Y-136979294D01*
X92535700Y-136974449D01*
X92628121Y-136974449D01*
X92628122Y-136974448D01*
X92684940Y-136965450D01*
X92721899Y-136959597D01*
X92721899Y-136959596D01*
X92721904Y-136959596D01*
X92834942Y-136902000D01*
X92924650Y-136812292D01*
X92982246Y-136699254D01*
X92997100Y-136605469D01*
X92997099Y-135221632D01*
X92997099Y-135221631D01*
X92997099Y-135221628D01*
X92997098Y-135221626D01*
X92982247Y-135127850D01*
X92982246Y-135127848D01*
X92982246Y-135127846D01*
X92924650Y-135014808D01*
X92834942Y-134925100D01*
X92721904Y-134867504D01*
X92721905Y-134867504D01*
X92628122Y-134852650D01*
X92628119Y-134852650D01*
X92368950Y-134852650D01*
X92310759Y-134833743D01*
X92274795Y-134784243D01*
X92269950Y-134753650D01*
X92269950Y-118520000D01*
X97112036Y-118520000D01*
X97131441Y-118704623D01*
X97131441Y-118704626D01*
X97188803Y-118881162D01*
X97188809Y-118881176D01*
X97231216Y-118954626D01*
X97281622Y-119041932D01*
X97405836Y-119179886D01*
X97556018Y-119288999D01*
X97556022Y-119289000D01*
X97556024Y-119289002D01*
X97612146Y-119313989D01*
X97725604Y-119364504D01*
X97907182Y-119403100D01*
X97907185Y-119403100D01*
X98092815Y-119403100D01*
X98092818Y-119403100D01*
X98274396Y-119364504D01*
X98443982Y-119288999D01*
X98594164Y-119179886D01*
X98718378Y-119041932D01*
X98811195Y-118881167D01*
X98847316Y-118770000D01*
X98868558Y-118704626D01*
X98868558Y-118704623D01*
X98868560Y-118704618D01*
X98887964Y-118520000D01*
X98868560Y-118335382D01*
X98868558Y-118335375D01*
X98868558Y-118335373D01*
X98811196Y-118158837D01*
X98811195Y-118158833D01*
X98811192Y-118158828D01*
X98811190Y-118158823D01*
X98763507Y-118076235D01*
X98718378Y-117998068D01*
X98594164Y-117860114D01*
X98443982Y-117751001D01*
X98443979Y-117751000D01*
X98443975Y-117750997D01*
X98274398Y-117675497D01*
X98274396Y-117675496D01*
X98274393Y-117675495D01*
X98274392Y-117675495D01*
X98239857Y-117668154D01*
X98092818Y-117636900D01*
X98074355Y-117636900D01*
X98016164Y-117617993D01*
X98004352Y-117607905D01*
X98002047Y-117605600D01*
X98046816Y-117605600D01*
X98137256Y-117581366D01*
X98218343Y-117534550D01*
X98284550Y-117468343D01*
X98331366Y-117387256D01*
X98355600Y-117296816D01*
X98355600Y-117252047D01*
X98511186Y-117407633D01*
X98518891Y-117389034D01*
X98537196Y-117250000D01*
X98537196Y-117249999D01*
X98518891Y-117110964D01*
X98470307Y-116993672D01*
X98465506Y-116932675D01*
X98497476Y-116880506D01*
X98546286Y-116858005D01*
X98607899Y-116848247D01*
X98607899Y-116848246D01*
X98607904Y-116848246D01*
X98720942Y-116790650D01*
X98810650Y-116700942D01*
X98868246Y-116587904D01*
X98883100Y-116494119D01*
X98883099Y-115683553D01*
X105273417Y-115683553D01*
X105293899Y-115891518D01*
X105293900Y-115891523D01*
X105354564Y-116091503D01*
X105354566Y-116091508D01*
X105453068Y-116275794D01*
X105453074Y-116275803D01*
X105453076Y-116275806D01*
X105508359Y-116343169D01*
X105585646Y-116437344D01*
X105585655Y-116437353D01*
X105615592Y-116461921D01*
X105747194Y-116569924D01*
X105747198Y-116569926D01*
X105747205Y-116569931D01*
X105931491Y-116668433D01*
X105931497Y-116668436D01*
X106065546Y-116709099D01*
X106131476Y-116729099D01*
X106131481Y-116729100D01*
X106339447Y-116749583D01*
X106339450Y-116749583D01*
X106339453Y-116749583D01*
X106547418Y-116729100D01*
X106547423Y-116729099D01*
X106562755Y-116724448D01*
X106747403Y-116668436D01*
X106813479Y-116633117D01*
X106931694Y-116569931D01*
X106931697Y-116569928D01*
X106931706Y-116569924D01*
X107093249Y-116437349D01*
X107225824Y-116275806D01*
X107225828Y-116275797D01*
X107225831Y-116275794D01*
X107307423Y-116123145D01*
X107324336Y-116091503D01*
X107384999Y-115891523D01*
X107385000Y-115891518D01*
X107405483Y-115683553D01*
X107873417Y-115683553D01*
X107893899Y-115891518D01*
X107893900Y-115891523D01*
X107954564Y-116091503D01*
X107954566Y-116091508D01*
X108053068Y-116275794D01*
X108053074Y-116275803D01*
X108053076Y-116275806D01*
X108108359Y-116343169D01*
X108185646Y-116437344D01*
X108185655Y-116437353D01*
X108215592Y-116461921D01*
X108347194Y-116569924D01*
X108347198Y-116569926D01*
X108347205Y-116569931D01*
X108531491Y-116668433D01*
X108531497Y-116668436D01*
X108665546Y-116709099D01*
X108731476Y-116729099D01*
X108731481Y-116729100D01*
X108939447Y-116749583D01*
X108939450Y-116749583D01*
X108939453Y-116749583D01*
X109147418Y-116729100D01*
X109147423Y-116729099D01*
X109162755Y-116724448D01*
X109347403Y-116668436D01*
X109413479Y-116633117D01*
X109531694Y-116569931D01*
X109531697Y-116569928D01*
X109531706Y-116569924D01*
X109693249Y-116437349D01*
X109825824Y-116275806D01*
X109825828Y-116275797D01*
X109825831Y-116275794D01*
X109907423Y-116123145D01*
X109924336Y-116091503D01*
X109984999Y-115891523D01*
X109985000Y-115891518D01*
X110005483Y-115683553D01*
X110005483Y-115683546D01*
X109985000Y-115475581D01*
X109984999Y-115475576D01*
X109953610Y-115372100D01*
X109924336Y-115275597D01*
X109924333Y-115275591D01*
X109825831Y-115091305D01*
X109825826Y-115091298D01*
X109825824Y-115091294D01*
X109755082Y-115005094D01*
X109693253Y-114929755D01*
X109693244Y-114929746D01*
X109599069Y-114852459D01*
X109531706Y-114797176D01*
X109531703Y-114797174D01*
X109531694Y-114797168D01*
X109347408Y-114698666D01*
X109347403Y-114698664D01*
X109147423Y-114638000D01*
X109147418Y-114637999D01*
X108939453Y-114617517D01*
X108939447Y-114617517D01*
X108731481Y-114637999D01*
X108731476Y-114638000D01*
X108531496Y-114698664D01*
X108531491Y-114698666D01*
X108347205Y-114797168D01*
X108347195Y-114797175D01*
X108185655Y-114929746D01*
X108185646Y-114929755D01*
X108053075Y-115091295D01*
X108053068Y-115091305D01*
X107954566Y-115275591D01*
X107954564Y-115275596D01*
X107893900Y-115475576D01*
X107893899Y-115475581D01*
X107873417Y-115683546D01*
X107873417Y-115683553D01*
X107405483Y-115683553D01*
X107405483Y-115683546D01*
X107385000Y-115475581D01*
X107384999Y-115475576D01*
X107353610Y-115372100D01*
X107324336Y-115275597D01*
X107324333Y-115275591D01*
X107225831Y-115091305D01*
X107225826Y-115091298D01*
X107225824Y-115091294D01*
X107155082Y-115005094D01*
X107093253Y-114929755D01*
X107093244Y-114929746D01*
X106999069Y-114852459D01*
X106931706Y-114797176D01*
X106931703Y-114797174D01*
X106931694Y-114797168D01*
X106747408Y-114698666D01*
X106747403Y-114698664D01*
X106547423Y-114638000D01*
X106547418Y-114637999D01*
X106339453Y-114617517D01*
X106339447Y-114617517D01*
X106131481Y-114637999D01*
X106131476Y-114638000D01*
X105931496Y-114698664D01*
X105931491Y-114698666D01*
X105747205Y-114797168D01*
X105747195Y-114797175D01*
X105585655Y-114929746D01*
X105585646Y-114929755D01*
X105453075Y-115091295D01*
X105453068Y-115091305D01*
X105354566Y-115275591D01*
X105354564Y-115275596D01*
X105293900Y-115475576D01*
X105293899Y-115475581D01*
X105273417Y-115683546D01*
X105273417Y-115683553D01*
X98883099Y-115683553D01*
X98883099Y-115465882D01*
X98883099Y-115465881D01*
X98883099Y-115465878D01*
X98883098Y-115465876D01*
X98868247Y-115372100D01*
X98868246Y-115372098D01*
X98868246Y-115372096D01*
X98810650Y-115259058D01*
X98720942Y-115169350D01*
X98607904Y-115111754D01*
X98607905Y-115111754D01*
X98514121Y-115096900D01*
X97485878Y-115096900D01*
X97485876Y-115096901D01*
X97392100Y-115111752D01*
X97392095Y-115111754D01*
X97279059Y-115169349D01*
X97189349Y-115259059D01*
X97131754Y-115372095D01*
X97116900Y-115465878D01*
X97116900Y-116494121D01*
X97116901Y-116494123D01*
X97131752Y-116587899D01*
X97131754Y-116587904D01*
X97189350Y-116700942D01*
X97279058Y-116790650D01*
X97392096Y-116848246D01*
X97453714Y-116858005D01*
X97508231Y-116885782D01*
X97536009Y-116940298D01*
X97529692Y-116993671D01*
X97481109Y-117110962D01*
X97481108Y-117110962D01*
X97462804Y-117249999D01*
X97462804Y-117250000D01*
X97481108Y-117389036D01*
X97481109Y-117389037D01*
X97488811Y-117407633D01*
X97644400Y-117252044D01*
X97644400Y-117296816D01*
X97668634Y-117387256D01*
X97715450Y-117468343D01*
X97781657Y-117534550D01*
X97862744Y-117581366D01*
X97953184Y-117605600D01*
X97997953Y-117605600D01*
X97995648Y-117607905D01*
X97941131Y-117635681D01*
X97925645Y-117636900D01*
X97907182Y-117636900D01*
X97809642Y-117657633D01*
X97725607Y-117675495D01*
X97725601Y-117675497D01*
X97556024Y-117750997D01*
X97556016Y-117751002D01*
X97405836Y-117860113D01*
X97281620Y-117998070D01*
X97281620Y-117998071D01*
X97188809Y-118158823D01*
X97188803Y-118158837D01*
X97131441Y-118335373D01*
X97131441Y-118335376D01*
X97112036Y-118520000D01*
X92269950Y-118520000D01*
X92269950Y-116823449D01*
X92288857Y-116765258D01*
X92338357Y-116729294D01*
X92368950Y-116724449D01*
X92461371Y-116724449D01*
X92461372Y-116724448D01*
X92508261Y-116717022D01*
X92555149Y-116709597D01*
X92555149Y-116709596D01*
X92555154Y-116709596D01*
X92668192Y-116652000D01*
X92757900Y-116562292D01*
X92815496Y-116449254D01*
X92830350Y-116355469D01*
X92830349Y-114971632D01*
X92830349Y-114971631D01*
X92830349Y-114971628D01*
X92830348Y-114971626D01*
X92815497Y-114877850D01*
X92815496Y-114877848D01*
X92815496Y-114877846D01*
X92757900Y-114764808D01*
X92668192Y-114675100D01*
X92654829Y-114668291D01*
X92548454Y-114614089D01*
X92505190Y-114570824D01*
X92494400Y-114525880D01*
X92494400Y-98520000D01*
X97112036Y-98520000D01*
X97131441Y-98704623D01*
X97131441Y-98704626D01*
X97188803Y-98881162D01*
X97188809Y-98881176D01*
X97262547Y-99008893D01*
X97281622Y-99041932D01*
X97405836Y-99179886D01*
X97556018Y-99288999D01*
X97556022Y-99289000D01*
X97556024Y-99289002D01*
X97612146Y-99313989D01*
X97725604Y-99364504D01*
X97907182Y-99403100D01*
X97907185Y-99403100D01*
X98092815Y-99403100D01*
X98092818Y-99403100D01*
X98274396Y-99364504D01*
X98443982Y-99288999D01*
X98594164Y-99179886D01*
X98718378Y-99041932D01*
X98811195Y-98881167D01*
X98840470Y-98791068D01*
X98868558Y-98704626D01*
X98868558Y-98704623D01*
X98868560Y-98704618D01*
X98887964Y-98520000D01*
X98868560Y-98335382D01*
X98868558Y-98335375D01*
X98868558Y-98335373D01*
X98811196Y-98158837D01*
X98811195Y-98158833D01*
X98811192Y-98158828D01*
X98811190Y-98158823D01*
X98763507Y-98076235D01*
X98718378Y-97998068D01*
X98594164Y-97860114D01*
X98562965Y-97837447D01*
X98459048Y-97761947D01*
X98443982Y-97751001D01*
X98443979Y-97751000D01*
X98443975Y-97750997D01*
X98274398Y-97675497D01*
X98274396Y-97675496D01*
X98274393Y-97675495D01*
X98274392Y-97675495D01*
X98238265Y-97667816D01*
X98092818Y-97636900D01*
X98074355Y-97636900D01*
X98016164Y-97617993D01*
X98004352Y-97607905D01*
X98002047Y-97605600D01*
X98046816Y-97605600D01*
X98137256Y-97581366D01*
X98218343Y-97534550D01*
X98284550Y-97468343D01*
X98331366Y-97387256D01*
X98355600Y-97296816D01*
X98355600Y-97252047D01*
X98511186Y-97407633D01*
X98518891Y-97389034D01*
X98537196Y-97250000D01*
X98537196Y-97249999D01*
X98518891Y-97110964D01*
X98470307Y-96993672D01*
X98465506Y-96932675D01*
X98497476Y-96880506D01*
X98546286Y-96858005D01*
X98607899Y-96848247D01*
X98607899Y-96848246D01*
X98607904Y-96848246D01*
X98720942Y-96790650D01*
X98810650Y-96700942D01*
X98868246Y-96587904D01*
X98883100Y-96494119D01*
X98883099Y-95746803D01*
X105273417Y-95746803D01*
X105293899Y-95954768D01*
X105293900Y-95954773D01*
X105354564Y-96154753D01*
X105354566Y-96154758D01*
X105453068Y-96339044D01*
X105453074Y-96339053D01*
X105453076Y-96339056D01*
X105491909Y-96386374D01*
X105585646Y-96500594D01*
X105585655Y-96500603D01*
X105640424Y-96545550D01*
X105747194Y-96633174D01*
X105747198Y-96633176D01*
X105747205Y-96633181D01*
X105931491Y-96731683D01*
X105931497Y-96731686D01*
X106018728Y-96758147D01*
X106131476Y-96792349D01*
X106131481Y-96792350D01*
X106339447Y-96812833D01*
X106339450Y-96812833D01*
X106339453Y-96812833D01*
X106547418Y-96792350D01*
X106547423Y-96792349D01*
X106563764Y-96787392D01*
X106747403Y-96731686D01*
X106867762Y-96667353D01*
X106931694Y-96633181D01*
X106931697Y-96633178D01*
X106931706Y-96633174D01*
X107093249Y-96500599D01*
X107225824Y-96339056D01*
X107225828Y-96339047D01*
X107225831Y-96339044D01*
X107324333Y-96154758D01*
X107324336Y-96154753D01*
X107384999Y-95954773D01*
X107385000Y-95954768D01*
X107405483Y-95746803D01*
X107873417Y-95746803D01*
X107893899Y-95954768D01*
X107893900Y-95954773D01*
X107954564Y-96154753D01*
X107954566Y-96154758D01*
X108053068Y-96339044D01*
X108053074Y-96339053D01*
X108053076Y-96339056D01*
X108091909Y-96386374D01*
X108185646Y-96500594D01*
X108185655Y-96500603D01*
X108240424Y-96545550D01*
X108347194Y-96633174D01*
X108347198Y-96633176D01*
X108347205Y-96633181D01*
X108531491Y-96731683D01*
X108531497Y-96731686D01*
X108618728Y-96758147D01*
X108731476Y-96792349D01*
X108731481Y-96792350D01*
X108939447Y-96812833D01*
X108939450Y-96812833D01*
X108939453Y-96812833D01*
X109147418Y-96792350D01*
X109147423Y-96792349D01*
X109163764Y-96787392D01*
X109347403Y-96731686D01*
X109467762Y-96667353D01*
X109531694Y-96633181D01*
X109531697Y-96633178D01*
X109531706Y-96633174D01*
X109693249Y-96500599D01*
X109825824Y-96339056D01*
X109825828Y-96339047D01*
X109825831Y-96339044D01*
X109924333Y-96154758D01*
X109924336Y-96154753D01*
X109984999Y-95954773D01*
X109985000Y-95954768D01*
X110005483Y-95746803D01*
X110005483Y-95746796D01*
X109985000Y-95538831D01*
X109984999Y-95538826D01*
X109934423Y-95372100D01*
X109924336Y-95338847D01*
X109914960Y-95321305D01*
X109825831Y-95154555D01*
X109825826Y-95154548D01*
X109825824Y-95154544D01*
X109755082Y-95068344D01*
X109693253Y-94993005D01*
X109693244Y-94992996D01*
X109599069Y-94915709D01*
X109531706Y-94860426D01*
X109531703Y-94860424D01*
X109531694Y-94860418D01*
X109347408Y-94761916D01*
X109347403Y-94761914D01*
X109147423Y-94701250D01*
X109147418Y-94701249D01*
X108939453Y-94680767D01*
X108939447Y-94680767D01*
X108731481Y-94701249D01*
X108731476Y-94701250D01*
X108531496Y-94761914D01*
X108531491Y-94761916D01*
X108347205Y-94860418D01*
X108347195Y-94860425D01*
X108185655Y-94992996D01*
X108185646Y-94993005D01*
X108053075Y-95154545D01*
X108053068Y-95154555D01*
X107954566Y-95338841D01*
X107954564Y-95338846D01*
X107893900Y-95538826D01*
X107893899Y-95538831D01*
X107873417Y-95746796D01*
X107873417Y-95746803D01*
X107405483Y-95746803D01*
X107405483Y-95746796D01*
X107385000Y-95538831D01*
X107384999Y-95538826D01*
X107334423Y-95372100D01*
X107324336Y-95338847D01*
X107314960Y-95321305D01*
X107225831Y-95154555D01*
X107225826Y-95154548D01*
X107225824Y-95154544D01*
X107155082Y-95068344D01*
X107093253Y-94993005D01*
X107093244Y-94992996D01*
X106999069Y-94915709D01*
X106931706Y-94860426D01*
X106931703Y-94860424D01*
X106931694Y-94860418D01*
X106747408Y-94761916D01*
X106747403Y-94761914D01*
X106547423Y-94701250D01*
X106547418Y-94701249D01*
X106339453Y-94680767D01*
X106339447Y-94680767D01*
X106131481Y-94701249D01*
X106131476Y-94701250D01*
X105931496Y-94761914D01*
X105931491Y-94761916D01*
X105747205Y-94860418D01*
X105747195Y-94860425D01*
X105585655Y-94992996D01*
X105585646Y-94993005D01*
X105453075Y-95154545D01*
X105453068Y-95154555D01*
X105354566Y-95338841D01*
X105354564Y-95338846D01*
X105293900Y-95538826D01*
X105293899Y-95538831D01*
X105273417Y-95746796D01*
X105273417Y-95746803D01*
X98883099Y-95746803D01*
X98883099Y-95465882D01*
X98883099Y-95465881D01*
X98883099Y-95465878D01*
X98883098Y-95465876D01*
X98868247Y-95372100D01*
X98868246Y-95372098D01*
X98868246Y-95372096D01*
X98810650Y-95259058D01*
X98720942Y-95169350D01*
X98607904Y-95111754D01*
X98607905Y-95111754D01*
X98514121Y-95096900D01*
X97485878Y-95096900D01*
X97485876Y-95096901D01*
X97392100Y-95111752D01*
X97392095Y-95111754D01*
X97279059Y-95169349D01*
X97189349Y-95259059D01*
X97131754Y-95372095D01*
X97116900Y-95465878D01*
X97116900Y-96494121D01*
X97116901Y-96494123D01*
X97131752Y-96587899D01*
X97131754Y-96587904D01*
X97189350Y-96700942D01*
X97279058Y-96790650D01*
X97392096Y-96848246D01*
X97453714Y-96858005D01*
X97508231Y-96885782D01*
X97536009Y-96940298D01*
X97529692Y-96993671D01*
X97481109Y-97110962D01*
X97481108Y-97110962D01*
X97462804Y-97249999D01*
X97462804Y-97250000D01*
X97481108Y-97389036D01*
X97481109Y-97389037D01*
X97488811Y-97407633D01*
X97644400Y-97252044D01*
X97644400Y-97296816D01*
X97668634Y-97387256D01*
X97715450Y-97468343D01*
X97781657Y-97534550D01*
X97862744Y-97581366D01*
X97953184Y-97605600D01*
X97997953Y-97605600D01*
X97995648Y-97607905D01*
X97941131Y-97635681D01*
X97925645Y-97636900D01*
X97907182Y-97636900D01*
X97791397Y-97661511D01*
X97725607Y-97675495D01*
X97725601Y-97675497D01*
X97556024Y-97750997D01*
X97556016Y-97751002D01*
X97405836Y-97860113D01*
X97281620Y-97998070D01*
X97281620Y-97998071D01*
X97188809Y-98158823D01*
X97188803Y-98158837D01*
X97131441Y-98335373D01*
X97131441Y-98335376D01*
X97131440Y-98335380D01*
X97131440Y-98335382D01*
X97122354Y-98421832D01*
X97112036Y-98520000D01*
X92494400Y-98520000D01*
X92494400Y-96871999D01*
X92513307Y-96813808D01*
X92562807Y-96777844D01*
X92593400Y-96772999D01*
X92685821Y-96772999D01*
X92685822Y-96772998D01*
X92732711Y-96765572D01*
X92779599Y-96758147D01*
X92779599Y-96758146D01*
X92779604Y-96758146D01*
X92892642Y-96700550D01*
X92982350Y-96610842D01*
X93039946Y-96497804D01*
X93054800Y-96404019D01*
X93054799Y-95020182D01*
X93054799Y-95020181D01*
X93054799Y-95020178D01*
X93054798Y-95020176D01*
X93039947Y-94926400D01*
X93039946Y-94926398D01*
X93039946Y-94926396D01*
X92982350Y-94813358D01*
X92892642Y-94723650D01*
X92779604Y-94666054D01*
X92779605Y-94666054D01*
X92685821Y-94651200D01*
X91301978Y-94651200D01*
X91301976Y-94651201D01*
X91208200Y-94666052D01*
X91208195Y-94666054D01*
X91095159Y-94723649D01*
X91005449Y-94813359D01*
X90947854Y-94926395D01*
X90933000Y-95020178D01*
X90933000Y-96404021D01*
X90933001Y-96404023D01*
X90947852Y-96497799D01*
X90947854Y-96497804D01*
X91005450Y-96610842D01*
X91095158Y-96700550D01*
X91208196Y-96758146D01*
X91301981Y-96773000D01*
X91394400Y-96772999D01*
X91452590Y-96791906D01*
X91488554Y-96841405D01*
X91493400Y-96871999D01*
X91493400Y-114503650D01*
X91474493Y-114561841D01*
X91424993Y-114597805D01*
X91394400Y-114602650D01*
X91077529Y-114602650D01*
X91077526Y-114602651D01*
X90983750Y-114617502D01*
X90983745Y-114617504D01*
X90870709Y-114675099D01*
X90780999Y-114764809D01*
X90723404Y-114877845D01*
X90708550Y-114971628D01*
X90708550Y-116355471D01*
X90708551Y-116355473D01*
X90723402Y-116449249D01*
X90723404Y-116449254D01*
X90781000Y-116562292D01*
X90870708Y-116652000D01*
X90983746Y-116709596D01*
X91077531Y-116724450D01*
X91169950Y-116724449D01*
X91228140Y-116743356D01*
X91264104Y-116792855D01*
X91268950Y-116823449D01*
X91268950Y-134764188D01*
X91250043Y-134822379D01*
X91200543Y-134858343D01*
X91185437Y-134861969D01*
X91150499Y-134867502D01*
X91150495Y-134867504D01*
X91037459Y-134925099D01*
X90947749Y-135014809D01*
X90890154Y-135127845D01*
X90875300Y-135221628D01*
X90875300Y-136605471D01*
X90875301Y-136605473D01*
X90890152Y-136699249D01*
X90890154Y-136699254D01*
X90947750Y-136812292D01*
X91037458Y-136902000D01*
X91150496Y-136959596D01*
X91244281Y-136974450D01*
X91336700Y-136974449D01*
X91394890Y-136993356D01*
X91430854Y-137042855D01*
X91435700Y-137073449D01*
X91435700Y-153937078D01*
X91416793Y-153995269D01*
X91367293Y-154031233D01*
X91306107Y-154031233D01*
X91266696Y-154007082D01*
X90982264Y-153722650D01*
X89359114Y-152099500D01*
X89359111Y-152099498D01*
X89359110Y-152099497D01*
X89359109Y-152099496D01*
X89244989Y-152033609D01*
X89244991Y-152033609D01*
X89195599Y-152020375D01*
X89117692Y-151999500D01*
X86315893Y-151999500D01*
X86184108Y-151999500D01*
X86106200Y-152020375D01*
X86056809Y-152033609D01*
X85942690Y-152099496D01*
X83158132Y-154884054D01*
X83103615Y-154911831D01*
X83088128Y-154913050D01*
X72949349Y-154913050D01*
X72891158Y-154894143D01*
X72855194Y-154844643D01*
X72850349Y-154814050D01*
X72850349Y-154721628D01*
X72850348Y-154721626D01*
X72835497Y-154627850D01*
X72835496Y-154627848D01*
X72835496Y-154627846D01*
X72777900Y-154514808D01*
X72688192Y-154425100D01*
X72575154Y-154367504D01*
X72575155Y-154367504D01*
X72481372Y-154352650D01*
X72481369Y-154352650D01*
X72055700Y-154352650D01*
X71997509Y-154333743D01*
X71961545Y-154284243D01*
X71956700Y-154253650D01*
X71956700Y-138686750D01*
X77508786Y-138686750D01*
X77528191Y-138871373D01*
X77528191Y-138871376D01*
X77585553Y-139047912D01*
X77585559Y-139047926D01*
X77633616Y-139131162D01*
X77678372Y-139208682D01*
X77802586Y-139346636D01*
X77952768Y-139455749D01*
X77952772Y-139455750D01*
X77952774Y-139455752D01*
X78008896Y-139480739D01*
X78122354Y-139531254D01*
X78303932Y-139569850D01*
X78303935Y-139569850D01*
X78489565Y-139569850D01*
X78489568Y-139569850D01*
X78671146Y-139531254D01*
X78840732Y-139455749D01*
X78990914Y-139346636D01*
X79115128Y-139208682D01*
X79207945Y-139047917D01*
X79237218Y-138957824D01*
X79265308Y-138871376D01*
X79265308Y-138871373D01*
X79265310Y-138871368D01*
X79284714Y-138686750D01*
X79265310Y-138502132D01*
X79265308Y-138502125D01*
X79265308Y-138502123D01*
X79207946Y-138325587D01*
X79207945Y-138325583D01*
X79207942Y-138325578D01*
X79207940Y-138325573D01*
X79160257Y-138242985D01*
X79115128Y-138164818D01*
X78990914Y-138026864D01*
X78955316Y-138001001D01*
X78915823Y-137972307D01*
X78840732Y-137917751D01*
X78840729Y-137917750D01*
X78840725Y-137917747D01*
X78671148Y-137842247D01*
X78671146Y-137842246D01*
X78671143Y-137842245D01*
X78671142Y-137842245D01*
X78619960Y-137831366D01*
X78489568Y-137803650D01*
X78471105Y-137803650D01*
X78412914Y-137784743D01*
X78401102Y-137774655D01*
X78398797Y-137772350D01*
X78443566Y-137772350D01*
X78534006Y-137748116D01*
X78615093Y-137701300D01*
X78681300Y-137635093D01*
X78728116Y-137554006D01*
X78752350Y-137463566D01*
X78752350Y-137418797D01*
X78907936Y-137574383D01*
X78915641Y-137555784D01*
X78933946Y-137416750D01*
X78933946Y-137416749D01*
X78915641Y-137277714D01*
X78867057Y-137160422D01*
X78862256Y-137099425D01*
X78894226Y-137047256D01*
X78943036Y-137024755D01*
X79004649Y-137014997D01*
X79004649Y-137014996D01*
X79004654Y-137014996D01*
X79117692Y-136957400D01*
X79207400Y-136867692D01*
X79264996Y-136754654D01*
X79279850Y-136660869D01*
X79279849Y-135913553D01*
X85670167Y-135913553D01*
X85690649Y-136121518D01*
X85690650Y-136121523D01*
X85751314Y-136321503D01*
X85751316Y-136321508D01*
X85849818Y-136505794D01*
X85849824Y-136505803D01*
X85849826Y-136505806D01*
X85905109Y-136573169D01*
X85982396Y-136667344D01*
X85982405Y-136667353D01*
X86023334Y-136700942D01*
X86143944Y-136799924D01*
X86143948Y-136799926D01*
X86143955Y-136799931D01*
X86320696Y-136894400D01*
X86328247Y-136898436D01*
X86460891Y-136938673D01*
X86528226Y-136959099D01*
X86528231Y-136959100D01*
X86736197Y-136979583D01*
X86736200Y-136979583D01*
X86736203Y-136979583D01*
X86944168Y-136959100D01*
X86944173Y-136959099D01*
X86971063Y-136950942D01*
X87144153Y-136898436D01*
X87238054Y-136848245D01*
X87328444Y-136799931D01*
X87328447Y-136799928D01*
X87328456Y-136799924D01*
X87489999Y-136667349D01*
X87622574Y-136505806D01*
X87622578Y-136505797D01*
X87622581Y-136505794D01*
X87704173Y-136353145D01*
X87721086Y-136321503D01*
X87781749Y-136121523D01*
X87781750Y-136121518D01*
X87802233Y-135913553D01*
X88270167Y-135913553D01*
X88290649Y-136121518D01*
X88290650Y-136121523D01*
X88351314Y-136321503D01*
X88351316Y-136321508D01*
X88449818Y-136505794D01*
X88449824Y-136505803D01*
X88449826Y-136505806D01*
X88505109Y-136573169D01*
X88582396Y-136667344D01*
X88582405Y-136667353D01*
X88623334Y-136700942D01*
X88743944Y-136799924D01*
X88743948Y-136799926D01*
X88743955Y-136799931D01*
X88920696Y-136894400D01*
X88928247Y-136898436D01*
X89060891Y-136938673D01*
X89128226Y-136959099D01*
X89128231Y-136959100D01*
X89336197Y-136979583D01*
X89336200Y-136979583D01*
X89336203Y-136979583D01*
X89544168Y-136959100D01*
X89544173Y-136959099D01*
X89571063Y-136950942D01*
X89744153Y-136898436D01*
X89838054Y-136848245D01*
X89928444Y-136799931D01*
X89928447Y-136799928D01*
X89928456Y-136799924D01*
X90089999Y-136667349D01*
X90222574Y-136505806D01*
X90222578Y-136505797D01*
X90222581Y-136505794D01*
X90304173Y-136353145D01*
X90321086Y-136321503D01*
X90381749Y-136121523D01*
X90381750Y-136121518D01*
X90402233Y-135913553D01*
X90402233Y-135913546D01*
X90381750Y-135705581D01*
X90381749Y-135705576D01*
X90331173Y-135538850D01*
X90321086Y-135505597D01*
X90310396Y-135485597D01*
X90222581Y-135321305D01*
X90222576Y-135321298D01*
X90222574Y-135321294D01*
X90151832Y-135235094D01*
X90090003Y-135159755D01*
X90089994Y-135159746D01*
X89995819Y-135082459D01*
X89928456Y-135027176D01*
X89928453Y-135027174D01*
X89928444Y-135027168D01*
X89744158Y-134928666D01*
X89744153Y-134928664D01*
X89544173Y-134868000D01*
X89544168Y-134867999D01*
X89336203Y-134847517D01*
X89336197Y-134847517D01*
X89128231Y-134867999D01*
X89128226Y-134868000D01*
X88928246Y-134928664D01*
X88928241Y-134928666D01*
X88743955Y-135027168D01*
X88743945Y-135027175D01*
X88582405Y-135159746D01*
X88582396Y-135159755D01*
X88449825Y-135321295D01*
X88449818Y-135321305D01*
X88351316Y-135505591D01*
X88351314Y-135505596D01*
X88290650Y-135705576D01*
X88290649Y-135705581D01*
X88270167Y-135913546D01*
X88270167Y-135913553D01*
X87802233Y-135913553D01*
X87802233Y-135913546D01*
X87781750Y-135705581D01*
X87781749Y-135705576D01*
X87731173Y-135538850D01*
X87721086Y-135505597D01*
X87710396Y-135485597D01*
X87622581Y-135321305D01*
X87622576Y-135321298D01*
X87622574Y-135321294D01*
X87551832Y-135235094D01*
X87490003Y-135159755D01*
X87489994Y-135159746D01*
X87395819Y-135082459D01*
X87328456Y-135027176D01*
X87328453Y-135027174D01*
X87328444Y-135027168D01*
X87144158Y-134928666D01*
X87144153Y-134928664D01*
X86944173Y-134868000D01*
X86944168Y-134867999D01*
X86736203Y-134847517D01*
X86736197Y-134847517D01*
X86528231Y-134867999D01*
X86528226Y-134868000D01*
X86328246Y-134928664D01*
X86328241Y-134928666D01*
X86143955Y-135027168D01*
X86143945Y-135027175D01*
X85982405Y-135159746D01*
X85982396Y-135159755D01*
X85849825Y-135321295D01*
X85849818Y-135321305D01*
X85751316Y-135505591D01*
X85751314Y-135505596D01*
X85690650Y-135705576D01*
X85690649Y-135705581D01*
X85670167Y-135913546D01*
X85670167Y-135913553D01*
X79279849Y-135913553D01*
X79279849Y-135632632D01*
X79279849Y-135632631D01*
X79279849Y-135632628D01*
X79279848Y-135632626D01*
X79264997Y-135538850D01*
X79264996Y-135538848D01*
X79264996Y-135538846D01*
X79207400Y-135425808D01*
X79117692Y-135336100D01*
X79004654Y-135278504D01*
X79004655Y-135278504D01*
X78910871Y-135263650D01*
X77882628Y-135263650D01*
X77882626Y-135263651D01*
X77788850Y-135278502D01*
X77788845Y-135278504D01*
X77675809Y-135336099D01*
X77586099Y-135425809D01*
X77528504Y-135538845D01*
X77513650Y-135632628D01*
X77513650Y-136660871D01*
X77513651Y-136660873D01*
X77528502Y-136754649D01*
X77528504Y-136754654D01*
X77586100Y-136867692D01*
X77675808Y-136957400D01*
X77788846Y-137014996D01*
X77850464Y-137024755D01*
X77904981Y-137052532D01*
X77932759Y-137107048D01*
X77926442Y-137160421D01*
X77877859Y-137277712D01*
X77877858Y-137277712D01*
X77859554Y-137416749D01*
X77859554Y-137416750D01*
X77877858Y-137555786D01*
X77877859Y-137555787D01*
X77885561Y-137574383D01*
X78041150Y-137418794D01*
X78041150Y-137463566D01*
X78065384Y-137554006D01*
X78112200Y-137635093D01*
X78178407Y-137701300D01*
X78259494Y-137748116D01*
X78349934Y-137772350D01*
X78394703Y-137772350D01*
X78392398Y-137774655D01*
X78337881Y-137802431D01*
X78322395Y-137803650D01*
X78303932Y-137803650D01*
X78188147Y-137828261D01*
X78122357Y-137842245D01*
X78122351Y-137842247D01*
X77952774Y-137917747D01*
X77952766Y-137917752D01*
X77802586Y-138026863D01*
X77678370Y-138164820D01*
X77678370Y-138164821D01*
X77585559Y-138325573D01*
X77585553Y-138325587D01*
X77528191Y-138502123D01*
X77528191Y-138502126D01*
X77508786Y-138686750D01*
X71956700Y-138686750D01*
X71956700Y-137053449D01*
X71975607Y-136995258D01*
X72025107Y-136959294D01*
X72055700Y-136954449D01*
X72148121Y-136954449D01*
X72148122Y-136954448D01*
X72195011Y-136947022D01*
X72241899Y-136939597D01*
X72241899Y-136939596D01*
X72241904Y-136939596D01*
X72354942Y-136882000D01*
X72444650Y-136792292D01*
X72502246Y-136679254D01*
X72517100Y-136585469D01*
X72517099Y-135201632D01*
X72517099Y-135201631D01*
X72517099Y-135201628D01*
X72517098Y-135201626D01*
X72502247Y-135107850D01*
X72502246Y-135107848D01*
X72502246Y-135107846D01*
X72444650Y-134994808D01*
X72354942Y-134905100D01*
X72241904Y-134847504D01*
X72241905Y-134847504D01*
X72148122Y-134832650D01*
X72148119Y-134832650D01*
X72055700Y-134832650D01*
X71997509Y-134813743D01*
X71961545Y-134764243D01*
X71956700Y-134733650D01*
X71956700Y-118770000D01*
X77342036Y-118770000D01*
X77361441Y-118954623D01*
X77361441Y-118954626D01*
X77418803Y-119131162D01*
X77418809Y-119131176D01*
X77492547Y-119258893D01*
X77511622Y-119291932D01*
X77635836Y-119429886D01*
X77786018Y-119538999D01*
X77786022Y-119539000D01*
X77786024Y-119539002D01*
X77842146Y-119563989D01*
X77955604Y-119614504D01*
X78137182Y-119653100D01*
X78137185Y-119653100D01*
X78322815Y-119653100D01*
X78322818Y-119653100D01*
X78504396Y-119614504D01*
X78673982Y-119538999D01*
X78824164Y-119429886D01*
X78948378Y-119291932D01*
X79041195Y-119131167D01*
X79070468Y-119041074D01*
X79098558Y-118954626D01*
X79098558Y-118954623D01*
X79098560Y-118954618D01*
X79117964Y-118770000D01*
X79098560Y-118585382D01*
X79098558Y-118585375D01*
X79098558Y-118585373D01*
X79041196Y-118408837D01*
X79041195Y-118408833D01*
X79041192Y-118408828D01*
X79041190Y-118408823D01*
X78993507Y-118326235D01*
X78948378Y-118248068D01*
X78824164Y-118110114D01*
X78673982Y-118001001D01*
X78673979Y-118001000D01*
X78673975Y-118000997D01*
X78504398Y-117925497D01*
X78504396Y-117925496D01*
X78504393Y-117925495D01*
X78504392Y-117925495D01*
X78469857Y-117918154D01*
X78322818Y-117886900D01*
X78304355Y-117886900D01*
X78246164Y-117867993D01*
X78234352Y-117857905D01*
X78232047Y-117855600D01*
X78276816Y-117855600D01*
X78367256Y-117831366D01*
X78448343Y-117784550D01*
X78514550Y-117718343D01*
X78561366Y-117637256D01*
X78585600Y-117546816D01*
X78585600Y-117502047D01*
X78741186Y-117657633D01*
X78748891Y-117639034D01*
X78767196Y-117500000D01*
X78767196Y-117499999D01*
X78748891Y-117360964D01*
X78700307Y-117243672D01*
X78695506Y-117182675D01*
X78727476Y-117130506D01*
X78776286Y-117108005D01*
X78837899Y-117098247D01*
X78837899Y-117098246D01*
X78837904Y-117098246D01*
X78950942Y-117040650D01*
X79040650Y-116950942D01*
X79098246Y-116837904D01*
X79113100Y-116744119D01*
X79113099Y-115715882D01*
X79113099Y-115715881D01*
X79113099Y-115715878D01*
X79113098Y-115715876D01*
X79104812Y-115663553D01*
X85503417Y-115663553D01*
X85523899Y-115871518D01*
X85523900Y-115871523D01*
X85584564Y-116071503D01*
X85584566Y-116071508D01*
X85683068Y-116255794D01*
X85683074Y-116255803D01*
X85683076Y-116255806D01*
X85699480Y-116275794D01*
X85815646Y-116417344D01*
X85815655Y-116417353D01*
X85878891Y-116469249D01*
X85977194Y-116549924D01*
X85977198Y-116549926D01*
X85977205Y-116549931D01*
X86161491Y-116648433D01*
X86161497Y-116648436D01*
X86300813Y-116690696D01*
X86361476Y-116709099D01*
X86361481Y-116709100D01*
X86569447Y-116729583D01*
X86569450Y-116729583D01*
X86569453Y-116729583D01*
X86777418Y-116709100D01*
X86777423Y-116709099D01*
X86804313Y-116700942D01*
X86977403Y-116648436D01*
X87043479Y-116613117D01*
X87161694Y-116549931D01*
X87161697Y-116549928D01*
X87161706Y-116549924D01*
X87323249Y-116417349D01*
X87455824Y-116255806D01*
X87455828Y-116255797D01*
X87455831Y-116255794D01*
X87554333Y-116071508D01*
X87554336Y-116071503D01*
X87614999Y-115871523D01*
X87615000Y-115871518D01*
X87635483Y-115663553D01*
X88103417Y-115663553D01*
X88123899Y-115871518D01*
X88123900Y-115871523D01*
X88184564Y-116071503D01*
X88184566Y-116071508D01*
X88283068Y-116255794D01*
X88283074Y-116255803D01*
X88283076Y-116255806D01*
X88299480Y-116275794D01*
X88415646Y-116417344D01*
X88415655Y-116417353D01*
X88478891Y-116469249D01*
X88577194Y-116549924D01*
X88577198Y-116549926D01*
X88577205Y-116549931D01*
X88761491Y-116648433D01*
X88761497Y-116648436D01*
X88900813Y-116690696D01*
X88961476Y-116709099D01*
X88961481Y-116709100D01*
X89169447Y-116729583D01*
X89169450Y-116729583D01*
X89169453Y-116729583D01*
X89377418Y-116709100D01*
X89377423Y-116709099D01*
X89404313Y-116700942D01*
X89577403Y-116648436D01*
X89643479Y-116613117D01*
X89761694Y-116549931D01*
X89761697Y-116549928D01*
X89761706Y-116549924D01*
X89923249Y-116417349D01*
X90055824Y-116255806D01*
X90055828Y-116255797D01*
X90055831Y-116255794D01*
X90154333Y-116071508D01*
X90154336Y-116071503D01*
X90214999Y-115871523D01*
X90215000Y-115871518D01*
X90235483Y-115663553D01*
X90235483Y-115663546D01*
X90215000Y-115455581D01*
X90214999Y-115455576D01*
X90186538Y-115361754D01*
X90154336Y-115255597D01*
X90112729Y-115177755D01*
X90055831Y-115071305D01*
X90055826Y-115071298D01*
X90055824Y-115071294D01*
X89984426Y-114984295D01*
X89923253Y-114909755D01*
X89923244Y-114909746D01*
X89786076Y-114797176D01*
X89761706Y-114777176D01*
X89761703Y-114777174D01*
X89761694Y-114777168D01*
X89577408Y-114678666D01*
X89577403Y-114678664D01*
X89377423Y-114618000D01*
X89377418Y-114617999D01*
X89169453Y-114597517D01*
X89169447Y-114597517D01*
X88961481Y-114617999D01*
X88961476Y-114618000D01*
X88761496Y-114678664D01*
X88761491Y-114678666D01*
X88577205Y-114777168D01*
X88577195Y-114777175D01*
X88415655Y-114909746D01*
X88415646Y-114909755D01*
X88283075Y-115071295D01*
X88283068Y-115071305D01*
X88184566Y-115255591D01*
X88184564Y-115255596D01*
X88123900Y-115455576D01*
X88123899Y-115455581D01*
X88103417Y-115663546D01*
X88103417Y-115663553D01*
X87635483Y-115663553D01*
X87635483Y-115663546D01*
X87615000Y-115455581D01*
X87614999Y-115455576D01*
X87586538Y-115361754D01*
X87554336Y-115255597D01*
X87512729Y-115177755D01*
X87455831Y-115071305D01*
X87455826Y-115071298D01*
X87455824Y-115071294D01*
X87384426Y-114984295D01*
X87323253Y-114909755D01*
X87323244Y-114909746D01*
X87186076Y-114797176D01*
X87161706Y-114777176D01*
X87161703Y-114777174D01*
X87161694Y-114777168D01*
X86977408Y-114678666D01*
X86977403Y-114678664D01*
X86777423Y-114618000D01*
X86777418Y-114617999D01*
X86569453Y-114597517D01*
X86569447Y-114597517D01*
X86361481Y-114617999D01*
X86361476Y-114618000D01*
X86161496Y-114678664D01*
X86161491Y-114678666D01*
X85977205Y-114777168D01*
X85977195Y-114777175D01*
X85815655Y-114909746D01*
X85815646Y-114909755D01*
X85683075Y-115071295D01*
X85683068Y-115071305D01*
X85584566Y-115255591D01*
X85584564Y-115255596D01*
X85523900Y-115455576D01*
X85523899Y-115455581D01*
X85503417Y-115663546D01*
X85503417Y-115663553D01*
X79104812Y-115663553D01*
X79098247Y-115622100D01*
X79098246Y-115622098D01*
X79098246Y-115622096D01*
X79040650Y-115509058D01*
X78950942Y-115419350D01*
X78837904Y-115361754D01*
X78837905Y-115361754D01*
X78744121Y-115346900D01*
X77715878Y-115346900D01*
X77715876Y-115346901D01*
X77622100Y-115361752D01*
X77622095Y-115361754D01*
X77509059Y-115419349D01*
X77419349Y-115509059D01*
X77361754Y-115622095D01*
X77346900Y-115715878D01*
X77346900Y-116744121D01*
X77346901Y-116744123D01*
X77361752Y-116837899D01*
X77361754Y-116837904D01*
X77419350Y-116950942D01*
X77509058Y-117040650D01*
X77622096Y-117098246D01*
X77683714Y-117108005D01*
X77738231Y-117135782D01*
X77766009Y-117190298D01*
X77759692Y-117243671D01*
X77711109Y-117360962D01*
X77711108Y-117360962D01*
X77692804Y-117499999D01*
X77692804Y-117500000D01*
X77711108Y-117639036D01*
X77711109Y-117639037D01*
X77718811Y-117657633D01*
X77874400Y-117502044D01*
X77874400Y-117546816D01*
X77898634Y-117637256D01*
X77945450Y-117718343D01*
X78011657Y-117784550D01*
X78092744Y-117831366D01*
X78183184Y-117855600D01*
X78227953Y-117855600D01*
X78225648Y-117857905D01*
X78171131Y-117885681D01*
X78155645Y-117886900D01*
X78137182Y-117886900D01*
X78021397Y-117911511D01*
X77955607Y-117925495D01*
X77955601Y-117925497D01*
X77786024Y-118000997D01*
X77786016Y-118001002D01*
X77635836Y-118110113D01*
X77511620Y-118248070D01*
X77511620Y-118248071D01*
X77418809Y-118408823D01*
X77418803Y-118408837D01*
X77361441Y-118585373D01*
X77361441Y-118585376D01*
X77342036Y-118770000D01*
X71956700Y-118770000D01*
X71956700Y-116929899D01*
X71975607Y-116871708D01*
X72025107Y-116835744D01*
X72055700Y-116830899D01*
X72608671Y-116830899D01*
X72608672Y-116830898D01*
X72655709Y-116823449D01*
X72702449Y-116816047D01*
X72702449Y-116816046D01*
X72702454Y-116816046D01*
X72815492Y-116758450D01*
X72905200Y-116668742D01*
X72962796Y-116555704D01*
X72977650Y-116461919D01*
X72977649Y-115078082D01*
X72977649Y-115078081D01*
X72977649Y-115078078D01*
X72977648Y-115078076D01*
X72962797Y-114984300D01*
X72962796Y-114984298D01*
X72962796Y-114984296D01*
X72905200Y-114871258D01*
X72815492Y-114781550D01*
X72702454Y-114723954D01*
X72702455Y-114723954D01*
X72608672Y-114709100D01*
X72608669Y-114709100D01*
X72516250Y-114709100D01*
X72458059Y-114690193D01*
X72422095Y-114640693D01*
X72417250Y-114610100D01*
X72417250Y-98655000D01*
X77227036Y-98655000D01*
X77241337Y-98791068D01*
X77246441Y-98839623D01*
X77246441Y-98839626D01*
X77303803Y-99016162D01*
X77303809Y-99016176D01*
X77368590Y-99128379D01*
X77396622Y-99176932D01*
X77520836Y-99314886D01*
X77671018Y-99423999D01*
X77671022Y-99424000D01*
X77671024Y-99424002D01*
X77727146Y-99448989D01*
X77840604Y-99499504D01*
X78022182Y-99538100D01*
X78022185Y-99538100D01*
X78207815Y-99538100D01*
X78207818Y-99538100D01*
X78389396Y-99499504D01*
X78558982Y-99423999D01*
X78709164Y-99314886D01*
X78833378Y-99176932D01*
X78926195Y-99016167D01*
X78970060Y-98881167D01*
X78983558Y-98839626D01*
X78983558Y-98839623D01*
X78983560Y-98839618D01*
X79002964Y-98655000D01*
X78983560Y-98470382D01*
X78983558Y-98470375D01*
X78983558Y-98470373D01*
X78926196Y-98293837D01*
X78926195Y-98293833D01*
X78926192Y-98293828D01*
X78926190Y-98293823D01*
X78878507Y-98211235D01*
X78833378Y-98133068D01*
X78709164Y-97995114D01*
X78558982Y-97886001D01*
X78558979Y-97886000D01*
X78558975Y-97885997D01*
X78389398Y-97810497D01*
X78389396Y-97810496D01*
X78389393Y-97810495D01*
X78389392Y-97810495D01*
X78354857Y-97803154D01*
X78207818Y-97771900D01*
X78189355Y-97771900D01*
X78131164Y-97752993D01*
X78119352Y-97742905D01*
X78117047Y-97740600D01*
X78161816Y-97740600D01*
X78252256Y-97716366D01*
X78333343Y-97669550D01*
X78399550Y-97603343D01*
X78446366Y-97522256D01*
X78470600Y-97431816D01*
X78470600Y-97387047D01*
X78626186Y-97542633D01*
X78633891Y-97524034D01*
X78652196Y-97385000D01*
X78652196Y-97384999D01*
X78633891Y-97245964D01*
X78585307Y-97128672D01*
X78580506Y-97067675D01*
X78612476Y-97015506D01*
X78661286Y-96993005D01*
X78722899Y-96983247D01*
X78722899Y-96983246D01*
X78722904Y-96983246D01*
X78835942Y-96925650D01*
X78925650Y-96835942D01*
X78983246Y-96722904D01*
X78998100Y-96629119D01*
X78998099Y-95712103D01*
X85727867Y-95712103D01*
X85748349Y-95920068D01*
X85748350Y-95920073D01*
X85809014Y-96120053D01*
X85809016Y-96120058D01*
X85907518Y-96304344D01*
X85907524Y-96304353D01*
X85907526Y-96304356D01*
X85935994Y-96339044D01*
X86040096Y-96465894D01*
X86040105Y-96465903D01*
X86115444Y-96527732D01*
X86201644Y-96598474D01*
X86201648Y-96598476D01*
X86201655Y-96598481D01*
X86385941Y-96696983D01*
X86385947Y-96696986D01*
X86500335Y-96731685D01*
X86585926Y-96757649D01*
X86585931Y-96757650D01*
X86793897Y-96778133D01*
X86793900Y-96778133D01*
X86793903Y-96778133D01*
X87001868Y-96757650D01*
X87001873Y-96757649D01*
X87201853Y-96696986D01*
X87321237Y-96633174D01*
X87386144Y-96598481D01*
X87386147Y-96598478D01*
X87386156Y-96598474D01*
X87547699Y-96465899D01*
X87680274Y-96304356D01*
X87680278Y-96304347D01*
X87680281Y-96304344D01*
X87778783Y-96120058D01*
X87778786Y-96120053D01*
X87839449Y-95920073D01*
X87839450Y-95920068D01*
X87859933Y-95712103D01*
X88327867Y-95712103D01*
X88348349Y-95920068D01*
X88348350Y-95920073D01*
X88409014Y-96120053D01*
X88409016Y-96120058D01*
X88507518Y-96304344D01*
X88507524Y-96304353D01*
X88507526Y-96304356D01*
X88535994Y-96339044D01*
X88640096Y-96465894D01*
X88640105Y-96465903D01*
X88715444Y-96527732D01*
X88801644Y-96598474D01*
X88801648Y-96598476D01*
X88801655Y-96598481D01*
X88985941Y-96696983D01*
X88985947Y-96696986D01*
X89100335Y-96731685D01*
X89185926Y-96757649D01*
X89185931Y-96757650D01*
X89393897Y-96778133D01*
X89393900Y-96778133D01*
X89393903Y-96778133D01*
X89601868Y-96757650D01*
X89601873Y-96757649D01*
X89801853Y-96696986D01*
X89921237Y-96633174D01*
X89986144Y-96598481D01*
X89986147Y-96598478D01*
X89986156Y-96598474D01*
X90147699Y-96465899D01*
X90280274Y-96304356D01*
X90280278Y-96304347D01*
X90280281Y-96304344D01*
X90378783Y-96120058D01*
X90378786Y-96120053D01*
X90439449Y-95920073D01*
X90439450Y-95920068D01*
X90459933Y-95712103D01*
X90459933Y-95712096D01*
X90439450Y-95504131D01*
X90439449Y-95504126D01*
X90399398Y-95372096D01*
X90378786Y-95304147D01*
X90354686Y-95259059D01*
X90280281Y-95119855D01*
X90280276Y-95119848D01*
X90280274Y-95119844D01*
X90204223Y-95027176D01*
X90147703Y-94958305D01*
X90147694Y-94958296D01*
X90037666Y-94867999D01*
X89986156Y-94825726D01*
X89986153Y-94825724D01*
X89986144Y-94825718D01*
X89801858Y-94727216D01*
X89801853Y-94727214D01*
X89601873Y-94666550D01*
X89601868Y-94666549D01*
X89393903Y-94646067D01*
X89393897Y-94646067D01*
X89185931Y-94666549D01*
X89185926Y-94666550D01*
X88985946Y-94727214D01*
X88985941Y-94727216D01*
X88801655Y-94825718D01*
X88801645Y-94825725D01*
X88640105Y-94958296D01*
X88640096Y-94958305D01*
X88507525Y-95119845D01*
X88507518Y-95119855D01*
X88409016Y-95304141D01*
X88409014Y-95304146D01*
X88348350Y-95504126D01*
X88348349Y-95504131D01*
X88327867Y-95712096D01*
X88327867Y-95712103D01*
X87859933Y-95712103D01*
X87859933Y-95712096D01*
X87839450Y-95504131D01*
X87839449Y-95504126D01*
X87799398Y-95372096D01*
X87778786Y-95304147D01*
X87754686Y-95259059D01*
X87680281Y-95119855D01*
X87680276Y-95119848D01*
X87680274Y-95119844D01*
X87604223Y-95027176D01*
X87547703Y-94958305D01*
X87547694Y-94958296D01*
X87437666Y-94867999D01*
X87386156Y-94825726D01*
X87386153Y-94825724D01*
X87386144Y-94825718D01*
X87201858Y-94727216D01*
X87201853Y-94727214D01*
X87001873Y-94666550D01*
X87001868Y-94666549D01*
X86793903Y-94646067D01*
X86793897Y-94646067D01*
X86585931Y-94666549D01*
X86585926Y-94666550D01*
X86385946Y-94727214D01*
X86385941Y-94727216D01*
X86201655Y-94825718D01*
X86201645Y-94825725D01*
X86040105Y-94958296D01*
X86040096Y-94958305D01*
X85907525Y-95119845D01*
X85907518Y-95119855D01*
X85809016Y-95304141D01*
X85809014Y-95304146D01*
X85748350Y-95504126D01*
X85748349Y-95504131D01*
X85727867Y-95712096D01*
X85727867Y-95712103D01*
X78998099Y-95712103D01*
X78998099Y-95600882D01*
X78998099Y-95600881D01*
X78998099Y-95600878D01*
X78998098Y-95600876D01*
X78983247Y-95507100D01*
X78983246Y-95507098D01*
X78983246Y-95507096D01*
X78925650Y-95394058D01*
X78835942Y-95304350D01*
X78722904Y-95246754D01*
X78722905Y-95246754D01*
X78629121Y-95231900D01*
X77600878Y-95231900D01*
X77600876Y-95231901D01*
X77507100Y-95246752D01*
X77507095Y-95246754D01*
X77394059Y-95304349D01*
X77304349Y-95394059D01*
X77246754Y-95507095D01*
X77231900Y-95600878D01*
X77231900Y-96629121D01*
X77231901Y-96629123D01*
X77246752Y-96722899D01*
X77246754Y-96722904D01*
X77304350Y-96835942D01*
X77394058Y-96925650D01*
X77507096Y-96983246D01*
X77568714Y-96993005D01*
X77623231Y-97020782D01*
X77651009Y-97075298D01*
X77644692Y-97128671D01*
X77596109Y-97245962D01*
X77596108Y-97245962D01*
X77577804Y-97384999D01*
X77577804Y-97385000D01*
X77596108Y-97524036D01*
X77596109Y-97524037D01*
X77603811Y-97542633D01*
X77759400Y-97387044D01*
X77759400Y-97431816D01*
X77783634Y-97522256D01*
X77830450Y-97603343D01*
X77896657Y-97669550D01*
X77977744Y-97716366D01*
X78068184Y-97740600D01*
X78112953Y-97740600D01*
X78110648Y-97742905D01*
X78056131Y-97770681D01*
X78040645Y-97771900D01*
X78022182Y-97771900D01*
X77906397Y-97796511D01*
X77840607Y-97810495D01*
X77840601Y-97810497D01*
X77671024Y-97885997D01*
X77671016Y-97886002D01*
X77520836Y-97995113D01*
X77396620Y-98133070D01*
X77396620Y-98133071D01*
X77303809Y-98293823D01*
X77303803Y-98293837D01*
X77246441Y-98470373D01*
X77246441Y-98470376D01*
X77246440Y-98470380D01*
X77246440Y-98470382D01*
X77227036Y-98655000D01*
X72417250Y-98655000D01*
X72417250Y-96590639D01*
X72436157Y-96532448D01*
X72471302Y-96502430D01*
X72498742Y-96488450D01*
X72588450Y-96398742D01*
X72646046Y-96285704D01*
X72660900Y-96191919D01*
X72660899Y-94808082D01*
X72660899Y-94808081D01*
X72660899Y-94808078D01*
X72660898Y-94808076D01*
X72646047Y-94714300D01*
X72646046Y-94714298D01*
X72646046Y-94714296D01*
X72588450Y-94601258D01*
X72498742Y-94511550D01*
X72385704Y-94453954D01*
X72385705Y-94453954D01*
X72291922Y-94439100D01*
X72291919Y-94439100D01*
X72199500Y-94439100D01*
X72141309Y-94420193D01*
X72105345Y-94370693D01*
X72100500Y-94340100D01*
X72100500Y-83314109D01*
X72100500Y-83314108D01*
X72066392Y-83186814D01*
X72066390Y-83186811D01*
X72066390Y-83186809D01*
X72000503Y-83072690D01*
X72000499Y-83072685D01*
X71907314Y-82979499D01*
X71907314Y-82979500D01*
X70413437Y-81485623D01*
X70385660Y-81431106D01*
X70395231Y-81370674D01*
X70438496Y-81327409D01*
X70498928Y-81317838D01*
X70535558Y-81331448D01*
X70555294Y-81343668D01*
X70753994Y-81420645D01*
X70963455Y-81459800D01*
X71176545Y-81459800D01*
X71386006Y-81420645D01*
X71584706Y-81343668D01*
X71765878Y-81231491D01*
X71923353Y-81087934D01*
X72051768Y-80917885D01*
X72146750Y-80727135D01*
X72205065Y-80522180D01*
X72224726Y-80310000D01*
X72455274Y-80310000D01*
X72474935Y-80522180D01*
X72533250Y-80727135D01*
X72628232Y-80917885D01*
X72756647Y-81087934D01*
X72914122Y-81231491D01*
X73095294Y-81343668D01*
X73293994Y-81420645D01*
X73503455Y-81459800D01*
X73716545Y-81459800D01*
X73926006Y-81420645D01*
X74124706Y-81343668D01*
X74305878Y-81231491D01*
X74463353Y-81087934D01*
X74591768Y-80917885D01*
X74686750Y-80727135D01*
X74745065Y-80522180D01*
X74764726Y-80310000D01*
X74995274Y-80310000D01*
X75014935Y-80522180D01*
X75073250Y-80727135D01*
X75168232Y-80917885D01*
X75296647Y-81087934D01*
X75454122Y-81231491D01*
X75635294Y-81343668D01*
X75833994Y-81420645D01*
X76043455Y-81459800D01*
X76256545Y-81459800D01*
X76466006Y-81420645D01*
X76664706Y-81343668D01*
X76845878Y-81231491D01*
X77003353Y-81087934D01*
X77131768Y-80917885D01*
X77226750Y-80727135D01*
X77285065Y-80522180D01*
X77304726Y-80310000D01*
X77535274Y-80310000D01*
X77554935Y-80522180D01*
X77613250Y-80727135D01*
X77708232Y-80917885D01*
X77836647Y-81087934D01*
X77994122Y-81231491D01*
X78175294Y-81343668D01*
X78373994Y-81420645D01*
X78583455Y-81459800D01*
X78796545Y-81459800D01*
X79006006Y-81420645D01*
X79204706Y-81343668D01*
X79385878Y-81231491D01*
X79543353Y-81087934D01*
X79671768Y-80917885D01*
X79766750Y-80727135D01*
X79825065Y-80522180D01*
X79844726Y-80310000D01*
X80075274Y-80310000D01*
X80094935Y-80522180D01*
X80153250Y-80727135D01*
X80248232Y-80917885D01*
X80376647Y-81087934D01*
X80534122Y-81231491D01*
X80715294Y-81343668D01*
X80913994Y-81420645D01*
X81123455Y-81459800D01*
X81336545Y-81459800D01*
X81546006Y-81420645D01*
X81744706Y-81343668D01*
X81925878Y-81231491D01*
X82083353Y-81087934D01*
X82211768Y-80917885D01*
X82306750Y-80727135D01*
X82365065Y-80522180D01*
X82384726Y-80310000D01*
X82615274Y-80310000D01*
X82634935Y-80522180D01*
X82693250Y-80727135D01*
X82788232Y-80917885D01*
X82916647Y-81087934D01*
X83074122Y-81231491D01*
X83255294Y-81343668D01*
X83453994Y-81420645D01*
X83663455Y-81459800D01*
X83876545Y-81459800D01*
X84086006Y-81420645D01*
X84284706Y-81343668D01*
X84465878Y-81231491D01*
X84623353Y-81087934D01*
X84751768Y-80917885D01*
X84846750Y-80727135D01*
X84905065Y-80522180D01*
X84924726Y-80310000D01*
X85155274Y-80310000D01*
X85174935Y-80522180D01*
X85233250Y-80727135D01*
X85328232Y-80917885D01*
X85456647Y-81087934D01*
X85614122Y-81231491D01*
X85795294Y-81343668D01*
X85993994Y-81420645D01*
X86203455Y-81459800D01*
X86416545Y-81459800D01*
X86626006Y-81420645D01*
X86824706Y-81343668D01*
X87005878Y-81231491D01*
X87163353Y-81087934D01*
X87291768Y-80917885D01*
X87386750Y-80727135D01*
X87445065Y-80522180D01*
X87464726Y-80310000D01*
X87695274Y-80310000D01*
X87714935Y-80522180D01*
X87773250Y-80727135D01*
X87868232Y-80917885D01*
X87996647Y-81087934D01*
X88154122Y-81231491D01*
X88335294Y-81343668D01*
X88533994Y-81420645D01*
X88743455Y-81459800D01*
X88956545Y-81459800D01*
X89166006Y-81420645D01*
X89364706Y-81343668D01*
X89545878Y-81231491D01*
X89703353Y-81087934D01*
X89831768Y-80917885D01*
X89926750Y-80727135D01*
X89985065Y-80522180D01*
X90004726Y-80310000D01*
X90235274Y-80310000D01*
X90254935Y-80522180D01*
X90313250Y-80727135D01*
X90408232Y-80917885D01*
X90536647Y-81087934D01*
X90694122Y-81231491D01*
X90875294Y-81343668D01*
X91073994Y-81420645D01*
X91283455Y-81459800D01*
X91496545Y-81459800D01*
X91706006Y-81420645D01*
X91904706Y-81343668D01*
X92085878Y-81231491D01*
X92243353Y-81087934D01*
X92371768Y-80917885D01*
X92466750Y-80727135D01*
X92525065Y-80522180D01*
X92544726Y-80310000D01*
X92775274Y-80310000D01*
X92794935Y-80522180D01*
X92853250Y-80727135D01*
X92948232Y-80917885D01*
X93076647Y-81087934D01*
X93234122Y-81231491D01*
X93415294Y-81343668D01*
X93613994Y-81420645D01*
X93823455Y-81459800D01*
X94036545Y-81459800D01*
X94246006Y-81420645D01*
X94444706Y-81343668D01*
X94625878Y-81231491D01*
X94783353Y-81087934D01*
X94911768Y-80917885D01*
X95006750Y-80727135D01*
X95065065Y-80522180D01*
X95084726Y-80310000D01*
X95315274Y-80310000D01*
X95334935Y-80522180D01*
X95393250Y-80727135D01*
X95488232Y-80917885D01*
X95616647Y-81087934D01*
X95774122Y-81231491D01*
X95955294Y-81343668D01*
X96153994Y-81420645D01*
X96363455Y-81459800D01*
X96576545Y-81459800D01*
X96786006Y-81420645D01*
X96984706Y-81343668D01*
X97165878Y-81231491D01*
X97323353Y-81087934D01*
X97451768Y-80917885D01*
X97546750Y-80727135D01*
X97605065Y-80522180D01*
X97624726Y-80310000D01*
X97855274Y-80310000D01*
X97874935Y-80522180D01*
X97933250Y-80727135D01*
X98028232Y-80917885D01*
X98156647Y-81087934D01*
X98314122Y-81231491D01*
X98495294Y-81343668D01*
X98693994Y-81420645D01*
X98903455Y-81459800D01*
X99116545Y-81459800D01*
X99326006Y-81420645D01*
X99524706Y-81343668D01*
X99705878Y-81231491D01*
X99863353Y-81087934D01*
X99991768Y-80917885D01*
X100086750Y-80727135D01*
X100145065Y-80522180D01*
X100164726Y-80310000D01*
X100145065Y-80097820D01*
X100086750Y-79892865D01*
X99991768Y-79702115D01*
X99863353Y-79532066D01*
X99705878Y-79388509D01*
X99524706Y-79276332D01*
X99326006Y-79199355D01*
X99326005Y-79199354D01*
X99326003Y-79199354D01*
X99116545Y-79160200D01*
X98903455Y-79160200D01*
X98693996Y-79199354D01*
X98495293Y-79276332D01*
X98495288Y-79276335D01*
X98314126Y-79388506D01*
X98314124Y-79388507D01*
X98314122Y-79388509D01*
X98175588Y-79514798D01*
X98156648Y-79532065D01*
X98028233Y-79702113D01*
X98028228Y-79702122D01*
X97935051Y-79889248D01*
X97933250Y-79892865D01*
X97874935Y-80097820D01*
X97855274Y-80310000D01*
X97624726Y-80310000D01*
X97605065Y-80097820D01*
X97546750Y-79892865D01*
X97451768Y-79702115D01*
X97323353Y-79532066D01*
X97165878Y-79388509D01*
X96984706Y-79276332D01*
X96786006Y-79199355D01*
X96786005Y-79199354D01*
X96786003Y-79199354D01*
X96576545Y-79160200D01*
X96363455Y-79160200D01*
X96153996Y-79199354D01*
X95955293Y-79276332D01*
X95955288Y-79276335D01*
X95774126Y-79388506D01*
X95774124Y-79388507D01*
X95774122Y-79388509D01*
X95635588Y-79514798D01*
X95616648Y-79532065D01*
X95488233Y-79702113D01*
X95488228Y-79702122D01*
X95395051Y-79889248D01*
X95393250Y-79892865D01*
X95334935Y-80097820D01*
X95315274Y-80310000D01*
X95084726Y-80310000D01*
X95065065Y-80097820D01*
X95006750Y-79892865D01*
X94911768Y-79702115D01*
X94783353Y-79532066D01*
X94625878Y-79388509D01*
X94444706Y-79276332D01*
X94246006Y-79199355D01*
X94246005Y-79199354D01*
X94246003Y-79199354D01*
X94036545Y-79160200D01*
X93823455Y-79160200D01*
X93613996Y-79199354D01*
X93415293Y-79276332D01*
X93415288Y-79276335D01*
X93234126Y-79388506D01*
X93234124Y-79388507D01*
X93234122Y-79388509D01*
X93095588Y-79514798D01*
X93076648Y-79532065D01*
X92948233Y-79702113D01*
X92948228Y-79702122D01*
X92855051Y-79889248D01*
X92853250Y-79892865D01*
X92794935Y-80097820D01*
X92775274Y-80310000D01*
X92544726Y-80310000D01*
X92525065Y-80097820D01*
X92466750Y-79892865D01*
X92371768Y-79702115D01*
X92243353Y-79532066D01*
X92085878Y-79388509D01*
X91904706Y-79276332D01*
X91706006Y-79199355D01*
X91706005Y-79199354D01*
X91706003Y-79199354D01*
X91496545Y-79160200D01*
X91283455Y-79160200D01*
X91073996Y-79199354D01*
X90875293Y-79276332D01*
X90875288Y-79276335D01*
X90694126Y-79388506D01*
X90694124Y-79388507D01*
X90694122Y-79388509D01*
X90555588Y-79514798D01*
X90536648Y-79532065D01*
X90408233Y-79702113D01*
X90408228Y-79702122D01*
X90315051Y-79889248D01*
X90313250Y-79892865D01*
X90254935Y-80097820D01*
X90235274Y-80310000D01*
X90004726Y-80310000D01*
X89985065Y-80097820D01*
X89926750Y-79892865D01*
X89831768Y-79702115D01*
X89703353Y-79532066D01*
X89545878Y-79388509D01*
X89364706Y-79276332D01*
X89166006Y-79199355D01*
X89166005Y-79199354D01*
X89166003Y-79199354D01*
X88956545Y-79160200D01*
X88743455Y-79160200D01*
X88533996Y-79199354D01*
X88335293Y-79276332D01*
X88335288Y-79276335D01*
X88154126Y-79388506D01*
X88154124Y-79388507D01*
X88154122Y-79388509D01*
X88015588Y-79514798D01*
X87996648Y-79532065D01*
X87868233Y-79702113D01*
X87868228Y-79702122D01*
X87775051Y-79889248D01*
X87773250Y-79892865D01*
X87714935Y-80097820D01*
X87695274Y-80310000D01*
X87464726Y-80310000D01*
X87445065Y-80097820D01*
X87386750Y-79892865D01*
X87291768Y-79702115D01*
X87163353Y-79532066D01*
X87005878Y-79388509D01*
X86824706Y-79276332D01*
X86626006Y-79199355D01*
X86626005Y-79199354D01*
X86626003Y-79199354D01*
X86416545Y-79160200D01*
X86203455Y-79160200D01*
X85993996Y-79199354D01*
X85795293Y-79276332D01*
X85795288Y-79276335D01*
X85614126Y-79388506D01*
X85614124Y-79388507D01*
X85614122Y-79388509D01*
X85475588Y-79514798D01*
X85456648Y-79532065D01*
X85328233Y-79702113D01*
X85328228Y-79702122D01*
X85235051Y-79889248D01*
X85233250Y-79892865D01*
X85174935Y-80097820D01*
X85155274Y-80310000D01*
X84924726Y-80310000D01*
X84905065Y-80097820D01*
X84846750Y-79892865D01*
X84751768Y-79702115D01*
X84623353Y-79532066D01*
X84465878Y-79388509D01*
X84284706Y-79276332D01*
X84086006Y-79199355D01*
X84086005Y-79199354D01*
X84086003Y-79199354D01*
X83876545Y-79160200D01*
X83663455Y-79160200D01*
X83453996Y-79199354D01*
X83255293Y-79276332D01*
X83255288Y-79276335D01*
X83074126Y-79388506D01*
X83074124Y-79388507D01*
X83074122Y-79388509D01*
X82935588Y-79514798D01*
X82916648Y-79532065D01*
X82788233Y-79702113D01*
X82788228Y-79702122D01*
X82695051Y-79889248D01*
X82693250Y-79892865D01*
X82634935Y-80097820D01*
X82615274Y-80310000D01*
X82384726Y-80310000D01*
X82365065Y-80097820D01*
X82306750Y-79892865D01*
X82211768Y-79702115D01*
X82083353Y-79532066D01*
X81925878Y-79388509D01*
X81744706Y-79276332D01*
X81546006Y-79199355D01*
X81546005Y-79199354D01*
X81546003Y-79199354D01*
X81336545Y-79160200D01*
X81123455Y-79160200D01*
X80913996Y-79199354D01*
X80715293Y-79276332D01*
X80715288Y-79276335D01*
X80534126Y-79388506D01*
X80534124Y-79388507D01*
X80534122Y-79388509D01*
X80395588Y-79514798D01*
X80376648Y-79532065D01*
X80248233Y-79702113D01*
X80248228Y-79702122D01*
X80155051Y-79889248D01*
X80153250Y-79892865D01*
X80094935Y-80097820D01*
X80075274Y-80310000D01*
X79844726Y-80310000D01*
X79825065Y-80097820D01*
X79766750Y-79892865D01*
X79671768Y-79702115D01*
X79543353Y-79532066D01*
X79385878Y-79388509D01*
X79204706Y-79276332D01*
X79006006Y-79199355D01*
X79006005Y-79199354D01*
X79006003Y-79199354D01*
X78796545Y-79160200D01*
X78583455Y-79160200D01*
X78373996Y-79199354D01*
X78175293Y-79276332D01*
X78175288Y-79276335D01*
X77994126Y-79388506D01*
X77994124Y-79388507D01*
X77994122Y-79388509D01*
X77855588Y-79514798D01*
X77836648Y-79532065D01*
X77708233Y-79702113D01*
X77708228Y-79702122D01*
X77615051Y-79889248D01*
X77613250Y-79892865D01*
X77554935Y-80097820D01*
X77535274Y-80310000D01*
X77304726Y-80310000D01*
X77285065Y-80097820D01*
X77226750Y-79892865D01*
X77131768Y-79702115D01*
X77003353Y-79532066D01*
X76845878Y-79388509D01*
X76664706Y-79276332D01*
X76466006Y-79199355D01*
X76466005Y-79199354D01*
X76466003Y-79199354D01*
X76256545Y-79160200D01*
X76043455Y-79160200D01*
X75833996Y-79199354D01*
X75635293Y-79276332D01*
X75635288Y-79276335D01*
X75454126Y-79388506D01*
X75454124Y-79388507D01*
X75454122Y-79388509D01*
X75315588Y-79514798D01*
X75296648Y-79532065D01*
X75168233Y-79702113D01*
X75168228Y-79702122D01*
X75075051Y-79889248D01*
X75073250Y-79892865D01*
X75014935Y-80097820D01*
X74995274Y-80310000D01*
X74764726Y-80310000D01*
X74745065Y-80097820D01*
X74686750Y-79892865D01*
X74591768Y-79702115D01*
X74463353Y-79532066D01*
X74305878Y-79388509D01*
X74124706Y-79276332D01*
X73926006Y-79199355D01*
X73926005Y-79199354D01*
X73926003Y-79199354D01*
X73716545Y-79160200D01*
X73503455Y-79160200D01*
X73293996Y-79199354D01*
X73095293Y-79276332D01*
X73095288Y-79276335D01*
X72914126Y-79388506D01*
X72914124Y-79388507D01*
X72914122Y-79388509D01*
X72775588Y-79514798D01*
X72756648Y-79532065D01*
X72628233Y-79702113D01*
X72628228Y-79702122D01*
X72535051Y-79889248D01*
X72533250Y-79892865D01*
X72474935Y-80097820D01*
X72455274Y-80310000D01*
X72224726Y-80310000D01*
X72205065Y-80097820D01*
X72146750Y-79892865D01*
X72051768Y-79702115D01*
X71923353Y-79532066D01*
X71765878Y-79388509D01*
X71584706Y-79276332D01*
X71386006Y-79199355D01*
X71386005Y-79199354D01*
X71386003Y-79199354D01*
X71176545Y-79160200D01*
X70963455Y-79160200D01*
X70753996Y-79199354D01*
X70555293Y-79276332D01*
X70535553Y-79288555D01*
X70476124Y-79303111D01*
X70419490Y-79279957D01*
X70387281Y-79227936D01*
X70391801Y-79166917D01*
X70413431Y-79134381D01*
X74010500Y-75537314D01*
X74076392Y-75423186D01*
X74110500Y-75295892D01*
X74110500Y-75164107D01*
X74110500Y-73787606D01*
X74129407Y-73729415D01*
X74157378Y-73703437D01*
X74305878Y-73611491D01*
X74463353Y-73467934D01*
X74591768Y-73297885D01*
X74686750Y-73107135D01*
X74745065Y-72902180D01*
X74764726Y-72690000D01*
X74995274Y-72690000D01*
X75014935Y-72902180D01*
X75073250Y-73107135D01*
X75168232Y-73297885D01*
X75296647Y-73467934D01*
X75454122Y-73611491D01*
X75635294Y-73723668D01*
X75833994Y-73800645D01*
X76043455Y-73839800D01*
X76256545Y-73839800D01*
X76466006Y-73800645D01*
X76664706Y-73723668D01*
X76845878Y-73611491D01*
X77003353Y-73467934D01*
X77131768Y-73297885D01*
X77226750Y-73107135D01*
X77285065Y-72902180D01*
X77304726Y-72690000D01*
X77535274Y-72690000D01*
X77554935Y-72902180D01*
X77613250Y-73107135D01*
X77708232Y-73297885D01*
X77836647Y-73467934D01*
X77994122Y-73611491D01*
X78175294Y-73723668D01*
X78373994Y-73800645D01*
X78583455Y-73839800D01*
X78796545Y-73839800D01*
X79006006Y-73800645D01*
X79204706Y-73723668D01*
X79385878Y-73611491D01*
X79543353Y-73467934D01*
X79671768Y-73297885D01*
X79766750Y-73107135D01*
X79825065Y-72902180D01*
X79844726Y-72690000D01*
X80075274Y-72690000D01*
X80094935Y-72902180D01*
X80153250Y-73107135D01*
X80248232Y-73297885D01*
X80376647Y-73467934D01*
X80534122Y-73611491D01*
X80715294Y-73723668D01*
X80913994Y-73800645D01*
X81123455Y-73839800D01*
X81336545Y-73839800D01*
X81546006Y-73800645D01*
X81744706Y-73723668D01*
X81925878Y-73611491D01*
X82083353Y-73467934D01*
X82211768Y-73297885D01*
X82306750Y-73107135D01*
X82365065Y-72902180D01*
X82384726Y-72690000D01*
X82615274Y-72690000D01*
X82634935Y-72902180D01*
X82693250Y-73107135D01*
X82788232Y-73297885D01*
X82916647Y-73467934D01*
X83074122Y-73611491D01*
X83255294Y-73723668D01*
X83453994Y-73800645D01*
X83663455Y-73839800D01*
X83876545Y-73839800D01*
X84086006Y-73800645D01*
X84284706Y-73723668D01*
X84465878Y-73611491D01*
X84623353Y-73467934D01*
X84751768Y-73297885D01*
X84846750Y-73107135D01*
X84905065Y-72902180D01*
X84924726Y-72690000D01*
X85155274Y-72690000D01*
X85174935Y-72902180D01*
X85233250Y-73107135D01*
X85328232Y-73297885D01*
X85456647Y-73467934D01*
X85614122Y-73611491D01*
X85795294Y-73723668D01*
X85993994Y-73800645D01*
X86203455Y-73839800D01*
X86416545Y-73839800D01*
X86626006Y-73800645D01*
X86824706Y-73723668D01*
X87005878Y-73611491D01*
X87163353Y-73467934D01*
X87291768Y-73297885D01*
X87386750Y-73107135D01*
X87445065Y-72902180D01*
X87464726Y-72690000D01*
X87695274Y-72690000D01*
X87714935Y-72902180D01*
X87773250Y-73107135D01*
X87868232Y-73297885D01*
X87996647Y-73467934D01*
X88154122Y-73611491D01*
X88335294Y-73723668D01*
X88533994Y-73800645D01*
X88743455Y-73839800D01*
X88956545Y-73839800D01*
X89166006Y-73800645D01*
X89364706Y-73723668D01*
X89545878Y-73611491D01*
X89703353Y-73467934D01*
X89831768Y-73297885D01*
X89926750Y-73107135D01*
X89985065Y-72902180D01*
X90004726Y-72690000D01*
X90235274Y-72690000D01*
X90254935Y-72902180D01*
X90313250Y-73107135D01*
X90408232Y-73297885D01*
X90536647Y-73467934D01*
X90694122Y-73611491D01*
X90875294Y-73723668D01*
X91073994Y-73800645D01*
X91283455Y-73839800D01*
X91496545Y-73839800D01*
X91706006Y-73800645D01*
X91904706Y-73723668D01*
X92085878Y-73611491D01*
X92243353Y-73467934D01*
X92371768Y-73297885D01*
X92466750Y-73107135D01*
X92525065Y-72902180D01*
X92544726Y-72690000D01*
X92775274Y-72690000D01*
X92794935Y-72902180D01*
X92853250Y-73107135D01*
X92948232Y-73297885D01*
X93076647Y-73467934D01*
X93234122Y-73611491D01*
X93415294Y-73723668D01*
X93613994Y-73800645D01*
X93823455Y-73839800D01*
X94036545Y-73839800D01*
X94246006Y-73800645D01*
X94444706Y-73723668D01*
X94625878Y-73611491D01*
X94783353Y-73467934D01*
X94911768Y-73297885D01*
X95006750Y-73107135D01*
X95065065Y-72902180D01*
X95084726Y-72690000D01*
X95315274Y-72690000D01*
X95334935Y-72902180D01*
X95393250Y-73107135D01*
X95488232Y-73297885D01*
X95616647Y-73467934D01*
X95774122Y-73611491D01*
X95955294Y-73723668D01*
X96153994Y-73800645D01*
X96363455Y-73839800D01*
X96576545Y-73839800D01*
X96786006Y-73800645D01*
X96984706Y-73723668D01*
X97165878Y-73611491D01*
X97323353Y-73467934D01*
X97341260Y-73444221D01*
X98210700Y-73444221D01*
X98213601Y-73458808D01*
X98224651Y-73475346D01*
X98224653Y-73475348D01*
X98241191Y-73486398D01*
X98255778Y-73489299D01*
X98255779Y-73489300D01*
X98759999Y-73489300D01*
X98760000Y-73489299D01*
X98760000Y-73117585D01*
X98818821Y-73151546D01*
X98944793Y-73185300D01*
X99075207Y-73185300D01*
X99201179Y-73151546D01*
X99260000Y-73117585D01*
X99260000Y-73489299D01*
X99260001Y-73489300D01*
X99764221Y-73489300D01*
X99764221Y-73489299D01*
X99778808Y-73486398D01*
X99795346Y-73475348D01*
X99795348Y-73475346D01*
X99806398Y-73458808D01*
X99809299Y-73444221D01*
X99809300Y-73444221D01*
X99809300Y-72940001D01*
X99809299Y-72940000D01*
X99437586Y-72940000D01*
X99471546Y-72881179D01*
X99505300Y-72755207D01*
X99505300Y-72624793D01*
X99471546Y-72498821D01*
X99437586Y-72440000D01*
X99809299Y-72440000D01*
X99809300Y-72439999D01*
X99809300Y-71935778D01*
X99806398Y-71921191D01*
X99795348Y-71904653D01*
X99795346Y-71904651D01*
X99778808Y-71893601D01*
X99764222Y-71890700D01*
X99260001Y-71890700D01*
X99260000Y-71890701D01*
X99260000Y-72262414D01*
X99201179Y-72228454D01*
X99075207Y-72194700D01*
X98944793Y-72194700D01*
X98818821Y-72228454D01*
X98760000Y-72262414D01*
X98760000Y-71890701D01*
X98759999Y-71890700D01*
X98255778Y-71890700D01*
X98241191Y-71893601D01*
X98224653Y-71904651D01*
X98224651Y-71904653D01*
X98213601Y-71921191D01*
X98210700Y-71935778D01*
X98210700Y-72439999D01*
X98210701Y-72440000D01*
X98582414Y-72440000D01*
X98548454Y-72498821D01*
X98514700Y-72624793D01*
X98514700Y-72755207D01*
X98548454Y-72881179D01*
X98582414Y-72940000D01*
X98210701Y-72940000D01*
X98210700Y-72940001D01*
X98210700Y-73444221D01*
X97341260Y-73444221D01*
X97451768Y-73297885D01*
X97546750Y-73107135D01*
X97605065Y-72902180D01*
X97624726Y-72690000D01*
X97605065Y-72477820D01*
X97546750Y-72272865D01*
X97451768Y-72082115D01*
X97323353Y-71912066D01*
X97165878Y-71768509D01*
X96984706Y-71656332D01*
X96786006Y-71579355D01*
X96786005Y-71579354D01*
X96786003Y-71579354D01*
X96576545Y-71540200D01*
X96363455Y-71540200D01*
X96153996Y-71579354D01*
X95955293Y-71656332D01*
X95955288Y-71656335D01*
X95774126Y-71768506D01*
X95774124Y-71768507D01*
X95774122Y-71768509D01*
X95640084Y-71890700D01*
X95616648Y-71912065D01*
X95488233Y-72082113D01*
X95488228Y-72082122D01*
X95432171Y-72194700D01*
X95393250Y-72272865D01*
X95334935Y-72477820D01*
X95315274Y-72690000D01*
X95084726Y-72690000D01*
X95065065Y-72477820D01*
X95006750Y-72272865D01*
X94911768Y-72082115D01*
X94783353Y-71912066D01*
X94625878Y-71768509D01*
X94444706Y-71656332D01*
X94246006Y-71579355D01*
X94246005Y-71579354D01*
X94246003Y-71579354D01*
X94036545Y-71540200D01*
X93823455Y-71540200D01*
X93613996Y-71579354D01*
X93415293Y-71656332D01*
X93415288Y-71656335D01*
X93234126Y-71768506D01*
X93234124Y-71768507D01*
X93234122Y-71768509D01*
X93100084Y-71890700D01*
X93076648Y-71912065D01*
X92948233Y-72082113D01*
X92948228Y-72082122D01*
X92892171Y-72194700D01*
X92853250Y-72272865D01*
X92794935Y-72477820D01*
X92775274Y-72690000D01*
X92544726Y-72690000D01*
X92525065Y-72477820D01*
X92466750Y-72272865D01*
X92371768Y-72082115D01*
X92243353Y-71912066D01*
X92085878Y-71768509D01*
X91904706Y-71656332D01*
X91706006Y-71579355D01*
X91706005Y-71579354D01*
X91706003Y-71579354D01*
X91496545Y-71540200D01*
X91283455Y-71540200D01*
X91073996Y-71579354D01*
X90875293Y-71656332D01*
X90875288Y-71656335D01*
X90694126Y-71768506D01*
X90694124Y-71768507D01*
X90694122Y-71768509D01*
X90560084Y-71890700D01*
X90536648Y-71912065D01*
X90408233Y-72082113D01*
X90408228Y-72082122D01*
X90352171Y-72194700D01*
X90313250Y-72272865D01*
X90254935Y-72477820D01*
X90235274Y-72690000D01*
X90004726Y-72690000D01*
X89985065Y-72477820D01*
X89926750Y-72272865D01*
X89831768Y-72082115D01*
X89703353Y-71912066D01*
X89545878Y-71768509D01*
X89364706Y-71656332D01*
X89166006Y-71579355D01*
X89166005Y-71579354D01*
X89166003Y-71579354D01*
X88956545Y-71540200D01*
X88743455Y-71540200D01*
X88533996Y-71579354D01*
X88335293Y-71656332D01*
X88335288Y-71656335D01*
X88154126Y-71768506D01*
X88154124Y-71768507D01*
X88154122Y-71768509D01*
X88020084Y-71890700D01*
X87996648Y-71912065D01*
X87868233Y-72082113D01*
X87868228Y-72082122D01*
X87812171Y-72194700D01*
X87773250Y-72272865D01*
X87714935Y-72477820D01*
X87695274Y-72690000D01*
X87464726Y-72690000D01*
X87445065Y-72477820D01*
X87386750Y-72272865D01*
X87291768Y-72082115D01*
X87163353Y-71912066D01*
X87005878Y-71768509D01*
X86824706Y-71656332D01*
X86626006Y-71579355D01*
X86626005Y-71579354D01*
X86626003Y-71579354D01*
X86416545Y-71540200D01*
X86203455Y-71540200D01*
X85993996Y-71579354D01*
X85795293Y-71656332D01*
X85795288Y-71656335D01*
X85614126Y-71768506D01*
X85614124Y-71768507D01*
X85614122Y-71768509D01*
X85480084Y-71890700D01*
X85456648Y-71912065D01*
X85328233Y-72082113D01*
X85328228Y-72082122D01*
X85272171Y-72194700D01*
X85233250Y-72272865D01*
X85174935Y-72477820D01*
X85155274Y-72690000D01*
X84924726Y-72690000D01*
X84905065Y-72477820D01*
X84846750Y-72272865D01*
X84751768Y-72082115D01*
X84623353Y-71912066D01*
X84465878Y-71768509D01*
X84284706Y-71656332D01*
X84086006Y-71579355D01*
X84086005Y-71579354D01*
X84086003Y-71579354D01*
X83876545Y-71540200D01*
X83663455Y-71540200D01*
X83453996Y-71579354D01*
X83255293Y-71656332D01*
X83255288Y-71656335D01*
X83074126Y-71768506D01*
X83074124Y-71768507D01*
X83074122Y-71768509D01*
X82940084Y-71890700D01*
X82916648Y-71912065D01*
X82788233Y-72082113D01*
X82788228Y-72082122D01*
X82732171Y-72194700D01*
X82693250Y-72272865D01*
X82634935Y-72477820D01*
X82615274Y-72690000D01*
X82384726Y-72690000D01*
X82365065Y-72477820D01*
X82306750Y-72272865D01*
X82211768Y-72082115D01*
X82083353Y-71912066D01*
X81925878Y-71768509D01*
X81744706Y-71656332D01*
X81546006Y-71579355D01*
X81546005Y-71579354D01*
X81546003Y-71579354D01*
X81336545Y-71540200D01*
X81123455Y-71540200D01*
X80913996Y-71579354D01*
X80715293Y-71656332D01*
X80715288Y-71656335D01*
X80534126Y-71768506D01*
X80534124Y-71768507D01*
X80534122Y-71768509D01*
X80400084Y-71890700D01*
X80376648Y-71912065D01*
X80248233Y-72082113D01*
X80248228Y-72082122D01*
X80192171Y-72194700D01*
X80153250Y-72272865D01*
X80094935Y-72477820D01*
X80075274Y-72690000D01*
X79844726Y-72690000D01*
X79825065Y-72477820D01*
X79766750Y-72272865D01*
X79671768Y-72082115D01*
X79543353Y-71912066D01*
X79385878Y-71768509D01*
X79204706Y-71656332D01*
X79006006Y-71579355D01*
X79006005Y-71579354D01*
X79006003Y-71579354D01*
X78796545Y-71540200D01*
X78583455Y-71540200D01*
X78373996Y-71579354D01*
X78175293Y-71656332D01*
X78175288Y-71656335D01*
X77994126Y-71768506D01*
X77994124Y-71768507D01*
X77994122Y-71768509D01*
X77860084Y-71890700D01*
X77836648Y-71912065D01*
X77708233Y-72082113D01*
X77708228Y-72082122D01*
X77652171Y-72194700D01*
X77613250Y-72272865D01*
X77554935Y-72477820D01*
X77535274Y-72690000D01*
X77304726Y-72690000D01*
X77285065Y-72477820D01*
X77226750Y-72272865D01*
X77131768Y-72082115D01*
X77003353Y-71912066D01*
X76845878Y-71768509D01*
X76664706Y-71656332D01*
X76466006Y-71579355D01*
X76466005Y-71579354D01*
X76466003Y-71579354D01*
X76256545Y-71540200D01*
X76043455Y-71540200D01*
X75833996Y-71579354D01*
X75635293Y-71656332D01*
X75635288Y-71656335D01*
X75454126Y-71768506D01*
X75454124Y-71768507D01*
X75454122Y-71768509D01*
X75320084Y-71890700D01*
X75296648Y-71912065D01*
X75168233Y-72082113D01*
X75168228Y-72082122D01*
X75112171Y-72194700D01*
X75073250Y-72272865D01*
X75014935Y-72477820D01*
X74995274Y-72690000D01*
X74764726Y-72690000D01*
X74745065Y-72477820D01*
X74686750Y-72272865D01*
X74591768Y-72082115D01*
X74463353Y-71912066D01*
X74305878Y-71768509D01*
X74124706Y-71656332D01*
X73926006Y-71579355D01*
X73926005Y-71579354D01*
X73926003Y-71579354D01*
X73716545Y-71540200D01*
X73503455Y-71540200D01*
X73293996Y-71579354D01*
X73095293Y-71656332D01*
X73095288Y-71656335D01*
X72914126Y-71768506D01*
X72914124Y-71768507D01*
X72914122Y-71768509D01*
X72780084Y-71890700D01*
X72756648Y-71912065D01*
X72628233Y-72082113D01*
X72628228Y-72082122D01*
X72572171Y-72194700D01*
X72533250Y-72272865D01*
X72474935Y-72477820D01*
X72455274Y-72690000D01*
X72474935Y-72902180D01*
X72533250Y-73107135D01*
X72628232Y-73297885D01*
X72756647Y-73467934D01*
X72914122Y-73611491D01*
X73062619Y-73703436D01*
X73102138Y-73750143D01*
X73109500Y-73787606D01*
X73109500Y-74981677D01*
X73090593Y-75039868D01*
X73080504Y-75051681D01*
X68954200Y-79177984D01*
X68899683Y-79205761D01*
X68850438Y-79200510D01*
X68850411Y-79200608D01*
X68849848Y-79200448D01*
X68848441Y-79200298D01*
X68846006Y-79199355D01*
X68636545Y-79160200D01*
X68423455Y-79160200D01*
X68213996Y-79199354D01*
X68015293Y-79276332D01*
X68015288Y-79276335D01*
X67834126Y-79388506D01*
X67834124Y-79388507D01*
X67834122Y-79388509D01*
X67695588Y-79514798D01*
X67676648Y-79532065D01*
X67548233Y-79702113D01*
X67548228Y-79702122D01*
X67455051Y-79889248D01*
X67453250Y-79892865D01*
X67394935Y-80097820D01*
X67375274Y-80310000D01*
X67144726Y-80310000D01*
X67125065Y-80097820D01*
X67066750Y-79892865D01*
X66971768Y-79702115D01*
X66843353Y-79532066D01*
X66685878Y-79388509D01*
X66504706Y-79276332D01*
X66306006Y-79199355D01*
X66306005Y-79199354D01*
X66306003Y-79199354D01*
X66096545Y-79160200D01*
X65883455Y-79160200D01*
X65673996Y-79199354D01*
X65475293Y-79276332D01*
X65475288Y-79276335D01*
X65294126Y-79388506D01*
X65294124Y-79388507D01*
X65294122Y-79388509D01*
X65155588Y-79514798D01*
X65136648Y-79532065D01*
X65008233Y-79702113D01*
X65008228Y-79702122D01*
X64915051Y-79889248D01*
X64913250Y-79892865D01*
X64854935Y-80097820D01*
X64835274Y-80310000D01*
X52500000Y-80310000D01*
X52500000Y-72690000D01*
X64835274Y-72690000D01*
X64854935Y-72902180D01*
X64913250Y-73107135D01*
X65008232Y-73297885D01*
X65136647Y-73467934D01*
X65294122Y-73611491D01*
X65475294Y-73723668D01*
X65673994Y-73800645D01*
X65883455Y-73839800D01*
X66096545Y-73839800D01*
X66306006Y-73800645D01*
X66504706Y-73723668D01*
X66685878Y-73611491D01*
X66843353Y-73467934D01*
X66971768Y-73297885D01*
X67066750Y-73107135D01*
X67125065Y-72902180D01*
X67144726Y-72690000D01*
X67375274Y-72690000D01*
X67394935Y-72902180D01*
X67453250Y-73107135D01*
X67548232Y-73297885D01*
X67676647Y-73467934D01*
X67834122Y-73611491D01*
X68015294Y-73723668D01*
X68213994Y-73800645D01*
X68423455Y-73839800D01*
X68636545Y-73839800D01*
X68846006Y-73800645D01*
X69044706Y-73723668D01*
X69225878Y-73611491D01*
X69383353Y-73467934D01*
X69511768Y-73297885D01*
X69606750Y-73107135D01*
X69665065Y-72902180D01*
X69684726Y-72690000D01*
X69915274Y-72690000D01*
X69934935Y-72902180D01*
X69993250Y-73107135D01*
X70088232Y-73297885D01*
X70216647Y-73467934D01*
X70374122Y-73611491D01*
X70555294Y-73723668D01*
X70753994Y-73800645D01*
X70963455Y-73839800D01*
X71176545Y-73839800D01*
X71386006Y-73800645D01*
X71584706Y-73723668D01*
X71765878Y-73611491D01*
X71923353Y-73467934D01*
X72051768Y-73297885D01*
X72146750Y-73107135D01*
X72205065Y-72902180D01*
X72224726Y-72690000D01*
X72205065Y-72477820D01*
X72146750Y-72272865D01*
X72051768Y-72082115D01*
X71923353Y-71912066D01*
X71765878Y-71768509D01*
X71584706Y-71656332D01*
X71386006Y-71579355D01*
X71386005Y-71579354D01*
X71386003Y-71579354D01*
X71176545Y-71540200D01*
X70963455Y-71540200D01*
X70753996Y-71579354D01*
X70555293Y-71656332D01*
X70555288Y-71656335D01*
X70374126Y-71768506D01*
X70374124Y-71768507D01*
X70374122Y-71768509D01*
X70240084Y-71890700D01*
X70216648Y-71912065D01*
X70088233Y-72082113D01*
X70088228Y-72082122D01*
X70032171Y-72194700D01*
X69993250Y-72272865D01*
X69934935Y-72477820D01*
X69915274Y-72690000D01*
X69684726Y-72690000D01*
X69665065Y-72477820D01*
X69606750Y-72272865D01*
X69511768Y-72082115D01*
X69383353Y-71912066D01*
X69225878Y-71768509D01*
X69044706Y-71656332D01*
X68846006Y-71579355D01*
X68846005Y-71579354D01*
X68846003Y-71579354D01*
X68636545Y-71540200D01*
X68423455Y-71540200D01*
X68213996Y-71579354D01*
X68015293Y-71656332D01*
X68015288Y-71656335D01*
X67834126Y-71768506D01*
X67834124Y-71768507D01*
X67834122Y-71768509D01*
X67700084Y-71890700D01*
X67676648Y-71912065D01*
X67548233Y-72082113D01*
X67548228Y-72082122D01*
X67492171Y-72194700D01*
X67453250Y-72272865D01*
X67394935Y-72477820D01*
X67375274Y-72690000D01*
X67144726Y-72690000D01*
X67125065Y-72477820D01*
X67066750Y-72272865D01*
X66971768Y-72082115D01*
X66843353Y-71912066D01*
X66685878Y-71768509D01*
X66504706Y-71656332D01*
X66306006Y-71579355D01*
X66306005Y-71579354D01*
X66306003Y-71579354D01*
X66096545Y-71540200D01*
X65883455Y-71540200D01*
X65673996Y-71579354D01*
X65475293Y-71656332D01*
X65475288Y-71656335D01*
X65294126Y-71768506D01*
X65294124Y-71768507D01*
X65294122Y-71768509D01*
X65160084Y-71890700D01*
X65136648Y-71912065D01*
X65008233Y-72082113D01*
X65008228Y-72082122D01*
X64952171Y-72194700D01*
X64913250Y-72272865D01*
X64854935Y-72477820D01*
X64835274Y-72690000D01*
X52500000Y-72690000D01*
X52500000Y-52750003D01*
X68442826Y-52750003D01*
X68462683Y-52976980D01*
X68462684Y-52976987D01*
X68462685Y-52976988D01*
X68521658Y-53197080D01*
X68603602Y-53372809D01*
X68617954Y-53403587D01*
X68617954Y-53403588D01*
X68738950Y-53576387D01*
X68748647Y-53590235D01*
X68909765Y-53751353D01*
X68909768Y-53751355D01*
X68909769Y-53751356D01*
X69096411Y-53882045D01*
X69096412Y-53882045D01*
X69096413Y-53882046D01*
X69302920Y-53978342D01*
X69523012Y-54037315D01*
X69523016Y-54037315D01*
X69523019Y-54037316D01*
X69749997Y-54057174D01*
X69750000Y-54057174D01*
X69750003Y-54057174D01*
X69976980Y-54037316D01*
X69976981Y-54037315D01*
X69976988Y-54037315D01*
X70197080Y-53978342D01*
X70403587Y-53882046D01*
X70590235Y-53751353D01*
X70751353Y-53590235D01*
X70882046Y-53403587D01*
X70978342Y-53197080D01*
X71037315Y-52976988D01*
X71040852Y-52936566D01*
X71057174Y-52750004D01*
X73793695Y-52750004D01*
X73812068Y-52936560D01*
X73812069Y-52936566D01*
X73866489Y-53115962D01*
X73866491Y-53115967D01*
X73923611Y-53222833D01*
X74150717Y-52995726D01*
X74176016Y-53056801D01*
X74246899Y-53162885D01*
X74337115Y-53253101D01*
X74443199Y-53323984D01*
X74504271Y-53349281D01*
X74277166Y-53576387D01*
X74384032Y-53633508D01*
X74384037Y-53633510D01*
X74563433Y-53687930D01*
X74563439Y-53687931D01*
X74749996Y-53706305D01*
X74750004Y-53706305D01*
X74936560Y-53687931D01*
X74936566Y-53687930D01*
X75115962Y-53633510D01*
X75222832Y-53576387D01*
X74995726Y-53349281D01*
X75056801Y-53323984D01*
X75162885Y-53253101D01*
X75253101Y-53162885D01*
X75323984Y-53056801D01*
X75349281Y-52995726D01*
X75576387Y-53222832D01*
X75633510Y-53115962D01*
X75687930Y-52936566D01*
X75687931Y-52936560D01*
X75706305Y-52750004D01*
X75706305Y-52750003D01*
X88192826Y-52750003D01*
X88212683Y-52976980D01*
X88212684Y-52976987D01*
X88212685Y-52976988D01*
X88271658Y-53197080D01*
X88353602Y-53372809D01*
X88367954Y-53403587D01*
X88367954Y-53403588D01*
X88488950Y-53576387D01*
X88498647Y-53590235D01*
X88659765Y-53751353D01*
X88659768Y-53751355D01*
X88659769Y-53751356D01*
X88846411Y-53882045D01*
X88846412Y-53882045D01*
X88846413Y-53882046D01*
X89052920Y-53978342D01*
X89273012Y-54037315D01*
X89273016Y-54037315D01*
X89273019Y-54037316D01*
X89499997Y-54057174D01*
X89500000Y-54057174D01*
X89500003Y-54057174D01*
X89726980Y-54037316D01*
X89726981Y-54037315D01*
X89726988Y-54037315D01*
X89947080Y-53978342D01*
X90153587Y-53882046D01*
X90340235Y-53751353D01*
X90501353Y-53590235D01*
X90632046Y-53403587D01*
X90728342Y-53197080D01*
X90787315Y-52976988D01*
X90790852Y-52936566D01*
X90807174Y-52750003D01*
X93192826Y-52750003D01*
X93212683Y-52976980D01*
X93212684Y-52976987D01*
X93212685Y-52976988D01*
X93271658Y-53197080D01*
X93353602Y-53372809D01*
X93367954Y-53403587D01*
X93367954Y-53403588D01*
X93488950Y-53576387D01*
X93498647Y-53590235D01*
X93659765Y-53751353D01*
X93659768Y-53751355D01*
X93659769Y-53751356D01*
X93846411Y-53882045D01*
X93846412Y-53882045D01*
X93846413Y-53882046D01*
X94052920Y-53978342D01*
X94273012Y-54037315D01*
X94273016Y-54037315D01*
X94273019Y-54037316D01*
X94499997Y-54057174D01*
X94500000Y-54057174D01*
X94500003Y-54057174D01*
X94726980Y-54037316D01*
X94726981Y-54037315D01*
X94726988Y-54037315D01*
X94947080Y-53978342D01*
X95153587Y-53882046D01*
X95340235Y-53751353D01*
X95501353Y-53590235D01*
X95632046Y-53403587D01*
X95728342Y-53197080D01*
X95787315Y-52976988D01*
X95790852Y-52936566D01*
X95807174Y-52750003D01*
X95807174Y-52749996D01*
X95787316Y-52523019D01*
X95787315Y-52523016D01*
X95787315Y-52523012D01*
X95728342Y-52302920D01*
X95632046Y-52096413D01*
X95501353Y-51909765D01*
X95340235Y-51748647D01*
X95340231Y-51748644D01*
X95340230Y-51748643D01*
X95153588Y-51617954D01*
X95050333Y-51569806D01*
X94947080Y-51521658D01*
X94726988Y-51462685D01*
X94726987Y-51462684D01*
X94726980Y-51462683D01*
X94500003Y-51442826D01*
X94499997Y-51442826D01*
X94273019Y-51462683D01*
X94052920Y-51521658D01*
X93846412Y-51617954D01*
X93846411Y-51617954D01*
X93659769Y-51748643D01*
X93498643Y-51909769D01*
X93367954Y-52096411D01*
X93367954Y-52096412D01*
X93271658Y-52302920D01*
X93212683Y-52523019D01*
X93192826Y-52749996D01*
X93192826Y-52750003D01*
X90807174Y-52750003D01*
X90807174Y-52749996D01*
X90787316Y-52523019D01*
X90787315Y-52523016D01*
X90787315Y-52523012D01*
X90728342Y-52302920D01*
X90632046Y-52096413D01*
X90501353Y-51909765D01*
X90340235Y-51748647D01*
X90340231Y-51748644D01*
X90340230Y-51748643D01*
X90153588Y-51617954D01*
X90050333Y-51569806D01*
X89947080Y-51521658D01*
X89726988Y-51462685D01*
X89726987Y-51462684D01*
X89726980Y-51462683D01*
X89500003Y-51442826D01*
X89499997Y-51442826D01*
X89273019Y-51462683D01*
X89052920Y-51521658D01*
X88846412Y-51617954D01*
X88846411Y-51617954D01*
X88659769Y-51748643D01*
X88498643Y-51909769D01*
X88367954Y-52096411D01*
X88367954Y-52096412D01*
X88271658Y-52302920D01*
X88212683Y-52523019D01*
X88192826Y-52749996D01*
X88192826Y-52750003D01*
X75706305Y-52750003D01*
X75706305Y-52749995D01*
X75687931Y-52563439D01*
X75687930Y-52563433D01*
X75633510Y-52384037D01*
X75633508Y-52384032D01*
X75576387Y-52277166D01*
X75349281Y-52504271D01*
X75323984Y-52443199D01*
X75253101Y-52337115D01*
X75162885Y-52246899D01*
X75056801Y-52176016D01*
X74995726Y-52150717D01*
X75222833Y-51923611D01*
X75115967Y-51866491D01*
X75115962Y-51866489D01*
X74936566Y-51812069D01*
X74936560Y-51812068D01*
X74750004Y-51793695D01*
X74749996Y-51793695D01*
X74563439Y-51812068D01*
X74563433Y-51812069D01*
X74384045Y-51866487D01*
X74384033Y-51866491D01*
X74277166Y-51923612D01*
X74504272Y-52150718D01*
X74443199Y-52176016D01*
X74337115Y-52246899D01*
X74246899Y-52337115D01*
X74176016Y-52443199D01*
X74150718Y-52504272D01*
X73923612Y-52277166D01*
X73866491Y-52384033D01*
X73866487Y-52384045D01*
X73812069Y-52563433D01*
X73812068Y-52563439D01*
X73793695Y-52749995D01*
X73793695Y-52750004D01*
X71057174Y-52750004D01*
X71057174Y-52750003D01*
X71057174Y-52749996D01*
X71037316Y-52523019D01*
X71037315Y-52523016D01*
X71037315Y-52523012D01*
X70978342Y-52302920D01*
X70882046Y-52096413D01*
X70751353Y-51909765D01*
X70590235Y-51748647D01*
X70590231Y-51748644D01*
X70590230Y-51748643D01*
X70403588Y-51617954D01*
X70300333Y-51569806D01*
X70197080Y-51521658D01*
X69976988Y-51462685D01*
X69976987Y-51462684D01*
X69976980Y-51462683D01*
X69750003Y-51442826D01*
X69749997Y-51442826D01*
X69523019Y-51462683D01*
X69302920Y-51521658D01*
X69096412Y-51617954D01*
X69096411Y-51617954D01*
X68909769Y-51748643D01*
X68748643Y-51909769D01*
X68617954Y-52096411D01*
X68617954Y-52096412D01*
X68521658Y-52302920D01*
X68462683Y-52523019D01*
X68442826Y-52749996D01*
X68442826Y-52750003D01*
X52500000Y-52750003D01*
X52500000Y-47599000D01*
X52518907Y-47540809D01*
X52568407Y-47504845D01*
X52599000Y-47500000D01*
X137401000Y-47500000D01*
X137459191Y-47518907D01*
G37*
G04 #@! TD.AperFunction*
M02*
