G04 #@! TF.GenerationSoftware,KiCad,Pcbnew,8.0.0*
G04 #@! TF.CreationDate,2024-03-05T22:41:52-05:00*
G04 #@! TF.ProjectId,CANLight,43414e4c-6967-4687-942e-6b696361645f,rev?*
G04 #@! TF.SameCoordinates,Original*
G04 #@! TF.FileFunction,Legend,Top*
G04 #@! TF.FilePolarity,Positive*
%FSLAX46Y46*%
G04 Gerber Fmt 4.6, Leading zero omitted, Abs format (unit mm)*
G04 Created by KiCad (PCBNEW 8.0.0) date 2024-03-05 22:41:52*
%MOMM*%
%LPD*%
G01*
G04 APERTURE LIST*
G04 Aperture macros list*
%AMRoundRect*
0 Rectangle with rounded corners*
0 $1 Rounding radius*
0 $2 $3 $4 $5 $6 $7 $8 $9 X,Y pos of 4 corners*
0 Add a 4 corners polygon primitive as box body*
4,1,4,$2,$3,$4,$5,$6,$7,$8,$9,$2,$3,0*
0 Add four circle primitives for the rounded corners*
1,1,$1+$1,$2,$3*
1,1,$1+$1,$4,$5*
1,1,$1+$1,$6,$7*
1,1,$1+$1,$8,$9*
0 Add four rect primitives between the rounded corners*
20,1,$1+$1,$2,$3,$4,$5,0*
20,1,$1+$1,$4,$5,$6,$7,0*
20,1,$1+$1,$6,$7,$8,$9,0*
20,1,$1+$1,$8,$9,$2,$3,0*%
G04 Aperture macros list end*
%ADD10C,0.100000*%
%ADD11C,0.150000*%
%ADD12C,0.120000*%
%ADD13C,0.152400*%
%ADD14C,0.127000*%
%ADD15C,0.200000*%
%ADD16C,0.508000*%
%ADD17RoundRect,0.250000X0.262500X0.450000X-0.262500X0.450000X-0.262500X-0.450000X0.262500X-0.450000X0*%
%ADD18C,1.320800*%
%ADD19R,1.320800X1.320800*%
%ADD20R,0.965200X0.965200*%
%ADD21C,0.965200*%
%ADD22RoundRect,0.250000X0.250000X0.475000X-0.250000X0.475000X-0.250000X-0.475000X0.250000X-0.475000X0*%
%ADD23RoundRect,0.102000X-0.750000X-0.450000X0.750000X-0.450000X0.750000X0.450000X-0.750000X0.450000X0*%
%ADD24RoundRect,0.102000X-0.750000X-1.600000X0.750000X-1.600000X0.750000X1.600000X-0.750000X1.600000X0*%
%ADD25R,1.498600X1.498600*%
%ADD26C,1.498600*%
%ADD27RoundRect,0.250000X-0.450000X0.262500X-0.450000X-0.262500X0.450000X-0.262500X0.450000X0.262500X0*%
%ADD28RoundRect,0.250000X-0.475000X0.250000X-0.475000X-0.250000X0.475000X-0.250000X0.475000X0.250000X0*%
%ADD29C,1.803400*%
G04 APERTURE END LIST*
D10*
X105803884Y-51152531D02*
X105803884Y-50152531D01*
X106232455Y-50247769D02*
X106280074Y-50200150D01*
X106280074Y-50200150D02*
X106375312Y-50152531D01*
X106375312Y-50152531D02*
X106613407Y-50152531D01*
X106613407Y-50152531D02*
X106708645Y-50200150D01*
X106708645Y-50200150D02*
X106756264Y-50247769D01*
X106756264Y-50247769D02*
X106803883Y-50343007D01*
X106803883Y-50343007D02*
X106803883Y-50438245D01*
X106803883Y-50438245D02*
X106756264Y-50581102D01*
X106756264Y-50581102D02*
X106184836Y-51152531D01*
X106184836Y-51152531D02*
X106803883Y-51152531D01*
X107803883Y-51057292D02*
X107756264Y-51104912D01*
X107756264Y-51104912D02*
X107613407Y-51152531D01*
X107613407Y-51152531D02*
X107518169Y-51152531D01*
X107518169Y-51152531D02*
X107375312Y-51104912D01*
X107375312Y-51104912D02*
X107280074Y-51009673D01*
X107280074Y-51009673D02*
X107232455Y-50914435D01*
X107232455Y-50914435D02*
X107184836Y-50723959D01*
X107184836Y-50723959D02*
X107184836Y-50581102D01*
X107184836Y-50581102D02*
X107232455Y-50390626D01*
X107232455Y-50390626D02*
X107280074Y-50295388D01*
X107280074Y-50295388D02*
X107375312Y-50200150D01*
X107375312Y-50200150D02*
X107518169Y-50152531D01*
X107518169Y-50152531D02*
X107613407Y-50152531D01*
X107613407Y-50152531D02*
X107756264Y-50200150D01*
X107756264Y-50200150D02*
X107803883Y-50247769D01*
X109565788Y-51057292D02*
X109518169Y-51104912D01*
X109518169Y-51104912D02*
X109375312Y-51152531D01*
X109375312Y-51152531D02*
X109280074Y-51152531D01*
X109280074Y-51152531D02*
X109137217Y-51104912D01*
X109137217Y-51104912D02*
X109041979Y-51009673D01*
X109041979Y-51009673D02*
X108994360Y-50914435D01*
X108994360Y-50914435D02*
X108946741Y-50723959D01*
X108946741Y-50723959D02*
X108946741Y-50581102D01*
X108946741Y-50581102D02*
X108994360Y-50390626D01*
X108994360Y-50390626D02*
X109041979Y-50295388D01*
X109041979Y-50295388D02*
X109137217Y-50200150D01*
X109137217Y-50200150D02*
X109280074Y-50152531D01*
X109280074Y-50152531D02*
X109375312Y-50152531D01*
X109375312Y-50152531D02*
X109518169Y-50200150D01*
X109518169Y-50200150D02*
X109565788Y-50247769D01*
X109946741Y-50866816D02*
X110422931Y-50866816D01*
X109851503Y-51152531D02*
X110184836Y-50152531D01*
X110184836Y-50152531D02*
X110518169Y-51152531D01*
X110851503Y-51152531D02*
X110851503Y-50152531D01*
X110851503Y-50152531D02*
X111422931Y-51152531D01*
X111422931Y-51152531D02*
X111422931Y-50152531D01*
X112232455Y-50628721D02*
X112375312Y-50676340D01*
X112375312Y-50676340D02*
X112422931Y-50723959D01*
X112422931Y-50723959D02*
X112470550Y-50819197D01*
X112470550Y-50819197D02*
X112470550Y-50962054D01*
X112470550Y-50962054D02*
X112422931Y-51057292D01*
X112422931Y-51057292D02*
X112375312Y-51104912D01*
X112375312Y-51104912D02*
X112280074Y-51152531D01*
X112280074Y-51152531D02*
X111899122Y-51152531D01*
X111899122Y-51152531D02*
X111899122Y-50152531D01*
X111899122Y-50152531D02*
X112232455Y-50152531D01*
X112232455Y-50152531D02*
X112327693Y-50200150D01*
X112327693Y-50200150D02*
X112375312Y-50247769D01*
X112375312Y-50247769D02*
X112422931Y-50343007D01*
X112422931Y-50343007D02*
X112422931Y-50438245D01*
X112422931Y-50438245D02*
X112375312Y-50533483D01*
X112375312Y-50533483D02*
X112327693Y-50581102D01*
X112327693Y-50581102D02*
X112232455Y-50628721D01*
X112232455Y-50628721D02*
X111899122Y-50628721D01*
X112899122Y-50152531D02*
X112899122Y-50962054D01*
X112899122Y-50962054D02*
X112946741Y-51057292D01*
X112946741Y-51057292D02*
X112994360Y-51104912D01*
X112994360Y-51104912D02*
X113089598Y-51152531D01*
X113089598Y-51152531D02*
X113280074Y-51152531D01*
X113280074Y-51152531D02*
X113375312Y-51104912D01*
X113375312Y-51104912D02*
X113422931Y-51057292D01*
X113422931Y-51057292D02*
X113470550Y-50962054D01*
X113470550Y-50962054D02*
X113470550Y-50152531D01*
X113899122Y-51104912D02*
X114041979Y-51152531D01*
X114041979Y-51152531D02*
X114280074Y-51152531D01*
X114280074Y-51152531D02*
X114375312Y-51104912D01*
X114375312Y-51104912D02*
X114422931Y-51057292D01*
X114422931Y-51057292D02*
X114470550Y-50962054D01*
X114470550Y-50962054D02*
X114470550Y-50866816D01*
X114470550Y-50866816D02*
X114422931Y-50771578D01*
X114422931Y-50771578D02*
X114375312Y-50723959D01*
X114375312Y-50723959D02*
X114280074Y-50676340D01*
X114280074Y-50676340D02*
X114089598Y-50628721D01*
X114089598Y-50628721D02*
X113994360Y-50581102D01*
X113994360Y-50581102D02*
X113946741Y-50533483D01*
X113946741Y-50533483D02*
X113899122Y-50438245D01*
X113899122Y-50438245D02*
X113899122Y-50343007D01*
X113899122Y-50343007D02*
X113946741Y-50247769D01*
X113946741Y-50247769D02*
X113994360Y-50200150D01*
X113994360Y-50200150D02*
X114089598Y-50152531D01*
X114089598Y-50152531D02*
X114327693Y-50152531D01*
X114327693Y-50152531D02*
X114470550Y-50200150D01*
X115613408Y-51104912D02*
X115756265Y-51152531D01*
X115756265Y-51152531D02*
X115994360Y-51152531D01*
X115994360Y-51152531D02*
X116089598Y-51104912D01*
X116089598Y-51104912D02*
X116137217Y-51057292D01*
X116137217Y-51057292D02*
X116184836Y-50962054D01*
X116184836Y-50962054D02*
X116184836Y-50866816D01*
X116184836Y-50866816D02*
X116137217Y-50771578D01*
X116137217Y-50771578D02*
X116089598Y-50723959D01*
X116089598Y-50723959D02*
X115994360Y-50676340D01*
X115994360Y-50676340D02*
X115803884Y-50628721D01*
X115803884Y-50628721D02*
X115708646Y-50581102D01*
X115708646Y-50581102D02*
X115661027Y-50533483D01*
X115661027Y-50533483D02*
X115613408Y-50438245D01*
X115613408Y-50438245D02*
X115613408Y-50343007D01*
X115613408Y-50343007D02*
X115661027Y-50247769D01*
X115661027Y-50247769D02*
X115708646Y-50200150D01*
X115708646Y-50200150D02*
X115803884Y-50152531D01*
X115803884Y-50152531D02*
X116041979Y-50152531D01*
X116041979Y-50152531D02*
X116184836Y-50200150D01*
X116470551Y-50485864D02*
X116851503Y-50485864D01*
X116613408Y-50152531D02*
X116613408Y-51009673D01*
X116613408Y-51009673D02*
X116661027Y-51104912D01*
X116661027Y-51104912D02*
X116756265Y-51152531D01*
X116756265Y-51152531D02*
X116851503Y-51152531D01*
X117613408Y-51152531D02*
X117613408Y-50628721D01*
X117613408Y-50628721D02*
X117565789Y-50533483D01*
X117565789Y-50533483D02*
X117470551Y-50485864D01*
X117470551Y-50485864D02*
X117280075Y-50485864D01*
X117280075Y-50485864D02*
X117184837Y-50533483D01*
X117613408Y-51104912D02*
X117518170Y-51152531D01*
X117518170Y-51152531D02*
X117280075Y-51152531D01*
X117280075Y-51152531D02*
X117184837Y-51104912D01*
X117184837Y-51104912D02*
X117137218Y-51009673D01*
X117137218Y-51009673D02*
X117137218Y-50914435D01*
X117137218Y-50914435D02*
X117184837Y-50819197D01*
X117184837Y-50819197D02*
X117280075Y-50771578D01*
X117280075Y-50771578D02*
X117518170Y-50771578D01*
X117518170Y-50771578D02*
X117613408Y-50723959D01*
X117946742Y-50485864D02*
X118327694Y-50485864D01*
X118089599Y-50152531D02*
X118089599Y-51009673D01*
X118089599Y-51009673D02*
X118137218Y-51104912D01*
X118137218Y-51104912D02*
X118232456Y-51152531D01*
X118232456Y-51152531D02*
X118327694Y-51152531D01*
X119089599Y-50485864D02*
X119089599Y-51152531D01*
X118661028Y-50485864D02*
X118661028Y-51009673D01*
X118661028Y-51009673D02*
X118708647Y-51104912D01*
X118708647Y-51104912D02*
X118803885Y-51152531D01*
X118803885Y-51152531D02*
X118946742Y-51152531D01*
X118946742Y-51152531D02*
X119041980Y-51104912D01*
X119041980Y-51104912D02*
X119089599Y-51057292D01*
X119518171Y-51104912D02*
X119613409Y-51152531D01*
X119613409Y-51152531D02*
X119803885Y-51152531D01*
X119803885Y-51152531D02*
X119899123Y-51104912D01*
X119899123Y-51104912D02*
X119946742Y-51009673D01*
X119946742Y-51009673D02*
X119946742Y-50962054D01*
X119946742Y-50962054D02*
X119899123Y-50866816D01*
X119899123Y-50866816D02*
X119803885Y-50819197D01*
X119803885Y-50819197D02*
X119661028Y-50819197D01*
X119661028Y-50819197D02*
X119565790Y-50771578D01*
X119565790Y-50771578D02*
X119518171Y-50676340D01*
X119518171Y-50676340D02*
X119518171Y-50628721D01*
X119518171Y-50628721D02*
X119565790Y-50533483D01*
X119565790Y-50533483D02*
X119661028Y-50485864D01*
X119661028Y-50485864D02*
X119803885Y-50485864D01*
X119803885Y-50485864D02*
X119899123Y-50533483D01*
X121137219Y-51152531D02*
X121137219Y-50152531D01*
X121613409Y-50485864D02*
X121613409Y-51152531D01*
X121613409Y-50581102D02*
X121661028Y-50533483D01*
X121661028Y-50533483D02*
X121756266Y-50485864D01*
X121756266Y-50485864D02*
X121899123Y-50485864D01*
X121899123Y-50485864D02*
X121994361Y-50533483D01*
X121994361Y-50533483D02*
X122041980Y-50628721D01*
X122041980Y-50628721D02*
X122041980Y-51152531D01*
X122946742Y-51152531D02*
X122946742Y-50152531D01*
X122946742Y-51104912D02*
X122851504Y-51152531D01*
X122851504Y-51152531D02*
X122661028Y-51152531D01*
X122661028Y-51152531D02*
X122565790Y-51104912D01*
X122565790Y-51104912D02*
X122518171Y-51057292D01*
X122518171Y-51057292D02*
X122470552Y-50962054D01*
X122470552Y-50962054D02*
X122470552Y-50676340D01*
X122470552Y-50676340D02*
X122518171Y-50581102D01*
X122518171Y-50581102D02*
X122565790Y-50533483D01*
X122565790Y-50533483D02*
X122661028Y-50485864D01*
X122661028Y-50485864D02*
X122851504Y-50485864D01*
X122851504Y-50485864D02*
X122946742Y-50533483D01*
X123422933Y-51152531D02*
X123422933Y-50485864D01*
X123422933Y-50152531D02*
X123375314Y-50200150D01*
X123375314Y-50200150D02*
X123422933Y-50247769D01*
X123422933Y-50247769D02*
X123470552Y-50200150D01*
X123470552Y-50200150D02*
X123422933Y-50152531D01*
X123422933Y-50152531D02*
X123422933Y-50247769D01*
X124327694Y-51104912D02*
X124232456Y-51152531D01*
X124232456Y-51152531D02*
X124041980Y-51152531D01*
X124041980Y-51152531D02*
X123946742Y-51104912D01*
X123946742Y-51104912D02*
X123899123Y-51057292D01*
X123899123Y-51057292D02*
X123851504Y-50962054D01*
X123851504Y-50962054D02*
X123851504Y-50676340D01*
X123851504Y-50676340D02*
X123899123Y-50581102D01*
X123899123Y-50581102D02*
X123946742Y-50533483D01*
X123946742Y-50533483D02*
X124041980Y-50485864D01*
X124041980Y-50485864D02*
X124232456Y-50485864D01*
X124232456Y-50485864D02*
X124327694Y-50533483D01*
X125184837Y-51152531D02*
X125184837Y-50628721D01*
X125184837Y-50628721D02*
X125137218Y-50533483D01*
X125137218Y-50533483D02*
X125041980Y-50485864D01*
X125041980Y-50485864D02*
X124851504Y-50485864D01*
X124851504Y-50485864D02*
X124756266Y-50533483D01*
X125184837Y-51104912D02*
X125089599Y-51152531D01*
X125089599Y-51152531D02*
X124851504Y-51152531D01*
X124851504Y-51152531D02*
X124756266Y-51104912D01*
X124756266Y-51104912D02*
X124708647Y-51009673D01*
X124708647Y-51009673D02*
X124708647Y-50914435D01*
X124708647Y-50914435D02*
X124756266Y-50819197D01*
X124756266Y-50819197D02*
X124851504Y-50771578D01*
X124851504Y-50771578D02*
X125089599Y-50771578D01*
X125089599Y-50771578D02*
X125184837Y-50723959D01*
X125518171Y-50485864D02*
X125899123Y-50485864D01*
X125661028Y-50152531D02*
X125661028Y-51009673D01*
X125661028Y-51009673D02*
X125708647Y-51104912D01*
X125708647Y-51104912D02*
X125803885Y-51152531D01*
X125803885Y-51152531D02*
X125899123Y-51152531D01*
X126375314Y-51152531D02*
X126280076Y-51104912D01*
X126280076Y-51104912D02*
X126232457Y-51057292D01*
X126232457Y-51057292D02*
X126184838Y-50962054D01*
X126184838Y-50962054D02*
X126184838Y-50676340D01*
X126184838Y-50676340D02*
X126232457Y-50581102D01*
X126232457Y-50581102D02*
X126280076Y-50533483D01*
X126280076Y-50533483D02*
X126375314Y-50485864D01*
X126375314Y-50485864D02*
X126518171Y-50485864D01*
X126518171Y-50485864D02*
X126613409Y-50533483D01*
X126613409Y-50533483D02*
X126661028Y-50581102D01*
X126661028Y-50581102D02*
X126708647Y-50676340D01*
X126708647Y-50676340D02*
X126708647Y-50962054D01*
X126708647Y-50962054D02*
X126661028Y-51057292D01*
X126661028Y-51057292D02*
X126613409Y-51104912D01*
X126613409Y-51104912D02*
X126518171Y-51152531D01*
X126518171Y-51152531D02*
X126375314Y-51152531D01*
X127137219Y-51152531D02*
X127137219Y-50485864D01*
X127137219Y-50676340D02*
X127184838Y-50581102D01*
X127184838Y-50581102D02*
X127232457Y-50533483D01*
X127232457Y-50533483D02*
X127327695Y-50485864D01*
X127327695Y-50485864D02*
X127422933Y-50485864D01*
X105803884Y-52762475D02*
X105803884Y-51762475D01*
X105803884Y-51762475D02*
X106041979Y-51762475D01*
X106041979Y-51762475D02*
X106184836Y-51810094D01*
X106184836Y-51810094D02*
X106280074Y-51905332D01*
X106280074Y-51905332D02*
X106327693Y-52000570D01*
X106327693Y-52000570D02*
X106375312Y-52191046D01*
X106375312Y-52191046D02*
X106375312Y-52333903D01*
X106375312Y-52333903D02*
X106327693Y-52524379D01*
X106327693Y-52524379D02*
X106280074Y-52619617D01*
X106280074Y-52619617D02*
X106184836Y-52714856D01*
X106184836Y-52714856D02*
X106041979Y-52762475D01*
X106041979Y-52762475D02*
X105803884Y-52762475D01*
X107184836Y-52714856D02*
X107089598Y-52762475D01*
X107089598Y-52762475D02*
X106899122Y-52762475D01*
X106899122Y-52762475D02*
X106803884Y-52714856D01*
X106803884Y-52714856D02*
X106756265Y-52619617D01*
X106756265Y-52619617D02*
X106756265Y-52238665D01*
X106756265Y-52238665D02*
X106803884Y-52143427D01*
X106803884Y-52143427D02*
X106899122Y-52095808D01*
X106899122Y-52095808D02*
X107089598Y-52095808D01*
X107089598Y-52095808D02*
X107184836Y-52143427D01*
X107184836Y-52143427D02*
X107232455Y-52238665D01*
X107232455Y-52238665D02*
X107232455Y-52333903D01*
X107232455Y-52333903D02*
X106756265Y-52429141D01*
X107613408Y-52714856D02*
X107708646Y-52762475D01*
X107708646Y-52762475D02*
X107899122Y-52762475D01*
X107899122Y-52762475D02*
X107994360Y-52714856D01*
X107994360Y-52714856D02*
X108041979Y-52619617D01*
X108041979Y-52619617D02*
X108041979Y-52571998D01*
X108041979Y-52571998D02*
X107994360Y-52476760D01*
X107994360Y-52476760D02*
X107899122Y-52429141D01*
X107899122Y-52429141D02*
X107756265Y-52429141D01*
X107756265Y-52429141D02*
X107661027Y-52381522D01*
X107661027Y-52381522D02*
X107613408Y-52286284D01*
X107613408Y-52286284D02*
X107613408Y-52238665D01*
X107613408Y-52238665D02*
X107661027Y-52143427D01*
X107661027Y-52143427D02*
X107756265Y-52095808D01*
X107756265Y-52095808D02*
X107899122Y-52095808D01*
X107899122Y-52095808D02*
X107994360Y-52143427D01*
X108470551Y-52762475D02*
X108470551Y-52095808D01*
X108470551Y-51762475D02*
X108422932Y-51810094D01*
X108422932Y-51810094D02*
X108470551Y-51857713D01*
X108470551Y-51857713D02*
X108518170Y-51810094D01*
X108518170Y-51810094D02*
X108470551Y-51762475D01*
X108470551Y-51762475D02*
X108470551Y-51857713D01*
X109375312Y-52095808D02*
X109375312Y-52905332D01*
X109375312Y-52905332D02*
X109327693Y-53000570D01*
X109327693Y-53000570D02*
X109280074Y-53048189D01*
X109280074Y-53048189D02*
X109184836Y-53095808D01*
X109184836Y-53095808D02*
X109041979Y-53095808D01*
X109041979Y-53095808D02*
X108946741Y-53048189D01*
X109375312Y-52714856D02*
X109280074Y-52762475D01*
X109280074Y-52762475D02*
X109089598Y-52762475D01*
X109089598Y-52762475D02*
X108994360Y-52714856D01*
X108994360Y-52714856D02*
X108946741Y-52667236D01*
X108946741Y-52667236D02*
X108899122Y-52571998D01*
X108899122Y-52571998D02*
X108899122Y-52286284D01*
X108899122Y-52286284D02*
X108946741Y-52191046D01*
X108946741Y-52191046D02*
X108994360Y-52143427D01*
X108994360Y-52143427D02*
X109089598Y-52095808D01*
X109089598Y-52095808D02*
X109280074Y-52095808D01*
X109280074Y-52095808D02*
X109375312Y-52143427D01*
X109851503Y-52095808D02*
X109851503Y-52762475D01*
X109851503Y-52191046D02*
X109899122Y-52143427D01*
X109899122Y-52143427D02*
X109994360Y-52095808D01*
X109994360Y-52095808D02*
X110137217Y-52095808D01*
X110137217Y-52095808D02*
X110232455Y-52143427D01*
X110232455Y-52143427D02*
X110280074Y-52238665D01*
X110280074Y-52238665D02*
X110280074Y-52762475D01*
X111137217Y-52714856D02*
X111041979Y-52762475D01*
X111041979Y-52762475D02*
X110851503Y-52762475D01*
X110851503Y-52762475D02*
X110756265Y-52714856D01*
X110756265Y-52714856D02*
X110708646Y-52619617D01*
X110708646Y-52619617D02*
X110708646Y-52238665D01*
X110708646Y-52238665D02*
X110756265Y-52143427D01*
X110756265Y-52143427D02*
X110851503Y-52095808D01*
X110851503Y-52095808D02*
X111041979Y-52095808D01*
X111041979Y-52095808D02*
X111137217Y-52143427D01*
X111137217Y-52143427D02*
X111184836Y-52238665D01*
X111184836Y-52238665D02*
X111184836Y-52333903D01*
X111184836Y-52333903D02*
X110708646Y-52429141D01*
X112041979Y-52762475D02*
X112041979Y-51762475D01*
X112041979Y-52714856D02*
X111946741Y-52762475D01*
X111946741Y-52762475D02*
X111756265Y-52762475D01*
X111756265Y-52762475D02*
X111661027Y-52714856D01*
X111661027Y-52714856D02*
X111613408Y-52667236D01*
X111613408Y-52667236D02*
X111565789Y-52571998D01*
X111565789Y-52571998D02*
X111565789Y-52286284D01*
X111565789Y-52286284D02*
X111613408Y-52191046D01*
X111613408Y-52191046D02*
X111661027Y-52143427D01*
X111661027Y-52143427D02*
X111756265Y-52095808D01*
X111756265Y-52095808D02*
X111946741Y-52095808D01*
X111946741Y-52095808D02*
X112041979Y-52143427D01*
X113280075Y-52762475D02*
X113280075Y-51762475D01*
X113280075Y-52143427D02*
X113375313Y-52095808D01*
X113375313Y-52095808D02*
X113565789Y-52095808D01*
X113565789Y-52095808D02*
X113661027Y-52143427D01*
X113661027Y-52143427D02*
X113708646Y-52191046D01*
X113708646Y-52191046D02*
X113756265Y-52286284D01*
X113756265Y-52286284D02*
X113756265Y-52571998D01*
X113756265Y-52571998D02*
X113708646Y-52667236D01*
X113708646Y-52667236D02*
X113661027Y-52714856D01*
X113661027Y-52714856D02*
X113565789Y-52762475D01*
X113565789Y-52762475D02*
X113375313Y-52762475D01*
X113375313Y-52762475D02*
X113280075Y-52714856D01*
X114089599Y-52095808D02*
X114327694Y-52762475D01*
X114565789Y-52095808D02*
X114327694Y-52762475D01*
X114327694Y-52762475D02*
X114232456Y-53000570D01*
X114232456Y-53000570D02*
X114184837Y-53048189D01*
X114184837Y-53048189D02*
X114089599Y-53095808D01*
X115708647Y-52238665D02*
X116041980Y-52238665D01*
X116184837Y-52762475D02*
X115708647Y-52762475D01*
X115708647Y-52762475D02*
X115708647Y-51762475D01*
X115708647Y-51762475D02*
X116184837Y-51762475D01*
X116470552Y-52095808D02*
X116851504Y-52095808D01*
X116613409Y-51762475D02*
X116613409Y-52619617D01*
X116613409Y-52619617D02*
X116661028Y-52714856D01*
X116661028Y-52714856D02*
X116756266Y-52762475D01*
X116756266Y-52762475D02*
X116851504Y-52762475D01*
X117184838Y-52762475D02*
X117184838Y-51762475D01*
X117613409Y-52762475D02*
X117613409Y-52238665D01*
X117613409Y-52238665D02*
X117565790Y-52143427D01*
X117565790Y-52143427D02*
X117470552Y-52095808D01*
X117470552Y-52095808D02*
X117327695Y-52095808D01*
X117327695Y-52095808D02*
X117232457Y-52143427D01*
X117232457Y-52143427D02*
X117184838Y-52191046D01*
X118518171Y-52762475D02*
X118518171Y-52238665D01*
X118518171Y-52238665D02*
X118470552Y-52143427D01*
X118470552Y-52143427D02*
X118375314Y-52095808D01*
X118375314Y-52095808D02*
X118184838Y-52095808D01*
X118184838Y-52095808D02*
X118089600Y-52143427D01*
X118518171Y-52714856D02*
X118422933Y-52762475D01*
X118422933Y-52762475D02*
X118184838Y-52762475D01*
X118184838Y-52762475D02*
X118089600Y-52714856D01*
X118089600Y-52714856D02*
X118041981Y-52619617D01*
X118041981Y-52619617D02*
X118041981Y-52524379D01*
X118041981Y-52524379D02*
X118089600Y-52429141D01*
X118089600Y-52429141D02*
X118184838Y-52381522D01*
X118184838Y-52381522D02*
X118422933Y-52381522D01*
X118422933Y-52381522D02*
X118518171Y-52333903D01*
X118994362Y-52095808D02*
X118994362Y-52762475D01*
X118994362Y-52191046D02*
X119041981Y-52143427D01*
X119041981Y-52143427D02*
X119137219Y-52095808D01*
X119137219Y-52095808D02*
X119280076Y-52095808D01*
X119280076Y-52095808D02*
X119375314Y-52143427D01*
X119375314Y-52143427D02*
X119422933Y-52238665D01*
X119422933Y-52238665D02*
X119422933Y-52762475D01*
X120661029Y-52762475D02*
X120661029Y-51762475D01*
X120661029Y-51762475D02*
X120994362Y-52476760D01*
X120994362Y-52476760D02*
X121327695Y-51762475D01*
X121327695Y-51762475D02*
X121327695Y-52762475D01*
X121803886Y-52762475D02*
X121803886Y-52095808D01*
X121803886Y-51762475D02*
X121756267Y-51810094D01*
X121756267Y-51810094D02*
X121803886Y-51857713D01*
X121803886Y-51857713D02*
X121851505Y-51810094D01*
X121851505Y-51810094D02*
X121803886Y-51762475D01*
X121803886Y-51762475D02*
X121803886Y-51857713D01*
X122422933Y-52762475D02*
X122327695Y-52714856D01*
X122327695Y-52714856D02*
X122280076Y-52619617D01*
X122280076Y-52619617D02*
X122280076Y-51762475D01*
X122946743Y-52762475D02*
X122851505Y-52714856D01*
X122851505Y-52714856D02*
X122803886Y-52619617D01*
X122803886Y-52619617D02*
X122803886Y-51762475D01*
X123708648Y-52714856D02*
X123613410Y-52762475D01*
X123613410Y-52762475D02*
X123422934Y-52762475D01*
X123422934Y-52762475D02*
X123327696Y-52714856D01*
X123327696Y-52714856D02*
X123280077Y-52619617D01*
X123280077Y-52619617D02*
X123280077Y-52238665D01*
X123280077Y-52238665D02*
X123327696Y-52143427D01*
X123327696Y-52143427D02*
X123422934Y-52095808D01*
X123422934Y-52095808D02*
X123613410Y-52095808D01*
X123613410Y-52095808D02*
X123708648Y-52143427D01*
X123708648Y-52143427D02*
X123756267Y-52238665D01*
X123756267Y-52238665D02*
X123756267Y-52333903D01*
X123756267Y-52333903D02*
X123280077Y-52429141D01*
X124184839Y-52762475D02*
X124184839Y-52095808D01*
X124184839Y-52286284D02*
X124232458Y-52191046D01*
X124232458Y-52191046D02*
X124280077Y-52143427D01*
X124280077Y-52143427D02*
X124375315Y-52095808D01*
X124375315Y-52095808D02*
X124470553Y-52095808D01*
X106137217Y-53848609D02*
X105803884Y-53848609D01*
X105803884Y-54372419D02*
X105803884Y-53372419D01*
X105803884Y-53372419D02*
X106280074Y-53372419D01*
X106803884Y-54372419D02*
X106708646Y-54324800D01*
X106708646Y-54324800D02*
X106661027Y-54277180D01*
X106661027Y-54277180D02*
X106613408Y-54181942D01*
X106613408Y-54181942D02*
X106613408Y-53896228D01*
X106613408Y-53896228D02*
X106661027Y-53800990D01*
X106661027Y-53800990D02*
X106708646Y-53753371D01*
X106708646Y-53753371D02*
X106803884Y-53705752D01*
X106803884Y-53705752D02*
X106946741Y-53705752D01*
X106946741Y-53705752D02*
X107041979Y-53753371D01*
X107041979Y-53753371D02*
X107089598Y-53800990D01*
X107089598Y-53800990D02*
X107137217Y-53896228D01*
X107137217Y-53896228D02*
X107137217Y-54181942D01*
X107137217Y-54181942D02*
X107089598Y-54277180D01*
X107089598Y-54277180D02*
X107041979Y-54324800D01*
X107041979Y-54324800D02*
X106946741Y-54372419D01*
X106946741Y-54372419D02*
X106803884Y-54372419D01*
X107565789Y-54372419D02*
X107565789Y-53705752D01*
X107565789Y-53896228D02*
X107613408Y-53800990D01*
X107613408Y-53800990D02*
X107661027Y-53753371D01*
X107661027Y-53753371D02*
X107756265Y-53705752D01*
X107756265Y-53705752D02*
X107851503Y-53705752D01*
X108803885Y-53372419D02*
X109375313Y-53372419D01*
X109089599Y-54372419D02*
X109089599Y-53372419D01*
X110089599Y-54324800D02*
X109994361Y-54372419D01*
X109994361Y-54372419D02*
X109803885Y-54372419D01*
X109803885Y-54372419D02*
X109708647Y-54324800D01*
X109708647Y-54324800D02*
X109661028Y-54229561D01*
X109661028Y-54229561D02*
X109661028Y-53848609D01*
X109661028Y-53848609D02*
X109708647Y-53753371D01*
X109708647Y-53753371D02*
X109803885Y-53705752D01*
X109803885Y-53705752D02*
X109994361Y-53705752D01*
X109994361Y-53705752D02*
X110089599Y-53753371D01*
X110089599Y-53753371D02*
X110137218Y-53848609D01*
X110137218Y-53848609D02*
X110137218Y-53943847D01*
X110137218Y-53943847D02*
X109661028Y-54039085D01*
X110994361Y-54372419D02*
X110994361Y-53848609D01*
X110994361Y-53848609D02*
X110946742Y-53753371D01*
X110946742Y-53753371D02*
X110851504Y-53705752D01*
X110851504Y-53705752D02*
X110661028Y-53705752D01*
X110661028Y-53705752D02*
X110565790Y-53753371D01*
X110994361Y-54324800D02*
X110899123Y-54372419D01*
X110899123Y-54372419D02*
X110661028Y-54372419D01*
X110661028Y-54372419D02*
X110565790Y-54324800D01*
X110565790Y-54324800D02*
X110518171Y-54229561D01*
X110518171Y-54229561D02*
X110518171Y-54134323D01*
X110518171Y-54134323D02*
X110565790Y-54039085D01*
X110565790Y-54039085D02*
X110661028Y-53991466D01*
X110661028Y-53991466D02*
X110899123Y-53991466D01*
X110899123Y-53991466D02*
X110994361Y-53943847D01*
X111470552Y-54372419D02*
X111470552Y-53705752D01*
X111470552Y-53800990D02*
X111518171Y-53753371D01*
X111518171Y-53753371D02*
X111613409Y-53705752D01*
X111613409Y-53705752D02*
X111756266Y-53705752D01*
X111756266Y-53705752D02*
X111851504Y-53753371D01*
X111851504Y-53753371D02*
X111899123Y-53848609D01*
X111899123Y-53848609D02*
X111899123Y-54372419D01*
X111899123Y-53848609D02*
X111946742Y-53753371D01*
X111946742Y-53753371D02*
X112041980Y-53705752D01*
X112041980Y-53705752D02*
X112184837Y-53705752D01*
X112184837Y-53705752D02*
X112280076Y-53753371D01*
X112280076Y-53753371D02*
X112327695Y-53848609D01*
X112327695Y-53848609D02*
X112327695Y-54372419D01*
X113994361Y-53705752D02*
X113994361Y-54372419D01*
X113756266Y-53324800D02*
X113518171Y-54039085D01*
X113518171Y-54039085D02*
X114137218Y-54039085D01*
X114470552Y-53467657D02*
X114518171Y-53420038D01*
X114518171Y-53420038D02*
X114613409Y-53372419D01*
X114613409Y-53372419D02*
X114851504Y-53372419D01*
X114851504Y-53372419D02*
X114946742Y-53420038D01*
X114946742Y-53420038D02*
X114994361Y-53467657D01*
X114994361Y-53467657D02*
X115041980Y-53562895D01*
X115041980Y-53562895D02*
X115041980Y-53658133D01*
X115041980Y-53658133D02*
X114994361Y-53800990D01*
X114994361Y-53800990D02*
X114422933Y-54372419D01*
X114422933Y-54372419D02*
X115041980Y-54372419D01*
X115375314Y-53372419D02*
X115994361Y-53372419D01*
X115994361Y-53372419D02*
X115661028Y-53753371D01*
X115661028Y-53753371D02*
X115803885Y-53753371D01*
X115803885Y-53753371D02*
X115899123Y-53800990D01*
X115899123Y-53800990D02*
X115946742Y-53848609D01*
X115946742Y-53848609D02*
X115994361Y-53943847D01*
X115994361Y-53943847D02*
X115994361Y-54181942D01*
X115994361Y-54181942D02*
X115946742Y-54277180D01*
X115946742Y-54277180D02*
X115899123Y-54324800D01*
X115899123Y-54324800D02*
X115803885Y-54372419D01*
X115803885Y-54372419D02*
X115518171Y-54372419D01*
X115518171Y-54372419D02*
X115422933Y-54324800D01*
X115422933Y-54324800D02*
X115375314Y-54277180D01*
D11*
X83087142Y-120104819D02*
X82753809Y-119628628D01*
X82515714Y-120104819D02*
X82515714Y-119104819D01*
X82515714Y-119104819D02*
X82896666Y-119104819D01*
X82896666Y-119104819D02*
X82991904Y-119152438D01*
X82991904Y-119152438D02*
X83039523Y-119200057D01*
X83039523Y-119200057D02*
X83087142Y-119295295D01*
X83087142Y-119295295D02*
X83087142Y-119438152D01*
X83087142Y-119438152D02*
X83039523Y-119533390D01*
X83039523Y-119533390D02*
X82991904Y-119581009D01*
X82991904Y-119581009D02*
X82896666Y-119628628D01*
X82896666Y-119628628D02*
X82515714Y-119628628D01*
X84039523Y-120104819D02*
X83468095Y-120104819D01*
X83753809Y-120104819D02*
X83753809Y-119104819D01*
X83753809Y-119104819D02*
X83658571Y-119247676D01*
X83658571Y-119247676D02*
X83563333Y-119342914D01*
X83563333Y-119342914D02*
X83468095Y-119390533D01*
X84896666Y-119104819D02*
X84706190Y-119104819D01*
X84706190Y-119104819D02*
X84610952Y-119152438D01*
X84610952Y-119152438D02*
X84563333Y-119200057D01*
X84563333Y-119200057D02*
X84468095Y-119342914D01*
X84468095Y-119342914D02*
X84420476Y-119533390D01*
X84420476Y-119533390D02*
X84420476Y-119914342D01*
X84420476Y-119914342D02*
X84468095Y-120009580D01*
X84468095Y-120009580D02*
X84515714Y-120057200D01*
X84515714Y-120057200D02*
X84610952Y-120104819D01*
X84610952Y-120104819D02*
X84801428Y-120104819D01*
X84801428Y-120104819D02*
X84896666Y-120057200D01*
X84896666Y-120057200D02*
X84944285Y-120009580D01*
X84944285Y-120009580D02*
X84991904Y-119914342D01*
X84991904Y-119914342D02*
X84991904Y-119676247D01*
X84991904Y-119676247D02*
X84944285Y-119581009D01*
X84944285Y-119581009D02*
X84896666Y-119533390D01*
X84896666Y-119533390D02*
X84801428Y-119485771D01*
X84801428Y-119485771D02*
X84610952Y-119485771D01*
X84610952Y-119485771D02*
X84515714Y-119533390D01*
X84515714Y-119533390D02*
X84468095Y-119581009D01*
X84468095Y-119581009D02*
X84420476Y-119676247D01*
X69411988Y-115219942D02*
X69507226Y-115267561D01*
X69507226Y-115267561D02*
X69602464Y-115362800D01*
X69602464Y-115362800D02*
X69745321Y-115505657D01*
X69745321Y-115505657D02*
X69840559Y-115553276D01*
X69840559Y-115553276D02*
X69935797Y-115553276D01*
X69888178Y-115315180D02*
X69983416Y-115362800D01*
X69983416Y-115362800D02*
X70078654Y-115458038D01*
X70078654Y-115458038D02*
X70126273Y-115648514D01*
X70126273Y-115648514D02*
X70126273Y-115981847D01*
X70126273Y-115981847D02*
X70078654Y-116172323D01*
X70078654Y-116172323D02*
X69983416Y-116267561D01*
X69983416Y-116267561D02*
X69888178Y-116315180D01*
X69888178Y-116315180D02*
X69697702Y-116315180D01*
X69697702Y-116315180D02*
X69602464Y-116267561D01*
X69602464Y-116267561D02*
X69507226Y-116172323D01*
X69507226Y-116172323D02*
X69459607Y-115981847D01*
X69459607Y-115981847D02*
X69459607Y-115648514D01*
X69459607Y-115648514D02*
X69507226Y-115458038D01*
X69507226Y-115458038D02*
X69602464Y-115362800D01*
X69602464Y-115362800D02*
X69697702Y-115315180D01*
X69697702Y-115315180D02*
X69888178Y-115315180D01*
X69078654Y-116219942D02*
X69031035Y-116267561D01*
X69031035Y-116267561D02*
X68935797Y-116315180D01*
X68935797Y-116315180D02*
X68697702Y-116315180D01*
X68697702Y-116315180D02*
X68602464Y-116267561D01*
X68602464Y-116267561D02*
X68554845Y-116219942D01*
X68554845Y-116219942D02*
X68507226Y-116124704D01*
X68507226Y-116124704D02*
X68507226Y-116029466D01*
X68507226Y-116029466D02*
X68554845Y-115886609D01*
X68554845Y-115886609D02*
X69126273Y-115315180D01*
X69126273Y-115315180D02*
X68507226Y-115315180D01*
X63107142Y-159854819D02*
X62773809Y-159378628D01*
X62535714Y-159854819D02*
X62535714Y-158854819D01*
X62535714Y-158854819D02*
X62916666Y-158854819D01*
X62916666Y-158854819D02*
X63011904Y-158902438D01*
X63011904Y-158902438D02*
X63059523Y-158950057D01*
X63059523Y-158950057D02*
X63107142Y-159045295D01*
X63107142Y-159045295D02*
X63107142Y-159188152D01*
X63107142Y-159188152D02*
X63059523Y-159283390D01*
X63059523Y-159283390D02*
X63011904Y-159331009D01*
X63011904Y-159331009D02*
X62916666Y-159378628D01*
X62916666Y-159378628D02*
X62535714Y-159378628D01*
X64059523Y-159854819D02*
X63488095Y-159854819D01*
X63773809Y-159854819D02*
X63773809Y-158854819D01*
X63773809Y-158854819D02*
X63678571Y-158997676D01*
X63678571Y-158997676D02*
X63583333Y-159092914D01*
X63583333Y-159092914D02*
X63488095Y-159140533D01*
X64678571Y-158854819D02*
X64773809Y-158854819D01*
X64773809Y-158854819D02*
X64869047Y-158902438D01*
X64869047Y-158902438D02*
X64916666Y-158950057D01*
X64916666Y-158950057D02*
X64964285Y-159045295D01*
X64964285Y-159045295D02*
X65011904Y-159235771D01*
X65011904Y-159235771D02*
X65011904Y-159473866D01*
X65011904Y-159473866D02*
X64964285Y-159664342D01*
X64964285Y-159664342D02*
X64916666Y-159759580D01*
X64916666Y-159759580D02*
X64869047Y-159807200D01*
X64869047Y-159807200D02*
X64773809Y-159854819D01*
X64773809Y-159854819D02*
X64678571Y-159854819D01*
X64678571Y-159854819D02*
X64583333Y-159807200D01*
X64583333Y-159807200D02*
X64535714Y-159759580D01*
X64535714Y-159759580D02*
X64488095Y-159664342D01*
X64488095Y-159664342D02*
X64440476Y-159473866D01*
X64440476Y-159473866D02*
X64440476Y-159235771D01*
X64440476Y-159235771D02*
X64488095Y-159045295D01*
X64488095Y-159045295D02*
X64535714Y-158950057D01*
X64535714Y-158950057D02*
X64583333Y-158902438D01*
X64583333Y-158902438D02*
X64678571Y-158854819D01*
X129954819Y-141122857D02*
X129478628Y-141456190D01*
X129954819Y-141694285D02*
X128954819Y-141694285D01*
X128954819Y-141694285D02*
X128954819Y-141313333D01*
X128954819Y-141313333D02*
X129002438Y-141218095D01*
X129002438Y-141218095D02*
X129050057Y-141170476D01*
X129050057Y-141170476D02*
X129145295Y-141122857D01*
X129145295Y-141122857D02*
X129288152Y-141122857D01*
X129288152Y-141122857D02*
X129383390Y-141170476D01*
X129383390Y-141170476D02*
X129431009Y-141218095D01*
X129431009Y-141218095D02*
X129478628Y-141313333D01*
X129478628Y-141313333D02*
X129478628Y-141694285D01*
X129288152Y-140265714D02*
X129954819Y-140265714D01*
X128907200Y-140503809D02*
X129621485Y-140741904D01*
X129621485Y-140741904D02*
X129621485Y-140122857D01*
X128954819Y-139265714D02*
X128954819Y-139741904D01*
X128954819Y-139741904D02*
X129431009Y-139789523D01*
X129431009Y-139789523D02*
X129383390Y-139741904D01*
X129383390Y-139741904D02*
X129335771Y-139646666D01*
X129335771Y-139646666D02*
X129335771Y-139408571D01*
X129335771Y-139408571D02*
X129383390Y-139313333D01*
X129383390Y-139313333D02*
X129431009Y-139265714D01*
X129431009Y-139265714D02*
X129526247Y-139218095D01*
X129526247Y-139218095D02*
X129764342Y-139218095D01*
X129764342Y-139218095D02*
X129859580Y-139265714D01*
X129859580Y-139265714D02*
X129907200Y-139313333D01*
X129907200Y-139313333D02*
X129954819Y-139408571D01*
X129954819Y-139408571D02*
X129954819Y-139646666D01*
X129954819Y-139646666D02*
X129907200Y-139741904D01*
X129907200Y-139741904D02*
X129859580Y-139789523D01*
X129954819Y-161162857D02*
X129478628Y-161496190D01*
X129954819Y-161734285D02*
X128954819Y-161734285D01*
X128954819Y-161734285D02*
X128954819Y-161353333D01*
X128954819Y-161353333D02*
X129002438Y-161258095D01*
X129002438Y-161258095D02*
X129050057Y-161210476D01*
X129050057Y-161210476D02*
X129145295Y-161162857D01*
X129145295Y-161162857D02*
X129288152Y-161162857D01*
X129288152Y-161162857D02*
X129383390Y-161210476D01*
X129383390Y-161210476D02*
X129431009Y-161258095D01*
X129431009Y-161258095D02*
X129478628Y-161353333D01*
X129478628Y-161353333D02*
X129478628Y-161734285D01*
X129288152Y-160305714D02*
X129954819Y-160305714D01*
X128907200Y-160543809D02*
X129621485Y-160781904D01*
X129621485Y-160781904D02*
X129621485Y-160162857D01*
X129383390Y-159639047D02*
X129335771Y-159734285D01*
X129335771Y-159734285D02*
X129288152Y-159781904D01*
X129288152Y-159781904D02*
X129192914Y-159829523D01*
X129192914Y-159829523D02*
X129145295Y-159829523D01*
X129145295Y-159829523D02*
X129050057Y-159781904D01*
X129050057Y-159781904D02*
X129002438Y-159734285D01*
X129002438Y-159734285D02*
X128954819Y-159639047D01*
X128954819Y-159639047D02*
X128954819Y-159448571D01*
X128954819Y-159448571D02*
X129002438Y-159353333D01*
X129002438Y-159353333D02*
X129050057Y-159305714D01*
X129050057Y-159305714D02*
X129145295Y-159258095D01*
X129145295Y-159258095D02*
X129192914Y-159258095D01*
X129192914Y-159258095D02*
X129288152Y-159305714D01*
X129288152Y-159305714D02*
X129335771Y-159353333D01*
X129335771Y-159353333D02*
X129383390Y-159448571D01*
X129383390Y-159448571D02*
X129383390Y-159639047D01*
X129383390Y-159639047D02*
X129431009Y-159734285D01*
X129431009Y-159734285D02*
X129478628Y-159781904D01*
X129478628Y-159781904D02*
X129573866Y-159829523D01*
X129573866Y-159829523D02*
X129764342Y-159829523D01*
X129764342Y-159829523D02*
X129859580Y-159781904D01*
X129859580Y-159781904D02*
X129907200Y-159734285D01*
X129907200Y-159734285D02*
X129954819Y-159639047D01*
X129954819Y-159639047D02*
X129954819Y-159448571D01*
X129954819Y-159448571D02*
X129907200Y-159353333D01*
X129907200Y-159353333D02*
X129859580Y-159305714D01*
X129859580Y-159305714D02*
X129764342Y-159258095D01*
X129764342Y-159258095D02*
X129573866Y-159258095D01*
X129573866Y-159258095D02*
X129478628Y-159305714D01*
X129478628Y-159305714D02*
X129431009Y-159353333D01*
X129431009Y-159353333D02*
X129383390Y-159448571D01*
X117545180Y-156035714D02*
X118545180Y-156035714D01*
X118545180Y-156035714D02*
X118545180Y-156273809D01*
X118545180Y-156273809D02*
X118497561Y-156416666D01*
X118497561Y-156416666D02*
X118402323Y-156511904D01*
X118402323Y-156511904D02*
X118307085Y-156559523D01*
X118307085Y-156559523D02*
X118116609Y-156607142D01*
X118116609Y-156607142D02*
X117973752Y-156607142D01*
X117973752Y-156607142D02*
X117783276Y-156559523D01*
X117783276Y-156559523D02*
X117688038Y-156511904D01*
X117688038Y-156511904D02*
X117592800Y-156416666D01*
X117592800Y-156416666D02*
X117545180Y-156273809D01*
X117545180Y-156273809D02*
X117545180Y-156035714D01*
X117545180Y-157559523D02*
X117545180Y-156988095D01*
X117545180Y-157273809D02*
X118545180Y-157273809D01*
X118545180Y-157273809D02*
X118402323Y-157178571D01*
X118402323Y-157178571D02*
X118307085Y-157083333D01*
X118307085Y-157083333D02*
X118259466Y-156988095D01*
X118545180Y-158416666D02*
X118545180Y-158226190D01*
X118545180Y-158226190D02*
X118497561Y-158130952D01*
X118497561Y-158130952D02*
X118449942Y-158083333D01*
X118449942Y-158083333D02*
X118307085Y-157988095D01*
X118307085Y-157988095D02*
X118116609Y-157940476D01*
X118116609Y-157940476D02*
X117735657Y-157940476D01*
X117735657Y-157940476D02*
X117640419Y-157988095D01*
X117640419Y-157988095D02*
X117592800Y-158035714D01*
X117592800Y-158035714D02*
X117545180Y-158130952D01*
X117545180Y-158130952D02*
X117545180Y-158321428D01*
X117545180Y-158321428D02*
X117592800Y-158416666D01*
X117592800Y-158416666D02*
X117640419Y-158464285D01*
X117640419Y-158464285D02*
X117735657Y-158511904D01*
X117735657Y-158511904D02*
X117973752Y-158511904D01*
X117973752Y-158511904D02*
X118068990Y-158464285D01*
X118068990Y-158464285D02*
X118116609Y-158416666D01*
X118116609Y-158416666D02*
X118164228Y-158321428D01*
X118164228Y-158321428D02*
X118164228Y-158130952D01*
X118164228Y-158130952D02*
X118116609Y-158035714D01*
X118116609Y-158035714D02*
X118068990Y-157988095D01*
X118068990Y-157988095D02*
X117973752Y-157940476D01*
X77941930Y-136678655D02*
X78941930Y-136678655D01*
X78941930Y-136678655D02*
X78941930Y-136916750D01*
X78941930Y-136916750D02*
X78894311Y-137059607D01*
X78894311Y-137059607D02*
X78799073Y-137154845D01*
X78799073Y-137154845D02*
X78703835Y-137202464D01*
X78703835Y-137202464D02*
X78513359Y-137250083D01*
X78513359Y-137250083D02*
X78370502Y-137250083D01*
X78370502Y-137250083D02*
X78180026Y-137202464D01*
X78180026Y-137202464D02*
X78084788Y-137154845D01*
X78084788Y-137154845D02*
X77989550Y-137059607D01*
X77989550Y-137059607D02*
X77941930Y-136916750D01*
X77941930Y-136916750D02*
X77941930Y-136678655D01*
X78941930Y-137583417D02*
X78941930Y-138250083D01*
X78941930Y-138250083D02*
X77941930Y-137821512D01*
X63609580Y-65916666D02*
X63657200Y-65964285D01*
X63657200Y-65964285D02*
X63704819Y-66107142D01*
X63704819Y-66107142D02*
X63704819Y-66202380D01*
X63704819Y-66202380D02*
X63657200Y-66345237D01*
X63657200Y-66345237D02*
X63561961Y-66440475D01*
X63561961Y-66440475D02*
X63466723Y-66488094D01*
X63466723Y-66488094D02*
X63276247Y-66535713D01*
X63276247Y-66535713D02*
X63133390Y-66535713D01*
X63133390Y-66535713D02*
X62942914Y-66488094D01*
X62942914Y-66488094D02*
X62847676Y-66440475D01*
X62847676Y-66440475D02*
X62752438Y-66345237D01*
X62752438Y-66345237D02*
X62704819Y-66202380D01*
X62704819Y-66202380D02*
X62704819Y-66107142D01*
X62704819Y-66107142D02*
X62752438Y-65964285D01*
X62752438Y-65964285D02*
X62800057Y-65916666D01*
X62704819Y-65583332D02*
X62704819Y-64964285D01*
X62704819Y-64964285D02*
X63085771Y-65297618D01*
X63085771Y-65297618D02*
X63085771Y-65154761D01*
X63085771Y-65154761D02*
X63133390Y-65059523D01*
X63133390Y-65059523D02*
X63181009Y-65011904D01*
X63181009Y-65011904D02*
X63276247Y-64964285D01*
X63276247Y-64964285D02*
X63514342Y-64964285D01*
X63514342Y-64964285D02*
X63609580Y-65011904D01*
X63609580Y-65011904D02*
X63657200Y-65059523D01*
X63657200Y-65059523D02*
X63704819Y-65154761D01*
X63704819Y-65154761D02*
X63704819Y-65440475D01*
X63704819Y-65440475D02*
X63657200Y-65535713D01*
X63657200Y-65535713D02*
X63609580Y-65583332D01*
X63250083Y-136834819D02*
X62916750Y-136358628D01*
X62678655Y-136834819D02*
X62678655Y-135834819D01*
X62678655Y-135834819D02*
X63059607Y-135834819D01*
X63059607Y-135834819D02*
X63154845Y-135882438D01*
X63154845Y-135882438D02*
X63202464Y-135930057D01*
X63202464Y-135930057D02*
X63250083Y-136025295D01*
X63250083Y-136025295D02*
X63250083Y-136168152D01*
X63250083Y-136168152D02*
X63202464Y-136263390D01*
X63202464Y-136263390D02*
X63154845Y-136311009D01*
X63154845Y-136311009D02*
X63059607Y-136358628D01*
X63059607Y-136358628D02*
X62678655Y-136358628D01*
X63821512Y-136263390D02*
X63726274Y-136215771D01*
X63726274Y-136215771D02*
X63678655Y-136168152D01*
X63678655Y-136168152D02*
X63631036Y-136072914D01*
X63631036Y-136072914D02*
X63631036Y-136025295D01*
X63631036Y-136025295D02*
X63678655Y-135930057D01*
X63678655Y-135930057D02*
X63726274Y-135882438D01*
X63726274Y-135882438D02*
X63821512Y-135834819D01*
X63821512Y-135834819D02*
X64011988Y-135834819D01*
X64011988Y-135834819D02*
X64107226Y-135882438D01*
X64107226Y-135882438D02*
X64154845Y-135930057D01*
X64154845Y-135930057D02*
X64202464Y-136025295D01*
X64202464Y-136025295D02*
X64202464Y-136072914D01*
X64202464Y-136072914D02*
X64154845Y-136168152D01*
X64154845Y-136168152D02*
X64107226Y-136215771D01*
X64107226Y-136215771D02*
X64011988Y-136263390D01*
X64011988Y-136263390D02*
X63821512Y-136263390D01*
X63821512Y-136263390D02*
X63726274Y-136311009D01*
X63726274Y-136311009D02*
X63678655Y-136358628D01*
X63678655Y-136358628D02*
X63631036Y-136453866D01*
X63631036Y-136453866D02*
X63631036Y-136644342D01*
X63631036Y-136644342D02*
X63678655Y-136739580D01*
X63678655Y-136739580D02*
X63726274Y-136787200D01*
X63726274Y-136787200D02*
X63821512Y-136834819D01*
X63821512Y-136834819D02*
X64011988Y-136834819D01*
X64011988Y-136834819D02*
X64107226Y-136787200D01*
X64107226Y-136787200D02*
X64154845Y-136739580D01*
X64154845Y-136739580D02*
X64202464Y-136644342D01*
X64202464Y-136644342D02*
X64202464Y-136453866D01*
X64202464Y-136453866D02*
X64154845Y-136358628D01*
X64154845Y-136358628D02*
X64107226Y-136311009D01*
X64107226Y-136311009D02*
X64011988Y-136263390D01*
X102857142Y-160188069D02*
X102523809Y-159711878D01*
X102285714Y-160188069D02*
X102285714Y-159188069D01*
X102285714Y-159188069D02*
X102666666Y-159188069D01*
X102666666Y-159188069D02*
X102761904Y-159235688D01*
X102761904Y-159235688D02*
X102809523Y-159283307D01*
X102809523Y-159283307D02*
X102857142Y-159378545D01*
X102857142Y-159378545D02*
X102857142Y-159521402D01*
X102857142Y-159521402D02*
X102809523Y-159616640D01*
X102809523Y-159616640D02*
X102761904Y-159664259D01*
X102761904Y-159664259D02*
X102666666Y-159711878D01*
X102666666Y-159711878D02*
X102285714Y-159711878D01*
X103190476Y-159188069D02*
X103809523Y-159188069D01*
X103809523Y-159188069D02*
X103476190Y-159569021D01*
X103476190Y-159569021D02*
X103619047Y-159569021D01*
X103619047Y-159569021D02*
X103714285Y-159616640D01*
X103714285Y-159616640D02*
X103761904Y-159664259D01*
X103761904Y-159664259D02*
X103809523Y-159759497D01*
X103809523Y-159759497D02*
X103809523Y-159997592D01*
X103809523Y-159997592D02*
X103761904Y-160092830D01*
X103761904Y-160092830D02*
X103714285Y-160140450D01*
X103714285Y-160140450D02*
X103619047Y-160188069D01*
X103619047Y-160188069D02*
X103333333Y-160188069D01*
X103333333Y-160188069D02*
X103238095Y-160140450D01*
X103238095Y-160140450D02*
X103190476Y-160092830D01*
X104666666Y-159521402D02*
X104666666Y-160188069D01*
X104428571Y-159140450D02*
X104190476Y-159854735D01*
X104190476Y-159854735D02*
X104809523Y-159854735D01*
X122857142Y-139584819D02*
X122523809Y-139108628D01*
X122285714Y-139584819D02*
X122285714Y-138584819D01*
X122285714Y-138584819D02*
X122666666Y-138584819D01*
X122666666Y-138584819D02*
X122761904Y-138632438D01*
X122761904Y-138632438D02*
X122809523Y-138680057D01*
X122809523Y-138680057D02*
X122857142Y-138775295D01*
X122857142Y-138775295D02*
X122857142Y-138918152D01*
X122857142Y-138918152D02*
X122809523Y-139013390D01*
X122809523Y-139013390D02*
X122761904Y-139061009D01*
X122761904Y-139061009D02*
X122666666Y-139108628D01*
X122666666Y-139108628D02*
X122285714Y-139108628D01*
X123714285Y-138918152D02*
X123714285Y-139584819D01*
X123476190Y-138537200D02*
X123238095Y-139251485D01*
X123238095Y-139251485D02*
X123857142Y-139251485D01*
X124142857Y-138584819D02*
X124761904Y-138584819D01*
X124761904Y-138584819D02*
X124428571Y-138965771D01*
X124428571Y-138965771D02*
X124571428Y-138965771D01*
X124571428Y-138965771D02*
X124666666Y-139013390D01*
X124666666Y-139013390D02*
X124714285Y-139061009D01*
X124714285Y-139061009D02*
X124761904Y-139156247D01*
X124761904Y-139156247D02*
X124761904Y-139394342D01*
X124761904Y-139394342D02*
X124714285Y-139489580D01*
X124714285Y-139489580D02*
X124666666Y-139537200D01*
X124666666Y-139537200D02*
X124571428Y-139584819D01*
X124571428Y-139584819D02*
X124285714Y-139584819D01*
X124285714Y-139584819D02*
X124190476Y-139537200D01*
X124190476Y-139537200D02*
X124142857Y-139489580D01*
X83087142Y-116604819D02*
X82753809Y-116128628D01*
X82515714Y-116604819D02*
X82515714Y-115604819D01*
X82515714Y-115604819D02*
X82896666Y-115604819D01*
X82896666Y-115604819D02*
X82991904Y-115652438D01*
X82991904Y-115652438D02*
X83039523Y-115700057D01*
X83039523Y-115700057D02*
X83087142Y-115795295D01*
X83087142Y-115795295D02*
X83087142Y-115938152D01*
X83087142Y-115938152D02*
X83039523Y-116033390D01*
X83039523Y-116033390D02*
X82991904Y-116081009D01*
X82991904Y-116081009D02*
X82896666Y-116128628D01*
X82896666Y-116128628D02*
X82515714Y-116128628D01*
X84039523Y-116604819D02*
X83468095Y-116604819D01*
X83753809Y-116604819D02*
X83753809Y-115604819D01*
X83753809Y-115604819D02*
X83658571Y-115747676D01*
X83658571Y-115747676D02*
X83563333Y-115842914D01*
X83563333Y-115842914D02*
X83468095Y-115890533D01*
X84372857Y-115604819D02*
X85039523Y-115604819D01*
X85039523Y-115604819D02*
X84610952Y-116604819D01*
X57795180Y-116761905D02*
X58795180Y-116761905D01*
X58795180Y-116761905D02*
X58795180Y-117000000D01*
X58795180Y-117000000D02*
X58747561Y-117142857D01*
X58747561Y-117142857D02*
X58652323Y-117238095D01*
X58652323Y-117238095D02*
X58557085Y-117285714D01*
X58557085Y-117285714D02*
X58366609Y-117333333D01*
X58366609Y-117333333D02*
X58223752Y-117333333D01*
X58223752Y-117333333D02*
X58033276Y-117285714D01*
X58033276Y-117285714D02*
X57938038Y-117238095D01*
X57938038Y-117238095D02*
X57842800Y-117142857D01*
X57842800Y-117142857D02*
X57795180Y-117000000D01*
X57795180Y-117000000D02*
X57795180Y-116761905D01*
X58699942Y-117714286D02*
X58747561Y-117761905D01*
X58747561Y-117761905D02*
X58795180Y-117857143D01*
X58795180Y-117857143D02*
X58795180Y-118095238D01*
X58795180Y-118095238D02*
X58747561Y-118190476D01*
X58747561Y-118190476D02*
X58699942Y-118238095D01*
X58699942Y-118238095D02*
X58604704Y-118285714D01*
X58604704Y-118285714D02*
X58509466Y-118285714D01*
X58509466Y-118285714D02*
X58366609Y-118238095D01*
X58366609Y-118238095D02*
X57795180Y-117666667D01*
X57795180Y-117666667D02*
X57795180Y-118285714D01*
X70448810Y-59069819D02*
X70448810Y-58069819D01*
X71496428Y-58974580D02*
X71448809Y-59022200D01*
X71448809Y-59022200D02*
X71305952Y-59069819D01*
X71305952Y-59069819D02*
X71210714Y-59069819D01*
X71210714Y-59069819D02*
X71067857Y-59022200D01*
X71067857Y-59022200D02*
X70972619Y-58926961D01*
X70972619Y-58926961D02*
X70925000Y-58831723D01*
X70925000Y-58831723D02*
X70877381Y-58641247D01*
X70877381Y-58641247D02*
X70877381Y-58498390D01*
X70877381Y-58498390D02*
X70925000Y-58307914D01*
X70925000Y-58307914D02*
X70972619Y-58212676D01*
X70972619Y-58212676D02*
X71067857Y-58117438D01*
X71067857Y-58117438D02*
X71210714Y-58069819D01*
X71210714Y-58069819D02*
X71305952Y-58069819D01*
X71305952Y-58069819D02*
X71448809Y-58117438D01*
X71448809Y-58117438D02*
X71496428Y-58165057D01*
X72448809Y-59069819D02*
X71877381Y-59069819D01*
X72163095Y-59069819D02*
X72163095Y-58069819D01*
X72163095Y-58069819D02*
X72067857Y-58212676D01*
X72067857Y-58212676D02*
X71972619Y-58307914D01*
X71972619Y-58307914D02*
X71877381Y-58355533D01*
X122944642Y-115854819D02*
X122611309Y-115378628D01*
X122373214Y-115854819D02*
X122373214Y-114854819D01*
X122373214Y-114854819D02*
X122754166Y-114854819D01*
X122754166Y-114854819D02*
X122849404Y-114902438D01*
X122849404Y-114902438D02*
X122897023Y-114950057D01*
X122897023Y-114950057D02*
X122944642Y-115045295D01*
X122944642Y-115045295D02*
X122944642Y-115188152D01*
X122944642Y-115188152D02*
X122897023Y-115283390D01*
X122897023Y-115283390D02*
X122849404Y-115331009D01*
X122849404Y-115331009D02*
X122754166Y-115378628D01*
X122754166Y-115378628D02*
X122373214Y-115378628D01*
X123801785Y-115188152D02*
X123801785Y-115854819D01*
X123563690Y-114807200D02*
X123325595Y-115521485D01*
X123325595Y-115521485D02*
X123944642Y-115521485D01*
X124849404Y-115854819D02*
X124277976Y-115854819D01*
X124563690Y-115854819D02*
X124563690Y-114854819D01*
X124563690Y-114854819D02*
X124468452Y-114997676D01*
X124468452Y-114997676D02*
X124373214Y-115092914D01*
X124373214Y-115092914D02*
X124277976Y-115140533D01*
X90184819Y-121642857D02*
X89708628Y-121976190D01*
X90184819Y-122214285D02*
X89184819Y-122214285D01*
X89184819Y-122214285D02*
X89184819Y-121833333D01*
X89184819Y-121833333D02*
X89232438Y-121738095D01*
X89232438Y-121738095D02*
X89280057Y-121690476D01*
X89280057Y-121690476D02*
X89375295Y-121642857D01*
X89375295Y-121642857D02*
X89518152Y-121642857D01*
X89518152Y-121642857D02*
X89613390Y-121690476D01*
X89613390Y-121690476D02*
X89661009Y-121738095D01*
X89661009Y-121738095D02*
X89708628Y-121833333D01*
X89708628Y-121833333D02*
X89708628Y-122214285D01*
X90184819Y-120690476D02*
X90184819Y-121261904D01*
X90184819Y-120976190D02*
X89184819Y-120976190D01*
X89184819Y-120976190D02*
X89327676Y-121071428D01*
X89327676Y-121071428D02*
X89422914Y-121166666D01*
X89422914Y-121166666D02*
X89470533Y-121261904D01*
X89613390Y-120119047D02*
X89565771Y-120214285D01*
X89565771Y-120214285D02*
X89518152Y-120261904D01*
X89518152Y-120261904D02*
X89422914Y-120309523D01*
X89422914Y-120309523D02*
X89375295Y-120309523D01*
X89375295Y-120309523D02*
X89280057Y-120261904D01*
X89280057Y-120261904D02*
X89232438Y-120214285D01*
X89232438Y-120214285D02*
X89184819Y-120119047D01*
X89184819Y-120119047D02*
X89184819Y-119928571D01*
X89184819Y-119928571D02*
X89232438Y-119833333D01*
X89232438Y-119833333D02*
X89280057Y-119785714D01*
X89280057Y-119785714D02*
X89375295Y-119738095D01*
X89375295Y-119738095D02*
X89422914Y-119738095D01*
X89422914Y-119738095D02*
X89518152Y-119785714D01*
X89518152Y-119785714D02*
X89565771Y-119833333D01*
X89565771Y-119833333D02*
X89613390Y-119928571D01*
X89613390Y-119928571D02*
X89613390Y-120119047D01*
X89613390Y-120119047D02*
X89661009Y-120214285D01*
X89661009Y-120214285D02*
X89708628Y-120261904D01*
X89708628Y-120261904D02*
X89803866Y-120309523D01*
X89803866Y-120309523D02*
X89994342Y-120309523D01*
X89994342Y-120309523D02*
X90089580Y-120261904D01*
X90089580Y-120261904D02*
X90137200Y-120214285D01*
X90137200Y-120214285D02*
X90184819Y-120119047D01*
X90184819Y-120119047D02*
X90184819Y-119928571D01*
X90184819Y-119928571D02*
X90137200Y-119833333D01*
X90137200Y-119833333D02*
X90089580Y-119785714D01*
X90089580Y-119785714D02*
X89994342Y-119738095D01*
X89994342Y-119738095D02*
X89803866Y-119738095D01*
X89803866Y-119738095D02*
X89708628Y-119785714D01*
X89708628Y-119785714D02*
X89661009Y-119833333D01*
X89661009Y-119833333D02*
X89613390Y-119928571D01*
X89489138Y-95162042D02*
X89584376Y-95209661D01*
X89584376Y-95209661D02*
X89679614Y-95304900D01*
X89679614Y-95304900D02*
X89822471Y-95447757D01*
X89822471Y-95447757D02*
X89917709Y-95495376D01*
X89917709Y-95495376D02*
X90012947Y-95495376D01*
X89965328Y-95257280D02*
X90060566Y-95304900D01*
X90060566Y-95304900D02*
X90155804Y-95400138D01*
X90155804Y-95400138D02*
X90203423Y-95590614D01*
X90203423Y-95590614D02*
X90203423Y-95923947D01*
X90203423Y-95923947D02*
X90155804Y-96114423D01*
X90155804Y-96114423D02*
X90060566Y-96209661D01*
X90060566Y-96209661D02*
X89965328Y-96257280D01*
X89965328Y-96257280D02*
X89774852Y-96257280D01*
X89774852Y-96257280D02*
X89679614Y-96209661D01*
X89679614Y-96209661D02*
X89584376Y-96114423D01*
X89584376Y-96114423D02*
X89536757Y-95923947D01*
X89536757Y-95923947D02*
X89536757Y-95590614D01*
X89536757Y-95590614D02*
X89584376Y-95400138D01*
X89584376Y-95400138D02*
X89679614Y-95304900D01*
X89679614Y-95304900D02*
X89774852Y-95257280D01*
X89774852Y-95257280D02*
X89965328Y-95257280D01*
X88631995Y-96257280D02*
X89108185Y-96257280D01*
X89108185Y-96257280D02*
X89155804Y-95781090D01*
X89155804Y-95781090D02*
X89108185Y-95828709D01*
X89108185Y-95828709D02*
X89012947Y-95876328D01*
X89012947Y-95876328D02*
X88774852Y-95876328D01*
X88774852Y-95876328D02*
X88679614Y-95828709D01*
X88679614Y-95828709D02*
X88631995Y-95781090D01*
X88631995Y-95781090D02*
X88584376Y-95685852D01*
X88584376Y-95685852D02*
X88584376Y-95447757D01*
X88584376Y-95447757D02*
X88631995Y-95352519D01*
X88631995Y-95352519D02*
X88679614Y-95304900D01*
X88679614Y-95304900D02*
X88774852Y-95257280D01*
X88774852Y-95257280D02*
X89012947Y-95257280D01*
X89012947Y-95257280D02*
X89108185Y-95304900D01*
X89108185Y-95304900D02*
X89155804Y-95352519D01*
X86753892Y-142854819D02*
X86420559Y-142378628D01*
X86182464Y-142854819D02*
X86182464Y-141854819D01*
X86182464Y-141854819D02*
X86563416Y-141854819D01*
X86563416Y-141854819D02*
X86658654Y-141902438D01*
X86658654Y-141902438D02*
X86706273Y-141950057D01*
X86706273Y-141950057D02*
X86753892Y-142045295D01*
X86753892Y-142045295D02*
X86753892Y-142188152D01*
X86753892Y-142188152D02*
X86706273Y-142283390D01*
X86706273Y-142283390D02*
X86658654Y-142331009D01*
X86658654Y-142331009D02*
X86563416Y-142378628D01*
X86563416Y-142378628D02*
X86182464Y-142378628D01*
X87134845Y-141950057D02*
X87182464Y-141902438D01*
X87182464Y-141902438D02*
X87277702Y-141854819D01*
X87277702Y-141854819D02*
X87515797Y-141854819D01*
X87515797Y-141854819D02*
X87611035Y-141902438D01*
X87611035Y-141902438D02*
X87658654Y-141950057D01*
X87658654Y-141950057D02*
X87706273Y-142045295D01*
X87706273Y-142045295D02*
X87706273Y-142140533D01*
X87706273Y-142140533D02*
X87658654Y-142283390D01*
X87658654Y-142283390D02*
X87087226Y-142854819D01*
X87087226Y-142854819D02*
X87706273Y-142854819D01*
X88658654Y-142854819D02*
X88087226Y-142854819D01*
X88372940Y-142854819D02*
X88372940Y-141854819D01*
X88372940Y-141854819D02*
X88277702Y-141997676D01*
X88277702Y-141997676D02*
X88182464Y-142092914D01*
X88182464Y-142092914D02*
X88087226Y-142140533D01*
X68951438Y-135343492D02*
X69046676Y-135391111D01*
X69046676Y-135391111D02*
X69141914Y-135486350D01*
X69141914Y-135486350D02*
X69284771Y-135629207D01*
X69284771Y-135629207D02*
X69380009Y-135676826D01*
X69380009Y-135676826D02*
X69475247Y-135676826D01*
X69427628Y-135438730D02*
X69522866Y-135486350D01*
X69522866Y-135486350D02*
X69618104Y-135581588D01*
X69618104Y-135581588D02*
X69665723Y-135772064D01*
X69665723Y-135772064D02*
X69665723Y-136105397D01*
X69665723Y-136105397D02*
X69618104Y-136295873D01*
X69618104Y-136295873D02*
X69522866Y-136391111D01*
X69522866Y-136391111D02*
X69427628Y-136438730D01*
X69427628Y-136438730D02*
X69237152Y-136438730D01*
X69237152Y-136438730D02*
X69141914Y-136391111D01*
X69141914Y-136391111D02*
X69046676Y-136295873D01*
X69046676Y-136295873D02*
X68999057Y-136105397D01*
X68999057Y-136105397D02*
X68999057Y-135772064D01*
X68999057Y-135772064D02*
X69046676Y-135581588D01*
X69046676Y-135581588D02*
X69141914Y-135486350D01*
X69141914Y-135486350D02*
X69237152Y-135438730D01*
X69237152Y-135438730D02*
X69427628Y-135438730D01*
X68665723Y-136438730D02*
X68046676Y-136438730D01*
X68046676Y-136438730D02*
X68380009Y-136057778D01*
X68380009Y-136057778D02*
X68237152Y-136057778D01*
X68237152Y-136057778D02*
X68141914Y-136010159D01*
X68141914Y-136010159D02*
X68094295Y-135962540D01*
X68094295Y-135962540D02*
X68046676Y-135867302D01*
X68046676Y-135867302D02*
X68046676Y-135629207D01*
X68046676Y-135629207D02*
X68094295Y-135533969D01*
X68094295Y-135533969D02*
X68141914Y-135486350D01*
X68141914Y-135486350D02*
X68237152Y-135438730D01*
X68237152Y-135438730D02*
X68522866Y-135438730D01*
X68522866Y-135438730D02*
X68618104Y-135486350D01*
X68618104Y-135486350D02*
X68665723Y-135533969D01*
X83357142Y-156604819D02*
X83023809Y-156128628D01*
X82785714Y-156604819D02*
X82785714Y-155604819D01*
X82785714Y-155604819D02*
X83166666Y-155604819D01*
X83166666Y-155604819D02*
X83261904Y-155652438D01*
X83261904Y-155652438D02*
X83309523Y-155700057D01*
X83309523Y-155700057D02*
X83357142Y-155795295D01*
X83357142Y-155795295D02*
X83357142Y-155938152D01*
X83357142Y-155938152D02*
X83309523Y-156033390D01*
X83309523Y-156033390D02*
X83261904Y-156081009D01*
X83261904Y-156081009D02*
X83166666Y-156128628D01*
X83166666Y-156128628D02*
X82785714Y-156128628D01*
X83738095Y-155700057D02*
X83785714Y-155652438D01*
X83785714Y-155652438D02*
X83880952Y-155604819D01*
X83880952Y-155604819D02*
X84119047Y-155604819D01*
X84119047Y-155604819D02*
X84214285Y-155652438D01*
X84214285Y-155652438D02*
X84261904Y-155700057D01*
X84261904Y-155700057D02*
X84309523Y-155795295D01*
X84309523Y-155795295D02*
X84309523Y-155890533D01*
X84309523Y-155890533D02*
X84261904Y-156033390D01*
X84261904Y-156033390D02*
X83690476Y-156604819D01*
X83690476Y-156604819D02*
X84309523Y-156604819D01*
X84642857Y-155604819D02*
X85261904Y-155604819D01*
X85261904Y-155604819D02*
X84928571Y-155985771D01*
X84928571Y-155985771D02*
X85071428Y-155985771D01*
X85071428Y-155985771D02*
X85166666Y-156033390D01*
X85166666Y-156033390D02*
X85214285Y-156081009D01*
X85214285Y-156081009D02*
X85261904Y-156176247D01*
X85261904Y-156176247D02*
X85261904Y-156414342D01*
X85261904Y-156414342D02*
X85214285Y-156509580D01*
X85214285Y-156509580D02*
X85166666Y-156557200D01*
X85166666Y-156557200D02*
X85071428Y-156604819D01*
X85071428Y-156604819D02*
X84785714Y-156604819D01*
X84785714Y-156604819D02*
X84690476Y-156557200D01*
X84690476Y-156557200D02*
X84642857Y-156509580D01*
X69095238Y-94949942D02*
X69190476Y-94997561D01*
X69190476Y-94997561D02*
X69285714Y-95092800D01*
X69285714Y-95092800D02*
X69428571Y-95235657D01*
X69428571Y-95235657D02*
X69523809Y-95283276D01*
X69523809Y-95283276D02*
X69619047Y-95283276D01*
X69571428Y-95045180D02*
X69666666Y-95092800D01*
X69666666Y-95092800D02*
X69761904Y-95188038D01*
X69761904Y-95188038D02*
X69809523Y-95378514D01*
X69809523Y-95378514D02*
X69809523Y-95711847D01*
X69809523Y-95711847D02*
X69761904Y-95902323D01*
X69761904Y-95902323D02*
X69666666Y-95997561D01*
X69666666Y-95997561D02*
X69571428Y-96045180D01*
X69571428Y-96045180D02*
X69380952Y-96045180D01*
X69380952Y-96045180D02*
X69285714Y-95997561D01*
X69285714Y-95997561D02*
X69190476Y-95902323D01*
X69190476Y-95902323D02*
X69142857Y-95711847D01*
X69142857Y-95711847D02*
X69142857Y-95378514D01*
X69142857Y-95378514D02*
X69190476Y-95188038D01*
X69190476Y-95188038D02*
X69285714Y-95092800D01*
X69285714Y-95092800D02*
X69380952Y-95045180D01*
X69380952Y-95045180D02*
X69571428Y-95045180D01*
X68190476Y-95045180D02*
X68761904Y-95045180D01*
X68476190Y-95045180D02*
X68476190Y-96045180D01*
X68476190Y-96045180D02*
X68571428Y-95902323D01*
X68571428Y-95902323D02*
X68666666Y-95807085D01*
X68666666Y-95807085D02*
X68761904Y-95759466D01*
X83045180Y-75738095D02*
X82235657Y-75738095D01*
X82235657Y-75738095D02*
X82140419Y-75785714D01*
X82140419Y-75785714D02*
X82092800Y-75833333D01*
X82092800Y-75833333D02*
X82045180Y-75928571D01*
X82045180Y-75928571D02*
X82045180Y-76119047D01*
X82045180Y-76119047D02*
X82092800Y-76214285D01*
X82092800Y-76214285D02*
X82140419Y-76261904D01*
X82140419Y-76261904D02*
X82235657Y-76309523D01*
X82235657Y-76309523D02*
X83045180Y-76309523D01*
X83045180Y-76690476D02*
X83045180Y-77309523D01*
X83045180Y-77309523D02*
X82664228Y-76976190D01*
X82664228Y-76976190D02*
X82664228Y-77119047D01*
X82664228Y-77119047D02*
X82616609Y-77214285D01*
X82616609Y-77214285D02*
X82568990Y-77261904D01*
X82568990Y-77261904D02*
X82473752Y-77309523D01*
X82473752Y-77309523D02*
X82235657Y-77309523D01*
X82235657Y-77309523D02*
X82140419Y-77261904D01*
X82140419Y-77261904D02*
X82092800Y-77214285D01*
X82092800Y-77214285D02*
X82045180Y-77119047D01*
X82045180Y-77119047D02*
X82045180Y-76833333D01*
X82045180Y-76833333D02*
X82092800Y-76738095D01*
X82092800Y-76738095D02*
X82140419Y-76690476D01*
X101066480Y-72690000D02*
X100828385Y-72690000D01*
X100923623Y-72451905D02*
X100828385Y-72690000D01*
X100828385Y-72690000D02*
X100923623Y-72928095D01*
X100637909Y-72547143D02*
X100828385Y-72690000D01*
X100828385Y-72690000D02*
X100637909Y-72832857D01*
X99976119Y-72689999D02*
X100214214Y-72689999D01*
X100118976Y-72928094D02*
X100214214Y-72689999D01*
X100214214Y-72689999D02*
X100118976Y-72451904D01*
X100404690Y-72832856D02*
X100214214Y-72689999D01*
X100214214Y-72689999D02*
X100404690Y-72547142D01*
X77660180Y-96646905D02*
X78660180Y-96646905D01*
X78660180Y-96646905D02*
X78660180Y-96885000D01*
X78660180Y-96885000D02*
X78612561Y-97027857D01*
X78612561Y-97027857D02*
X78517323Y-97123095D01*
X78517323Y-97123095D02*
X78422085Y-97170714D01*
X78422085Y-97170714D02*
X78231609Y-97218333D01*
X78231609Y-97218333D02*
X78088752Y-97218333D01*
X78088752Y-97218333D02*
X77898276Y-97170714D01*
X77898276Y-97170714D02*
X77803038Y-97123095D01*
X77803038Y-97123095D02*
X77707800Y-97027857D01*
X77707800Y-97027857D02*
X77660180Y-96885000D01*
X77660180Y-96885000D02*
X77660180Y-96646905D01*
X78660180Y-98123095D02*
X78660180Y-97646905D01*
X78660180Y-97646905D02*
X78183990Y-97599286D01*
X78183990Y-97599286D02*
X78231609Y-97646905D01*
X78231609Y-97646905D02*
X78279228Y-97742143D01*
X78279228Y-97742143D02*
X78279228Y-97980238D01*
X78279228Y-97980238D02*
X78231609Y-98075476D01*
X78231609Y-98075476D02*
X78183990Y-98123095D01*
X78183990Y-98123095D02*
X78088752Y-98170714D01*
X78088752Y-98170714D02*
X77850657Y-98170714D01*
X77850657Y-98170714D02*
X77755419Y-98123095D01*
X77755419Y-98123095D02*
X77707800Y-98075476D01*
X77707800Y-98075476D02*
X77660180Y-97980238D01*
X77660180Y-97980238D02*
X77660180Y-97742143D01*
X77660180Y-97742143D02*
X77707800Y-97646905D01*
X77707800Y-97646905D02*
X77755419Y-97599286D01*
X97545180Y-156035714D02*
X98545180Y-156035714D01*
X98545180Y-156035714D02*
X98545180Y-156273809D01*
X98545180Y-156273809D02*
X98497561Y-156416666D01*
X98497561Y-156416666D02*
X98402323Y-156511904D01*
X98402323Y-156511904D02*
X98307085Y-156559523D01*
X98307085Y-156559523D02*
X98116609Y-156607142D01*
X98116609Y-156607142D02*
X97973752Y-156607142D01*
X97973752Y-156607142D02*
X97783276Y-156559523D01*
X97783276Y-156559523D02*
X97688038Y-156511904D01*
X97688038Y-156511904D02*
X97592800Y-156416666D01*
X97592800Y-156416666D02*
X97545180Y-156273809D01*
X97545180Y-156273809D02*
X97545180Y-156035714D01*
X97545180Y-157559523D02*
X97545180Y-156988095D01*
X97545180Y-157273809D02*
X98545180Y-157273809D01*
X98545180Y-157273809D02*
X98402323Y-157178571D01*
X98402323Y-157178571D02*
X98307085Y-157083333D01*
X98307085Y-157083333D02*
X98259466Y-156988095D01*
X98449942Y-157940476D02*
X98497561Y-157988095D01*
X98497561Y-157988095D02*
X98545180Y-158083333D01*
X98545180Y-158083333D02*
X98545180Y-158321428D01*
X98545180Y-158321428D02*
X98497561Y-158416666D01*
X98497561Y-158416666D02*
X98449942Y-158464285D01*
X98449942Y-158464285D02*
X98354704Y-158511904D01*
X98354704Y-158511904D02*
X98259466Y-158511904D01*
X98259466Y-158511904D02*
X98116609Y-158464285D01*
X98116609Y-158464285D02*
X97545180Y-157892857D01*
X97545180Y-157892857D02*
X97545180Y-158511904D01*
X83253892Y-136854819D02*
X82920559Y-136378628D01*
X82682464Y-136854819D02*
X82682464Y-135854819D01*
X82682464Y-135854819D02*
X83063416Y-135854819D01*
X83063416Y-135854819D02*
X83158654Y-135902438D01*
X83158654Y-135902438D02*
X83206273Y-135950057D01*
X83206273Y-135950057D02*
X83253892Y-136045295D01*
X83253892Y-136045295D02*
X83253892Y-136188152D01*
X83253892Y-136188152D02*
X83206273Y-136283390D01*
X83206273Y-136283390D02*
X83158654Y-136331009D01*
X83158654Y-136331009D02*
X83063416Y-136378628D01*
X83063416Y-136378628D02*
X82682464Y-136378628D01*
X83634845Y-135950057D02*
X83682464Y-135902438D01*
X83682464Y-135902438D02*
X83777702Y-135854819D01*
X83777702Y-135854819D02*
X84015797Y-135854819D01*
X84015797Y-135854819D02*
X84111035Y-135902438D01*
X84111035Y-135902438D02*
X84158654Y-135950057D01*
X84158654Y-135950057D02*
X84206273Y-136045295D01*
X84206273Y-136045295D02*
X84206273Y-136140533D01*
X84206273Y-136140533D02*
X84158654Y-136283390D01*
X84158654Y-136283390D02*
X83587226Y-136854819D01*
X83587226Y-136854819D02*
X84206273Y-136854819D01*
X84825321Y-135854819D02*
X84920559Y-135854819D01*
X84920559Y-135854819D02*
X85015797Y-135902438D01*
X85015797Y-135902438D02*
X85063416Y-135950057D01*
X85063416Y-135950057D02*
X85111035Y-136045295D01*
X85111035Y-136045295D02*
X85158654Y-136235771D01*
X85158654Y-136235771D02*
X85158654Y-136473866D01*
X85158654Y-136473866D02*
X85111035Y-136664342D01*
X85111035Y-136664342D02*
X85063416Y-136759580D01*
X85063416Y-136759580D02*
X85015797Y-136807200D01*
X85015797Y-136807200D02*
X84920559Y-136854819D01*
X84920559Y-136854819D02*
X84825321Y-136854819D01*
X84825321Y-136854819D02*
X84730083Y-136807200D01*
X84730083Y-136807200D02*
X84682464Y-136759580D01*
X84682464Y-136759580D02*
X84634845Y-136664342D01*
X84634845Y-136664342D02*
X84587226Y-136473866D01*
X84587226Y-136473866D02*
X84587226Y-136235771D01*
X84587226Y-136235771D02*
X84634845Y-136045295D01*
X84634845Y-136045295D02*
X84682464Y-135950057D01*
X84682464Y-135950057D02*
X84730083Y-135902438D01*
X84730083Y-135902438D02*
X84825321Y-135854819D01*
X117545180Y-116035714D02*
X118545180Y-116035714D01*
X118545180Y-116035714D02*
X118545180Y-116273809D01*
X118545180Y-116273809D02*
X118497561Y-116416666D01*
X118497561Y-116416666D02*
X118402323Y-116511904D01*
X118402323Y-116511904D02*
X118307085Y-116559523D01*
X118307085Y-116559523D02*
X118116609Y-116607142D01*
X118116609Y-116607142D02*
X117973752Y-116607142D01*
X117973752Y-116607142D02*
X117783276Y-116559523D01*
X117783276Y-116559523D02*
X117688038Y-116511904D01*
X117688038Y-116511904D02*
X117592800Y-116416666D01*
X117592800Y-116416666D02*
X117545180Y-116273809D01*
X117545180Y-116273809D02*
X117545180Y-116035714D01*
X117545180Y-117559523D02*
X117545180Y-116988095D01*
X117545180Y-117273809D02*
X118545180Y-117273809D01*
X118545180Y-117273809D02*
X118402323Y-117178571D01*
X118402323Y-117178571D02*
X118307085Y-117083333D01*
X118307085Y-117083333D02*
X118259466Y-116988095D01*
X118211847Y-118416666D02*
X117545180Y-118416666D01*
X118592800Y-118178571D02*
X117878514Y-117940476D01*
X117878514Y-117940476D02*
X117878514Y-118559523D01*
X109034688Y-95196742D02*
X109129926Y-95244361D01*
X109129926Y-95244361D02*
X109225164Y-95339600D01*
X109225164Y-95339600D02*
X109368021Y-95482457D01*
X109368021Y-95482457D02*
X109463259Y-95530076D01*
X109463259Y-95530076D02*
X109558497Y-95530076D01*
X109510878Y-95291980D02*
X109606116Y-95339600D01*
X109606116Y-95339600D02*
X109701354Y-95434838D01*
X109701354Y-95434838D02*
X109748973Y-95625314D01*
X109748973Y-95625314D02*
X109748973Y-95958647D01*
X109748973Y-95958647D02*
X109701354Y-96149123D01*
X109701354Y-96149123D02*
X109606116Y-96244361D01*
X109606116Y-96244361D02*
X109510878Y-96291980D01*
X109510878Y-96291980D02*
X109320402Y-96291980D01*
X109320402Y-96291980D02*
X109225164Y-96244361D01*
X109225164Y-96244361D02*
X109129926Y-96149123D01*
X109129926Y-96149123D02*
X109082307Y-95958647D01*
X109082307Y-95958647D02*
X109082307Y-95625314D01*
X109082307Y-95625314D02*
X109129926Y-95434838D01*
X109129926Y-95434838D02*
X109225164Y-95339600D01*
X109225164Y-95339600D02*
X109320402Y-95291980D01*
X109320402Y-95291980D02*
X109510878Y-95291980D01*
X108606116Y-95291980D02*
X108415640Y-95291980D01*
X108415640Y-95291980D02*
X108320402Y-95339600D01*
X108320402Y-95339600D02*
X108272783Y-95387219D01*
X108272783Y-95387219D02*
X108177545Y-95530076D01*
X108177545Y-95530076D02*
X108129926Y-95720552D01*
X108129926Y-95720552D02*
X108129926Y-96101504D01*
X108129926Y-96101504D02*
X108177545Y-96196742D01*
X108177545Y-96196742D02*
X108225164Y-96244361D01*
X108225164Y-96244361D02*
X108320402Y-96291980D01*
X108320402Y-96291980D02*
X108510878Y-96291980D01*
X108510878Y-96291980D02*
X108606116Y-96244361D01*
X108606116Y-96244361D02*
X108653735Y-96196742D01*
X108653735Y-96196742D02*
X108701354Y-96101504D01*
X108701354Y-96101504D02*
X108701354Y-95863409D01*
X108701354Y-95863409D02*
X108653735Y-95768171D01*
X108653735Y-95768171D02*
X108606116Y-95720552D01*
X108606116Y-95720552D02*
X108510878Y-95672933D01*
X108510878Y-95672933D02*
X108320402Y-95672933D01*
X108320402Y-95672933D02*
X108225164Y-95720552D01*
X108225164Y-95720552D02*
X108177545Y-95768171D01*
X108177545Y-95768171D02*
X108129926Y-95863409D01*
X77775180Y-116761905D02*
X78775180Y-116761905D01*
X78775180Y-116761905D02*
X78775180Y-117000000D01*
X78775180Y-117000000D02*
X78727561Y-117142857D01*
X78727561Y-117142857D02*
X78632323Y-117238095D01*
X78632323Y-117238095D02*
X78537085Y-117285714D01*
X78537085Y-117285714D02*
X78346609Y-117333333D01*
X78346609Y-117333333D02*
X78203752Y-117333333D01*
X78203752Y-117333333D02*
X78013276Y-117285714D01*
X78013276Y-117285714D02*
X77918038Y-117238095D01*
X77918038Y-117238095D02*
X77822800Y-117142857D01*
X77822800Y-117142857D02*
X77775180Y-117000000D01*
X77775180Y-117000000D02*
X77775180Y-116761905D01*
X78775180Y-118190476D02*
X78775180Y-118000000D01*
X78775180Y-118000000D02*
X78727561Y-117904762D01*
X78727561Y-117904762D02*
X78679942Y-117857143D01*
X78679942Y-117857143D02*
X78537085Y-117761905D01*
X78537085Y-117761905D02*
X78346609Y-117714286D01*
X78346609Y-117714286D02*
X77965657Y-117714286D01*
X77965657Y-117714286D02*
X77870419Y-117761905D01*
X77870419Y-117761905D02*
X77822800Y-117809524D01*
X77822800Y-117809524D02*
X77775180Y-117904762D01*
X77775180Y-117904762D02*
X77775180Y-118095238D01*
X77775180Y-118095238D02*
X77822800Y-118190476D01*
X77822800Y-118190476D02*
X77870419Y-118238095D01*
X77870419Y-118238095D02*
X77965657Y-118285714D01*
X77965657Y-118285714D02*
X78203752Y-118285714D01*
X78203752Y-118285714D02*
X78298990Y-118238095D01*
X78298990Y-118238095D02*
X78346609Y-118190476D01*
X78346609Y-118190476D02*
X78394228Y-118095238D01*
X78394228Y-118095238D02*
X78394228Y-117904762D01*
X78394228Y-117904762D02*
X78346609Y-117809524D01*
X78346609Y-117809524D02*
X78298990Y-117761905D01*
X78298990Y-117761905D02*
X78203752Y-117714286D01*
X78045180Y-156761905D02*
X79045180Y-156761905D01*
X79045180Y-156761905D02*
X79045180Y-157000000D01*
X79045180Y-157000000D02*
X78997561Y-157142857D01*
X78997561Y-157142857D02*
X78902323Y-157238095D01*
X78902323Y-157238095D02*
X78807085Y-157285714D01*
X78807085Y-157285714D02*
X78616609Y-157333333D01*
X78616609Y-157333333D02*
X78473752Y-157333333D01*
X78473752Y-157333333D02*
X78283276Y-157285714D01*
X78283276Y-157285714D02*
X78188038Y-157238095D01*
X78188038Y-157238095D02*
X78092800Y-157142857D01*
X78092800Y-157142857D02*
X78045180Y-157000000D01*
X78045180Y-157000000D02*
X78045180Y-156761905D01*
X78616609Y-157904762D02*
X78664228Y-157809524D01*
X78664228Y-157809524D02*
X78711847Y-157761905D01*
X78711847Y-157761905D02*
X78807085Y-157714286D01*
X78807085Y-157714286D02*
X78854704Y-157714286D01*
X78854704Y-157714286D02*
X78949942Y-157761905D01*
X78949942Y-157761905D02*
X78997561Y-157809524D01*
X78997561Y-157809524D02*
X79045180Y-157904762D01*
X79045180Y-157904762D02*
X79045180Y-158095238D01*
X79045180Y-158095238D02*
X78997561Y-158190476D01*
X78997561Y-158190476D02*
X78949942Y-158238095D01*
X78949942Y-158238095D02*
X78854704Y-158285714D01*
X78854704Y-158285714D02*
X78807085Y-158285714D01*
X78807085Y-158285714D02*
X78711847Y-158238095D01*
X78711847Y-158238095D02*
X78664228Y-158190476D01*
X78664228Y-158190476D02*
X78616609Y-158095238D01*
X78616609Y-158095238D02*
X78616609Y-157904762D01*
X78616609Y-157904762D02*
X78568990Y-157809524D01*
X78568990Y-157809524D02*
X78521371Y-157761905D01*
X78521371Y-157761905D02*
X78426133Y-157714286D01*
X78426133Y-157714286D02*
X78235657Y-157714286D01*
X78235657Y-157714286D02*
X78140419Y-157761905D01*
X78140419Y-157761905D02*
X78092800Y-157809524D01*
X78092800Y-157809524D02*
X78045180Y-157904762D01*
X78045180Y-157904762D02*
X78045180Y-158095238D01*
X78045180Y-158095238D02*
X78092800Y-158190476D01*
X78092800Y-158190476D02*
X78140419Y-158238095D01*
X78140419Y-158238095D02*
X78235657Y-158285714D01*
X78235657Y-158285714D02*
X78426133Y-158285714D01*
X78426133Y-158285714D02*
X78521371Y-158238095D01*
X78521371Y-158238095D02*
X78568990Y-158190476D01*
X78568990Y-158190476D02*
X78616609Y-158095238D01*
X122857142Y-136084819D02*
X122523809Y-135608628D01*
X122285714Y-136084819D02*
X122285714Y-135084819D01*
X122285714Y-135084819D02*
X122666666Y-135084819D01*
X122666666Y-135084819D02*
X122761904Y-135132438D01*
X122761904Y-135132438D02*
X122809523Y-135180057D01*
X122809523Y-135180057D02*
X122857142Y-135275295D01*
X122857142Y-135275295D02*
X122857142Y-135418152D01*
X122857142Y-135418152D02*
X122809523Y-135513390D01*
X122809523Y-135513390D02*
X122761904Y-135561009D01*
X122761904Y-135561009D02*
X122666666Y-135608628D01*
X122666666Y-135608628D02*
X122285714Y-135608628D01*
X123714285Y-135418152D02*
X123714285Y-136084819D01*
X123476190Y-135037200D02*
X123238095Y-135751485D01*
X123238095Y-135751485D02*
X123857142Y-135751485D01*
X124666666Y-135418152D02*
X124666666Y-136084819D01*
X124428571Y-135037200D02*
X124190476Y-135751485D01*
X124190476Y-135751485D02*
X124809523Y-135751485D01*
X97545180Y-136035714D02*
X98545180Y-136035714D01*
X98545180Y-136035714D02*
X98545180Y-136273809D01*
X98545180Y-136273809D02*
X98497561Y-136416666D01*
X98497561Y-136416666D02*
X98402323Y-136511904D01*
X98402323Y-136511904D02*
X98307085Y-136559523D01*
X98307085Y-136559523D02*
X98116609Y-136607142D01*
X98116609Y-136607142D02*
X97973752Y-136607142D01*
X97973752Y-136607142D02*
X97783276Y-136559523D01*
X97783276Y-136559523D02*
X97688038Y-136511904D01*
X97688038Y-136511904D02*
X97592800Y-136416666D01*
X97592800Y-136416666D02*
X97545180Y-136273809D01*
X97545180Y-136273809D02*
X97545180Y-136035714D01*
X97545180Y-137559523D02*
X97545180Y-136988095D01*
X97545180Y-137273809D02*
X98545180Y-137273809D01*
X98545180Y-137273809D02*
X98402323Y-137178571D01*
X98402323Y-137178571D02*
X98307085Y-137083333D01*
X98307085Y-137083333D02*
X98259466Y-136988095D01*
X97545180Y-138511904D02*
X97545180Y-137940476D01*
X97545180Y-138226190D02*
X98545180Y-138226190D01*
X98545180Y-138226190D02*
X98402323Y-138130952D01*
X98402323Y-138130952D02*
X98307085Y-138035714D01*
X98307085Y-138035714D02*
X98259466Y-137940476D01*
X69284688Y-154863492D02*
X69379926Y-154911111D01*
X69379926Y-154911111D02*
X69475164Y-155006350D01*
X69475164Y-155006350D02*
X69618021Y-155149207D01*
X69618021Y-155149207D02*
X69713259Y-155196826D01*
X69713259Y-155196826D02*
X69808497Y-155196826D01*
X69760878Y-154958730D02*
X69856116Y-155006350D01*
X69856116Y-155006350D02*
X69951354Y-155101588D01*
X69951354Y-155101588D02*
X69998973Y-155292064D01*
X69998973Y-155292064D02*
X69998973Y-155625397D01*
X69998973Y-155625397D02*
X69951354Y-155815873D01*
X69951354Y-155815873D02*
X69856116Y-155911111D01*
X69856116Y-155911111D02*
X69760878Y-155958730D01*
X69760878Y-155958730D02*
X69570402Y-155958730D01*
X69570402Y-155958730D02*
X69475164Y-155911111D01*
X69475164Y-155911111D02*
X69379926Y-155815873D01*
X69379926Y-155815873D02*
X69332307Y-155625397D01*
X69332307Y-155625397D02*
X69332307Y-155292064D01*
X69332307Y-155292064D02*
X69379926Y-155101588D01*
X69379926Y-155101588D02*
X69475164Y-155006350D01*
X69475164Y-155006350D02*
X69570402Y-154958730D01*
X69570402Y-154958730D02*
X69760878Y-154958730D01*
X68475164Y-155625397D02*
X68475164Y-154958730D01*
X68713259Y-156006350D02*
X68951354Y-155292064D01*
X68951354Y-155292064D02*
X68332307Y-155292064D01*
X89264688Y-115113492D02*
X89359926Y-115161111D01*
X89359926Y-115161111D02*
X89455164Y-115256350D01*
X89455164Y-115256350D02*
X89598021Y-115399207D01*
X89598021Y-115399207D02*
X89693259Y-115446826D01*
X89693259Y-115446826D02*
X89788497Y-115446826D01*
X89740878Y-115208730D02*
X89836116Y-115256350D01*
X89836116Y-115256350D02*
X89931354Y-115351588D01*
X89931354Y-115351588D02*
X89978973Y-115542064D01*
X89978973Y-115542064D02*
X89978973Y-115875397D01*
X89978973Y-115875397D02*
X89931354Y-116065873D01*
X89931354Y-116065873D02*
X89836116Y-116161111D01*
X89836116Y-116161111D02*
X89740878Y-116208730D01*
X89740878Y-116208730D02*
X89550402Y-116208730D01*
X89550402Y-116208730D02*
X89455164Y-116161111D01*
X89455164Y-116161111D02*
X89359926Y-116065873D01*
X89359926Y-116065873D02*
X89312307Y-115875397D01*
X89312307Y-115875397D02*
X89312307Y-115542064D01*
X89312307Y-115542064D02*
X89359926Y-115351588D01*
X89359926Y-115351588D02*
X89455164Y-115256350D01*
X89455164Y-115256350D02*
X89550402Y-115208730D01*
X89550402Y-115208730D02*
X89740878Y-115208730D01*
X88455164Y-116208730D02*
X88645640Y-116208730D01*
X88645640Y-116208730D02*
X88740878Y-116161111D01*
X88740878Y-116161111D02*
X88788497Y-116113492D01*
X88788497Y-116113492D02*
X88883735Y-115970635D01*
X88883735Y-115970635D02*
X88931354Y-115780159D01*
X88931354Y-115780159D02*
X88931354Y-115399207D01*
X88931354Y-115399207D02*
X88883735Y-115303969D01*
X88883735Y-115303969D02*
X88836116Y-115256350D01*
X88836116Y-115256350D02*
X88740878Y-115208730D01*
X88740878Y-115208730D02*
X88550402Y-115208730D01*
X88550402Y-115208730D02*
X88455164Y-115256350D01*
X88455164Y-115256350D02*
X88407545Y-115303969D01*
X88407545Y-115303969D02*
X88359926Y-115399207D01*
X88359926Y-115399207D02*
X88359926Y-115637302D01*
X88359926Y-115637302D02*
X88407545Y-115732540D01*
X88407545Y-115732540D02*
X88455164Y-115780159D01*
X88455164Y-115780159D02*
X88550402Y-115827778D01*
X88550402Y-115827778D02*
X88740878Y-115827778D01*
X88740878Y-115827778D02*
X88836116Y-115780159D01*
X88836116Y-115780159D02*
X88883735Y-115732540D01*
X88883735Y-115732540D02*
X88931354Y-115637302D01*
X63107142Y-156354819D02*
X62773809Y-155878628D01*
X62535714Y-156354819D02*
X62535714Y-155354819D01*
X62535714Y-155354819D02*
X62916666Y-155354819D01*
X62916666Y-155354819D02*
X63011904Y-155402438D01*
X63011904Y-155402438D02*
X63059523Y-155450057D01*
X63059523Y-155450057D02*
X63107142Y-155545295D01*
X63107142Y-155545295D02*
X63107142Y-155688152D01*
X63107142Y-155688152D02*
X63059523Y-155783390D01*
X63059523Y-155783390D02*
X63011904Y-155831009D01*
X63011904Y-155831009D02*
X62916666Y-155878628D01*
X62916666Y-155878628D02*
X62535714Y-155878628D01*
X64059523Y-156354819D02*
X63488095Y-156354819D01*
X63773809Y-156354819D02*
X63773809Y-155354819D01*
X63773809Y-155354819D02*
X63678571Y-155497676D01*
X63678571Y-155497676D02*
X63583333Y-155592914D01*
X63583333Y-155592914D02*
X63488095Y-155640533D01*
X65011904Y-156354819D02*
X64440476Y-156354819D01*
X64726190Y-156354819D02*
X64726190Y-155354819D01*
X64726190Y-155354819D02*
X64630952Y-155497676D01*
X64630952Y-155497676D02*
X64535714Y-155592914D01*
X64535714Y-155592914D02*
X64440476Y-155640533D01*
X83357142Y-160104819D02*
X83023809Y-159628628D01*
X82785714Y-160104819D02*
X82785714Y-159104819D01*
X82785714Y-159104819D02*
X83166666Y-159104819D01*
X83166666Y-159104819D02*
X83261904Y-159152438D01*
X83261904Y-159152438D02*
X83309523Y-159200057D01*
X83309523Y-159200057D02*
X83357142Y-159295295D01*
X83357142Y-159295295D02*
X83357142Y-159438152D01*
X83357142Y-159438152D02*
X83309523Y-159533390D01*
X83309523Y-159533390D02*
X83261904Y-159581009D01*
X83261904Y-159581009D02*
X83166666Y-159628628D01*
X83166666Y-159628628D02*
X82785714Y-159628628D01*
X83738095Y-159200057D02*
X83785714Y-159152438D01*
X83785714Y-159152438D02*
X83880952Y-159104819D01*
X83880952Y-159104819D02*
X84119047Y-159104819D01*
X84119047Y-159104819D02*
X84214285Y-159152438D01*
X84214285Y-159152438D02*
X84261904Y-159200057D01*
X84261904Y-159200057D02*
X84309523Y-159295295D01*
X84309523Y-159295295D02*
X84309523Y-159390533D01*
X84309523Y-159390533D02*
X84261904Y-159533390D01*
X84261904Y-159533390D02*
X83690476Y-160104819D01*
X83690476Y-160104819D02*
X84309523Y-160104819D01*
X84690476Y-159200057D02*
X84738095Y-159152438D01*
X84738095Y-159152438D02*
X84833333Y-159104819D01*
X84833333Y-159104819D02*
X85071428Y-159104819D01*
X85071428Y-159104819D02*
X85166666Y-159152438D01*
X85166666Y-159152438D02*
X85214285Y-159200057D01*
X85214285Y-159200057D02*
X85261904Y-159295295D01*
X85261904Y-159295295D02*
X85261904Y-159390533D01*
X85261904Y-159390533D02*
X85214285Y-159533390D01*
X85214285Y-159533390D02*
X84642857Y-160104819D01*
X84642857Y-160104819D02*
X85261904Y-160104819D01*
X117545180Y-96035714D02*
X118545180Y-96035714D01*
X118545180Y-96035714D02*
X118545180Y-96273809D01*
X118545180Y-96273809D02*
X118497561Y-96416666D01*
X118497561Y-96416666D02*
X118402323Y-96511904D01*
X118402323Y-96511904D02*
X118307085Y-96559523D01*
X118307085Y-96559523D02*
X118116609Y-96607142D01*
X118116609Y-96607142D02*
X117973752Y-96607142D01*
X117973752Y-96607142D02*
X117783276Y-96559523D01*
X117783276Y-96559523D02*
X117688038Y-96511904D01*
X117688038Y-96511904D02*
X117592800Y-96416666D01*
X117592800Y-96416666D02*
X117545180Y-96273809D01*
X117545180Y-96273809D02*
X117545180Y-96035714D01*
X117545180Y-97559523D02*
X117545180Y-96988095D01*
X117545180Y-97273809D02*
X118545180Y-97273809D01*
X118545180Y-97273809D02*
X118402323Y-97178571D01*
X118402323Y-97178571D02*
X118307085Y-97083333D01*
X118307085Y-97083333D02*
X118259466Y-96988095D01*
X118545180Y-97892857D02*
X118545180Y-98511904D01*
X118545180Y-98511904D02*
X118164228Y-98178571D01*
X118164228Y-98178571D02*
X118164228Y-98321428D01*
X118164228Y-98321428D02*
X118116609Y-98416666D01*
X118116609Y-98416666D02*
X118068990Y-98464285D01*
X118068990Y-98464285D02*
X117973752Y-98511904D01*
X117973752Y-98511904D02*
X117735657Y-98511904D01*
X117735657Y-98511904D02*
X117640419Y-98464285D01*
X117640419Y-98464285D02*
X117592800Y-98416666D01*
X117592800Y-98416666D02*
X117545180Y-98321428D01*
X117545180Y-98321428D02*
X117545180Y-98035714D01*
X117545180Y-98035714D02*
X117592800Y-97940476D01*
X117592800Y-97940476D02*
X117640419Y-97892857D01*
X129454819Y-101892857D02*
X128978628Y-102226190D01*
X129454819Y-102464285D02*
X128454819Y-102464285D01*
X128454819Y-102464285D02*
X128454819Y-102083333D01*
X128454819Y-102083333D02*
X128502438Y-101988095D01*
X128502438Y-101988095D02*
X128550057Y-101940476D01*
X128550057Y-101940476D02*
X128645295Y-101892857D01*
X128645295Y-101892857D02*
X128788152Y-101892857D01*
X128788152Y-101892857D02*
X128883390Y-101940476D01*
X128883390Y-101940476D02*
X128931009Y-101988095D01*
X128931009Y-101988095D02*
X128978628Y-102083333D01*
X128978628Y-102083333D02*
X128978628Y-102464285D01*
X128454819Y-101559523D02*
X128454819Y-100940476D01*
X128454819Y-100940476D02*
X128835771Y-101273809D01*
X128835771Y-101273809D02*
X128835771Y-101130952D01*
X128835771Y-101130952D02*
X128883390Y-101035714D01*
X128883390Y-101035714D02*
X128931009Y-100988095D01*
X128931009Y-100988095D02*
X129026247Y-100940476D01*
X129026247Y-100940476D02*
X129264342Y-100940476D01*
X129264342Y-100940476D02*
X129359580Y-100988095D01*
X129359580Y-100988095D02*
X129407200Y-101035714D01*
X129407200Y-101035714D02*
X129454819Y-101130952D01*
X129454819Y-101130952D02*
X129454819Y-101416666D01*
X129454819Y-101416666D02*
X129407200Y-101511904D01*
X129407200Y-101511904D02*
X129359580Y-101559523D01*
X129454819Y-100464285D02*
X129454819Y-100273809D01*
X129454819Y-100273809D02*
X129407200Y-100178571D01*
X129407200Y-100178571D02*
X129359580Y-100130952D01*
X129359580Y-100130952D02*
X129216723Y-100035714D01*
X129216723Y-100035714D02*
X129026247Y-99988095D01*
X129026247Y-99988095D02*
X128645295Y-99988095D01*
X128645295Y-99988095D02*
X128550057Y-100035714D01*
X128550057Y-100035714D02*
X128502438Y-100083333D01*
X128502438Y-100083333D02*
X128454819Y-100178571D01*
X128454819Y-100178571D02*
X128454819Y-100369047D01*
X128454819Y-100369047D02*
X128502438Y-100464285D01*
X128502438Y-100464285D02*
X128550057Y-100511904D01*
X128550057Y-100511904D02*
X128645295Y-100559523D01*
X128645295Y-100559523D02*
X128883390Y-100559523D01*
X128883390Y-100559523D02*
X128978628Y-100511904D01*
X128978628Y-100511904D02*
X129026247Y-100464285D01*
X129026247Y-100464285D02*
X129073866Y-100369047D01*
X129073866Y-100369047D02*
X129073866Y-100178571D01*
X129073866Y-100178571D02*
X129026247Y-100083333D01*
X129026247Y-100083333D02*
X128978628Y-100035714D01*
X128978628Y-100035714D02*
X128883390Y-99988095D01*
X129850328Y-134757042D02*
X129945566Y-134804661D01*
X129945566Y-134804661D02*
X130040804Y-134899900D01*
X130040804Y-134899900D02*
X130183661Y-135042757D01*
X130183661Y-135042757D02*
X130278899Y-135090376D01*
X130278899Y-135090376D02*
X130374137Y-135090376D01*
X130326518Y-134852280D02*
X130421756Y-134899900D01*
X130421756Y-134899900D02*
X130516994Y-134995138D01*
X130516994Y-134995138D02*
X130564613Y-135185614D01*
X130564613Y-135185614D02*
X130564613Y-135518947D01*
X130564613Y-135518947D02*
X130516994Y-135709423D01*
X130516994Y-135709423D02*
X130421756Y-135804661D01*
X130421756Y-135804661D02*
X130326518Y-135852280D01*
X130326518Y-135852280D02*
X130136042Y-135852280D01*
X130136042Y-135852280D02*
X130040804Y-135804661D01*
X130040804Y-135804661D02*
X129945566Y-135709423D01*
X129945566Y-135709423D02*
X129897947Y-135518947D01*
X129897947Y-135518947D02*
X129897947Y-135185614D01*
X129897947Y-135185614D02*
X129945566Y-134995138D01*
X129945566Y-134995138D02*
X130040804Y-134899900D01*
X130040804Y-134899900D02*
X130136042Y-134852280D01*
X130136042Y-134852280D02*
X130326518Y-134852280D01*
X128945566Y-134852280D02*
X129516994Y-134852280D01*
X129231280Y-134852280D02*
X129231280Y-135852280D01*
X129231280Y-135852280D02*
X129326518Y-135709423D01*
X129326518Y-135709423D02*
X129421756Y-135614185D01*
X129421756Y-135614185D02*
X129516994Y-135566566D01*
X128040804Y-135852280D02*
X128516994Y-135852280D01*
X128516994Y-135852280D02*
X128564613Y-135376090D01*
X128564613Y-135376090D02*
X128516994Y-135423709D01*
X128516994Y-135423709D02*
X128421756Y-135471328D01*
X128421756Y-135471328D02*
X128183661Y-135471328D01*
X128183661Y-135471328D02*
X128088423Y-135423709D01*
X128088423Y-135423709D02*
X128040804Y-135376090D01*
X128040804Y-135376090D02*
X127993185Y-135280852D01*
X127993185Y-135280852D02*
X127993185Y-135042757D01*
X127993185Y-135042757D02*
X128040804Y-134947519D01*
X128040804Y-134947519D02*
X128088423Y-134899900D01*
X128088423Y-134899900D02*
X128183661Y-134852280D01*
X128183661Y-134852280D02*
X128421756Y-134852280D01*
X128421756Y-134852280D02*
X128516994Y-134899900D01*
X128516994Y-134899900D02*
X128564613Y-134947519D01*
X122857142Y-159624819D02*
X122523809Y-159148628D01*
X122285714Y-159624819D02*
X122285714Y-158624819D01*
X122285714Y-158624819D02*
X122666666Y-158624819D01*
X122666666Y-158624819D02*
X122761904Y-158672438D01*
X122761904Y-158672438D02*
X122809523Y-158720057D01*
X122809523Y-158720057D02*
X122857142Y-158815295D01*
X122857142Y-158815295D02*
X122857142Y-158958152D01*
X122857142Y-158958152D02*
X122809523Y-159053390D01*
X122809523Y-159053390D02*
X122761904Y-159101009D01*
X122761904Y-159101009D02*
X122666666Y-159148628D01*
X122666666Y-159148628D02*
X122285714Y-159148628D01*
X123714285Y-158958152D02*
X123714285Y-159624819D01*
X123476190Y-158577200D02*
X123238095Y-159291485D01*
X123238095Y-159291485D02*
X123857142Y-159291485D01*
X124666666Y-158624819D02*
X124476190Y-158624819D01*
X124476190Y-158624819D02*
X124380952Y-158672438D01*
X124380952Y-158672438D02*
X124333333Y-158720057D01*
X124333333Y-158720057D02*
X124238095Y-158862914D01*
X124238095Y-158862914D02*
X124190476Y-159053390D01*
X124190476Y-159053390D02*
X124190476Y-159434342D01*
X124190476Y-159434342D02*
X124238095Y-159529580D01*
X124238095Y-159529580D02*
X124285714Y-159577200D01*
X124285714Y-159577200D02*
X124380952Y-159624819D01*
X124380952Y-159624819D02*
X124571428Y-159624819D01*
X124571428Y-159624819D02*
X124666666Y-159577200D01*
X124666666Y-159577200D02*
X124714285Y-159529580D01*
X124714285Y-159529580D02*
X124761904Y-159434342D01*
X124761904Y-159434342D02*
X124761904Y-159196247D01*
X124761904Y-159196247D02*
X124714285Y-159101009D01*
X124714285Y-159101009D02*
X124666666Y-159053390D01*
X124666666Y-159053390D02*
X124571428Y-159005771D01*
X124571428Y-159005771D02*
X124380952Y-159005771D01*
X124380952Y-159005771D02*
X124285714Y-159053390D01*
X124285714Y-159053390D02*
X124238095Y-159101009D01*
X124238095Y-159101009D02*
X124190476Y-159196247D01*
X117545180Y-136035714D02*
X118545180Y-136035714D01*
X118545180Y-136035714D02*
X118545180Y-136273809D01*
X118545180Y-136273809D02*
X118497561Y-136416666D01*
X118497561Y-136416666D02*
X118402323Y-136511904D01*
X118402323Y-136511904D02*
X118307085Y-136559523D01*
X118307085Y-136559523D02*
X118116609Y-136607142D01*
X118116609Y-136607142D02*
X117973752Y-136607142D01*
X117973752Y-136607142D02*
X117783276Y-136559523D01*
X117783276Y-136559523D02*
X117688038Y-136511904D01*
X117688038Y-136511904D02*
X117592800Y-136416666D01*
X117592800Y-136416666D02*
X117545180Y-136273809D01*
X117545180Y-136273809D02*
X117545180Y-136035714D01*
X117545180Y-137559523D02*
X117545180Y-136988095D01*
X117545180Y-137273809D02*
X118545180Y-137273809D01*
X118545180Y-137273809D02*
X118402323Y-137178571D01*
X118402323Y-137178571D02*
X118307085Y-137083333D01*
X118307085Y-137083333D02*
X118259466Y-136988095D01*
X118545180Y-138464285D02*
X118545180Y-137988095D01*
X118545180Y-137988095D02*
X118068990Y-137940476D01*
X118068990Y-137940476D02*
X118116609Y-137988095D01*
X118116609Y-137988095D02*
X118164228Y-138083333D01*
X118164228Y-138083333D02*
X118164228Y-138321428D01*
X118164228Y-138321428D02*
X118116609Y-138416666D01*
X118116609Y-138416666D02*
X118068990Y-138464285D01*
X118068990Y-138464285D02*
X117973752Y-138511904D01*
X117973752Y-138511904D02*
X117735657Y-138511904D01*
X117735657Y-138511904D02*
X117640419Y-138464285D01*
X117640419Y-138464285D02*
X117592800Y-138416666D01*
X117592800Y-138416666D02*
X117545180Y-138321428D01*
X117545180Y-138321428D02*
X117545180Y-138083333D01*
X117545180Y-138083333D02*
X117592800Y-137988095D01*
X117592800Y-137988095D02*
X117640419Y-137940476D01*
X69515369Y-100503116D02*
X69039178Y-100836449D01*
X69515369Y-101074544D02*
X68515369Y-101074544D01*
X68515369Y-101074544D02*
X68515369Y-100693592D01*
X68515369Y-100693592D02*
X68562988Y-100598354D01*
X68562988Y-100598354D02*
X68610607Y-100550735D01*
X68610607Y-100550735D02*
X68705845Y-100503116D01*
X68705845Y-100503116D02*
X68848702Y-100503116D01*
X68848702Y-100503116D02*
X68943940Y-100550735D01*
X68943940Y-100550735D02*
X68991559Y-100598354D01*
X68991559Y-100598354D02*
X69039178Y-100693592D01*
X69039178Y-100693592D02*
X69039178Y-101074544D01*
X68515369Y-100169782D02*
X68515369Y-99550735D01*
X68515369Y-99550735D02*
X68896321Y-99884068D01*
X68896321Y-99884068D02*
X68896321Y-99741211D01*
X68896321Y-99741211D02*
X68943940Y-99645973D01*
X68943940Y-99645973D02*
X68991559Y-99598354D01*
X68991559Y-99598354D02*
X69086797Y-99550735D01*
X69086797Y-99550735D02*
X69324892Y-99550735D01*
X69324892Y-99550735D02*
X69420130Y-99598354D01*
X69420130Y-99598354D02*
X69467750Y-99645973D01*
X69467750Y-99645973D02*
X69515369Y-99741211D01*
X69515369Y-99741211D02*
X69515369Y-100026925D01*
X69515369Y-100026925D02*
X69467750Y-100122163D01*
X69467750Y-100122163D02*
X69420130Y-100169782D01*
X64854819Y-86642857D02*
X64378628Y-86976190D01*
X64854819Y-87214285D02*
X63854819Y-87214285D01*
X63854819Y-87214285D02*
X63854819Y-86833333D01*
X63854819Y-86833333D02*
X63902438Y-86738095D01*
X63902438Y-86738095D02*
X63950057Y-86690476D01*
X63950057Y-86690476D02*
X64045295Y-86642857D01*
X64045295Y-86642857D02*
X64188152Y-86642857D01*
X64188152Y-86642857D02*
X64283390Y-86690476D01*
X64283390Y-86690476D02*
X64331009Y-86738095D01*
X64331009Y-86738095D02*
X64378628Y-86833333D01*
X64378628Y-86833333D02*
X64378628Y-87214285D01*
X63854819Y-85738095D02*
X63854819Y-86214285D01*
X63854819Y-86214285D02*
X64331009Y-86261904D01*
X64331009Y-86261904D02*
X64283390Y-86214285D01*
X64283390Y-86214285D02*
X64235771Y-86119047D01*
X64235771Y-86119047D02*
X64235771Y-85880952D01*
X64235771Y-85880952D02*
X64283390Y-85785714D01*
X64283390Y-85785714D02*
X64331009Y-85738095D01*
X64331009Y-85738095D02*
X64426247Y-85690476D01*
X64426247Y-85690476D02*
X64664342Y-85690476D01*
X64664342Y-85690476D02*
X64759580Y-85738095D01*
X64759580Y-85738095D02*
X64807200Y-85785714D01*
X64807200Y-85785714D02*
X64854819Y-85880952D01*
X64854819Y-85880952D02*
X64854819Y-86119047D01*
X64854819Y-86119047D02*
X64807200Y-86214285D01*
X64807200Y-86214285D02*
X64759580Y-86261904D01*
X63854819Y-85071428D02*
X63854819Y-84976190D01*
X63854819Y-84976190D02*
X63902438Y-84880952D01*
X63902438Y-84880952D02*
X63950057Y-84833333D01*
X63950057Y-84833333D02*
X64045295Y-84785714D01*
X64045295Y-84785714D02*
X64235771Y-84738095D01*
X64235771Y-84738095D02*
X64473866Y-84738095D01*
X64473866Y-84738095D02*
X64664342Y-84785714D01*
X64664342Y-84785714D02*
X64759580Y-84833333D01*
X64759580Y-84833333D02*
X64807200Y-84880952D01*
X64807200Y-84880952D02*
X64854819Y-84976190D01*
X64854819Y-84976190D02*
X64854819Y-85071428D01*
X64854819Y-85071428D02*
X64807200Y-85166666D01*
X64807200Y-85166666D02*
X64759580Y-85214285D01*
X64759580Y-85214285D02*
X64664342Y-85261904D01*
X64664342Y-85261904D02*
X64473866Y-85309523D01*
X64473866Y-85309523D02*
X64235771Y-85309523D01*
X64235771Y-85309523D02*
X64045295Y-85261904D01*
X64045295Y-85261904D02*
X63950057Y-85214285D01*
X63950057Y-85214285D02*
X63902438Y-85166666D01*
X63902438Y-85166666D02*
X63854819Y-85071428D01*
X102857142Y-100188069D02*
X102523809Y-99711878D01*
X102285714Y-100188069D02*
X102285714Y-99188069D01*
X102285714Y-99188069D02*
X102666666Y-99188069D01*
X102666666Y-99188069D02*
X102761904Y-99235688D01*
X102761904Y-99235688D02*
X102809523Y-99283307D01*
X102809523Y-99283307D02*
X102857142Y-99378545D01*
X102857142Y-99378545D02*
X102857142Y-99521402D01*
X102857142Y-99521402D02*
X102809523Y-99616640D01*
X102809523Y-99616640D02*
X102761904Y-99664259D01*
X102761904Y-99664259D02*
X102666666Y-99711878D01*
X102666666Y-99711878D02*
X102285714Y-99711878D01*
X103238095Y-99283307D02*
X103285714Y-99235688D01*
X103285714Y-99235688D02*
X103380952Y-99188069D01*
X103380952Y-99188069D02*
X103619047Y-99188069D01*
X103619047Y-99188069D02*
X103714285Y-99235688D01*
X103714285Y-99235688D02*
X103761904Y-99283307D01*
X103761904Y-99283307D02*
X103809523Y-99378545D01*
X103809523Y-99378545D02*
X103809523Y-99473783D01*
X103809523Y-99473783D02*
X103761904Y-99616640D01*
X103761904Y-99616640D02*
X103190476Y-100188069D01*
X103190476Y-100188069D02*
X103809523Y-100188069D01*
X104714285Y-99188069D02*
X104238095Y-99188069D01*
X104238095Y-99188069D02*
X104190476Y-99664259D01*
X104190476Y-99664259D02*
X104238095Y-99616640D01*
X104238095Y-99616640D02*
X104333333Y-99569021D01*
X104333333Y-99569021D02*
X104571428Y-99569021D01*
X104571428Y-99569021D02*
X104666666Y-99616640D01*
X104666666Y-99616640D02*
X104714285Y-99664259D01*
X104714285Y-99664259D02*
X104761904Y-99759497D01*
X104761904Y-99759497D02*
X104761904Y-99997592D01*
X104761904Y-99997592D02*
X104714285Y-100092830D01*
X104714285Y-100092830D02*
X104666666Y-100140450D01*
X104666666Y-100140450D02*
X104571428Y-100188069D01*
X104571428Y-100188069D02*
X104333333Y-100188069D01*
X104333333Y-100188069D02*
X104238095Y-100140450D01*
X104238095Y-100140450D02*
X104190476Y-100092830D01*
X69671569Y-120773116D02*
X69195378Y-121106449D01*
X69671569Y-121344544D02*
X68671569Y-121344544D01*
X68671569Y-121344544D02*
X68671569Y-120963592D01*
X68671569Y-120963592D02*
X68719188Y-120868354D01*
X68719188Y-120868354D02*
X68766807Y-120820735D01*
X68766807Y-120820735D02*
X68862045Y-120773116D01*
X68862045Y-120773116D02*
X69004902Y-120773116D01*
X69004902Y-120773116D02*
X69100140Y-120820735D01*
X69100140Y-120820735D02*
X69147759Y-120868354D01*
X69147759Y-120868354D02*
X69195378Y-120963592D01*
X69195378Y-120963592D02*
X69195378Y-121344544D01*
X68671569Y-119915973D02*
X68671569Y-120106449D01*
X68671569Y-120106449D02*
X68719188Y-120201687D01*
X68719188Y-120201687D02*
X68766807Y-120249306D01*
X68766807Y-120249306D02*
X68909664Y-120344544D01*
X68909664Y-120344544D02*
X69100140Y-120392163D01*
X69100140Y-120392163D02*
X69481092Y-120392163D01*
X69481092Y-120392163D02*
X69576330Y-120344544D01*
X69576330Y-120344544D02*
X69623950Y-120296925D01*
X69623950Y-120296925D02*
X69671569Y-120201687D01*
X69671569Y-120201687D02*
X69671569Y-120011211D01*
X69671569Y-120011211D02*
X69623950Y-119915973D01*
X69623950Y-119915973D02*
X69576330Y-119868354D01*
X69576330Y-119868354D02*
X69481092Y-119820735D01*
X69481092Y-119820735D02*
X69242997Y-119820735D01*
X69242997Y-119820735D02*
X69147759Y-119868354D01*
X69147759Y-119868354D02*
X69100140Y-119915973D01*
X69100140Y-119915973D02*
X69052521Y-120011211D01*
X69052521Y-120011211D02*
X69052521Y-120201687D01*
X69052521Y-120201687D02*
X69100140Y-120296925D01*
X69100140Y-120296925D02*
X69147759Y-120344544D01*
X69147759Y-120344544D02*
X69242997Y-120392163D01*
X66357142Y-87354819D02*
X66023809Y-86878628D01*
X65785714Y-87354819D02*
X65785714Y-86354819D01*
X65785714Y-86354819D02*
X66166666Y-86354819D01*
X66166666Y-86354819D02*
X66261904Y-86402438D01*
X66261904Y-86402438D02*
X66309523Y-86450057D01*
X66309523Y-86450057D02*
X66357142Y-86545295D01*
X66357142Y-86545295D02*
X66357142Y-86688152D01*
X66357142Y-86688152D02*
X66309523Y-86783390D01*
X66309523Y-86783390D02*
X66261904Y-86831009D01*
X66261904Y-86831009D02*
X66166666Y-86878628D01*
X66166666Y-86878628D02*
X65785714Y-86878628D01*
X67214285Y-86688152D02*
X67214285Y-87354819D01*
X66976190Y-86307200D02*
X66738095Y-87021485D01*
X66738095Y-87021485D02*
X67357142Y-87021485D01*
X67785714Y-87354819D02*
X67976190Y-87354819D01*
X67976190Y-87354819D02*
X68071428Y-87307200D01*
X68071428Y-87307200D02*
X68119047Y-87259580D01*
X68119047Y-87259580D02*
X68214285Y-87116723D01*
X68214285Y-87116723D02*
X68261904Y-86926247D01*
X68261904Y-86926247D02*
X68261904Y-86545295D01*
X68261904Y-86545295D02*
X68214285Y-86450057D01*
X68214285Y-86450057D02*
X68166666Y-86402438D01*
X68166666Y-86402438D02*
X68071428Y-86354819D01*
X68071428Y-86354819D02*
X67880952Y-86354819D01*
X67880952Y-86354819D02*
X67785714Y-86402438D01*
X67785714Y-86402438D02*
X67738095Y-86450057D01*
X67738095Y-86450057D02*
X67690476Y-86545295D01*
X67690476Y-86545295D02*
X67690476Y-86783390D01*
X67690476Y-86783390D02*
X67738095Y-86878628D01*
X67738095Y-86878628D02*
X67785714Y-86926247D01*
X67785714Y-86926247D02*
X67880952Y-86973866D01*
X67880952Y-86973866D02*
X68071428Y-86973866D01*
X68071428Y-86973866D02*
X68166666Y-86926247D01*
X68166666Y-86926247D02*
X68214285Y-86878628D01*
X68214285Y-86878628D02*
X68261904Y-86783390D01*
X63393883Y-99941269D02*
X63060550Y-99465078D01*
X62822455Y-99941269D02*
X62822455Y-98941269D01*
X62822455Y-98941269D02*
X63203407Y-98941269D01*
X63203407Y-98941269D02*
X63298645Y-98988888D01*
X63298645Y-98988888D02*
X63346264Y-99036507D01*
X63346264Y-99036507D02*
X63393883Y-99131745D01*
X63393883Y-99131745D02*
X63393883Y-99274602D01*
X63393883Y-99274602D02*
X63346264Y-99369840D01*
X63346264Y-99369840D02*
X63298645Y-99417459D01*
X63298645Y-99417459D02*
X63203407Y-99465078D01*
X63203407Y-99465078D02*
X62822455Y-99465078D01*
X64346264Y-99941269D02*
X63774836Y-99941269D01*
X64060550Y-99941269D02*
X64060550Y-98941269D01*
X64060550Y-98941269D02*
X63965312Y-99084126D01*
X63965312Y-99084126D02*
X63870074Y-99179364D01*
X63870074Y-99179364D02*
X63774836Y-99226983D01*
X122857142Y-119354819D02*
X122523809Y-118878628D01*
X122285714Y-119354819D02*
X122285714Y-118354819D01*
X122285714Y-118354819D02*
X122666666Y-118354819D01*
X122666666Y-118354819D02*
X122761904Y-118402438D01*
X122761904Y-118402438D02*
X122809523Y-118450057D01*
X122809523Y-118450057D02*
X122857142Y-118545295D01*
X122857142Y-118545295D02*
X122857142Y-118688152D01*
X122857142Y-118688152D02*
X122809523Y-118783390D01*
X122809523Y-118783390D02*
X122761904Y-118831009D01*
X122761904Y-118831009D02*
X122666666Y-118878628D01*
X122666666Y-118878628D02*
X122285714Y-118878628D01*
X123714285Y-118688152D02*
X123714285Y-119354819D01*
X123476190Y-118307200D02*
X123238095Y-119021485D01*
X123238095Y-119021485D02*
X123857142Y-119021485D01*
X124428571Y-118354819D02*
X124523809Y-118354819D01*
X124523809Y-118354819D02*
X124619047Y-118402438D01*
X124619047Y-118402438D02*
X124666666Y-118450057D01*
X124666666Y-118450057D02*
X124714285Y-118545295D01*
X124714285Y-118545295D02*
X124761904Y-118735771D01*
X124761904Y-118735771D02*
X124761904Y-118973866D01*
X124761904Y-118973866D02*
X124714285Y-119164342D01*
X124714285Y-119164342D02*
X124666666Y-119259580D01*
X124666666Y-119259580D02*
X124619047Y-119307200D01*
X124619047Y-119307200D02*
X124523809Y-119354819D01*
X124523809Y-119354819D02*
X124428571Y-119354819D01*
X124428571Y-119354819D02*
X124333333Y-119307200D01*
X124333333Y-119307200D02*
X124285714Y-119259580D01*
X124285714Y-119259580D02*
X124238095Y-119164342D01*
X124238095Y-119164342D02*
X124190476Y-118973866D01*
X124190476Y-118973866D02*
X124190476Y-118735771D01*
X124190476Y-118735771D02*
X124238095Y-118545295D01*
X124238095Y-118545295D02*
X124285714Y-118450057D01*
X124285714Y-118450057D02*
X124333333Y-118402438D01*
X124333333Y-118402438D02*
X124428571Y-118354819D01*
X102857142Y-116624819D02*
X102523809Y-116148628D01*
X102285714Y-116624819D02*
X102285714Y-115624819D01*
X102285714Y-115624819D02*
X102666666Y-115624819D01*
X102666666Y-115624819D02*
X102761904Y-115672438D01*
X102761904Y-115672438D02*
X102809523Y-115720057D01*
X102809523Y-115720057D02*
X102857142Y-115815295D01*
X102857142Y-115815295D02*
X102857142Y-115958152D01*
X102857142Y-115958152D02*
X102809523Y-116053390D01*
X102809523Y-116053390D02*
X102761904Y-116101009D01*
X102761904Y-116101009D02*
X102666666Y-116148628D01*
X102666666Y-116148628D02*
X102285714Y-116148628D01*
X103238095Y-115720057D02*
X103285714Y-115672438D01*
X103285714Y-115672438D02*
X103380952Y-115624819D01*
X103380952Y-115624819D02*
X103619047Y-115624819D01*
X103619047Y-115624819D02*
X103714285Y-115672438D01*
X103714285Y-115672438D02*
X103761904Y-115720057D01*
X103761904Y-115720057D02*
X103809523Y-115815295D01*
X103809523Y-115815295D02*
X103809523Y-115910533D01*
X103809523Y-115910533D02*
X103761904Y-116053390D01*
X103761904Y-116053390D02*
X103190476Y-116624819D01*
X103190476Y-116624819D02*
X103809523Y-116624819D01*
X104285714Y-116624819D02*
X104476190Y-116624819D01*
X104476190Y-116624819D02*
X104571428Y-116577200D01*
X104571428Y-116577200D02*
X104619047Y-116529580D01*
X104619047Y-116529580D02*
X104714285Y-116386723D01*
X104714285Y-116386723D02*
X104761904Y-116196247D01*
X104761904Y-116196247D02*
X104761904Y-115815295D01*
X104761904Y-115815295D02*
X104714285Y-115720057D01*
X104714285Y-115720057D02*
X104666666Y-115672438D01*
X104666666Y-115672438D02*
X104571428Y-115624819D01*
X104571428Y-115624819D02*
X104380952Y-115624819D01*
X104380952Y-115624819D02*
X104285714Y-115672438D01*
X104285714Y-115672438D02*
X104238095Y-115720057D01*
X104238095Y-115720057D02*
X104190476Y-115815295D01*
X104190476Y-115815295D02*
X104190476Y-116053390D01*
X104190476Y-116053390D02*
X104238095Y-116148628D01*
X104238095Y-116148628D02*
X104285714Y-116196247D01*
X104285714Y-116196247D02*
X104380952Y-116243866D01*
X104380952Y-116243866D02*
X104571428Y-116243866D01*
X104571428Y-116243866D02*
X104666666Y-116196247D01*
X104666666Y-116196247D02*
X104714285Y-116148628D01*
X104714285Y-116148628D02*
X104761904Y-116053390D01*
X122857142Y-100354819D02*
X122523809Y-99878628D01*
X122285714Y-100354819D02*
X122285714Y-99354819D01*
X122285714Y-99354819D02*
X122666666Y-99354819D01*
X122666666Y-99354819D02*
X122761904Y-99402438D01*
X122761904Y-99402438D02*
X122809523Y-99450057D01*
X122809523Y-99450057D02*
X122857142Y-99545295D01*
X122857142Y-99545295D02*
X122857142Y-99688152D01*
X122857142Y-99688152D02*
X122809523Y-99783390D01*
X122809523Y-99783390D02*
X122761904Y-99831009D01*
X122761904Y-99831009D02*
X122666666Y-99878628D01*
X122666666Y-99878628D02*
X122285714Y-99878628D01*
X123190476Y-99354819D02*
X123809523Y-99354819D01*
X123809523Y-99354819D02*
X123476190Y-99735771D01*
X123476190Y-99735771D02*
X123619047Y-99735771D01*
X123619047Y-99735771D02*
X123714285Y-99783390D01*
X123714285Y-99783390D02*
X123761904Y-99831009D01*
X123761904Y-99831009D02*
X123809523Y-99926247D01*
X123809523Y-99926247D02*
X123809523Y-100164342D01*
X123809523Y-100164342D02*
X123761904Y-100259580D01*
X123761904Y-100259580D02*
X123714285Y-100307200D01*
X123714285Y-100307200D02*
X123619047Y-100354819D01*
X123619047Y-100354819D02*
X123333333Y-100354819D01*
X123333333Y-100354819D02*
X123238095Y-100307200D01*
X123238095Y-100307200D02*
X123190476Y-100259580D01*
X124142857Y-99354819D02*
X124809523Y-99354819D01*
X124809523Y-99354819D02*
X124380952Y-100354819D01*
X122857142Y-96854819D02*
X122523809Y-96378628D01*
X122285714Y-96854819D02*
X122285714Y-95854819D01*
X122285714Y-95854819D02*
X122666666Y-95854819D01*
X122666666Y-95854819D02*
X122761904Y-95902438D01*
X122761904Y-95902438D02*
X122809523Y-95950057D01*
X122809523Y-95950057D02*
X122857142Y-96045295D01*
X122857142Y-96045295D02*
X122857142Y-96188152D01*
X122857142Y-96188152D02*
X122809523Y-96283390D01*
X122809523Y-96283390D02*
X122761904Y-96331009D01*
X122761904Y-96331009D02*
X122666666Y-96378628D01*
X122666666Y-96378628D02*
X122285714Y-96378628D01*
X123190476Y-95854819D02*
X123809523Y-95854819D01*
X123809523Y-95854819D02*
X123476190Y-96235771D01*
X123476190Y-96235771D02*
X123619047Y-96235771D01*
X123619047Y-96235771D02*
X123714285Y-96283390D01*
X123714285Y-96283390D02*
X123761904Y-96331009D01*
X123761904Y-96331009D02*
X123809523Y-96426247D01*
X123809523Y-96426247D02*
X123809523Y-96664342D01*
X123809523Y-96664342D02*
X123761904Y-96759580D01*
X123761904Y-96759580D02*
X123714285Y-96807200D01*
X123714285Y-96807200D02*
X123619047Y-96854819D01*
X123619047Y-96854819D02*
X123333333Y-96854819D01*
X123333333Y-96854819D02*
X123238095Y-96807200D01*
X123238095Y-96807200D02*
X123190476Y-96759580D01*
X124380952Y-96283390D02*
X124285714Y-96235771D01*
X124285714Y-96235771D02*
X124238095Y-96188152D01*
X124238095Y-96188152D02*
X124190476Y-96092914D01*
X124190476Y-96092914D02*
X124190476Y-96045295D01*
X124190476Y-96045295D02*
X124238095Y-95950057D01*
X124238095Y-95950057D02*
X124285714Y-95902438D01*
X124285714Y-95902438D02*
X124380952Y-95854819D01*
X124380952Y-95854819D02*
X124571428Y-95854819D01*
X124571428Y-95854819D02*
X124666666Y-95902438D01*
X124666666Y-95902438D02*
X124714285Y-95950057D01*
X124714285Y-95950057D02*
X124761904Y-96045295D01*
X124761904Y-96045295D02*
X124761904Y-96092914D01*
X124761904Y-96092914D02*
X124714285Y-96188152D01*
X124714285Y-96188152D02*
X124666666Y-96235771D01*
X124666666Y-96235771D02*
X124571428Y-96283390D01*
X124571428Y-96283390D02*
X124380952Y-96283390D01*
X124380952Y-96283390D02*
X124285714Y-96331009D01*
X124285714Y-96331009D02*
X124238095Y-96378628D01*
X124238095Y-96378628D02*
X124190476Y-96473866D01*
X124190476Y-96473866D02*
X124190476Y-96664342D01*
X124190476Y-96664342D02*
X124238095Y-96759580D01*
X124238095Y-96759580D02*
X124285714Y-96807200D01*
X124285714Y-96807200D02*
X124380952Y-96854819D01*
X124380952Y-96854819D02*
X124571428Y-96854819D01*
X124571428Y-96854819D02*
X124666666Y-96807200D01*
X124666666Y-96807200D02*
X124714285Y-96759580D01*
X124714285Y-96759580D02*
X124761904Y-96664342D01*
X124761904Y-96664342D02*
X124761904Y-96473866D01*
X124761904Y-96473866D02*
X124714285Y-96378628D01*
X124714285Y-96378628D02*
X124666666Y-96331009D01*
X124666666Y-96331009D02*
X124571428Y-96283390D01*
X102857142Y-96688069D02*
X102523809Y-96211878D01*
X102285714Y-96688069D02*
X102285714Y-95688069D01*
X102285714Y-95688069D02*
X102666666Y-95688069D01*
X102666666Y-95688069D02*
X102761904Y-95735688D01*
X102761904Y-95735688D02*
X102809523Y-95783307D01*
X102809523Y-95783307D02*
X102857142Y-95878545D01*
X102857142Y-95878545D02*
X102857142Y-96021402D01*
X102857142Y-96021402D02*
X102809523Y-96116640D01*
X102809523Y-96116640D02*
X102761904Y-96164259D01*
X102761904Y-96164259D02*
X102666666Y-96211878D01*
X102666666Y-96211878D02*
X102285714Y-96211878D01*
X103238095Y-95783307D02*
X103285714Y-95735688D01*
X103285714Y-95735688D02*
X103380952Y-95688069D01*
X103380952Y-95688069D02*
X103619047Y-95688069D01*
X103619047Y-95688069D02*
X103714285Y-95735688D01*
X103714285Y-95735688D02*
X103761904Y-95783307D01*
X103761904Y-95783307D02*
X103809523Y-95878545D01*
X103809523Y-95878545D02*
X103809523Y-95973783D01*
X103809523Y-95973783D02*
X103761904Y-96116640D01*
X103761904Y-96116640D02*
X103190476Y-96688069D01*
X103190476Y-96688069D02*
X103809523Y-96688069D01*
X104666666Y-95688069D02*
X104476190Y-95688069D01*
X104476190Y-95688069D02*
X104380952Y-95735688D01*
X104380952Y-95735688D02*
X104333333Y-95783307D01*
X104333333Y-95783307D02*
X104238095Y-95926164D01*
X104238095Y-95926164D02*
X104190476Y-96116640D01*
X104190476Y-96116640D02*
X104190476Y-96497592D01*
X104190476Y-96497592D02*
X104238095Y-96592830D01*
X104238095Y-96592830D02*
X104285714Y-96640450D01*
X104285714Y-96640450D02*
X104380952Y-96688069D01*
X104380952Y-96688069D02*
X104571428Y-96688069D01*
X104571428Y-96688069D02*
X104666666Y-96640450D01*
X104666666Y-96640450D02*
X104714285Y-96592830D01*
X104714285Y-96592830D02*
X104761904Y-96497592D01*
X104761904Y-96497592D02*
X104761904Y-96259497D01*
X104761904Y-96259497D02*
X104714285Y-96164259D01*
X104714285Y-96164259D02*
X104666666Y-96116640D01*
X104666666Y-96116640D02*
X104571428Y-96069021D01*
X104571428Y-96069021D02*
X104380952Y-96069021D01*
X104380952Y-96069021D02*
X104285714Y-96116640D01*
X104285714Y-96116640D02*
X104238095Y-96164259D01*
X104238095Y-96164259D02*
X104190476Y-96259497D01*
X97545180Y-116035714D02*
X98545180Y-116035714D01*
X98545180Y-116035714D02*
X98545180Y-116273809D01*
X98545180Y-116273809D02*
X98497561Y-116416666D01*
X98497561Y-116416666D02*
X98402323Y-116511904D01*
X98402323Y-116511904D02*
X98307085Y-116559523D01*
X98307085Y-116559523D02*
X98116609Y-116607142D01*
X98116609Y-116607142D02*
X97973752Y-116607142D01*
X97973752Y-116607142D02*
X97783276Y-116559523D01*
X97783276Y-116559523D02*
X97688038Y-116511904D01*
X97688038Y-116511904D02*
X97592800Y-116416666D01*
X97592800Y-116416666D02*
X97545180Y-116273809D01*
X97545180Y-116273809D02*
X97545180Y-116035714D01*
X97545180Y-117559523D02*
X97545180Y-116988095D01*
X97545180Y-117273809D02*
X98545180Y-117273809D01*
X98545180Y-117273809D02*
X98402323Y-117178571D01*
X98402323Y-117178571D02*
X98307085Y-117083333D01*
X98307085Y-117083333D02*
X98259466Y-116988095D01*
X98545180Y-118178571D02*
X98545180Y-118273809D01*
X98545180Y-118273809D02*
X98497561Y-118369047D01*
X98497561Y-118369047D02*
X98449942Y-118416666D01*
X98449942Y-118416666D02*
X98354704Y-118464285D01*
X98354704Y-118464285D02*
X98164228Y-118511904D01*
X98164228Y-118511904D02*
X97926133Y-118511904D01*
X97926133Y-118511904D02*
X97735657Y-118464285D01*
X97735657Y-118464285D02*
X97640419Y-118416666D01*
X97640419Y-118416666D02*
X97592800Y-118369047D01*
X97592800Y-118369047D02*
X97545180Y-118273809D01*
X97545180Y-118273809D02*
X97545180Y-118178571D01*
X97545180Y-118178571D02*
X97592800Y-118083333D01*
X97592800Y-118083333D02*
X97640419Y-118035714D01*
X97640419Y-118035714D02*
X97735657Y-117988095D01*
X97735657Y-117988095D02*
X97926133Y-117940476D01*
X97926133Y-117940476D02*
X98164228Y-117940476D01*
X98164228Y-117940476D02*
X98354704Y-117988095D01*
X98354704Y-117988095D02*
X98449942Y-118035714D01*
X98449942Y-118035714D02*
X98497561Y-118083333D01*
X98497561Y-118083333D02*
X98545180Y-118178571D01*
X82972142Y-96989819D02*
X82638809Y-96513628D01*
X82400714Y-96989819D02*
X82400714Y-95989819D01*
X82400714Y-95989819D02*
X82781666Y-95989819D01*
X82781666Y-95989819D02*
X82876904Y-96037438D01*
X82876904Y-96037438D02*
X82924523Y-96085057D01*
X82924523Y-96085057D02*
X82972142Y-96180295D01*
X82972142Y-96180295D02*
X82972142Y-96323152D01*
X82972142Y-96323152D02*
X82924523Y-96418390D01*
X82924523Y-96418390D02*
X82876904Y-96466009D01*
X82876904Y-96466009D02*
X82781666Y-96513628D01*
X82781666Y-96513628D02*
X82400714Y-96513628D01*
X83924523Y-96989819D02*
X83353095Y-96989819D01*
X83638809Y-96989819D02*
X83638809Y-95989819D01*
X83638809Y-95989819D02*
X83543571Y-96132676D01*
X83543571Y-96132676D02*
X83448333Y-96227914D01*
X83448333Y-96227914D02*
X83353095Y-96275533D01*
X84781666Y-96323152D02*
X84781666Y-96989819D01*
X84543571Y-95942200D02*
X84305476Y-96656485D01*
X84305476Y-96656485D02*
X84924523Y-96656485D01*
X69371569Y-140896666D02*
X68895378Y-141229999D01*
X69371569Y-141468094D02*
X68371569Y-141468094D01*
X68371569Y-141468094D02*
X68371569Y-141087142D01*
X68371569Y-141087142D02*
X68419188Y-140991904D01*
X68419188Y-140991904D02*
X68466807Y-140944285D01*
X68466807Y-140944285D02*
X68562045Y-140896666D01*
X68562045Y-140896666D02*
X68704902Y-140896666D01*
X68704902Y-140896666D02*
X68800140Y-140944285D01*
X68800140Y-140944285D02*
X68847759Y-140991904D01*
X68847759Y-140991904D02*
X68895378Y-141087142D01*
X68895378Y-141087142D02*
X68895378Y-141468094D01*
X69371569Y-140420475D02*
X69371569Y-140229999D01*
X69371569Y-140229999D02*
X69323950Y-140134761D01*
X69323950Y-140134761D02*
X69276330Y-140087142D01*
X69276330Y-140087142D02*
X69133473Y-139991904D01*
X69133473Y-139991904D02*
X68942997Y-139944285D01*
X68942997Y-139944285D02*
X68562045Y-139944285D01*
X68562045Y-139944285D02*
X68466807Y-139991904D01*
X68466807Y-139991904D02*
X68419188Y-140039523D01*
X68419188Y-140039523D02*
X68371569Y-140134761D01*
X68371569Y-140134761D02*
X68371569Y-140325237D01*
X68371569Y-140325237D02*
X68419188Y-140420475D01*
X68419188Y-140420475D02*
X68466807Y-140468094D01*
X68466807Y-140468094D02*
X68562045Y-140515713D01*
X68562045Y-140515713D02*
X68800140Y-140515713D01*
X68800140Y-140515713D02*
X68895378Y-140468094D01*
X68895378Y-140468094D02*
X68942997Y-140420475D01*
X68942997Y-140420475D02*
X68990616Y-140325237D01*
X68990616Y-140325237D02*
X68990616Y-140134761D01*
X68990616Y-140134761D02*
X68942997Y-140039523D01*
X68942997Y-140039523D02*
X68895378Y-139991904D01*
X68895378Y-139991904D02*
X68800140Y-139944285D01*
X109954819Y-101726107D02*
X109478628Y-102059440D01*
X109954819Y-102297535D02*
X108954819Y-102297535D01*
X108954819Y-102297535D02*
X108954819Y-101916583D01*
X108954819Y-101916583D02*
X109002438Y-101821345D01*
X109002438Y-101821345D02*
X109050057Y-101773726D01*
X109050057Y-101773726D02*
X109145295Y-101726107D01*
X109145295Y-101726107D02*
X109288152Y-101726107D01*
X109288152Y-101726107D02*
X109383390Y-101773726D01*
X109383390Y-101773726D02*
X109431009Y-101821345D01*
X109431009Y-101821345D02*
X109478628Y-101916583D01*
X109478628Y-101916583D02*
X109478628Y-102297535D01*
X109050057Y-101345154D02*
X109002438Y-101297535D01*
X109002438Y-101297535D02*
X108954819Y-101202297D01*
X108954819Y-101202297D02*
X108954819Y-100964202D01*
X108954819Y-100964202D02*
X109002438Y-100868964D01*
X109002438Y-100868964D02*
X109050057Y-100821345D01*
X109050057Y-100821345D02*
X109145295Y-100773726D01*
X109145295Y-100773726D02*
X109240533Y-100773726D01*
X109240533Y-100773726D02*
X109383390Y-100821345D01*
X109383390Y-100821345D02*
X109954819Y-101392773D01*
X109954819Y-101392773D02*
X109954819Y-100773726D01*
X108954819Y-100440392D02*
X108954819Y-99773726D01*
X108954819Y-99773726D02*
X109954819Y-100202297D01*
X57795180Y-156781905D02*
X58795180Y-156781905D01*
X58795180Y-156781905D02*
X58795180Y-157020000D01*
X58795180Y-157020000D02*
X58747561Y-157162857D01*
X58747561Y-157162857D02*
X58652323Y-157258095D01*
X58652323Y-157258095D02*
X58557085Y-157305714D01*
X58557085Y-157305714D02*
X58366609Y-157353333D01*
X58366609Y-157353333D02*
X58223752Y-157353333D01*
X58223752Y-157353333D02*
X58033276Y-157305714D01*
X58033276Y-157305714D02*
X57938038Y-157258095D01*
X57938038Y-157258095D02*
X57842800Y-157162857D01*
X57842800Y-157162857D02*
X57795180Y-157020000D01*
X57795180Y-157020000D02*
X57795180Y-156781905D01*
X58461847Y-158210476D02*
X57795180Y-158210476D01*
X58842800Y-157972381D02*
X58128514Y-157734286D01*
X58128514Y-157734286D02*
X58128514Y-158353333D01*
X63550083Y-117061269D02*
X63216750Y-116585078D01*
X62978655Y-117061269D02*
X62978655Y-116061269D01*
X62978655Y-116061269D02*
X63359607Y-116061269D01*
X63359607Y-116061269D02*
X63454845Y-116108888D01*
X63454845Y-116108888D02*
X63502464Y-116156507D01*
X63502464Y-116156507D02*
X63550083Y-116251745D01*
X63550083Y-116251745D02*
X63550083Y-116394602D01*
X63550083Y-116394602D02*
X63502464Y-116489840D01*
X63502464Y-116489840D02*
X63454845Y-116537459D01*
X63454845Y-116537459D02*
X63359607Y-116585078D01*
X63359607Y-116585078D02*
X62978655Y-116585078D01*
X64454845Y-116061269D02*
X63978655Y-116061269D01*
X63978655Y-116061269D02*
X63931036Y-116537459D01*
X63931036Y-116537459D02*
X63978655Y-116489840D01*
X63978655Y-116489840D02*
X64073893Y-116442221D01*
X64073893Y-116442221D02*
X64311988Y-116442221D01*
X64311988Y-116442221D02*
X64407226Y-116489840D01*
X64407226Y-116489840D02*
X64454845Y-116537459D01*
X64454845Y-116537459D02*
X64502464Y-116632697D01*
X64502464Y-116632697D02*
X64502464Y-116870792D01*
X64502464Y-116870792D02*
X64454845Y-116966030D01*
X64454845Y-116966030D02*
X64407226Y-117013650D01*
X64407226Y-117013650D02*
X64311988Y-117061269D01*
X64311988Y-117061269D02*
X64073893Y-117061269D01*
X64073893Y-117061269D02*
X63978655Y-117013650D01*
X63978655Y-117013650D02*
X63931036Y-116966030D01*
X102857142Y-140188069D02*
X102523809Y-139711878D01*
X102285714Y-140188069D02*
X102285714Y-139188069D01*
X102285714Y-139188069D02*
X102666666Y-139188069D01*
X102666666Y-139188069D02*
X102761904Y-139235688D01*
X102761904Y-139235688D02*
X102809523Y-139283307D01*
X102809523Y-139283307D02*
X102857142Y-139378545D01*
X102857142Y-139378545D02*
X102857142Y-139521402D01*
X102857142Y-139521402D02*
X102809523Y-139616640D01*
X102809523Y-139616640D02*
X102761904Y-139664259D01*
X102761904Y-139664259D02*
X102666666Y-139711878D01*
X102666666Y-139711878D02*
X102285714Y-139711878D01*
X103190476Y-139188069D02*
X103809523Y-139188069D01*
X103809523Y-139188069D02*
X103476190Y-139569021D01*
X103476190Y-139569021D02*
X103619047Y-139569021D01*
X103619047Y-139569021D02*
X103714285Y-139616640D01*
X103714285Y-139616640D02*
X103761904Y-139664259D01*
X103761904Y-139664259D02*
X103809523Y-139759497D01*
X103809523Y-139759497D02*
X103809523Y-139997592D01*
X103809523Y-139997592D02*
X103761904Y-140092830D01*
X103761904Y-140092830D02*
X103714285Y-140140450D01*
X103714285Y-140140450D02*
X103619047Y-140188069D01*
X103619047Y-140188069D02*
X103333333Y-140188069D01*
X103333333Y-140188069D02*
X103238095Y-140140450D01*
X103238095Y-140140450D02*
X103190476Y-140092830D01*
X104761904Y-140188069D02*
X104190476Y-140188069D01*
X104476190Y-140188069D02*
X104476190Y-139188069D01*
X104476190Y-139188069D02*
X104380952Y-139330926D01*
X104380952Y-139330926D02*
X104285714Y-139426164D01*
X104285714Y-139426164D02*
X104190476Y-139473783D01*
X82972142Y-100839819D02*
X82638809Y-100363628D01*
X82400714Y-100839819D02*
X82400714Y-99839819D01*
X82400714Y-99839819D02*
X82781666Y-99839819D01*
X82781666Y-99839819D02*
X82876904Y-99887438D01*
X82876904Y-99887438D02*
X82924523Y-99935057D01*
X82924523Y-99935057D02*
X82972142Y-100030295D01*
X82972142Y-100030295D02*
X82972142Y-100173152D01*
X82972142Y-100173152D02*
X82924523Y-100268390D01*
X82924523Y-100268390D02*
X82876904Y-100316009D01*
X82876904Y-100316009D02*
X82781666Y-100363628D01*
X82781666Y-100363628D02*
X82400714Y-100363628D01*
X83924523Y-100839819D02*
X83353095Y-100839819D01*
X83638809Y-100839819D02*
X83638809Y-99839819D01*
X83638809Y-99839819D02*
X83543571Y-99982676D01*
X83543571Y-99982676D02*
X83448333Y-100077914D01*
X83448333Y-100077914D02*
X83353095Y-100125533D01*
X84257857Y-99839819D02*
X84876904Y-99839819D01*
X84876904Y-99839819D02*
X84543571Y-100220771D01*
X84543571Y-100220771D02*
X84686428Y-100220771D01*
X84686428Y-100220771D02*
X84781666Y-100268390D01*
X84781666Y-100268390D02*
X84829285Y-100316009D01*
X84829285Y-100316009D02*
X84876904Y-100411247D01*
X84876904Y-100411247D02*
X84876904Y-100649342D01*
X84876904Y-100649342D02*
X84829285Y-100744580D01*
X84829285Y-100744580D02*
X84781666Y-100792200D01*
X84781666Y-100792200D02*
X84686428Y-100839819D01*
X84686428Y-100839819D02*
X84400714Y-100839819D01*
X84400714Y-100839819D02*
X84305476Y-100792200D01*
X84305476Y-100792200D02*
X84257857Y-100744580D01*
X109510878Y-155196742D02*
X109606116Y-155244361D01*
X109606116Y-155244361D02*
X109701354Y-155339600D01*
X109701354Y-155339600D02*
X109844211Y-155482457D01*
X109844211Y-155482457D02*
X109939449Y-155530076D01*
X109939449Y-155530076D02*
X110034687Y-155530076D01*
X109987068Y-155291980D02*
X110082306Y-155339600D01*
X110082306Y-155339600D02*
X110177544Y-155434838D01*
X110177544Y-155434838D02*
X110225163Y-155625314D01*
X110225163Y-155625314D02*
X110225163Y-155958647D01*
X110225163Y-155958647D02*
X110177544Y-156149123D01*
X110177544Y-156149123D02*
X110082306Y-156244361D01*
X110082306Y-156244361D02*
X109987068Y-156291980D01*
X109987068Y-156291980D02*
X109796592Y-156291980D01*
X109796592Y-156291980D02*
X109701354Y-156244361D01*
X109701354Y-156244361D02*
X109606116Y-156149123D01*
X109606116Y-156149123D02*
X109558497Y-155958647D01*
X109558497Y-155958647D02*
X109558497Y-155625314D01*
X109558497Y-155625314D02*
X109606116Y-155434838D01*
X109606116Y-155434838D02*
X109701354Y-155339600D01*
X109701354Y-155339600D02*
X109796592Y-155291980D01*
X109796592Y-155291980D02*
X109987068Y-155291980D01*
X108606116Y-155291980D02*
X109177544Y-155291980D01*
X108891830Y-155291980D02*
X108891830Y-156291980D01*
X108891830Y-156291980D02*
X108987068Y-156149123D01*
X108987068Y-156149123D02*
X109082306Y-156053885D01*
X109082306Y-156053885D02*
X109177544Y-156006266D01*
X108225163Y-156196742D02*
X108177544Y-156244361D01*
X108177544Y-156244361D02*
X108082306Y-156291980D01*
X108082306Y-156291980D02*
X107844211Y-156291980D01*
X107844211Y-156291980D02*
X107748973Y-156244361D01*
X107748973Y-156244361D02*
X107701354Y-156196742D01*
X107701354Y-156196742D02*
X107653735Y-156101504D01*
X107653735Y-156101504D02*
X107653735Y-156006266D01*
X107653735Y-156006266D02*
X107701354Y-155863409D01*
X107701354Y-155863409D02*
X108272782Y-155291980D01*
X108272782Y-155291980D02*
X107653735Y-155291980D01*
X109510878Y-135196742D02*
X109606116Y-135244361D01*
X109606116Y-135244361D02*
X109701354Y-135339600D01*
X109701354Y-135339600D02*
X109844211Y-135482457D01*
X109844211Y-135482457D02*
X109939449Y-135530076D01*
X109939449Y-135530076D02*
X110034687Y-135530076D01*
X109987068Y-135291980D02*
X110082306Y-135339600D01*
X110082306Y-135339600D02*
X110177544Y-135434838D01*
X110177544Y-135434838D02*
X110225163Y-135625314D01*
X110225163Y-135625314D02*
X110225163Y-135958647D01*
X110225163Y-135958647D02*
X110177544Y-136149123D01*
X110177544Y-136149123D02*
X110082306Y-136244361D01*
X110082306Y-136244361D02*
X109987068Y-136291980D01*
X109987068Y-136291980D02*
X109796592Y-136291980D01*
X109796592Y-136291980D02*
X109701354Y-136244361D01*
X109701354Y-136244361D02*
X109606116Y-136149123D01*
X109606116Y-136149123D02*
X109558497Y-135958647D01*
X109558497Y-135958647D02*
X109558497Y-135625314D01*
X109558497Y-135625314D02*
X109606116Y-135434838D01*
X109606116Y-135434838D02*
X109701354Y-135339600D01*
X109701354Y-135339600D02*
X109796592Y-135291980D01*
X109796592Y-135291980D02*
X109987068Y-135291980D01*
X108606116Y-135291980D02*
X109177544Y-135291980D01*
X108891830Y-135291980D02*
X108891830Y-136291980D01*
X108891830Y-136291980D02*
X108987068Y-136149123D01*
X108987068Y-136149123D02*
X109082306Y-136053885D01*
X109082306Y-136053885D02*
X109177544Y-136006266D01*
X107653735Y-135291980D02*
X108225163Y-135291980D01*
X107939449Y-135291980D02*
X107939449Y-136291980D01*
X107939449Y-136291980D02*
X108034687Y-136149123D01*
X108034687Y-136149123D02*
X108129925Y-136053885D01*
X108129925Y-136053885D02*
X108225163Y-136006266D01*
X63250083Y-140334819D02*
X62916750Y-139858628D01*
X62678655Y-140334819D02*
X62678655Y-139334819D01*
X62678655Y-139334819D02*
X63059607Y-139334819D01*
X63059607Y-139334819D02*
X63154845Y-139382438D01*
X63154845Y-139382438D02*
X63202464Y-139430057D01*
X63202464Y-139430057D02*
X63250083Y-139525295D01*
X63250083Y-139525295D02*
X63250083Y-139668152D01*
X63250083Y-139668152D02*
X63202464Y-139763390D01*
X63202464Y-139763390D02*
X63154845Y-139811009D01*
X63154845Y-139811009D02*
X63059607Y-139858628D01*
X63059607Y-139858628D02*
X62678655Y-139858628D01*
X63583417Y-139334819D02*
X64250083Y-139334819D01*
X64250083Y-139334819D02*
X63821512Y-140334819D01*
X90454819Y-161642857D02*
X89978628Y-161976190D01*
X90454819Y-162214285D02*
X89454819Y-162214285D01*
X89454819Y-162214285D02*
X89454819Y-161833333D01*
X89454819Y-161833333D02*
X89502438Y-161738095D01*
X89502438Y-161738095D02*
X89550057Y-161690476D01*
X89550057Y-161690476D02*
X89645295Y-161642857D01*
X89645295Y-161642857D02*
X89788152Y-161642857D01*
X89788152Y-161642857D02*
X89883390Y-161690476D01*
X89883390Y-161690476D02*
X89931009Y-161738095D01*
X89931009Y-161738095D02*
X89978628Y-161833333D01*
X89978628Y-161833333D02*
X89978628Y-162214285D01*
X89550057Y-161261904D02*
X89502438Y-161214285D01*
X89502438Y-161214285D02*
X89454819Y-161119047D01*
X89454819Y-161119047D02*
X89454819Y-160880952D01*
X89454819Y-160880952D02*
X89502438Y-160785714D01*
X89502438Y-160785714D02*
X89550057Y-160738095D01*
X89550057Y-160738095D02*
X89645295Y-160690476D01*
X89645295Y-160690476D02*
X89740533Y-160690476D01*
X89740533Y-160690476D02*
X89883390Y-160738095D01*
X89883390Y-160738095D02*
X90454819Y-161309523D01*
X90454819Y-161309523D02*
X90454819Y-160690476D01*
X89788152Y-159833333D02*
X90454819Y-159833333D01*
X89407200Y-160071428D02*
X90121485Y-160309523D01*
X90121485Y-160309523D02*
X90121485Y-159690476D01*
X66083334Y-59609580D02*
X66035715Y-59657200D01*
X66035715Y-59657200D02*
X65892858Y-59704819D01*
X65892858Y-59704819D02*
X65797620Y-59704819D01*
X65797620Y-59704819D02*
X65654763Y-59657200D01*
X65654763Y-59657200D02*
X65559525Y-59561961D01*
X65559525Y-59561961D02*
X65511906Y-59466723D01*
X65511906Y-59466723D02*
X65464287Y-59276247D01*
X65464287Y-59276247D02*
X65464287Y-59133390D01*
X65464287Y-59133390D02*
X65511906Y-58942914D01*
X65511906Y-58942914D02*
X65559525Y-58847676D01*
X65559525Y-58847676D02*
X65654763Y-58752438D01*
X65654763Y-58752438D02*
X65797620Y-58704819D01*
X65797620Y-58704819D02*
X65892858Y-58704819D01*
X65892858Y-58704819D02*
X66035715Y-58752438D01*
X66035715Y-58752438D02*
X66083334Y-58800057D01*
X67035715Y-59704819D02*
X66464287Y-59704819D01*
X66750001Y-59704819D02*
X66750001Y-58704819D01*
X66750001Y-58704819D02*
X66654763Y-58847676D01*
X66654763Y-58847676D02*
X66559525Y-58942914D01*
X66559525Y-58942914D02*
X66464287Y-58990533D01*
X129850328Y-114527042D02*
X129945566Y-114574661D01*
X129945566Y-114574661D02*
X130040804Y-114669900D01*
X130040804Y-114669900D02*
X130183661Y-114812757D01*
X130183661Y-114812757D02*
X130278899Y-114860376D01*
X130278899Y-114860376D02*
X130374137Y-114860376D01*
X130326518Y-114622280D02*
X130421756Y-114669900D01*
X130421756Y-114669900D02*
X130516994Y-114765138D01*
X130516994Y-114765138D02*
X130564613Y-114955614D01*
X130564613Y-114955614D02*
X130564613Y-115288947D01*
X130564613Y-115288947D02*
X130516994Y-115479423D01*
X130516994Y-115479423D02*
X130421756Y-115574661D01*
X130421756Y-115574661D02*
X130326518Y-115622280D01*
X130326518Y-115622280D02*
X130136042Y-115622280D01*
X130136042Y-115622280D02*
X130040804Y-115574661D01*
X130040804Y-115574661D02*
X129945566Y-115479423D01*
X129945566Y-115479423D02*
X129897947Y-115288947D01*
X129897947Y-115288947D02*
X129897947Y-114955614D01*
X129897947Y-114955614D02*
X129945566Y-114765138D01*
X129945566Y-114765138D02*
X130040804Y-114669900D01*
X130040804Y-114669900D02*
X130136042Y-114622280D01*
X130136042Y-114622280D02*
X130326518Y-114622280D01*
X128945566Y-114622280D02*
X129516994Y-114622280D01*
X129231280Y-114622280D02*
X129231280Y-115622280D01*
X129231280Y-115622280D02*
X129326518Y-115479423D01*
X129326518Y-115479423D02*
X129421756Y-115384185D01*
X129421756Y-115384185D02*
X129516994Y-115336566D01*
X128088423Y-115288947D02*
X128088423Y-114622280D01*
X128326518Y-115669900D02*
X128564613Y-114955614D01*
X128564613Y-114955614D02*
X127945566Y-114955614D01*
X70204819Y-161392857D02*
X69728628Y-161726190D01*
X70204819Y-161964285D02*
X69204819Y-161964285D01*
X69204819Y-161964285D02*
X69204819Y-161583333D01*
X69204819Y-161583333D02*
X69252438Y-161488095D01*
X69252438Y-161488095D02*
X69300057Y-161440476D01*
X69300057Y-161440476D02*
X69395295Y-161392857D01*
X69395295Y-161392857D02*
X69538152Y-161392857D01*
X69538152Y-161392857D02*
X69633390Y-161440476D01*
X69633390Y-161440476D02*
X69681009Y-161488095D01*
X69681009Y-161488095D02*
X69728628Y-161583333D01*
X69728628Y-161583333D02*
X69728628Y-161964285D01*
X70204819Y-160440476D02*
X70204819Y-161011904D01*
X70204819Y-160726190D02*
X69204819Y-160726190D01*
X69204819Y-160726190D02*
X69347676Y-160821428D01*
X69347676Y-160821428D02*
X69442914Y-160916666D01*
X69442914Y-160916666D02*
X69490533Y-161011904D01*
X69300057Y-160059523D02*
X69252438Y-160011904D01*
X69252438Y-160011904D02*
X69204819Y-159916666D01*
X69204819Y-159916666D02*
X69204819Y-159678571D01*
X69204819Y-159678571D02*
X69252438Y-159583333D01*
X69252438Y-159583333D02*
X69300057Y-159535714D01*
X69300057Y-159535714D02*
X69395295Y-159488095D01*
X69395295Y-159488095D02*
X69490533Y-159488095D01*
X69490533Y-159488095D02*
X69633390Y-159535714D01*
X69633390Y-159535714D02*
X70204819Y-160107142D01*
X70204819Y-160107142D02*
X70204819Y-159488095D01*
X57795180Y-136761905D02*
X58795180Y-136761905D01*
X58795180Y-136761905D02*
X58795180Y-137000000D01*
X58795180Y-137000000D02*
X58747561Y-137142857D01*
X58747561Y-137142857D02*
X58652323Y-137238095D01*
X58652323Y-137238095D02*
X58557085Y-137285714D01*
X58557085Y-137285714D02*
X58366609Y-137333333D01*
X58366609Y-137333333D02*
X58223752Y-137333333D01*
X58223752Y-137333333D02*
X58033276Y-137285714D01*
X58033276Y-137285714D02*
X57938038Y-137238095D01*
X57938038Y-137238095D02*
X57842800Y-137142857D01*
X57842800Y-137142857D02*
X57795180Y-137000000D01*
X57795180Y-137000000D02*
X57795180Y-136761905D01*
X58795180Y-137666667D02*
X58795180Y-138285714D01*
X58795180Y-138285714D02*
X58414228Y-137952381D01*
X58414228Y-137952381D02*
X58414228Y-138095238D01*
X58414228Y-138095238D02*
X58366609Y-138190476D01*
X58366609Y-138190476D02*
X58318990Y-138238095D01*
X58318990Y-138238095D02*
X58223752Y-138285714D01*
X58223752Y-138285714D02*
X57985657Y-138285714D01*
X57985657Y-138285714D02*
X57890419Y-138238095D01*
X57890419Y-138238095D02*
X57842800Y-138190476D01*
X57842800Y-138190476D02*
X57795180Y-138095238D01*
X57795180Y-138095238D02*
X57795180Y-137809524D01*
X57795180Y-137809524D02*
X57842800Y-137714286D01*
X57842800Y-137714286D02*
X57890419Y-137666667D01*
X109954819Y-121162857D02*
X109478628Y-121496190D01*
X109954819Y-121734285D02*
X108954819Y-121734285D01*
X108954819Y-121734285D02*
X108954819Y-121353333D01*
X108954819Y-121353333D02*
X109002438Y-121258095D01*
X109002438Y-121258095D02*
X109050057Y-121210476D01*
X109050057Y-121210476D02*
X109145295Y-121162857D01*
X109145295Y-121162857D02*
X109288152Y-121162857D01*
X109288152Y-121162857D02*
X109383390Y-121210476D01*
X109383390Y-121210476D02*
X109431009Y-121258095D01*
X109431009Y-121258095D02*
X109478628Y-121353333D01*
X109478628Y-121353333D02*
X109478628Y-121734285D01*
X108954819Y-120829523D02*
X108954819Y-120210476D01*
X108954819Y-120210476D02*
X109335771Y-120543809D01*
X109335771Y-120543809D02*
X109335771Y-120400952D01*
X109335771Y-120400952D02*
X109383390Y-120305714D01*
X109383390Y-120305714D02*
X109431009Y-120258095D01*
X109431009Y-120258095D02*
X109526247Y-120210476D01*
X109526247Y-120210476D02*
X109764342Y-120210476D01*
X109764342Y-120210476D02*
X109859580Y-120258095D01*
X109859580Y-120258095D02*
X109907200Y-120305714D01*
X109907200Y-120305714D02*
X109954819Y-120400952D01*
X109954819Y-120400952D02*
X109954819Y-120686666D01*
X109954819Y-120686666D02*
X109907200Y-120781904D01*
X109907200Y-120781904D02*
X109859580Y-120829523D01*
X108954819Y-119591428D02*
X108954819Y-119496190D01*
X108954819Y-119496190D02*
X109002438Y-119400952D01*
X109002438Y-119400952D02*
X109050057Y-119353333D01*
X109050057Y-119353333D02*
X109145295Y-119305714D01*
X109145295Y-119305714D02*
X109335771Y-119258095D01*
X109335771Y-119258095D02*
X109573866Y-119258095D01*
X109573866Y-119258095D02*
X109764342Y-119305714D01*
X109764342Y-119305714D02*
X109859580Y-119353333D01*
X109859580Y-119353333D02*
X109907200Y-119400952D01*
X109907200Y-119400952D02*
X109954819Y-119496190D01*
X109954819Y-119496190D02*
X109954819Y-119591428D01*
X109954819Y-119591428D02*
X109907200Y-119686666D01*
X109907200Y-119686666D02*
X109859580Y-119734285D01*
X109859580Y-119734285D02*
X109764342Y-119781904D01*
X109764342Y-119781904D02*
X109573866Y-119829523D01*
X109573866Y-119829523D02*
X109335771Y-119829523D01*
X109335771Y-119829523D02*
X109145295Y-119781904D01*
X109145295Y-119781904D02*
X109050057Y-119734285D01*
X109050057Y-119734285D02*
X109002438Y-119686666D01*
X109002438Y-119686666D02*
X108954819Y-119591428D01*
X63393883Y-96441269D02*
X63060550Y-95965078D01*
X62822455Y-96441269D02*
X62822455Y-95441269D01*
X62822455Y-95441269D02*
X63203407Y-95441269D01*
X63203407Y-95441269D02*
X63298645Y-95488888D01*
X63298645Y-95488888D02*
X63346264Y-95536507D01*
X63346264Y-95536507D02*
X63393883Y-95631745D01*
X63393883Y-95631745D02*
X63393883Y-95774602D01*
X63393883Y-95774602D02*
X63346264Y-95869840D01*
X63346264Y-95869840D02*
X63298645Y-95917459D01*
X63298645Y-95917459D02*
X63203407Y-95965078D01*
X63203407Y-95965078D02*
X62822455Y-95965078D01*
X63774836Y-95536507D02*
X63822455Y-95488888D01*
X63822455Y-95488888D02*
X63917693Y-95441269D01*
X63917693Y-95441269D02*
X64155788Y-95441269D01*
X64155788Y-95441269D02*
X64251026Y-95488888D01*
X64251026Y-95488888D02*
X64298645Y-95536507D01*
X64298645Y-95536507D02*
X64346264Y-95631745D01*
X64346264Y-95631745D02*
X64346264Y-95726983D01*
X64346264Y-95726983D02*
X64298645Y-95869840D01*
X64298645Y-95869840D02*
X63727217Y-96441269D01*
X63727217Y-96441269D02*
X64346264Y-96441269D01*
X106357142Y-162688069D02*
X106023809Y-162211878D01*
X105785714Y-162688069D02*
X105785714Y-161688069D01*
X105785714Y-161688069D02*
X106166666Y-161688069D01*
X106166666Y-161688069D02*
X106261904Y-161735688D01*
X106261904Y-161735688D02*
X106309523Y-161783307D01*
X106309523Y-161783307D02*
X106357142Y-161878545D01*
X106357142Y-161878545D02*
X106357142Y-162021402D01*
X106357142Y-162021402D02*
X106309523Y-162116640D01*
X106309523Y-162116640D02*
X106261904Y-162164259D01*
X106261904Y-162164259D02*
X106166666Y-162211878D01*
X106166666Y-162211878D02*
X105785714Y-162211878D01*
X106690476Y-161688069D02*
X107309523Y-161688069D01*
X107309523Y-161688069D02*
X106976190Y-162069021D01*
X106976190Y-162069021D02*
X107119047Y-162069021D01*
X107119047Y-162069021D02*
X107214285Y-162116640D01*
X107214285Y-162116640D02*
X107261904Y-162164259D01*
X107261904Y-162164259D02*
X107309523Y-162259497D01*
X107309523Y-162259497D02*
X107309523Y-162497592D01*
X107309523Y-162497592D02*
X107261904Y-162592830D01*
X107261904Y-162592830D02*
X107214285Y-162640450D01*
X107214285Y-162640450D02*
X107119047Y-162688069D01*
X107119047Y-162688069D02*
X106833333Y-162688069D01*
X106833333Y-162688069D02*
X106738095Y-162640450D01*
X106738095Y-162640450D02*
X106690476Y-162592830D01*
X108166666Y-161688069D02*
X107976190Y-161688069D01*
X107976190Y-161688069D02*
X107880952Y-161735688D01*
X107880952Y-161735688D02*
X107833333Y-161783307D01*
X107833333Y-161783307D02*
X107738095Y-161926164D01*
X107738095Y-161926164D02*
X107690476Y-162116640D01*
X107690476Y-162116640D02*
X107690476Y-162497592D01*
X107690476Y-162497592D02*
X107738095Y-162592830D01*
X107738095Y-162592830D02*
X107785714Y-162640450D01*
X107785714Y-162640450D02*
X107880952Y-162688069D01*
X107880952Y-162688069D02*
X108071428Y-162688069D01*
X108071428Y-162688069D02*
X108166666Y-162640450D01*
X108166666Y-162640450D02*
X108214285Y-162592830D01*
X108214285Y-162592830D02*
X108261904Y-162497592D01*
X108261904Y-162497592D02*
X108261904Y-162259497D01*
X108261904Y-162259497D02*
X108214285Y-162164259D01*
X108214285Y-162164259D02*
X108166666Y-162116640D01*
X108166666Y-162116640D02*
X108071428Y-162069021D01*
X108071428Y-162069021D02*
X107880952Y-162069021D01*
X107880952Y-162069021D02*
X107785714Y-162116640D01*
X107785714Y-162116640D02*
X107738095Y-162164259D01*
X107738095Y-162164259D02*
X107690476Y-162259497D01*
X129954819Y-120892857D02*
X129478628Y-121226190D01*
X129954819Y-121464285D02*
X128954819Y-121464285D01*
X128954819Y-121464285D02*
X128954819Y-121083333D01*
X128954819Y-121083333D02*
X129002438Y-120988095D01*
X129002438Y-120988095D02*
X129050057Y-120940476D01*
X129050057Y-120940476D02*
X129145295Y-120892857D01*
X129145295Y-120892857D02*
X129288152Y-120892857D01*
X129288152Y-120892857D02*
X129383390Y-120940476D01*
X129383390Y-120940476D02*
X129431009Y-120988095D01*
X129431009Y-120988095D02*
X129478628Y-121083333D01*
X129478628Y-121083333D02*
X129478628Y-121464285D01*
X129288152Y-120035714D02*
X129954819Y-120035714D01*
X128907200Y-120273809D02*
X129621485Y-120511904D01*
X129621485Y-120511904D02*
X129621485Y-119892857D01*
X129050057Y-119559523D02*
X129002438Y-119511904D01*
X129002438Y-119511904D02*
X128954819Y-119416666D01*
X128954819Y-119416666D02*
X128954819Y-119178571D01*
X128954819Y-119178571D02*
X129002438Y-119083333D01*
X129002438Y-119083333D02*
X129050057Y-119035714D01*
X129050057Y-119035714D02*
X129145295Y-118988095D01*
X129145295Y-118988095D02*
X129240533Y-118988095D01*
X129240533Y-118988095D02*
X129383390Y-119035714D01*
X129383390Y-119035714D02*
X129954819Y-119607142D01*
X129954819Y-119607142D02*
X129954819Y-118988095D01*
X57605730Y-96598355D02*
X58605730Y-96598355D01*
X58605730Y-96598355D02*
X58605730Y-96836450D01*
X58605730Y-96836450D02*
X58558111Y-96979307D01*
X58558111Y-96979307D02*
X58462873Y-97074545D01*
X58462873Y-97074545D02*
X58367635Y-97122164D01*
X58367635Y-97122164D02*
X58177159Y-97169783D01*
X58177159Y-97169783D02*
X58034302Y-97169783D01*
X58034302Y-97169783D02*
X57843826Y-97122164D01*
X57843826Y-97122164D02*
X57748588Y-97074545D01*
X57748588Y-97074545D02*
X57653350Y-96979307D01*
X57653350Y-96979307D02*
X57605730Y-96836450D01*
X57605730Y-96836450D02*
X57605730Y-96598355D01*
X57605730Y-98122164D02*
X57605730Y-97550736D01*
X57605730Y-97836450D02*
X58605730Y-97836450D01*
X58605730Y-97836450D02*
X58462873Y-97741212D01*
X58462873Y-97741212D02*
X58367635Y-97645974D01*
X58367635Y-97645974D02*
X58320016Y-97550736D01*
X63550083Y-120561269D02*
X63216750Y-120085078D01*
X62978655Y-120561269D02*
X62978655Y-119561269D01*
X62978655Y-119561269D02*
X63359607Y-119561269D01*
X63359607Y-119561269D02*
X63454845Y-119608888D01*
X63454845Y-119608888D02*
X63502464Y-119656507D01*
X63502464Y-119656507D02*
X63550083Y-119751745D01*
X63550083Y-119751745D02*
X63550083Y-119894602D01*
X63550083Y-119894602D02*
X63502464Y-119989840D01*
X63502464Y-119989840D02*
X63454845Y-120037459D01*
X63454845Y-120037459D02*
X63359607Y-120085078D01*
X63359607Y-120085078D02*
X62978655Y-120085078D01*
X64407226Y-119894602D02*
X64407226Y-120561269D01*
X64169131Y-119513650D02*
X63931036Y-120227935D01*
X63931036Y-120227935D02*
X64550083Y-120227935D01*
X102857142Y-136688069D02*
X102523809Y-136211878D01*
X102285714Y-136688069D02*
X102285714Y-135688069D01*
X102285714Y-135688069D02*
X102666666Y-135688069D01*
X102666666Y-135688069D02*
X102761904Y-135735688D01*
X102761904Y-135735688D02*
X102809523Y-135783307D01*
X102809523Y-135783307D02*
X102857142Y-135878545D01*
X102857142Y-135878545D02*
X102857142Y-136021402D01*
X102857142Y-136021402D02*
X102809523Y-136116640D01*
X102809523Y-136116640D02*
X102761904Y-136164259D01*
X102761904Y-136164259D02*
X102666666Y-136211878D01*
X102666666Y-136211878D02*
X102285714Y-136211878D01*
X103190476Y-135688069D02*
X103809523Y-135688069D01*
X103809523Y-135688069D02*
X103476190Y-136069021D01*
X103476190Y-136069021D02*
X103619047Y-136069021D01*
X103619047Y-136069021D02*
X103714285Y-136116640D01*
X103714285Y-136116640D02*
X103761904Y-136164259D01*
X103761904Y-136164259D02*
X103809523Y-136259497D01*
X103809523Y-136259497D02*
X103809523Y-136497592D01*
X103809523Y-136497592D02*
X103761904Y-136592830D01*
X103761904Y-136592830D02*
X103714285Y-136640450D01*
X103714285Y-136640450D02*
X103619047Y-136688069D01*
X103619047Y-136688069D02*
X103333333Y-136688069D01*
X103333333Y-136688069D02*
X103238095Y-136640450D01*
X103238095Y-136640450D02*
X103190476Y-136592830D01*
X104190476Y-135783307D02*
X104238095Y-135735688D01*
X104238095Y-135735688D02*
X104333333Y-135688069D01*
X104333333Y-135688069D02*
X104571428Y-135688069D01*
X104571428Y-135688069D02*
X104666666Y-135735688D01*
X104666666Y-135735688D02*
X104714285Y-135783307D01*
X104714285Y-135783307D02*
X104761904Y-135878545D01*
X104761904Y-135878545D02*
X104761904Y-135973783D01*
X104761904Y-135973783D02*
X104714285Y-136116640D01*
X104714285Y-136116640D02*
X104142857Y-136688069D01*
X104142857Y-136688069D02*
X104761904Y-136688069D01*
X129510878Y-95363492D02*
X129606116Y-95411111D01*
X129606116Y-95411111D02*
X129701354Y-95506350D01*
X129701354Y-95506350D02*
X129844211Y-95649207D01*
X129844211Y-95649207D02*
X129939449Y-95696826D01*
X129939449Y-95696826D02*
X130034687Y-95696826D01*
X129987068Y-95458730D02*
X130082306Y-95506350D01*
X130082306Y-95506350D02*
X130177544Y-95601588D01*
X130177544Y-95601588D02*
X130225163Y-95792064D01*
X130225163Y-95792064D02*
X130225163Y-96125397D01*
X130225163Y-96125397D02*
X130177544Y-96315873D01*
X130177544Y-96315873D02*
X130082306Y-96411111D01*
X130082306Y-96411111D02*
X129987068Y-96458730D01*
X129987068Y-96458730D02*
X129796592Y-96458730D01*
X129796592Y-96458730D02*
X129701354Y-96411111D01*
X129701354Y-96411111D02*
X129606116Y-96315873D01*
X129606116Y-96315873D02*
X129558497Y-96125397D01*
X129558497Y-96125397D02*
X129558497Y-95792064D01*
X129558497Y-95792064D02*
X129606116Y-95601588D01*
X129606116Y-95601588D02*
X129701354Y-95506350D01*
X129701354Y-95506350D02*
X129796592Y-95458730D01*
X129796592Y-95458730D02*
X129987068Y-95458730D01*
X128606116Y-95458730D02*
X129177544Y-95458730D01*
X128891830Y-95458730D02*
X128891830Y-96458730D01*
X128891830Y-96458730D02*
X128987068Y-96315873D01*
X128987068Y-96315873D02*
X129082306Y-96220635D01*
X129082306Y-96220635D02*
X129177544Y-96173016D01*
X128272782Y-96458730D02*
X127653735Y-96458730D01*
X127653735Y-96458730D02*
X127987068Y-96077778D01*
X127987068Y-96077778D02*
X127844211Y-96077778D01*
X127844211Y-96077778D02*
X127748973Y-96030159D01*
X127748973Y-96030159D02*
X127701354Y-95982540D01*
X127701354Y-95982540D02*
X127653735Y-95887302D01*
X127653735Y-95887302D02*
X127653735Y-95649207D01*
X127653735Y-95649207D02*
X127701354Y-95553969D01*
X127701354Y-95553969D02*
X127748973Y-95506350D01*
X127748973Y-95506350D02*
X127844211Y-95458730D01*
X127844211Y-95458730D02*
X128129925Y-95458730D01*
X128129925Y-95458730D02*
X128225163Y-95506350D01*
X128225163Y-95506350D02*
X128272782Y-95553969D01*
X89431438Y-135363492D02*
X89526676Y-135411111D01*
X89526676Y-135411111D02*
X89621914Y-135506350D01*
X89621914Y-135506350D02*
X89764771Y-135649207D01*
X89764771Y-135649207D02*
X89860009Y-135696826D01*
X89860009Y-135696826D02*
X89955247Y-135696826D01*
X89907628Y-135458730D02*
X90002866Y-135506350D01*
X90002866Y-135506350D02*
X90098104Y-135601588D01*
X90098104Y-135601588D02*
X90145723Y-135792064D01*
X90145723Y-135792064D02*
X90145723Y-136125397D01*
X90145723Y-136125397D02*
X90098104Y-136315873D01*
X90098104Y-136315873D02*
X90002866Y-136411111D01*
X90002866Y-136411111D02*
X89907628Y-136458730D01*
X89907628Y-136458730D02*
X89717152Y-136458730D01*
X89717152Y-136458730D02*
X89621914Y-136411111D01*
X89621914Y-136411111D02*
X89526676Y-136315873D01*
X89526676Y-136315873D02*
X89479057Y-136125397D01*
X89479057Y-136125397D02*
X89479057Y-135792064D01*
X89479057Y-135792064D02*
X89526676Y-135601588D01*
X89526676Y-135601588D02*
X89621914Y-135506350D01*
X89621914Y-135506350D02*
X89717152Y-135458730D01*
X89717152Y-135458730D02*
X89907628Y-135458730D01*
X89145723Y-136458730D02*
X88479057Y-136458730D01*
X88479057Y-136458730D02*
X88907628Y-135458730D01*
X102857142Y-156688069D02*
X102523809Y-156211878D01*
X102285714Y-156688069D02*
X102285714Y-155688069D01*
X102285714Y-155688069D02*
X102666666Y-155688069D01*
X102666666Y-155688069D02*
X102761904Y-155735688D01*
X102761904Y-155735688D02*
X102809523Y-155783307D01*
X102809523Y-155783307D02*
X102857142Y-155878545D01*
X102857142Y-155878545D02*
X102857142Y-156021402D01*
X102857142Y-156021402D02*
X102809523Y-156116640D01*
X102809523Y-156116640D02*
X102761904Y-156164259D01*
X102761904Y-156164259D02*
X102666666Y-156211878D01*
X102666666Y-156211878D02*
X102285714Y-156211878D01*
X103190476Y-155688069D02*
X103809523Y-155688069D01*
X103809523Y-155688069D02*
X103476190Y-156069021D01*
X103476190Y-156069021D02*
X103619047Y-156069021D01*
X103619047Y-156069021D02*
X103714285Y-156116640D01*
X103714285Y-156116640D02*
X103761904Y-156164259D01*
X103761904Y-156164259D02*
X103809523Y-156259497D01*
X103809523Y-156259497D02*
X103809523Y-156497592D01*
X103809523Y-156497592D02*
X103761904Y-156592830D01*
X103761904Y-156592830D02*
X103714285Y-156640450D01*
X103714285Y-156640450D02*
X103619047Y-156688069D01*
X103619047Y-156688069D02*
X103333333Y-156688069D01*
X103333333Y-156688069D02*
X103238095Y-156640450D01*
X103238095Y-156640450D02*
X103190476Y-156592830D01*
X104714285Y-155688069D02*
X104238095Y-155688069D01*
X104238095Y-155688069D02*
X104190476Y-156164259D01*
X104190476Y-156164259D02*
X104238095Y-156116640D01*
X104238095Y-156116640D02*
X104333333Y-156069021D01*
X104333333Y-156069021D02*
X104571428Y-156069021D01*
X104571428Y-156069021D02*
X104666666Y-156116640D01*
X104666666Y-156116640D02*
X104714285Y-156164259D01*
X104714285Y-156164259D02*
X104761904Y-156259497D01*
X104761904Y-156259497D02*
X104761904Y-156497592D01*
X104761904Y-156497592D02*
X104714285Y-156592830D01*
X104714285Y-156592830D02*
X104666666Y-156640450D01*
X104666666Y-156640450D02*
X104571428Y-156688069D01*
X104571428Y-156688069D02*
X104333333Y-156688069D01*
X104333333Y-156688069D02*
X104238095Y-156640450D01*
X104238095Y-156640450D02*
X104190476Y-156592830D01*
X83253892Y-140354819D02*
X82920559Y-139878628D01*
X82682464Y-140354819D02*
X82682464Y-139354819D01*
X82682464Y-139354819D02*
X83063416Y-139354819D01*
X83063416Y-139354819D02*
X83158654Y-139402438D01*
X83158654Y-139402438D02*
X83206273Y-139450057D01*
X83206273Y-139450057D02*
X83253892Y-139545295D01*
X83253892Y-139545295D02*
X83253892Y-139688152D01*
X83253892Y-139688152D02*
X83206273Y-139783390D01*
X83206273Y-139783390D02*
X83158654Y-139831009D01*
X83158654Y-139831009D02*
X83063416Y-139878628D01*
X83063416Y-139878628D02*
X82682464Y-139878628D01*
X84206273Y-140354819D02*
X83634845Y-140354819D01*
X83920559Y-140354819D02*
X83920559Y-139354819D01*
X83920559Y-139354819D02*
X83825321Y-139497676D01*
X83825321Y-139497676D02*
X83730083Y-139592914D01*
X83730083Y-139592914D02*
X83634845Y-139640533D01*
X84682464Y-140354819D02*
X84872940Y-140354819D01*
X84872940Y-140354819D02*
X84968178Y-140307200D01*
X84968178Y-140307200D02*
X85015797Y-140259580D01*
X85015797Y-140259580D02*
X85111035Y-140116723D01*
X85111035Y-140116723D02*
X85158654Y-139926247D01*
X85158654Y-139926247D02*
X85158654Y-139545295D01*
X85158654Y-139545295D02*
X85111035Y-139450057D01*
X85111035Y-139450057D02*
X85063416Y-139402438D01*
X85063416Y-139402438D02*
X84968178Y-139354819D01*
X84968178Y-139354819D02*
X84777702Y-139354819D01*
X84777702Y-139354819D02*
X84682464Y-139402438D01*
X84682464Y-139402438D02*
X84634845Y-139450057D01*
X84634845Y-139450057D02*
X84587226Y-139545295D01*
X84587226Y-139545295D02*
X84587226Y-139783390D01*
X84587226Y-139783390D02*
X84634845Y-139878628D01*
X84634845Y-139878628D02*
X84682464Y-139926247D01*
X84682464Y-139926247D02*
X84777702Y-139973866D01*
X84777702Y-139973866D02*
X84968178Y-139973866D01*
X84968178Y-139973866D02*
X85063416Y-139926247D01*
X85063416Y-139926247D02*
X85111035Y-139878628D01*
X85111035Y-139878628D02*
X85158654Y-139783390D01*
X90569819Y-101527857D02*
X90093628Y-101861190D01*
X90569819Y-102099285D02*
X89569819Y-102099285D01*
X89569819Y-102099285D02*
X89569819Y-101718333D01*
X89569819Y-101718333D02*
X89617438Y-101623095D01*
X89617438Y-101623095D02*
X89665057Y-101575476D01*
X89665057Y-101575476D02*
X89760295Y-101527857D01*
X89760295Y-101527857D02*
X89903152Y-101527857D01*
X89903152Y-101527857D02*
X89998390Y-101575476D01*
X89998390Y-101575476D02*
X90046009Y-101623095D01*
X90046009Y-101623095D02*
X90093628Y-101718333D01*
X90093628Y-101718333D02*
X90093628Y-102099285D01*
X90569819Y-100575476D02*
X90569819Y-101146904D01*
X90569819Y-100861190D02*
X89569819Y-100861190D01*
X89569819Y-100861190D02*
X89712676Y-100956428D01*
X89712676Y-100956428D02*
X89807914Y-101051666D01*
X89807914Y-101051666D02*
X89855533Y-101146904D01*
X89569819Y-99670714D02*
X89569819Y-100146904D01*
X89569819Y-100146904D02*
X90046009Y-100194523D01*
X90046009Y-100194523D02*
X89998390Y-100146904D01*
X89998390Y-100146904D02*
X89950771Y-100051666D01*
X89950771Y-100051666D02*
X89950771Y-99813571D01*
X89950771Y-99813571D02*
X89998390Y-99718333D01*
X89998390Y-99718333D02*
X90046009Y-99670714D01*
X90046009Y-99670714D02*
X90141247Y-99623095D01*
X90141247Y-99623095D02*
X90379342Y-99623095D01*
X90379342Y-99623095D02*
X90474580Y-99670714D01*
X90474580Y-99670714D02*
X90522200Y-99718333D01*
X90522200Y-99718333D02*
X90569819Y-99813571D01*
X90569819Y-99813571D02*
X90569819Y-100051666D01*
X90569819Y-100051666D02*
X90522200Y-100146904D01*
X90522200Y-100146904D02*
X90474580Y-100194523D01*
X122857142Y-156124819D02*
X122523809Y-155648628D01*
X122285714Y-156124819D02*
X122285714Y-155124819D01*
X122285714Y-155124819D02*
X122666666Y-155124819D01*
X122666666Y-155124819D02*
X122761904Y-155172438D01*
X122761904Y-155172438D02*
X122809523Y-155220057D01*
X122809523Y-155220057D02*
X122857142Y-155315295D01*
X122857142Y-155315295D02*
X122857142Y-155458152D01*
X122857142Y-155458152D02*
X122809523Y-155553390D01*
X122809523Y-155553390D02*
X122761904Y-155601009D01*
X122761904Y-155601009D02*
X122666666Y-155648628D01*
X122666666Y-155648628D02*
X122285714Y-155648628D01*
X123714285Y-155458152D02*
X123714285Y-156124819D01*
X123476190Y-155077200D02*
X123238095Y-155791485D01*
X123238095Y-155791485D02*
X123857142Y-155791485D01*
X124142857Y-155124819D02*
X124809523Y-155124819D01*
X124809523Y-155124819D02*
X124380952Y-156124819D01*
X97545180Y-96511905D02*
X98545180Y-96511905D01*
X98545180Y-96511905D02*
X98545180Y-96750000D01*
X98545180Y-96750000D02*
X98497561Y-96892857D01*
X98497561Y-96892857D02*
X98402323Y-96988095D01*
X98402323Y-96988095D02*
X98307085Y-97035714D01*
X98307085Y-97035714D02*
X98116609Y-97083333D01*
X98116609Y-97083333D02*
X97973752Y-97083333D01*
X97973752Y-97083333D02*
X97783276Y-97035714D01*
X97783276Y-97035714D02*
X97688038Y-96988095D01*
X97688038Y-96988095D02*
X97592800Y-96892857D01*
X97592800Y-96892857D02*
X97545180Y-96750000D01*
X97545180Y-96750000D02*
X97545180Y-96511905D01*
X97545180Y-97559524D02*
X97545180Y-97750000D01*
X97545180Y-97750000D02*
X97592800Y-97845238D01*
X97592800Y-97845238D02*
X97640419Y-97892857D01*
X97640419Y-97892857D02*
X97783276Y-97988095D01*
X97783276Y-97988095D02*
X97973752Y-98035714D01*
X97973752Y-98035714D02*
X98354704Y-98035714D01*
X98354704Y-98035714D02*
X98449942Y-97988095D01*
X98449942Y-97988095D02*
X98497561Y-97940476D01*
X98497561Y-97940476D02*
X98545180Y-97845238D01*
X98545180Y-97845238D02*
X98545180Y-97654762D01*
X98545180Y-97654762D02*
X98497561Y-97559524D01*
X98497561Y-97559524D02*
X98449942Y-97511905D01*
X98449942Y-97511905D02*
X98354704Y-97464286D01*
X98354704Y-97464286D02*
X98116609Y-97464286D01*
X98116609Y-97464286D02*
X98021371Y-97511905D01*
X98021371Y-97511905D02*
X97973752Y-97559524D01*
X97973752Y-97559524D02*
X97926133Y-97654762D01*
X97926133Y-97654762D02*
X97926133Y-97845238D01*
X97926133Y-97845238D02*
X97973752Y-97940476D01*
X97973752Y-97940476D02*
X98021371Y-97988095D01*
X98021371Y-97988095D02*
X98116609Y-98035714D01*
X109454819Y-141726107D02*
X108978628Y-142059440D01*
X109454819Y-142297535D02*
X108454819Y-142297535D01*
X108454819Y-142297535D02*
X108454819Y-141916583D01*
X108454819Y-141916583D02*
X108502438Y-141821345D01*
X108502438Y-141821345D02*
X108550057Y-141773726D01*
X108550057Y-141773726D02*
X108645295Y-141726107D01*
X108645295Y-141726107D02*
X108788152Y-141726107D01*
X108788152Y-141726107D02*
X108883390Y-141773726D01*
X108883390Y-141773726D02*
X108931009Y-141821345D01*
X108931009Y-141821345D02*
X108978628Y-141916583D01*
X108978628Y-141916583D02*
X108978628Y-142297535D01*
X108454819Y-141392773D02*
X108454819Y-140773726D01*
X108454819Y-140773726D02*
X108835771Y-141107059D01*
X108835771Y-141107059D02*
X108835771Y-140964202D01*
X108835771Y-140964202D02*
X108883390Y-140868964D01*
X108883390Y-140868964D02*
X108931009Y-140821345D01*
X108931009Y-140821345D02*
X109026247Y-140773726D01*
X109026247Y-140773726D02*
X109264342Y-140773726D01*
X109264342Y-140773726D02*
X109359580Y-140821345D01*
X109359580Y-140821345D02*
X109407200Y-140868964D01*
X109407200Y-140868964D02*
X109454819Y-140964202D01*
X109454819Y-140964202D02*
X109454819Y-141249916D01*
X109454819Y-141249916D02*
X109407200Y-141345154D01*
X109407200Y-141345154D02*
X109359580Y-141392773D01*
X108454819Y-140440392D02*
X108454819Y-139821345D01*
X108454819Y-139821345D02*
X108835771Y-140154678D01*
X108835771Y-140154678D02*
X108835771Y-140011821D01*
X108835771Y-140011821D02*
X108883390Y-139916583D01*
X108883390Y-139916583D02*
X108931009Y-139868964D01*
X108931009Y-139868964D02*
X109026247Y-139821345D01*
X109026247Y-139821345D02*
X109264342Y-139821345D01*
X109264342Y-139821345D02*
X109359580Y-139868964D01*
X109359580Y-139868964D02*
X109407200Y-139916583D01*
X109407200Y-139916583D02*
X109454819Y-140011821D01*
X109454819Y-140011821D02*
X109454819Y-140297535D01*
X109454819Y-140297535D02*
X109407200Y-140392773D01*
X109407200Y-140392773D02*
X109359580Y-140440392D01*
X89874138Y-155277042D02*
X89969376Y-155324661D01*
X89969376Y-155324661D02*
X90064614Y-155419900D01*
X90064614Y-155419900D02*
X90207471Y-155562757D01*
X90207471Y-155562757D02*
X90302709Y-155610376D01*
X90302709Y-155610376D02*
X90397947Y-155610376D01*
X90350328Y-155372280D02*
X90445566Y-155419900D01*
X90445566Y-155419900D02*
X90540804Y-155515138D01*
X90540804Y-155515138D02*
X90588423Y-155705614D01*
X90588423Y-155705614D02*
X90588423Y-156038947D01*
X90588423Y-156038947D02*
X90540804Y-156229423D01*
X90540804Y-156229423D02*
X90445566Y-156324661D01*
X90445566Y-156324661D02*
X90350328Y-156372280D01*
X90350328Y-156372280D02*
X90159852Y-156372280D01*
X90159852Y-156372280D02*
X90064614Y-156324661D01*
X90064614Y-156324661D02*
X89969376Y-156229423D01*
X89969376Y-156229423D02*
X89921757Y-156038947D01*
X89921757Y-156038947D02*
X89921757Y-155705614D01*
X89921757Y-155705614D02*
X89969376Y-155515138D01*
X89969376Y-155515138D02*
X90064614Y-155419900D01*
X90064614Y-155419900D02*
X90159852Y-155372280D01*
X90159852Y-155372280D02*
X90350328Y-155372280D01*
X89350328Y-155943709D02*
X89445566Y-155991328D01*
X89445566Y-155991328D02*
X89493185Y-156038947D01*
X89493185Y-156038947D02*
X89540804Y-156134185D01*
X89540804Y-156134185D02*
X89540804Y-156181804D01*
X89540804Y-156181804D02*
X89493185Y-156277042D01*
X89493185Y-156277042D02*
X89445566Y-156324661D01*
X89445566Y-156324661D02*
X89350328Y-156372280D01*
X89350328Y-156372280D02*
X89159852Y-156372280D01*
X89159852Y-156372280D02*
X89064614Y-156324661D01*
X89064614Y-156324661D02*
X89016995Y-156277042D01*
X89016995Y-156277042D02*
X88969376Y-156181804D01*
X88969376Y-156181804D02*
X88969376Y-156134185D01*
X88969376Y-156134185D02*
X89016995Y-156038947D01*
X89016995Y-156038947D02*
X89064614Y-155991328D01*
X89064614Y-155991328D02*
X89159852Y-155943709D01*
X89159852Y-155943709D02*
X89350328Y-155943709D01*
X89350328Y-155943709D02*
X89445566Y-155896090D01*
X89445566Y-155896090D02*
X89493185Y-155848471D01*
X89493185Y-155848471D02*
X89540804Y-155753233D01*
X89540804Y-155753233D02*
X89540804Y-155562757D01*
X89540804Y-155562757D02*
X89493185Y-155467519D01*
X89493185Y-155467519D02*
X89445566Y-155419900D01*
X89445566Y-155419900D02*
X89350328Y-155372280D01*
X89350328Y-155372280D02*
X89159852Y-155372280D01*
X89159852Y-155372280D02*
X89064614Y-155419900D01*
X89064614Y-155419900D02*
X89016995Y-155467519D01*
X89016995Y-155467519D02*
X88969376Y-155562757D01*
X88969376Y-155562757D02*
X88969376Y-155753233D01*
X88969376Y-155753233D02*
X89016995Y-155848471D01*
X89016995Y-155848471D02*
X89064614Y-155896090D01*
X89064614Y-155896090D02*
X89159852Y-155943709D01*
X109510878Y-115133492D02*
X109606116Y-115181111D01*
X109606116Y-115181111D02*
X109701354Y-115276350D01*
X109701354Y-115276350D02*
X109844211Y-115419207D01*
X109844211Y-115419207D02*
X109939449Y-115466826D01*
X109939449Y-115466826D02*
X110034687Y-115466826D01*
X109987068Y-115228730D02*
X110082306Y-115276350D01*
X110082306Y-115276350D02*
X110177544Y-115371588D01*
X110177544Y-115371588D02*
X110225163Y-115562064D01*
X110225163Y-115562064D02*
X110225163Y-115895397D01*
X110225163Y-115895397D02*
X110177544Y-116085873D01*
X110177544Y-116085873D02*
X110082306Y-116181111D01*
X110082306Y-116181111D02*
X109987068Y-116228730D01*
X109987068Y-116228730D02*
X109796592Y-116228730D01*
X109796592Y-116228730D02*
X109701354Y-116181111D01*
X109701354Y-116181111D02*
X109606116Y-116085873D01*
X109606116Y-116085873D02*
X109558497Y-115895397D01*
X109558497Y-115895397D02*
X109558497Y-115562064D01*
X109558497Y-115562064D02*
X109606116Y-115371588D01*
X109606116Y-115371588D02*
X109701354Y-115276350D01*
X109701354Y-115276350D02*
X109796592Y-115228730D01*
X109796592Y-115228730D02*
X109987068Y-115228730D01*
X108606116Y-115228730D02*
X109177544Y-115228730D01*
X108891830Y-115228730D02*
X108891830Y-116228730D01*
X108891830Y-116228730D02*
X108987068Y-116085873D01*
X108987068Y-116085873D02*
X109082306Y-115990635D01*
X109082306Y-115990635D02*
X109177544Y-115943016D01*
X107987068Y-116228730D02*
X107891830Y-116228730D01*
X107891830Y-116228730D02*
X107796592Y-116181111D01*
X107796592Y-116181111D02*
X107748973Y-116133492D01*
X107748973Y-116133492D02*
X107701354Y-116038254D01*
X107701354Y-116038254D02*
X107653735Y-115847778D01*
X107653735Y-115847778D02*
X107653735Y-115609683D01*
X107653735Y-115609683D02*
X107701354Y-115419207D01*
X107701354Y-115419207D02*
X107748973Y-115323969D01*
X107748973Y-115323969D02*
X107796592Y-115276350D01*
X107796592Y-115276350D02*
X107891830Y-115228730D01*
X107891830Y-115228730D02*
X107987068Y-115228730D01*
X107987068Y-115228730D02*
X108082306Y-115276350D01*
X108082306Y-115276350D02*
X108129925Y-115323969D01*
X108129925Y-115323969D02*
X108177544Y-115419207D01*
X108177544Y-115419207D02*
X108225163Y-115609683D01*
X108225163Y-115609683D02*
X108225163Y-115847778D01*
X108225163Y-115847778D02*
X108177544Y-116038254D01*
X108177544Y-116038254D02*
X108129925Y-116133492D01*
X108129925Y-116133492D02*
X108082306Y-116181111D01*
X108082306Y-116181111D02*
X107987068Y-116228730D01*
X129510878Y-154633492D02*
X129606116Y-154681111D01*
X129606116Y-154681111D02*
X129701354Y-154776350D01*
X129701354Y-154776350D02*
X129844211Y-154919207D01*
X129844211Y-154919207D02*
X129939449Y-154966826D01*
X129939449Y-154966826D02*
X130034687Y-154966826D01*
X129987068Y-154728730D02*
X130082306Y-154776350D01*
X130082306Y-154776350D02*
X130177544Y-154871588D01*
X130177544Y-154871588D02*
X130225163Y-155062064D01*
X130225163Y-155062064D02*
X130225163Y-155395397D01*
X130225163Y-155395397D02*
X130177544Y-155585873D01*
X130177544Y-155585873D02*
X130082306Y-155681111D01*
X130082306Y-155681111D02*
X129987068Y-155728730D01*
X129987068Y-155728730D02*
X129796592Y-155728730D01*
X129796592Y-155728730D02*
X129701354Y-155681111D01*
X129701354Y-155681111D02*
X129606116Y-155585873D01*
X129606116Y-155585873D02*
X129558497Y-155395397D01*
X129558497Y-155395397D02*
X129558497Y-155062064D01*
X129558497Y-155062064D02*
X129606116Y-154871588D01*
X129606116Y-154871588D02*
X129701354Y-154776350D01*
X129701354Y-154776350D02*
X129796592Y-154728730D01*
X129796592Y-154728730D02*
X129987068Y-154728730D01*
X128606116Y-154728730D02*
X129177544Y-154728730D01*
X128891830Y-154728730D02*
X128891830Y-155728730D01*
X128891830Y-155728730D02*
X128987068Y-155585873D01*
X128987068Y-155585873D02*
X129082306Y-155490635D01*
X129082306Y-155490635D02*
X129177544Y-155443016D01*
X127748973Y-155728730D02*
X127939449Y-155728730D01*
X127939449Y-155728730D02*
X128034687Y-155681111D01*
X128034687Y-155681111D02*
X128082306Y-155633492D01*
X128082306Y-155633492D02*
X128177544Y-155490635D01*
X128177544Y-155490635D02*
X128225163Y-155300159D01*
X128225163Y-155300159D02*
X128225163Y-154919207D01*
X128225163Y-154919207D02*
X128177544Y-154823969D01*
X128177544Y-154823969D02*
X128129925Y-154776350D01*
X128129925Y-154776350D02*
X128034687Y-154728730D01*
X128034687Y-154728730D02*
X127844211Y-154728730D01*
X127844211Y-154728730D02*
X127748973Y-154776350D01*
X127748973Y-154776350D02*
X127701354Y-154823969D01*
X127701354Y-154823969D02*
X127653735Y-154919207D01*
X127653735Y-154919207D02*
X127653735Y-155157302D01*
X127653735Y-155157302D02*
X127701354Y-155252540D01*
X127701354Y-155252540D02*
X127748973Y-155300159D01*
X127748973Y-155300159D02*
X127844211Y-155347778D01*
X127844211Y-155347778D02*
X128034687Y-155347778D01*
X128034687Y-155347778D02*
X128129925Y-155300159D01*
X128129925Y-155300159D02*
X128177544Y-155252540D01*
X128177544Y-155252540D02*
X128225163Y-155157302D01*
X91666666Y-52204819D02*
X91666666Y-52919104D01*
X91666666Y-52919104D02*
X91619047Y-53061961D01*
X91619047Y-53061961D02*
X91523809Y-53157200D01*
X91523809Y-53157200D02*
X91380952Y-53204819D01*
X91380952Y-53204819D02*
X91285714Y-53204819D01*
X92095238Y-52300057D02*
X92142857Y-52252438D01*
X92142857Y-52252438D02*
X92238095Y-52204819D01*
X92238095Y-52204819D02*
X92476190Y-52204819D01*
X92476190Y-52204819D02*
X92571428Y-52252438D01*
X92571428Y-52252438D02*
X92619047Y-52300057D01*
X92619047Y-52300057D02*
X92666666Y-52395295D01*
X92666666Y-52395295D02*
X92666666Y-52490533D01*
X92666666Y-52490533D02*
X92619047Y-52633390D01*
X92619047Y-52633390D02*
X92047619Y-53204819D01*
X92047619Y-53204819D02*
X92666666Y-53204819D01*
X71916666Y-52204819D02*
X71916666Y-52919104D01*
X71916666Y-52919104D02*
X71869047Y-53061961D01*
X71869047Y-53061961D02*
X71773809Y-53157200D01*
X71773809Y-53157200D02*
X71630952Y-53204819D01*
X71630952Y-53204819D02*
X71535714Y-53204819D01*
X72916666Y-53204819D02*
X72345238Y-53204819D01*
X72630952Y-53204819D02*
X72630952Y-52204819D01*
X72630952Y-52204819D02*
X72535714Y-52347676D01*
X72535714Y-52347676D02*
X72440476Y-52442914D01*
X72440476Y-52442914D02*
X72345238Y-52490533D01*
X102857142Y-120124819D02*
X102523809Y-119648628D01*
X102285714Y-120124819D02*
X102285714Y-119124819D01*
X102285714Y-119124819D02*
X102666666Y-119124819D01*
X102666666Y-119124819D02*
X102761904Y-119172438D01*
X102761904Y-119172438D02*
X102809523Y-119220057D01*
X102809523Y-119220057D02*
X102857142Y-119315295D01*
X102857142Y-119315295D02*
X102857142Y-119458152D01*
X102857142Y-119458152D02*
X102809523Y-119553390D01*
X102809523Y-119553390D02*
X102761904Y-119601009D01*
X102761904Y-119601009D02*
X102666666Y-119648628D01*
X102666666Y-119648628D02*
X102285714Y-119648628D01*
X103238095Y-119220057D02*
X103285714Y-119172438D01*
X103285714Y-119172438D02*
X103380952Y-119124819D01*
X103380952Y-119124819D02*
X103619047Y-119124819D01*
X103619047Y-119124819D02*
X103714285Y-119172438D01*
X103714285Y-119172438D02*
X103761904Y-119220057D01*
X103761904Y-119220057D02*
X103809523Y-119315295D01*
X103809523Y-119315295D02*
X103809523Y-119410533D01*
X103809523Y-119410533D02*
X103761904Y-119553390D01*
X103761904Y-119553390D02*
X103190476Y-120124819D01*
X103190476Y-120124819D02*
X103809523Y-120124819D01*
X104380952Y-119553390D02*
X104285714Y-119505771D01*
X104285714Y-119505771D02*
X104238095Y-119458152D01*
X104238095Y-119458152D02*
X104190476Y-119362914D01*
X104190476Y-119362914D02*
X104190476Y-119315295D01*
X104190476Y-119315295D02*
X104238095Y-119220057D01*
X104238095Y-119220057D02*
X104285714Y-119172438D01*
X104285714Y-119172438D02*
X104380952Y-119124819D01*
X104380952Y-119124819D02*
X104571428Y-119124819D01*
X104571428Y-119124819D02*
X104666666Y-119172438D01*
X104666666Y-119172438D02*
X104714285Y-119220057D01*
X104714285Y-119220057D02*
X104761904Y-119315295D01*
X104761904Y-119315295D02*
X104761904Y-119362914D01*
X104761904Y-119362914D02*
X104714285Y-119458152D01*
X104714285Y-119458152D02*
X104666666Y-119505771D01*
X104666666Y-119505771D02*
X104571428Y-119553390D01*
X104571428Y-119553390D02*
X104380952Y-119553390D01*
X104380952Y-119553390D02*
X104285714Y-119601009D01*
X104285714Y-119601009D02*
X104238095Y-119648628D01*
X104238095Y-119648628D02*
X104190476Y-119743866D01*
X104190476Y-119743866D02*
X104190476Y-119934342D01*
X104190476Y-119934342D02*
X104238095Y-120029580D01*
X104238095Y-120029580D02*
X104285714Y-120077200D01*
X104285714Y-120077200D02*
X104380952Y-120124819D01*
X104380952Y-120124819D02*
X104571428Y-120124819D01*
X104571428Y-120124819D02*
X104666666Y-120077200D01*
X104666666Y-120077200D02*
X104714285Y-120029580D01*
X104714285Y-120029580D02*
X104761904Y-119934342D01*
X104761904Y-119934342D02*
X104761904Y-119743866D01*
X104761904Y-119743866D02*
X104714285Y-119648628D01*
X104714285Y-119648628D02*
X104666666Y-119601009D01*
X104666666Y-119601009D02*
X104571428Y-119553390D01*
D12*
X83957064Y-117265000D02*
X83502936Y-117265000D01*
X83957064Y-118735000D02*
X83502936Y-118735000D01*
D13*
X71380256Y-114055500D02*
X67253244Y-114055500D01*
X66772653Y-114778435D02*
G75*
G02*
X67152586Y-114105060I2544097J-991565D01*
G01*
X71480914Y-114105060D02*
G75*
G02*
X71860232Y-114776859I-2164164J-1664940D01*
G01*
X71860233Y-116763140D02*
G75*
G02*
X66772653Y-116761565I-2543483J993140D01*
G01*
X73952250Y-115770000D02*
G75*
G02*
X73698250Y-115770000I-127000J0D01*
G01*
X73698250Y-115770000D02*
G75*
G02*
X73952250Y-115770000I127000J0D01*
G01*
D12*
X63977064Y-157015000D02*
X63522936Y-157015000D01*
X63977064Y-158485000D02*
X63522936Y-158485000D01*
X127227064Y-140715000D02*
X126772936Y-140715000D01*
X127227064Y-139245000D02*
X126772936Y-139245000D01*
X127227064Y-160755000D02*
X126772936Y-160755000D01*
X127227064Y-159285000D02*
X126772936Y-159285000D01*
D13*
X118635000Y-153313000D02*
X117365000Y-153313000D01*
X118000000Y-152678000D02*
X118000000Y-153948000D01*
X121175000Y-157250000D02*
G75*
G02*
X114825000Y-157250000I-3175000J0D01*
G01*
X114825000Y-157250000D02*
G75*
G02*
X121175000Y-157250000I3175000J0D01*
G01*
X78396750Y-132844750D02*
X78396750Y-134114750D01*
X79031750Y-133479750D02*
X77761750Y-133479750D01*
X81571750Y-137416750D02*
G75*
G02*
X75221750Y-137416750I-3175000J0D01*
G01*
X75221750Y-137416750D02*
G75*
G02*
X81571750Y-137416750I3175000J0D01*
G01*
D12*
X66011252Y-65015000D02*
X65488748Y-65015000D01*
X66011252Y-66485000D02*
X65488748Y-66485000D01*
X63643814Y-135465000D02*
X63189686Y-135465000D01*
X63643814Y-133995000D02*
X63189686Y-133995000D01*
X103727064Y-158818250D02*
X103272936Y-158818250D01*
X103727064Y-157348250D02*
X103272936Y-157348250D01*
X123727064Y-138215000D02*
X123272936Y-138215000D01*
X123727064Y-136745000D02*
X123272936Y-136745000D01*
X83957064Y-113765000D02*
X83502936Y-113765000D01*
X83957064Y-115235000D02*
X83502936Y-115235000D01*
D13*
X58250000Y-112928000D02*
X58250000Y-114198000D01*
X58885000Y-113563000D02*
X57615000Y-113563000D01*
X61425000Y-117500000D02*
G75*
G02*
X55075000Y-117500000I-3175000J0D01*
G01*
X55075000Y-117500000D02*
G75*
G02*
X61425000Y-117500000I3175000J0D01*
G01*
D14*
X70500000Y-60000000D02*
X74000000Y-60000000D01*
X70500000Y-66500000D02*
X70500000Y-60000000D01*
X70500000Y-66500000D02*
X74000000Y-66500000D01*
X74000000Y-66500000D02*
X74000000Y-60000000D01*
D15*
X67550000Y-60950000D02*
G75*
G02*
X67350000Y-60950000I-100000J0D01*
G01*
X67350000Y-60950000D02*
G75*
G02*
X67550000Y-60950000I100000J0D01*
G01*
D12*
X123814564Y-114485000D02*
X123360436Y-114485000D01*
X123814564Y-113015000D02*
X123360436Y-113015000D01*
X87457064Y-119765000D02*
X87002936Y-119765000D01*
X87457064Y-121235000D02*
X87002936Y-121235000D01*
D13*
X91457406Y-93997600D02*
X87330394Y-93997600D01*
X86849803Y-94720535D02*
G75*
G02*
X87229736Y-94047160I2544097J-991565D01*
G01*
X91558064Y-94047160D02*
G75*
G02*
X91937382Y-94718959I-2164164J-1664940D01*
G01*
X91937383Y-96705240D02*
G75*
G02*
X86849803Y-96703665I-2543483J993140D01*
G01*
X94029400Y-95712100D02*
G75*
G02*
X93775400Y-95712100I-127000J0D01*
G01*
X93775400Y-95712100D02*
G75*
G02*
X94029400Y-95712100I127000J0D01*
G01*
D12*
X87623814Y-140015000D02*
X87169686Y-140015000D01*
X87623814Y-141485000D02*
X87169686Y-141485000D01*
D13*
X73491700Y-135893550D02*
G75*
G02*
X73237700Y-135893550I-127000J0D01*
G01*
X73237700Y-135893550D02*
G75*
G02*
X73491700Y-135893550I127000J0D01*
G01*
X71399683Y-136886690D02*
G75*
G02*
X66312103Y-136885115I-2543483J993140D01*
G01*
X71020364Y-134228610D02*
G75*
G02*
X71399682Y-134900409I-2164164J-1664940D01*
G01*
X66312103Y-134901985D02*
G75*
G02*
X66692036Y-134228610I2544097J-991565D01*
G01*
X70919706Y-134179050D02*
X66792694Y-134179050D01*
D12*
X84227064Y-153765000D02*
X83772936Y-153765000D01*
X84227064Y-155235000D02*
X83772936Y-155235000D01*
D13*
X71063506Y-93785500D02*
X66936494Y-93785500D01*
X66455903Y-94508435D02*
G75*
G02*
X66835836Y-93835060I2544097J-991565D01*
G01*
X71164164Y-93835060D02*
G75*
G02*
X71543482Y-94506859I-2164164J-1664940D01*
G01*
X71543483Y-96493140D02*
G75*
G02*
X66455903Y-96491565I-2543483J993140D01*
G01*
X73635500Y-95500000D02*
G75*
G02*
X73381500Y-95500000I-127000J0D01*
G01*
X73381500Y-95500000D02*
G75*
G02*
X73635500Y-95500000I127000J0D01*
G01*
X64593000Y-80373500D02*
X64909825Y-80373500D01*
X67070175Y-80373500D02*
X67449825Y-80373500D01*
X69610175Y-80373500D02*
X69989825Y-80373500D01*
X72150175Y-80373500D02*
X72529825Y-80373500D01*
X74690175Y-80373500D02*
X75069825Y-80373500D01*
X77230175Y-80373500D02*
X77609825Y-80373500D01*
X79770175Y-80373500D02*
X80149825Y-80373500D01*
X82310175Y-80373500D02*
X82689825Y-80373500D01*
X84850175Y-80373500D02*
X85229825Y-80373500D01*
X87390175Y-80373500D02*
X87769825Y-80373500D01*
X89930175Y-80373500D02*
X90309825Y-80373500D01*
X92470175Y-80373500D02*
X92849825Y-80373500D01*
X95010175Y-80373500D02*
X95389825Y-80373500D01*
X97550175Y-80373500D02*
X97929825Y-80373500D01*
X100090175Y-80373500D02*
X100407000Y-80373500D01*
X100407000Y-80373500D02*
X100407000Y-72626500D01*
X64593000Y-72626500D02*
X64593000Y-80373500D01*
X64909825Y-72626500D02*
X64593000Y-72626500D01*
X67449825Y-72626500D02*
X67070175Y-72626500D01*
X69989825Y-72626500D02*
X69610175Y-72626500D01*
X72529825Y-72626500D02*
X72150175Y-72626500D01*
X75069825Y-72626500D02*
X74690175Y-72626500D01*
X77609825Y-72626500D02*
X77230175Y-72626500D01*
X80149825Y-72626500D02*
X79770175Y-72626500D01*
X82689825Y-72626500D02*
X82310175Y-72626500D01*
X85229825Y-72626500D02*
X84850175Y-72626500D01*
X87769825Y-72626500D02*
X87390175Y-72626500D01*
X90309825Y-72626500D02*
X89930175Y-72626500D01*
X92849825Y-72626500D02*
X92470175Y-72626500D01*
X95389825Y-72626500D02*
X95010175Y-72626500D01*
X97927960Y-72626500D02*
X97550175Y-72626500D01*
X100407000Y-72626500D02*
X100092040Y-72626500D01*
X78115000Y-92813000D02*
X78115000Y-94083000D01*
X78750000Y-93448000D02*
X77480000Y-93448000D01*
X81290000Y-97385000D02*
G75*
G02*
X74940000Y-97385000I-3175000J0D01*
G01*
X74940000Y-97385000D02*
G75*
G02*
X81290000Y-97385000I3175000J0D01*
G01*
X98635000Y-153313000D02*
X97365000Y-153313000D01*
X98000000Y-152678000D02*
X98000000Y-153948000D01*
X101175000Y-157250000D02*
G75*
G02*
X94825000Y-157250000I-3175000J0D01*
G01*
X94825000Y-157250000D02*
G75*
G02*
X101175000Y-157250000I3175000J0D01*
G01*
D12*
X84123814Y-134015000D02*
X83669686Y-134015000D01*
X84123814Y-135485000D02*
X83669686Y-135485000D01*
D13*
X118635000Y-113313000D02*
X117365000Y-113313000D01*
X118000000Y-112678000D02*
X118000000Y-113948000D01*
X121175000Y-117250000D02*
G75*
G02*
X114825000Y-117250000I-3175000J0D01*
G01*
X114825000Y-117250000D02*
G75*
G02*
X121175000Y-117250000I3175000J0D01*
G01*
X111002956Y-94032300D02*
X106875944Y-94032300D01*
X111482933Y-96739940D02*
G75*
G02*
X106395353Y-96738365I-2543483J993140D01*
G01*
X111103614Y-94081860D02*
G75*
G02*
X111482932Y-94753659I-2164164J-1664940D01*
G01*
X106395353Y-94755235D02*
G75*
G02*
X106775286Y-94081860I2544097J-991565D01*
G01*
X113574950Y-95746800D02*
G75*
G02*
X113320950Y-95746800I-127000J0D01*
G01*
X113320950Y-95746800D02*
G75*
G02*
X113574950Y-95746800I127000J0D01*
G01*
X78230000Y-112928000D02*
X78230000Y-114198000D01*
X78865000Y-113563000D02*
X77595000Y-113563000D01*
X81405000Y-117500000D02*
G75*
G02*
X75055000Y-117500000I-3175000J0D01*
G01*
X75055000Y-117500000D02*
G75*
G02*
X81405000Y-117500000I3175000J0D01*
G01*
X78500000Y-152928000D02*
X78500000Y-154198000D01*
X79135000Y-153563000D02*
X77865000Y-153563000D01*
X81675000Y-157500000D02*
G75*
G02*
X75325000Y-157500000I-3175000J0D01*
G01*
X75325000Y-157500000D02*
G75*
G02*
X81675000Y-157500000I3175000J0D01*
G01*
D12*
X123727064Y-134715000D02*
X123272936Y-134715000D01*
X123727064Y-133245000D02*
X123272936Y-133245000D01*
D13*
X98635000Y-133313000D02*
X97365000Y-133313000D01*
X98000000Y-132678000D02*
X98000000Y-133948000D01*
X101175000Y-137250000D02*
G75*
G02*
X94825000Y-137250000I-3175000J0D01*
G01*
X94825000Y-137250000D02*
G75*
G02*
X101175000Y-137250000I3175000J0D01*
G01*
X71252956Y-153699050D02*
X67125944Y-153699050D01*
X66645353Y-154421985D02*
G75*
G02*
X67025286Y-153748610I2544097J-991565D01*
G01*
X71353614Y-153748610D02*
G75*
G02*
X71732932Y-154420409I-2164164J-1664940D01*
G01*
X71732933Y-156406690D02*
G75*
G02*
X66645353Y-156405115I-2543483J993140D01*
G01*
X73824950Y-155413550D02*
G75*
G02*
X73570950Y-155413550I-127000J0D01*
G01*
X73570950Y-155413550D02*
G75*
G02*
X73824950Y-155413550I127000J0D01*
G01*
X91232956Y-113949050D02*
X87105944Y-113949050D01*
X86625353Y-114671985D02*
G75*
G02*
X87005286Y-113998610I2544097J-991565D01*
G01*
X91333614Y-113998610D02*
G75*
G02*
X91712932Y-114670409I-2164164J-1664940D01*
G01*
X91712933Y-116656690D02*
G75*
G02*
X86625353Y-116655115I-2543483J993140D01*
G01*
X93804950Y-115663550D02*
G75*
G02*
X93550950Y-115663550I-127000J0D01*
G01*
X93550950Y-115663550D02*
G75*
G02*
X93804950Y-115663550I127000J0D01*
G01*
D12*
X63977064Y-153515000D02*
X63522936Y-153515000D01*
X63977064Y-154985000D02*
X63522936Y-154985000D01*
X84227064Y-157265000D02*
X83772936Y-157265000D01*
X84227064Y-158735000D02*
X83772936Y-158735000D01*
D13*
X118635000Y-93313000D02*
X117365000Y-93313000D01*
X118000000Y-92678000D02*
X118000000Y-93948000D01*
X121175000Y-97250000D02*
G75*
G02*
X114825000Y-97250000I-3175000J0D01*
G01*
X114825000Y-97250000D02*
G75*
G02*
X121175000Y-97250000I3175000J0D01*
G01*
D12*
X126727064Y-101485000D02*
X126272936Y-101485000D01*
X126727064Y-100015000D02*
X126272936Y-100015000D01*
D13*
X131342406Y-133592600D02*
X127215394Y-133592600D01*
X131822383Y-136300240D02*
G75*
G02*
X126734803Y-136298665I-2543483J993140D01*
G01*
X131443064Y-133642160D02*
G75*
G02*
X131822382Y-134313959I-2164164J-1664940D01*
G01*
X126734803Y-134315535D02*
G75*
G02*
X127114736Y-133642160I2544097J-991565D01*
G01*
X133914400Y-135307100D02*
G75*
G02*
X133660400Y-135307100I-127000J0D01*
G01*
X133660400Y-135307100D02*
G75*
G02*
X133914400Y-135307100I127000J0D01*
G01*
D12*
X123727064Y-158255000D02*
X123272936Y-158255000D01*
X123727064Y-156785000D02*
X123272936Y-156785000D01*
D13*
X118635000Y-133313000D02*
X117365000Y-133313000D01*
X118000000Y-132678000D02*
X118000000Y-133948000D01*
X121175000Y-137250000D02*
G75*
G02*
X114825000Y-137250000I-3175000J0D01*
G01*
X114825000Y-137250000D02*
G75*
G02*
X121175000Y-137250000I3175000J0D01*
G01*
D12*
X66787614Y-99601450D02*
X66333486Y-99601450D01*
X66787614Y-101071450D02*
X66333486Y-101071450D01*
X63485000Y-85772936D02*
X63485000Y-86227064D01*
X62015000Y-85772936D02*
X62015000Y-86227064D01*
X103727064Y-98818250D02*
X103272936Y-98818250D01*
X103727064Y-97348250D02*
X103272936Y-97348250D01*
X66943814Y-119871450D02*
X66489686Y-119871450D01*
X66943814Y-121341450D02*
X66489686Y-121341450D01*
X67227064Y-85985000D02*
X66772936Y-85985000D01*
X67227064Y-84515000D02*
X66772936Y-84515000D01*
X63787614Y-97101450D02*
X63333486Y-97101450D01*
X63787614Y-98571450D02*
X63333486Y-98571450D01*
X123727064Y-117985000D02*
X123272936Y-117985000D01*
X123727064Y-116515000D02*
X123272936Y-116515000D01*
X103727064Y-113785000D02*
X103272936Y-113785000D01*
X103727064Y-115255000D02*
X103272936Y-115255000D01*
X123727064Y-98985000D02*
X123272936Y-98985000D01*
X123727064Y-97515000D02*
X123272936Y-97515000D01*
X123727064Y-95485000D02*
X123272936Y-95485000D01*
X123727064Y-94015000D02*
X123272936Y-94015000D01*
X103727064Y-95318250D02*
X103272936Y-95318250D01*
X103727064Y-93848250D02*
X103272936Y-93848250D01*
D13*
X101175000Y-117250000D02*
G75*
G02*
X94825000Y-117250000I-3175000J0D01*
G01*
X94825000Y-117250000D02*
G75*
G02*
X101175000Y-117250000I3175000J0D01*
G01*
X98000000Y-112678000D02*
X98000000Y-113948000D01*
X98635000Y-113313000D02*
X97365000Y-113313000D01*
D12*
X83842064Y-94150000D02*
X83387936Y-94150000D01*
X83842064Y-95620000D02*
X83387936Y-95620000D01*
X66643814Y-141465000D02*
X66189686Y-141465000D01*
X66643814Y-139995000D02*
X66189686Y-139995000D01*
X107227064Y-101318250D02*
X106772936Y-101318250D01*
X107227064Y-99848250D02*
X106772936Y-99848250D01*
D13*
X58250000Y-152948000D02*
X58250000Y-154218000D01*
X58885000Y-153583000D02*
X57615000Y-153583000D01*
X61425000Y-157520000D02*
G75*
G02*
X55075000Y-157520000I-3175000J0D01*
G01*
X55075000Y-157520000D02*
G75*
G02*
X61425000Y-157520000I3175000J0D01*
G01*
D12*
X63943814Y-113871450D02*
X63489686Y-113871450D01*
X63943814Y-115341450D02*
X63489686Y-115341450D01*
X103727064Y-138818250D02*
X103272936Y-138818250D01*
X103727064Y-137348250D02*
X103272936Y-137348250D01*
X83842064Y-97650000D02*
X83387936Y-97650000D01*
X83842064Y-99120000D02*
X83387936Y-99120000D01*
D13*
X111002956Y-154032300D02*
X106875944Y-154032300D01*
X111482933Y-156739940D02*
G75*
G02*
X106395353Y-156738365I-2543483J993140D01*
G01*
X111103614Y-154081860D02*
G75*
G02*
X111482932Y-154753659I-2164164J-1664940D01*
G01*
X106395353Y-154755235D02*
G75*
G02*
X106775286Y-154081860I2544097J-991565D01*
G01*
X113574950Y-155746800D02*
G75*
G02*
X113320950Y-155746800I-127000J0D01*
G01*
X113320950Y-155746800D02*
G75*
G02*
X113574950Y-155746800I127000J0D01*
G01*
X111002956Y-134032300D02*
X106875944Y-134032300D01*
X111482933Y-136739940D02*
G75*
G02*
X106395353Y-136738365I-2543483J993140D01*
G01*
X111103614Y-134081860D02*
G75*
G02*
X111482932Y-134753659I-2164164J-1664940D01*
G01*
X106395353Y-134755235D02*
G75*
G02*
X106775286Y-134081860I2544097J-991565D01*
G01*
X113574950Y-135746800D02*
G75*
G02*
X113320950Y-135746800I-127000J0D01*
G01*
X113320950Y-135746800D02*
G75*
G02*
X113574950Y-135746800I127000J0D01*
G01*
D12*
X63643814Y-138965000D02*
X63189686Y-138965000D01*
X63643814Y-137495000D02*
X63189686Y-137495000D01*
X87727064Y-159765000D02*
X87272936Y-159765000D01*
X87727064Y-161235000D02*
X87272936Y-161235000D01*
X65515000Y-61488748D02*
X65515000Y-62011252D01*
X66985000Y-61488748D02*
X66985000Y-62011252D01*
D13*
X131342406Y-113362600D02*
X127215394Y-113362600D01*
X131822383Y-116070240D02*
G75*
G02*
X126734803Y-116068665I-2543483J993140D01*
G01*
X131443064Y-113412160D02*
G75*
G02*
X131822382Y-114083959I-2164164J-1664940D01*
G01*
X126734803Y-114085535D02*
G75*
G02*
X127114736Y-113412160I2544097J-991565D01*
G01*
X133914400Y-115077100D02*
G75*
G02*
X133660400Y-115077100I-127000J0D01*
G01*
X133660400Y-115077100D02*
G75*
G02*
X133914400Y-115077100I127000J0D01*
G01*
D12*
X67477064Y-159515000D02*
X67022936Y-159515000D01*
X67477064Y-160985000D02*
X67022936Y-160985000D01*
D13*
X61425000Y-137500000D02*
G75*
G02*
X55075000Y-137500000I-3175000J0D01*
G01*
X55075000Y-137500000D02*
G75*
G02*
X61425000Y-137500000I3175000J0D01*
G01*
X58885000Y-133563000D02*
X57615000Y-133563000D01*
X58250000Y-132928000D02*
X58250000Y-134198000D01*
D12*
X107227064Y-119785000D02*
X106772936Y-119785000D01*
X107227064Y-121255000D02*
X106772936Y-121255000D01*
X63787614Y-93601450D02*
X63333486Y-93601450D01*
X63787614Y-95071450D02*
X63333486Y-95071450D01*
X107227064Y-161318250D02*
X106772936Y-161318250D01*
X107227064Y-159848250D02*
X106772936Y-159848250D01*
X127227064Y-120485000D02*
X126772936Y-120485000D01*
X127227064Y-119015000D02*
X126772936Y-119015000D01*
D13*
X58060550Y-92764450D02*
X58060550Y-94034450D01*
X58695550Y-93399450D02*
X57425550Y-93399450D01*
X61235550Y-97336450D02*
G75*
G02*
X54885550Y-97336450I-3175000J0D01*
G01*
X54885550Y-97336450D02*
G75*
G02*
X61235550Y-97336450I3175000J0D01*
G01*
D12*
X63943814Y-117371450D02*
X63489686Y-117371450D01*
X63943814Y-118841450D02*
X63489686Y-118841450D01*
X103727064Y-135318250D02*
X103272936Y-135318250D01*
X103727064Y-133848250D02*
X103272936Y-133848250D01*
D13*
X131002956Y-94199050D02*
X126875944Y-94199050D01*
X131482933Y-96906690D02*
G75*
G02*
X126395353Y-96905115I-2543483J993140D01*
G01*
X131103614Y-94248610D02*
G75*
G02*
X131482932Y-94920409I-2164164J-1664940D01*
G01*
X126395353Y-94921985D02*
G75*
G02*
X126775286Y-94248610I2544097J-991565D01*
G01*
X133574950Y-95913550D02*
G75*
G02*
X133320950Y-95913550I-127000J0D01*
G01*
X133320950Y-95913550D02*
G75*
G02*
X133574950Y-95913550I127000J0D01*
G01*
X91399706Y-134199050D02*
X87272694Y-134199050D01*
X86792103Y-134921985D02*
G75*
G02*
X87172036Y-134248610I2544097J-991565D01*
G01*
X91500364Y-134248610D02*
G75*
G02*
X91879682Y-134920409I-2164164J-1664940D01*
G01*
X91879683Y-136906690D02*
G75*
G02*
X86792103Y-136905115I-2543483J993140D01*
G01*
X93971700Y-135913550D02*
G75*
G02*
X93717700Y-135913550I-127000J0D01*
G01*
X93717700Y-135913550D02*
G75*
G02*
X93971700Y-135913550I127000J0D01*
G01*
D12*
X103727064Y-155318250D02*
X103272936Y-155318250D01*
X103727064Y-153848250D02*
X103272936Y-153848250D01*
X84123814Y-137515000D02*
X83669686Y-137515000D01*
X84123814Y-138985000D02*
X83669686Y-138985000D01*
X87842064Y-99650000D02*
X87387936Y-99650000D01*
X87842064Y-101120000D02*
X87387936Y-101120000D01*
X123727064Y-154755000D02*
X123272936Y-154755000D01*
X123727064Y-153285000D02*
X123272936Y-153285000D01*
D13*
X98635000Y-93313000D02*
X97365000Y-93313000D01*
X98000000Y-92678000D02*
X98000000Y-93948000D01*
X101175000Y-97250000D02*
G75*
G02*
X94825000Y-97250000I-3175000J0D01*
G01*
X94825000Y-97250000D02*
G75*
G02*
X101175000Y-97250000I3175000J0D01*
G01*
D12*
X106727064Y-141318250D02*
X106272936Y-141318250D01*
X106727064Y-139848250D02*
X106272936Y-139848250D01*
D13*
X91842406Y-154112600D02*
X87715394Y-154112600D01*
X87234803Y-154835535D02*
G75*
G02*
X87614736Y-154162160I2544097J-991565D01*
G01*
X91943064Y-154162160D02*
G75*
G02*
X92322382Y-154833959I-2164164J-1664940D01*
G01*
X92322383Y-156820240D02*
G75*
G02*
X87234803Y-156818665I-2543483J993140D01*
G01*
X94414400Y-155827100D02*
G75*
G02*
X94160400Y-155827100I-127000J0D01*
G01*
X94160400Y-155827100D02*
G75*
G02*
X94414400Y-155827100I127000J0D01*
G01*
X113574950Y-115683550D02*
G75*
G02*
X113320950Y-115683550I-127000J0D01*
G01*
X113320950Y-115683550D02*
G75*
G02*
X113574950Y-115683550I127000J0D01*
G01*
X106395353Y-114691985D02*
G75*
G02*
X106775286Y-114018610I2544097J-991565D01*
G01*
X111103614Y-114018610D02*
G75*
G02*
X111482932Y-114690409I-2164164J-1664940D01*
G01*
X111482933Y-116676690D02*
G75*
G02*
X106395353Y-116675115I-2543483J993140D01*
G01*
X111002956Y-113969050D02*
X106875944Y-113969050D01*
X131002956Y-153469050D02*
X126875944Y-153469050D01*
X131482933Y-156176690D02*
G75*
G02*
X126395353Y-156175115I-2543483J993140D01*
G01*
X131103614Y-153518610D02*
G75*
G02*
X131482932Y-154190409I-2164164J-1664940D01*
G01*
X126395353Y-154191985D02*
G75*
G02*
X126775286Y-153518610I2544097J-991565D01*
G01*
X133574950Y-155183550D02*
G75*
G02*
X133320950Y-155183550I-127000J0D01*
G01*
X133320950Y-155183550D02*
G75*
G02*
X133574950Y-155183550I127000J0D01*
G01*
X86873000Y-48623000D02*
X86873000Y-57877000D01*
X86873000Y-57877000D02*
X97127000Y-57877000D01*
X97127000Y-48623000D02*
X86873000Y-48623000D01*
X97127000Y-57877000D02*
X97127000Y-48623000D01*
D16*
X85476000Y-52750000D02*
G75*
G02*
X84714000Y-52750000I-381000J0D01*
G01*
X84714000Y-52750000D02*
G75*
G02*
X85476000Y-52750000I381000J0D01*
G01*
D13*
X67123000Y-48623000D02*
X67123000Y-57877000D01*
X67123000Y-57877000D02*
X77377000Y-57877000D01*
X77377000Y-48623000D02*
X67123000Y-48623000D01*
X77377000Y-57877000D02*
X77377000Y-48623000D01*
D16*
X65726000Y-52750000D02*
G75*
G02*
X64964000Y-52750000I-381000J0D01*
G01*
X64964000Y-52750000D02*
G75*
G02*
X65726000Y-52750000I381000J0D01*
G01*
D12*
X103727064Y-117285000D02*
X103272936Y-117285000D01*
X103727064Y-118755000D02*
X103272936Y-118755000D01*
%LPC*%
D17*
X84642500Y-118000000D03*
X82817500Y-118000000D03*
D18*
X66716750Y-115770000D03*
X69316750Y-115770000D03*
D19*
X71916750Y-115770000D03*
D17*
X64662500Y-157750000D03*
X62837500Y-157750000D03*
X127912500Y-139980000D03*
X126087500Y-139980000D03*
X127912500Y-160020000D03*
X126087500Y-160020000D03*
D20*
X118000000Y-155980000D03*
D21*
X118000000Y-157250000D03*
X118000000Y-158520000D03*
D20*
X78396750Y-136146750D03*
D21*
X78396750Y-137416750D03*
X78396750Y-138686750D03*
D22*
X66700000Y-65750000D03*
X64800000Y-65750000D03*
D17*
X62504250Y-134730000D03*
X64329250Y-134730000D03*
X104412500Y-158083250D03*
X102587500Y-158083250D03*
X124412500Y-137480000D03*
X122587500Y-137480000D03*
X84642500Y-114500000D03*
X82817500Y-114500000D03*
D20*
X58250000Y-116230000D03*
D21*
X58250000Y-117500000D03*
X58250000Y-118770000D03*
D23*
X69000000Y-60950000D03*
X69000000Y-63250000D03*
X69000000Y-65550000D03*
D24*
X75500000Y-63250000D03*
D17*
X124500000Y-113750000D03*
X122675000Y-113750000D03*
X88142500Y-120500000D03*
X86317500Y-120500000D03*
D18*
X86793900Y-95712100D03*
X89393900Y-95712100D03*
D19*
X91993900Y-95712100D03*
D17*
X88309250Y-140750000D03*
X86484250Y-140750000D03*
D19*
X71456200Y-135893550D03*
D18*
X68856200Y-135893550D03*
X66256200Y-135893550D03*
D17*
X84912500Y-154500000D03*
X83087500Y-154500000D03*
D18*
X66400000Y-95500000D03*
X69000000Y-95500000D03*
D19*
X71600000Y-95500000D03*
D25*
X99010000Y-72690000D03*
D26*
X96470000Y-72690000D03*
X93930000Y-72690000D03*
X91390000Y-72690000D03*
X88850000Y-72690000D03*
X86310000Y-72690000D03*
X83770000Y-72690000D03*
X81230000Y-72690000D03*
X78690000Y-72690000D03*
X76150000Y-72690000D03*
X73610000Y-72690000D03*
X71070000Y-72690000D03*
X68530000Y-72690000D03*
X65990000Y-72690000D03*
X65990000Y-80310000D03*
X68530000Y-80310000D03*
X71070000Y-80310000D03*
X73610000Y-80310000D03*
X76150000Y-80310000D03*
X78690000Y-80310000D03*
X81230000Y-80310000D03*
X83770000Y-80310000D03*
X86310000Y-80310000D03*
X88850000Y-80310000D03*
X91390000Y-80310000D03*
X93930000Y-80310000D03*
X96470000Y-80310000D03*
X99010000Y-80310000D03*
D20*
X78115000Y-96115000D03*
D21*
X78115000Y-97385000D03*
X78115000Y-98655000D03*
D20*
X98000000Y-155980000D03*
D21*
X98000000Y-157250000D03*
X98000000Y-158520000D03*
D17*
X84809250Y-134750000D03*
X82984250Y-134750000D03*
D20*
X118000000Y-115980000D03*
D21*
X118000000Y-117250000D03*
X118000000Y-118520000D03*
D18*
X106339450Y-95746800D03*
X108939450Y-95746800D03*
D19*
X111539450Y-95746800D03*
D20*
X78230000Y-116230000D03*
D21*
X78230000Y-117500000D03*
X78230000Y-118770000D03*
D20*
X78500000Y-156230000D03*
D21*
X78500000Y-157500000D03*
X78500000Y-158770000D03*
D17*
X124412500Y-133980000D03*
X122587500Y-133980000D03*
D20*
X98000000Y-135980000D03*
D21*
X98000000Y-137250000D03*
X98000000Y-138520000D03*
D18*
X66589450Y-155413550D03*
X69189450Y-155413550D03*
D19*
X71789450Y-155413550D03*
D18*
X86569450Y-115663550D03*
X89169450Y-115663550D03*
D19*
X91769450Y-115663550D03*
D17*
X64662500Y-154250000D03*
X62837500Y-154250000D03*
X84912500Y-158000000D03*
X83087500Y-158000000D03*
D20*
X118000000Y-95980000D03*
D21*
X118000000Y-97250000D03*
X118000000Y-98520000D03*
D17*
X127412500Y-100750000D03*
X125587500Y-100750000D03*
D18*
X126678900Y-135307100D03*
X129278900Y-135307100D03*
D19*
X131878900Y-135307100D03*
D17*
X124412500Y-157520000D03*
X122587500Y-157520000D03*
D20*
X118000000Y-135980000D03*
D21*
X118000000Y-137250000D03*
X118000000Y-138520000D03*
D17*
X67473050Y-100336450D03*
X65648050Y-100336450D03*
D27*
X62750000Y-85087500D03*
X62750000Y-86912500D03*
D17*
X104412500Y-98083250D03*
X102587500Y-98083250D03*
X67629250Y-120606450D03*
X65804250Y-120606450D03*
X67912500Y-85250000D03*
X66087500Y-85250000D03*
X64473050Y-97836450D03*
X62648050Y-97836450D03*
X124412500Y-117250000D03*
X122587500Y-117250000D03*
X102587500Y-114520000D03*
X104412500Y-114520000D03*
X124412500Y-98250000D03*
X122587500Y-98250000D03*
X124412500Y-94750000D03*
X122587500Y-94750000D03*
X104412500Y-94583250D03*
X102587500Y-94583250D03*
D21*
X98000000Y-118520000D03*
X98000000Y-117250000D03*
D20*
X98000000Y-115980000D03*
D17*
X84527500Y-94885000D03*
X82702500Y-94885000D03*
X65504250Y-140730000D03*
X67329250Y-140730000D03*
X107912500Y-100583250D03*
X106087500Y-100583250D03*
D20*
X58250000Y-156250000D03*
D21*
X58250000Y-157520000D03*
X58250000Y-158790000D03*
D17*
X64629250Y-114606450D03*
X62804250Y-114606450D03*
X104412500Y-138083250D03*
X102587500Y-138083250D03*
X84527500Y-98385000D03*
X82702500Y-98385000D03*
D18*
X106339450Y-155746800D03*
X108939450Y-155746800D03*
D19*
X111539450Y-155746800D03*
D18*
X106339450Y-135746800D03*
X108939450Y-135746800D03*
D19*
X111539450Y-135746800D03*
D17*
X62504250Y-138230000D03*
X64329250Y-138230000D03*
X88412500Y-160500000D03*
X86587500Y-160500000D03*
D28*
X66250000Y-60800000D03*
X66250000Y-62700000D03*
D18*
X126678900Y-115077100D03*
X129278900Y-115077100D03*
D19*
X131878900Y-115077100D03*
D17*
X68162500Y-160250000D03*
X66337500Y-160250000D03*
D21*
X58250000Y-138770000D03*
X58250000Y-137500000D03*
D20*
X58250000Y-136230000D03*
D17*
X106087500Y-120520000D03*
X107912500Y-120520000D03*
X64473050Y-94336450D03*
X62648050Y-94336450D03*
X107912500Y-160583250D03*
X106087500Y-160583250D03*
X127912500Y-119750000D03*
X126087500Y-119750000D03*
D20*
X58060550Y-96066450D03*
D21*
X58060550Y-97336450D03*
X58060550Y-98606450D03*
D17*
X64629250Y-118106450D03*
X62804250Y-118106450D03*
X104412500Y-134583250D03*
X102587500Y-134583250D03*
D18*
X126339450Y-95913550D03*
X128939450Y-95913550D03*
D19*
X131539450Y-95913550D03*
D18*
X86736200Y-135913550D03*
X89336200Y-135913550D03*
D19*
X91936200Y-135913550D03*
D17*
X104412500Y-154583250D03*
X102587500Y-154583250D03*
X84809250Y-138250000D03*
X82984250Y-138250000D03*
X88527500Y-100385000D03*
X86702500Y-100385000D03*
X124412500Y-154020000D03*
X122587500Y-154020000D03*
D20*
X98000000Y-95980000D03*
D21*
X98000000Y-97250000D03*
X98000000Y-98520000D03*
D17*
X107412500Y-140583250D03*
X105587500Y-140583250D03*
D18*
X87178900Y-155827100D03*
X89778900Y-155827100D03*
D19*
X92378900Y-155827100D03*
X111539450Y-115683550D03*
D18*
X108939450Y-115683550D03*
X106339450Y-115683550D03*
X126339450Y-155183550D03*
X128939450Y-155183550D03*
D19*
X131539450Y-155183550D03*
D29*
X89500000Y-52750000D03*
X94500000Y-52750000D03*
X69750000Y-52750000D03*
X74750000Y-52750000D03*
D17*
X102587500Y-118020000D03*
X104412500Y-118020000D03*
%LPD*%
M02*
