G04 #@! TF.GenerationSoftware,KiCad,Pcbnew,8.0.0*
G04 #@! TF.CreationDate,2024-03-05T22:41:52-05:00*
G04 #@! TF.ProjectId,CANLight,43414e4c-6967-4687-942e-6b696361645f,rev?*
G04 #@! TF.SameCoordinates,Original*
G04 #@! TF.FileFunction,Paste,Top*
G04 #@! TF.FilePolarity,Positive*
%FSLAX46Y46*%
G04 Gerber Fmt 4.6, Leading zero omitted, Abs format (unit mm)*
G04 Created by KiCad (PCBNEW 8.0.0) date 2024-03-05 22:41:52*
%MOMM*%
%LPD*%
G01*
G04 APERTURE LIST*
G04 Aperture macros list*
%AMRoundRect*
0 Rectangle with rounded corners*
0 $1 Rounding radius*
0 $2 $3 $4 $5 $6 $7 $8 $9 X,Y pos of 4 corners*
0 Add a 4 corners polygon primitive as box body*
4,1,4,$2,$3,$4,$5,$6,$7,$8,$9,$2,$3,0*
0 Add four circle primitives for the rounded corners*
1,1,$1+$1,$2,$3*
1,1,$1+$1,$4,$5*
1,1,$1+$1,$6,$7*
1,1,$1+$1,$8,$9*
0 Add four rect primitives between the rounded corners*
20,1,$1+$1,$2,$3,$4,$5,0*
20,1,$1+$1,$4,$5,$6,$7,0*
20,1,$1+$1,$6,$7,$8,$9,0*
20,1,$1+$1,$8,$9,$2,$3,0*%
G04 Aperture macros list end*
%ADD10RoundRect,0.250000X0.262500X0.450000X-0.262500X0.450000X-0.262500X-0.450000X0.262500X-0.450000X0*%
%ADD11RoundRect,0.250000X0.250000X0.475000X-0.250000X0.475000X-0.250000X-0.475000X0.250000X-0.475000X0*%
%ADD12R,1.500000X0.900000*%
%ADD13R,1.500000X3.200000*%
%ADD14RoundRect,0.250000X-0.450000X0.262500X-0.450000X-0.262500X0.450000X-0.262500X0.450000X0.262500X0*%
%ADD15RoundRect,0.250000X-0.475000X0.250000X-0.475000X-0.250000X0.475000X-0.250000X0.475000X0.250000X0*%
G04 APERTURE END LIST*
D10*
X84642500Y-118000000D03*
X82817500Y-118000000D03*
X64662500Y-157750000D03*
X62837500Y-157750000D03*
X127912500Y-139980000D03*
X126087500Y-139980000D03*
X127912500Y-160020000D03*
X126087500Y-160020000D03*
D11*
X66700000Y-65750000D03*
X64800000Y-65750000D03*
D10*
X62504250Y-134730000D03*
X64329250Y-134730000D03*
X104412500Y-158083250D03*
X102587500Y-158083250D03*
X124412500Y-137480000D03*
X122587500Y-137480000D03*
X84642500Y-114500000D03*
X82817500Y-114500000D03*
D12*
X69000000Y-60950000D03*
X69000000Y-63250000D03*
X69000000Y-65550000D03*
D13*
X75500000Y-63250000D03*
D10*
X124500000Y-113750000D03*
X122675000Y-113750000D03*
X88142500Y-120500000D03*
X86317500Y-120500000D03*
X88309250Y-140750000D03*
X86484250Y-140750000D03*
X84912500Y-154500000D03*
X83087500Y-154500000D03*
X84809250Y-134750000D03*
X82984250Y-134750000D03*
X124412500Y-133980000D03*
X122587500Y-133980000D03*
X64662500Y-154250000D03*
X62837500Y-154250000D03*
X84912500Y-158000000D03*
X83087500Y-158000000D03*
X127412500Y-100750000D03*
X125587500Y-100750000D03*
X124412500Y-157520000D03*
X122587500Y-157520000D03*
X67473050Y-100336450D03*
X65648050Y-100336450D03*
D14*
X62750000Y-85087500D03*
X62750000Y-86912500D03*
D10*
X104412500Y-98083250D03*
X102587500Y-98083250D03*
X67629250Y-120606450D03*
X65804250Y-120606450D03*
X67912500Y-85250000D03*
X66087500Y-85250000D03*
X64473050Y-97836450D03*
X62648050Y-97836450D03*
X124412500Y-117250000D03*
X122587500Y-117250000D03*
X102587500Y-114520000D03*
X104412500Y-114520000D03*
X124412500Y-98250000D03*
X122587500Y-98250000D03*
X124412500Y-94750000D03*
X122587500Y-94750000D03*
X104412500Y-94583250D03*
X102587500Y-94583250D03*
X84527500Y-94885000D03*
X82702500Y-94885000D03*
X65504250Y-140730000D03*
X67329250Y-140730000D03*
X107912500Y-100583250D03*
X106087500Y-100583250D03*
X64629250Y-114606450D03*
X62804250Y-114606450D03*
X104412500Y-138083250D03*
X102587500Y-138083250D03*
X84527500Y-98385000D03*
X82702500Y-98385000D03*
X62504250Y-138230000D03*
X64329250Y-138230000D03*
X88412500Y-160500000D03*
X86587500Y-160500000D03*
D15*
X66250000Y-60800000D03*
X66250000Y-62700000D03*
D10*
X68162500Y-160250000D03*
X66337500Y-160250000D03*
X106087500Y-120520000D03*
X107912500Y-120520000D03*
X64473050Y-94336450D03*
X62648050Y-94336450D03*
X107912500Y-160583250D03*
X106087500Y-160583250D03*
X127912500Y-119750000D03*
X126087500Y-119750000D03*
X64629250Y-118106450D03*
X62804250Y-118106450D03*
X104412500Y-134583250D03*
X102587500Y-134583250D03*
X104412500Y-154583250D03*
X102587500Y-154583250D03*
X84809250Y-138250000D03*
X82984250Y-138250000D03*
X88527500Y-100385000D03*
X86702500Y-100385000D03*
X124412500Y-154020000D03*
X122587500Y-154020000D03*
X107412500Y-140583250D03*
X105587500Y-140583250D03*
X102587500Y-118020000D03*
X104412500Y-118020000D03*
M02*
